<?xml version="1.0" encoding="UTF-8"?>
<!DOCTYPE svg PUBLIC "-//W3C//DTD SVG 1.1//EN" "http://www.w3.org/Graphics/SVG/1.1/DTD/svg11.dtd">
<!-- Creator: CorelDRAW -->
<svg xmlns="http://www.w3.org/2000/svg" xml:space="preserve" width="30mm" height="28mm" style="shape-rendering:geometricPrecision; text-rendering:geometricPrecision; image-rendering:optimizeQuality; fill-rule:evenodd; clip-rule:evenodd"
viewBox="0 0 30 28">
 <defs>
  <style type="text/css">
   <![CDATA[
    .fil0 {fill:#00923F}
    .fil1 {fill:white}
   ]]>
  </style>
 </defs>
 <g id="Capa_x0020_1">
  <metadata id="CorelCorpID_0Corel-Layer"/>
  <path class="fil0" d="M14.3672 27.0551c-15.6369,-1.2472 -16.9252,-23.1608 -1.439,-26.0251 11.32,-1.2745 18.8438,10.5115 12.7727,20.2417 -2.8917,3.8921 -6.5234,5.66 -11.3337,5.7834z"/>
  <path class="fil1" d="M9.8858 22.4503c-0.2467,-0.5071 -0.0137,-9.9769 -0.1371,-9.9221 -0.9319,1.9597 -1.6171,0.6167 -3.5357,-0.2604 -0.4386,-0.8908 1.7816,-4.7966 2.5901,-5.4681 1.0553,-0.603 3.3165,-0.9182 3.7551,0.3974 1.8501,2.8231 1.9872,3.5495 3.988,0.7812 0.3289,-0.5208 0.6578,-1.0416 0.9868,-1.5761 2.4531,0 3.152,-0.2604 4.4128,1.8502 0.4934,1.0963 1.4664,2.7957 1.4664,4.0154 -0.37,0.1645 -2.8642,1.3979 -3.0561,1.2745 -2.3024,-4.6184 0.233,8.0172 -0.6304,8.8806 -3.2754,0 -6.5508,0.0137 -9.8399,0.0274z"/>
  <path class="fil0" d="M16.2447 13.8027c-0.5207,-0.3152 -0.3426,-1.9872 -0.3974,-2.645 -0.0548,-0.6578 4.2895,-0.3289 3.0424,0.4934 -0.0548,2.7546 0.1234,2.1105 -2.645,2.1516z"/>
 </g>
</svg>
