<?xml version="1.0" encoding="UTF-8"?>
<!DOCTYPE svg PUBLIC "-//W3C//DTD SVG 1.1//EN" "http://www.w3.org/Graphics/SVG/1.1/DTD/svg11.dtd">
<!-- Creator: CorelDRAW -->
<svg xmlns="http://www.w3.org/2000/svg" xml:space="preserve" width="100mm" height="100mm" style="shape-rendering:geometricPrecision; text-rendering:geometricPrecision; image-rendering:optimizeQuality; fill-rule:evenodd; clip-rule:evenodd"
viewBox="0 0 100 100">
 <defs>
  <style type="text/css">
   <![CDATA[
    .fil0 {fill:#0A0B0C}
    .fil2 {fill:#0093DD;fill-rule:nonzero}
    .fil1 {fill:#DEDEDD;fill-rule:nonzero}
    .fil3 {fill:white;fill-rule:nonzero}
   ]]>
  </style>
 </defs>
 <g id="Capa_x0020_1">
  <metadata id="CorelCorpID_0Corel-Layer"/>
  <rect class="fil0" x="2.94381" y="2.25818" width="94.8025" height="94.8024"/>
  <g id="_218776624">
   <path id="_218853168" class="fil1" d="M45.5905 23.819l5.5395 19.3555c0.5539,-1.6944 1.1539,-3.5843 1.8003,-5.6698 0.6462,-2.0854 1.2155,-4.1057 1.708,-6.0609 0.4308,-1.3467 0.8001,-2.6611 1.1078,-3.9427 0.3078,-1.2817 0.6771,-2.5091 1.108,-3.6821l-3.4161 0 0 -11.0138 25.2047 0 0 10.8834 -3.97 0 -11.1712 36.1044 -24.4662 0 -11.356 -35.974 -4.0622 0 0 -11.0138 25.2047 0 0 11.0138 -3.2313 0z"/>
   <polygon id="_218853024" class="fil2" points="40.5125,21.0818 44.7595,21.0818 44.7595,15.5423 27.7718,15.5423 27.7718,21.0818 30.9108,21.0818 42.3591,57.0558 60.1777,57.0558 71.3491,21.0818 74.5805,21.0818 74.5805,15.5423 57.5003,15.5423 57.5003,21.0818 61.7473,21.0818 53.5303,49.105 48.8218,49.105 "/>
   <path id="_218853120" class="fil3" d="M15.8712 86.1783l-7.9717 -20.576 2.951 0 5.3464 14.9469c0.4312,1.1977 0.7905,2.3235 1.0779,3.3679 0.321,-1.121 0.6899,-2.242 1.1115,-3.3679l5.5572 -14.9469 2.7786 0 -8.058 20.576 -2.7929 0z"/>
   <path id="_218853120" class="fil3" d="M36.4375 84.3387c-0.939,0.7952 -1.8396,1.3557 -2.7019,1.6863 -0.8672,0.3258 -1.7966,0.4886 -2.7882,0.4886 -1.6384,0 -2.8936,-0.3976 -3.7751,-1.1976 -0.8767,-0.8001 -1.3174,-1.8253 -1.3174,-3.0661 0,-0.7329 0.1629,-1.3988 0.4982,-2.0025 0.3306,-0.6036 0.7665,-1.0875 1.3031,-1.4515 0.5413,-0.3641 1.1449,-0.642 1.8204,-0.8288 0.4935,-0.1294 1.2408,-0.2587 2.2421,-0.3785 2.0408,-0.2443 3.5451,-0.5318 4.508,-0.8719 0.0096,-0.3449 0.0144,-0.5653 0.0144,-0.6563 0,-1.03 -0.2396,-1.7582 -0.7186,-2.175 -0.642,-0.5749 -1.6049,-0.8575 -2.8744,-0.8575 -1.1881,0 -2.0648,0.206 -2.6349,0.6228 -0.5653,0.4168 -0.9821,1.1545 -1.2552,2.2133l-2.4672 -0.3402c0.2252,-1.0539 0.5941,-1.9115 1.1067,-2.5582 0.5126,-0.6515 1.2599,-1.1546 2.2324,-1.5043 0.9725,-0.3497 2.0984,-0.527 3.3823,-0.527 1.2743,0 2.3043,0.1533 3.0995,0.4504 0.7953,0.3018 1.3797,0.6755 1.7582,1.1306 0.3737,0.4551 0.6324,1.0252 0.7857,1.7198 0.0814,0.4312 0.1245,1.2073 0.1245,2.3283l0 3.3678c0,2.3523 0.0527,3.8374 0.1629,4.4554 0.1054,0.6228 0.321,1.2216 0.6372,1.7917l-2.6397 0c-0.2587,-0.5222 -0.4311,-1.1354 -0.503,-1.8396zm-0.2108 -5.6434c-0.9198,0.3784 -2.2947,0.6946 -4.1248,0.9581 -1.0395,0.1485 -1.7773,0.3162 -2.2037,0.503 -0.4311,0.1868 -0.7665,0.4599 -0.9964,0.824 -0.2348,0.3593 -0.3546,0.7569 -0.3546,1.1977 0,0.6755 0.2587,1.236 0.7666,1.6863 0.5078,0.4455 1.2551,0.6707 2.2372,0.6707 0.9725,0 1.8396,-0.2108 2.5966,-0.6372 0.7569,-0.4263 1.3174,-1.0108 1.6719,-1.7486 0.2731,-0.5701 0.4072,-1.4132 0.4072,-2.5247l0 -0.9293z"/>
   <polygon id="_218853120" class="fil3" points="42.6414,86.1783 42.6414,65.6023 45.1661,65.6023 45.1661,86.1783 "/>
   <path id="_218853120" class="fil3" d="M58.7525 86.1783l0 -1.8827c-0.9438,1.4803 -2.3331,2.218 -4.1679,2.218 -1.1881,0 -2.2804,-0.3257 -3.2768,-0.982 -0.9965,-0.6516 -1.7678,-1.5666 -2.3187,-2.7451 -0.5461,-1.1737 -0.8192,-2.5199 -0.8192,-4.0481 0,-1.4851 0.2491,-2.8361 0.7425,-4.0482 0.4983,-1.212 1.2408,-2.1414 2.2325,-2.7833 0.9917,-0.6468 2.1031,-0.9726 3.3295,-0.9726 0.8959,0 1.6959,0.1917 2.3954,0.5701 0.7042,0.3785 1.2743,0.8719 1.715,1.4804l0 -7.3825 2.5104 0 0 20.576 -2.3427 0zm-7.9861 -7.4399c0,1.9115 0.4025,3.3391 1.2073,4.2828 0.8048,0.9438 1.7534,1.4181 2.8504,1.4181 1.1019,0 2.0409,-0.4551 2.8122,-1.3558 0.7713,-0.9006 1.1593,-2.2803 1.1593,-4.1343 0,-2.0409 -0.3928,-3.5356 -1.1785,-4.4889 -0.7857,-0.9581 -1.7534,-1.4324 -2.9079,-1.4324 -1.121,0 -2.06,0.4599 -2.8122,1.3749 -0.7521,0.915 -1.1306,2.3618 -1.1306,4.3356z"/>
   <path id="_218853120" class="fil3" d="M75.2708 81.378l2.6109 0.321c-0.412,1.5282 -1.1737,2.7115 -2.2852,3.5547 -1.1162,0.8384 -2.539,1.2599 -4.2685,1.2599 -2.1797,0 -3.9092,-0.6706 -5.1835,-2.012 -1.2791,-1.3414 -1.9162,-3.2242 -1.9162,-5.6483 0,-2.5103 0.6467,-4.4553 1.9354,-5.8398 1.2935,-1.3845 2.9654,-2.0792 5.0254,-2.0792 1.9929,0 3.6218,0.6803 4.8817,2.0361 1.2648,1.3557 1.8971,3.2672 1.8971,5.7249 0,0.1533 -0.0048,0.3784 -0.0143,0.6754l-11.1144 0c0.091,1.6385 0.5557,2.8936 1.3893,3.7607 0.8335,0.8719 1.8683,1.3079 3.1139,1.3079 0.9246,0 1.7151,-0.2443 2.3714,-0.733 0.6563,-0.4839 1.1737,-1.2599 1.557,-2.3283zm-8.2927 -4.0864l8.3214 0c-0.1102,-1.2504 -0.4311,-2.1942 -0.9533,-2.8169 -0.8049,-0.9725 -1.8492,-1.4612 -3.1283,-1.4612 -1.1594,0 -2.1367,0.388 -2.9272,1.1641 -0.7904,0.7761 -1.2264,1.8157 -1.3126,3.114z"/>
   <path id="_218853120" class="fil3" d="M79.7213 86.1783l0 -2.0504 9.4904 -10.8892c-1.0779,0.0575 -2.0265,0.0814 -2.8505,0.0814l-6.0794 0 0 -2.0456 12.1827 0 0 1.6671 -8.0675 9.4616 -1.557 1.7247c1.1306,-0.0815 2.1942,-0.1246 3.1858,-0.1246l6.8891 0 0 2.175 -13.1936 0z"/>
  </g>
 </g>
</svg>
