<?xml version="1.0" encoding="UTF-8"?>
<!DOCTYPE svg PUBLIC "-//W3C//DTD SVG 1.1//EN" "http://www.w3.org/Graphics/SVG/1.1/DTD/svg11.dtd">
<!-- Creator: CorelDRAW -->
<svg xmlns="http://www.w3.org/2000/svg" xml:space="preserve" width="30mm" height="28mm" style="shape-rendering:geometricPrecision; text-rendering:geometricPrecision; image-rendering:optimizeQuality; fill-rule:evenodd; clip-rule:evenodd"
viewBox="0 0 30 28">
 <defs>
  <style type="text/css">
   <![CDATA[
    .fil0 {fill:#DA251D}
    .fil1 {fill:white}
   ]]>
  </style>
 </defs>
 <g id="Capa_x0020_1">
  <metadata id="CorelCorpID_0Corel-Layer"/>
  <path class="fil0" d="M15.6699 25.8886c-4.6477,-3.7941 -20.4405,-17.2472 -9.8013,-22.8434 4.2367,-1.5651 7.4617,0.0949 9.8013,3.6834 0.1265,0 1.1699,-1.5176 1.328,-1.7231 4.9322,-4.9323 13.374,-2.1816 11.8248,5.3749 -1.1066,3.6201 -4.4106,8.1414 -7.4933,10.4494 0,0.3795 -5.1694,4.9007 -5.6595,5.0588z"/>
  <path class="fil1" d="M17.0927 21.5887c-1.2805,-0.8537 -2.1974,-12.3149 -3.1143,-12.3149 -0.2055,0.7746 -0.9959,5.8175 -2.0235,5.4065 -1.5018,-1.3595 -0.8853,-2.4029 -2.4029,-0.1106 -0.4742,0.4742 -4.5528,0.3794 -3.1459,-0.5533 0.8695,-0.0159 1.7548,-0.0317 2.64,-0.0475 1.4386,-2.4661 1.2489,-2.3713 2.8772,-0.4742 0.9801,0 1.0118,-7.604 2.4503,-6.1654 0.2372,0.9169 2.7823,11.9513 2.814,11.9987 0.1106,0 1.565,-6.3866 1.7231,-7.0664 0.7272,-0.9169 0.9801,1.1224 1.0592,1.4702 0.4268,1.0908 4.4738,-0.5217 5.28,0.5059 0,1.1856 -5.6278,0.5217 -5.8175,0.3636 -0.4427,-1.7864 -1.1857,6.7977 -2.3397,6.9874z"/>
 </g>
</svg>
