<?xml version="1.0" encoding="UTF-8"?>
<!DOCTYPE svg PUBLIC "-//W3C//DTD SVG 1.1//EN" "http://www.w3.org/Graphics/SVG/1.1/DTD/svg11.dtd">
<!-- Creator: CorelDRAW -->
<svg xmlns="http://www.w3.org/2000/svg" xml:space="preserve" width="120mm" height="120mm" style="shape-rendering:geometricPrecision; text-rendering:geometricPrecision; image-rendering:optimizeQuality; fill-rule:evenodd; clip-rule:evenodd"
viewBox="0 0 120 120">
 <defs>
  <style type="text/css">
   <![CDATA[
    .fil0 {fill:black}
    .fil1 {fill:white}
   ]]>
  </style>
 </defs>
 <g id="Capa_x0020_1">
  <metadata id="CorelCorpID_0Corel-Layer"/>
  <g id="_100654936">
   <path id="_100654600" class="fil0" d="M58.1033 114.383c-1.5494,-0.4064 -3.2766,-0.381 -4.7498,-0.9906 -4.6736,-0.9144 -8.8138,-3.5306 -12.8524,-5.9182 -2.2098,-1.6256 -2.2098,-1.6256 -2.3876,-1.651 0,-0.0762 0,-0.127 0,-0.1778 -0.1524,-0.0508 -0.2794,-0.1016 -0.4064,-0.1524 -0.0508,-0.127 -2.5654,-2.5908 -3.2258,-2.794 -0.1524,-0.2794 -1.4732,-1.4986 -2.2352,-2.3622 -0.1778,-0.0762 -0.1778,-0.0762 -2.2098,-2.3622 -0.2286,-0.4064 -2.0828,-2.6924 -3.9878,-5.4356 -1.1176,-2.0828 -2.3876,-4.0894 -3.302,-6.2738 -0.8382,-1.1176 -1.0414,-2.7432 -1.8288,-3.937 -3.048,-0.0508 -6.096,-0.1016 -9.1186,-0.1524 -3.4036,-1.1684 -5.715,-2.6162 -7.2644,-6.0706 -0.2286,-0.9652 -0.4572,-1.9304 -0.6604,-2.8702 0,-4.4196 0,-8.8392 0,-13.2334 0.6096,-3.429 2.2352,-5.6134 5.1562,-7.5184 0.2794,-5.5626 0.5334,-10.7188 2.032,-16.0782 0.4826,-2.7178 1.778,-5.7658 2.9718,-8.255 0.4318,-2.032 2.2606,-3.9624 3.2258,-5.7658 3.8608,-4.9022 7.8486,-9.271 13.5636,-12.1158 0.6604,-0.6604 1.7526,-0.762 2.3368,-1.3462 5.6896,-2.5654 11.557,-4.0386 17.8054,-4.826 2.54,-0.1778 2.54,-0.1778 3.6322,-0.3556 5.8674,-0.1778 11.6332,-0.0508 17.4752,0.6858 1.7272,0.381 3.6576,0.7112 5.3848,1.016 0.381,0.254 0.8382,0.2794 1.2954,0.3302 1.4478,0.508 2.286,0.6858 5.9436,2.032 1.9812,0.9144 3.9878,2.0066 5.9436,2.8956 2.6416,1.7526 2.6416,1.7526 5.1054,3.5814 0.9906,0.9144 2.0066,1.8288 3.0226,2.7686 1.9812,2.2098 5.0292,5.1562 6.0198,8.001 0.0762,0.0508 0.1524,0.127 0.254,0.2032 0.8128,1.7018 1.6256,3.4036 2.4638,5.1054 0.5588,1.6256 1.1176,3.2512 1.6764,4.9022 0.762,3.2258 1.4732,6.4516 1.8796,9.7536 0.127,2.4892 0.2794,4.9784 0.4318,7.4676 1.9304,1.2446 3.3782,2.7432 4.3942,4.8006 0.2794,0.9652 0.5588,1.8796 0.762,2.8702 0,4.318 0,8.636 0,12.9794 -0.508,3.4798 -2.286,6.604 -5.5626,8.1026 -0.635,0.4318 -1.5748,0.635 -2.3114,0.9144 -1.0668,0.0762 -1.0668,0.0762 -9.271,0.1778 -0.635,1.1938 -1.1176,2.4892 -1.5748,3.7846 -0.1778,0.1524 -0.3556,0.7112 -1.7018,3.4036 -3.2258,5.1816 -6.6548,9.9822 -11.2522,14.0208 -0.0508,0.0508 -0.0762,0.127 -0.1016,0.2032 -4.7244,3.6322 -4.7244,3.6322 -5.9944,4.4704 -2.4638,1.3716 -4.9784,2.794 -7.5692,3.9116 -0.7112,0.1778 -0.9398,0.3302 -3.556,1.1938 -0.7874,0.0762 -1.5748,0.3556 -2.3622,0.5842 -1.778,0.1778 -1.778,0.1778 -3.048,0.4318 -1.4224,0 -2.8448,0.0254 -4.2418,0.0508z"/>
   <path id="_100654744" class="fil1" d="M58.5351 107.347c-4.9022,-0.9906 -9.0424,-2.6924 -13.3096,-5.3086 -0.9906,-0.7112 -1.9558,-1.397 -2.921,-2.0828 -1.27,-1.0922 -2.54,-2.1844 -3.81,-3.2512 -1.7526,-1.7526 -3.302,-3.6576 -4.8768,-5.5626 -0.2794,-0.5588 -1.0922,-0.9652 -0.1524,-1.1176 3.4036,1.4986 7.0358,2.5654 10.7442,2.8702 1.6764,0.5588 4.0132,0.508 5.8166,0.6858 2.6924,3.4544 5.8674,4.3942 10.16,4.3942 1.7526,-0.2794 3.3274,-0.635 4.9276,-1.3462 0.2286,-0.254 0.7112,-0.4572 2.159,-1.651 0.4318,-0.635 0.4318,-0.635 0.6858,-0.8382 1.8542,-3.7338 0.5334,-6.0452 -2.5654,-8.3312 -0.7366,-0.3556 -1.4732,-0.6858 -2.2098,-1.016 -4.4196,-0.8636 -9.9568,-0.762 -12.7508,3.3528 -0.1016,0.0254 -0.2032,0.0508 -0.2794,0.1016 -3.4544,-0.254 -6.8326,-0.762 -10.2108,-1.524 -0.7112,-0.4826 -1.7272,-0.381 -2.4384,-0.8382 -1.1176,-0.4318 -2.9972,-0.889 -3.8862,-1.778 -0.1778,-0.0762 -0.3556,-0.127 -0.5334,-0.1778 -2.032,-1.3462 -4.826,-3.0226 -5.9436,-5.2832 -0.1778,-0.9652 -0.1778,-0.9652 -0.6604,-2.3622 -0.0508,-0.4318 -0.1016,-1.0922 -0.3556,-1.4478 -0.889,-4.8006 -1.2192,-9.3726 -0.9906,-14.2748 0.9144,-0.6096 2.032,-0.6604 3.0734,-0.9398 0.2286,-0.1524 0.9398,-0.3302 2.54,-1.016 4.4958,-2.3622 8.1026,-5.9182 10.4648,-10.414 1.0922,-1.3462 1.397,-3.556 2.1082,-5.1308 0.2286,-0.9906 0.4572,-1.9812 0.6858,-2.9718 0.3302,-3.7084 0.3302,-3.7084 0.4318,-4.064 0.0762,0 0.1524,0 0.2286,0 1.905,2.3368 3.6322,5.334 6.096,7.112 2.6162,2.413 6.0198,4.572 9.4234,5.6642 0.3302,0.2286 1.778,0.7366 2.0574,0.9144 3.9116,1.3208 9.4742,2.3622 12.827,4.8768 0.1016,0 0.2032,0 0.3048,0.0254 0.127,-1.6256 -1.5748,-3.8862 -2.4892,-5.1562 0,-0.127 0,-0.2286 0,-0.3302 0.5588,0.0254 1.143,0.0508 1.7272,0.0762 7.3914,1.1176 14.351,3.1496 20.3454,7.7978 0.0508,0.1016 0.127,0.2032 0.2032,0.3048 0.254,4.699 0.3556,9.271 -0.1016,13.97 -0.3556,1.1938 -0.1778,3.0734 -0.8636,3.9878 -0.4064,2.6924 -1.6256,5.461 -2.6162,7.9756 -0.4318,0.4318 -0.508,1.2954 -0.9398,1.5748 -1.7526,3.9624 -4.5974,7.62 -7.5438,10.795 -1.0668,1.016 -2.1336,2.032 -3.2004,3.048 -3.302,2.4384 -6.5024,4.5974 -10.16,6.4262 -2.2098,0.8636 -4.3434,1.5494 -6.6802,1.9558 -1.1938,0.4572 -3.2004,0.2794 -4.5212,0.3048z"/>
   <path id="_100654768" class="fil0" d="M45.1493 70.3393c-0.9144,-0.0762 -1.8796,-0.508 -2.667,-0.9398 -2.54,-1.8034 -3.048,-4.2164 -2.286,-7.1374 1.8796,-3.2512 4.8006,-4.3434 8.3058,-2.7686 1.9558,1.3462 2.8702,3.048 2.8702,5.4356 -0.4318,2.3876 -1.6002,4.4196 -4.064,5.0292 -0.3556,0.3556 -1.6256,0.3302 -2.159,0.381z"/>
   <path id="_100655056" class="fil0" d="M74.4355 70.3393c-1.7018,-0.1524 -3.3274,-1.2446 -4.3434,-2.5654 -0.3556,-0.762 -0.3556,-0.762 -0.6096,-1.0414 -0.4064,-2.1336 -0.508,-3.6322 0.6858,-5.5626 2.5146,-2.7178 5.3086,-3.1496 8.4582,-1.1176 0.2032,0.254 0.508,0.4572 1.27,1.4478 0.1778,0.5334 0.3556,0.7112 0.6858,1.8034 0.381,2.9718 -0.9906,5.8674 -3.9624,6.6548 -0.5588,0.4064 -1.4732,0.3302 -2.1844,0.381z"/>
   <path id="_100654960" class="fil1" d="M15.1773 51.2131c-0.2794,-3.0988 0.4826,-6.2738 0.7874,-9.3472 0.3556,-1.4224 0.6604,-3.0988 0.8636,-3.556 0.3048,-1.778 1.1176,-3.3782 1.4986,-5.1308 0.7112,-1.524 1.4224,-3.048 2.1336,-4.5466 2.3622,-3.7084 4.699,-6.8834 8.0772,-9.7282 1.8542,-1.3462 4.8768,-3.9624 7.2136,-4.4196 0.3556,-0.5334 1.8034,-0.9144 2.4384,-1.0922 2.1844,-1.016 4.3688,-1.4986 6.6294,-2.1082 0.6604,-0.254 1.5494,-0.1778 2.1336,-0.508 8.7122,-1.3716 17.4244,-1.524 26.1366,-0.0762 1.27,0.3048 2.54,0.6096 3.81,0.9144 2.54,0.3556 5.2832,1.6256 7.6454,2.6416 0.0762,0.0762 0.1524,0.1524 0.2286,0.2286 1.27,0.5334 2.9464,1.2192 3.9624,2.1336 0.4572,0.2794 0.9398,0.5842 1.4224,0.889 5.3086,4.1402 9.398,9.017 11.7602,15.3162 0.762,1.016 0.6604,2.5654 1.3716,3.6576 0.5588,2.6162 1.1938,5.1816 1.4986,7.8486 0.5842,2.0574 0.508,4.6736 0.508,6.8326 -1.2446,0 -2.4892,0 -3.7084,0 -0.127,-0.4826 -0.254,-0.9398 -0.3556,-1.397 -0.2032,-2.3114 -0.9398,-4.699 -1.524,-6.9596 -0.2794,-0.4572 -0.3302,-0.8636 -0.4318,-1.3716 -0.508,-1.2192 -0.508,-1.2192 -0.6858,-1.9304 -1.0922,-2.5146 -2.0828,-5.1562 -3.7084,-7.3914 -1.2954,-3.0988 -4.4958,-6.096 -6.9088,-8.382 -2.2352,-1.7272 -2.2352,-1.7272 -4.2418,-3.1242 -1.5748,-0.8636 -3.6068,-2.159 -5.3848,-2.6162 -8.128,-3.6576 -18.2118,-3.7084 -26.8732,-2.6416 -0.9906,0.381 -2.3876,0.5334 -3.4798,0.6858 -0.5588,0.254 -0.5588,0.254 -3.7846,1.0922 -0.254,0.1778 -0.254,0.1778 -4.1656,1.7018 -0.9652,0.7874 -2.5908,1.0922 -3.5052,2.0066 -6.5786,3.81 -10.9728,10.3632 -14.0462,17.145 -1.143,3.2512 -2.1844,6.1722 -2.8702,9.6012 -0.3556,1.0922 -0.4064,2.3622 -0.6858,3.5052 -1.27,0.0254 -2.5146,0.0762 -3.7592,0.127z"/>
  </g>
 </g>
</svg>
