<?xml version="1.0" encoding="UTF-8"?>
<!DOCTYPE svg PUBLIC "-//W3C//DTD SVG 1.1//EN" "http://www.w3.org/Graphics/SVG/1.1/DTD/svg11.dtd">
<!-- Creator: CorelDRAW -->
<svg xmlns="http://www.w3.org/2000/svg" xml:space="preserve" width="225mm" height="145mm" style="shape-rendering:geometricPrecision; text-rendering:geometricPrecision; image-rendering:optimizeQuality; fill-rule:evenodd; clip-rule:evenodd"
viewBox="0 0 225 145">
 <defs>
  <style type="text/css">
   <![CDATA[
    .fil13 {fill:#007CC3}
    .fil23 {fill:#00923F}
    .fil16 {fill:#0093DD}
    .fil15 {fill:#0A0B0C}
    .fil1 {fill:#1F1A17}
    .fil12 {fill:#383431}
    .fil6 {fill:#4D4948}
    .fil4 {fill:#605D5C}
    .fil2 {fill:#72706F}
    .fil11 {fill:#75C5F0}
    .fil9 {fill:#838281}
    .fil17 {fill:#8F5444}
    .fil5 {fill:#969594}
    .fil3 {fill:#C2C1C1}
    .fil8 {fill:#DA251D}
    .fil20 {fill:#DEDEDD}
    .fil19 {fill:#F7C5B4}
    .fil0 {fill:black}
    .fil10 {fill:white}
    .fil21 {fill:#00B394}
    .fil22 {fill:#171796}
    .fil24 {fill:#CF035C}
    .fil18 {fill:#ED6E00}
    .fil7 {fill:#F2ED82}
    .fil14 {fill:#F5E617}
    .fil25 {fill:white;fill-rule:nonzero}
   ]]>
  </style>
 </defs>
 <g id="Capa_x0020_1">
  <metadata id="CorelCorpID_0Corel-Layer"/>
  <g id="_216013712">
   <path id="_216015032" class="fil0" d="M128.041 142.113c-1.5068,-0.2422 -2.7714,-0.6189 -4.1974,-1.1301 -2.314,-1.5875 -2.314,-1.5875 -2.5292,-1.6413 0,-0.0807 0,-0.1345 0,-0.1883 -1.3185,-0.5113 -1.8028,-2.2333 -2.7983,-2.9597 -0.9686,-1.6682 -2.0987,-3.3633 -2.5561,-5.2468 -0.1614,-0.2152 -0.3498,-1.1301 -0.5112,-1.4529 -0.1077,-0.5382 -0.5382,-3.4171 -0.7803,-3.6593 -0.1615,0.1614 -0.4036,0.2422 -0.4843,0.4305 -2.7445,2.1525 -5.1122,2.3947 -8.4755,2.7983 -1.6682,0.0269 -3.3095,0.0538 -4.9508,0.0807 -1.2915,-0.2691 -2.4754,-0.7265 -3.6862,-1.2646 -0.1614,-0.3498 -1.3184,-0.9417 -1.6144,-1.157 -0.0807,-0.1883 -0.0807,-0.1883 -1.5336,-1.5337 -0.8341,-1.2377 -1.9104,-2.4484 -2.5023,-3.8476 -1.0494,-0.1883 -2.0987,-0.3767 -3.1481,-0.5381 -1.1839,-1.5337 -1.6951,-3.0135 -1.991,-4.9239 -0.1346,-0.1614 -0.2691,-0.3228 -0.3767,-0.4574 -0.1615,0.1077 -0.3229,0.2422 -0.4574,0.3767 -1.1032,1.2915 -3.0136,2.5023 -4.5741,3.1212 -1.2646,0.3497 -1.2646,0.3497 -2.4216,0.5381 -1.9911,0.0807 -5.5427,-0.1615 -6.8342,-1.9911 -0.592,-0.2152 -1.1839,-0.4305 -1.7489,-0.6188 -0.6189,-0.5651 -0.6189,-0.5651 -0.9418,-0.6996 -4.9238,0.0807 -4.9238,0.0807 -5.2467,0.1614 -0.0807,0.1615 -0.2691,2.7445 -0.4305,3.2826 -0.5112,3.9014 -2.5561,6.9419 -5.3006,9.5518 -0.269,0.0538 -0.3498,0.1345 -0.4843,0.3498 -1.4798,0.8072 -1.4798,0.8072 -2.3139,1.1569 -3.5786,0.6727 -7.0495,0.8341 -10.7088,0.8341 -4.1436,-1.1569 -6.7804,-3.6861 -8.9867,-7.2916 -0.861,-1.8834 -1.8027,-3.74 -2.1794,-5.7849 -0.0538,-0.0807 -0.1076,-0.1345 -0.1346,-0.1883 -1.991,0 -4.009,0.1614 -6.027,0.1614 -0.1076,-0.1883 -0.2152,-0.3767 -0.296,-0.565 0.6727,-2.6368 1.7759,-5.3275 2.2602,-8.0181 0.1345,-1.6951 0.4843,-3.3902 0.6457,-5.0584 -6.2691,0 -12.5652,1.0762 -18.8075,0.4036 -0.2691,-0.1076 -0.5112,-0.3229 -0.6458,-0.565 -1.9641,0 -1.3722,-2.9867 -1.3722,-4.2243 0.3498,-0.2153 0.3498,-0.2153 0.4574,-0.4305 0.5112,-0.027 0.8879,-0.027 1.157,-0.4575 7.3185,-0.6726 14.7716,-0.1883 22.0901,-0.7264 0.3767,-0.1346 0.3767,-0.296 0.5112,-0.6189 -3.6323,-0.4305 -2.852,0.4574 -3.0404,-4.0359 -0.269,-0.1077 -5.6503,-0.2691 -7.9643,-0.4574 -6.9149,-0.1884 -6.9149,-0.1884 -7.6683,-0.2691 -0.861,-0.4305 -0.565,-2.6368 -0.5919,-3.2557 -3.2557,-0.0807 -6.4845,-0.1614 -9.7132,-0.2421 -0.1346,-0.1615 -0.2422,-0.296 -0.3498,-0.4305 -0.1884,-12.2424 -0.3767,-16.7358 -0.4843,-25.1575 0.2152,-0.3229 0.2152,-0.3229 0.4036,-0.4305 26.422,-0.1076 52.871,-0.1884 79.32,-0.2691 2.1525,0.1884 2.1525,0.1884 3.2287,0.1884 0.1077,-0.1346 0.6727,-5.9732 0.8341,-6.6997 0.5113,-7.9912 2.4216,-15.7941 3.7938,-23.5969 0.0539,-0.1076 0.1077,-0.1884 0.1615,-0.2691 0.1345,-1.0224 0.3229,-2.1256 0.6995,-3.0942 0.4036,-2.2601 1.3454,-4.3588 2.2602,-6.4306 1.1301,-1.2377 2.0449,-4.0629 3.7938,-4.6279 0.296,-0.6189 2.0449,-1.3723 2.7175,-1.5606 1.9642,-1.1839 4.6548,-1.1839 6.8881,-1.426 12.5921,-0.2153 25.2381,-0.2153 37.8303,0.1883 0,-0.5919 -2.0718,-2.8252 -2.3946,-3.2288 -0.296,-0.1345 -0.6458,-0.6457 -0.7265,-0.9417 -0.0807,-0.0269 -0.1614,-0.0538 -0.2153,-0.0807 -2.0179,-2.3947 -4.1166,-4.8432 -6.0001,-7.3185 0,-0.8072 -0.0538,-1.1839 1.0763,-0.9149 0.4574,0.6189 1.5336,1.5068 2.0718,2.018 1.6682,2.0449 3.5785,4.1436 5.462,6.0001 1.1838,1.5068 2.7175,3.0674 4.0359,4.4665 6.6997,0.5381 13.8568,0.1883 20.1529,2.583 0.8072,0.9417 2.8521,1.0494 3.74,2.1525 1.5606,0.9687 2.8252,2.1794 4.2512,3.4171 0.296,0.7265 1.7758,1.7759 2.3409,2.4216 1.2915,2.0449 3.4171,3.8745 4.5202,6.0809 0.2691,0.3497 0.6458,0.6726 0.7534,1.1031 0.4843,0.2422 2.6368,3.6055 2.7983,3.9822 0.565,0.6457 1.1569,1.4798 1.5336,2.2332 2.1525,2.8521 4.1705,6.0001 6.054,9.0136 0.1614,-0.0269 0.3228,-0.0538 0.4843,-0.0538 0.3498,-1.0493 1.7489,-1.2915 2.6368,-1.5606 7.9374,0 3.5247,8.6101 4.7086,14.2066 0.1884,0 2.6368,4.1705 2.9597,4.6279 0.1884,0.4843 0.8072,1.3453 1.6413,2.7445 0.1076,0.2959 1.1839,2.3677 1.5068,2.4753 0.1883,0.4844 1.6144,2.6907 1.8027,3.175 1.157,1.0224 1.6144,3.0404 2.583,4.2512 0.6189,1.2646 1.2377,2.9866 2.3409,3.9014 2.6099,3.6593 3.8745,8.8253 4.1166,13.2649 0.4844,1.2915 0.6189,2.9328 0.8341,4.305 0.3498,0.3229 0.6996,0.6458 1.0494,0.9686 0.0538,0.296 0.1076,0.6458 0.3767,0.8072 0.4305,3.8745 0.565,7.776 -0.0269,11.6505 -0.1615,0.3229 -0.1615,0.3229 -0.3498,1.157 -0.7534,1.5067 -1.6413,2.6368 -2.9597,3.6592 -1.8027,0.9418 -3.5517,1.5606 -5.5158,2.1794 -0.1346,0.3229 -0.3229,1.3454 -0.4843,1.6682 -0.4036,2.0718 -1.7489,3.9553 -2.879,5.6773 -1.9911,1.8834 -3.5248,3.148 -6.1347,3.9552 -3.3364,0.3229 -6.7535,0.6996 -10.1168,0.3767 -0.4036,-0.2152 -1.0224,-0.3767 -2.4215,-1.0762 -2.3678,-1.6682 -4.332,-3.6055 -5.5428,-6.2692 -0.5919,-0.296 -1.0762,-0.1615 -1.7489,-0.1077l-6.2961 0.4306c-2.0987,0.1076 -4.1974,0.2421 -6.2692,0.3766 -0.0807,0.0269 -0.1345,0.0539 -0.1883,0.1077l-15.6057 0.4036c-0.1614,-0.0808 -5.2737,-0.1615 -6.8611,-0.2691 -0.7803,0.2152 -0.5651,0.9417 -0.592,1.6682 -0.4305,1.2108 -0.7264,4.4934 -1.8027,5.5696 -0.6458,2.2871 -3.9552,6.0809 -6.323,6.8611 -1.1839,0.9687 -3.148,0.9956 -4.5741,1.3454 -3.8476,0.1614 -3.8476,0.1614 -6.9956,0.4036z"/>
   <path id="_216379712" class="fil1" d="M126.884 141.386c-1.2108,-0.3767 -2.4485,-0.7803 -3.5786,-1.3453 0,-0.0538 0,-0.1077 0,-0.1615 -1.9372,-0.8072 -3.444,-3.0135 -4.7086,-4.5472 -0.9686,-1.9103 -2.287,-4.0897 -2.5292,-6.2691 -1.157,-2.314 -0.7265,-6.0809 -0.7265,-8.5832 0.1884,-1.3184 0.3498,-3.6054 1.0763,-4.7624 0.4305,-1.6682 1.3991,-3.0404 2.1794,-4.5203 1.2377,-1.3991 2.6368,-3.3095 4.5203,-3.8476 0.6726,-0.6726 2.3678,-0.8341 3.2826,-0.9955 2.5292,0 4.4126,0.6188 6.5382,1.9103 0.8072,0.9687 1.3184,2.0718 1.8027,3.2557 0.888,1.1839 0.9687,2.9866 1.7759,4.1974 0.1883,0.7534 0.4305,1.1301 0.6457,1.9103 0.1615,0.1615 1.157,3.0405 1.3184,3.2019 0.2691,0.6458 0.9418,2.8521 1.6144,3.3902 0.6727,2.6907 -0.4574,7.6952 -1.8834,10.0899 -0.1615,0.6458 -0.8341,1.4799 -1.157,2.0987 -2.1525,2.7983 -3.7131,3.8745 -7.0226,4.9239 -1.0493,0 -2.0987,0.0269 -3.148,0.0538z"/>
   <path id="_215437968" class="fil1" d="M132.535 141.305c0,-0.0808 0,-0.1346 0,-0.1884 0.1346,-0.0538 0.296,-0.1076 0.4574,-0.1614 0.0269,-0.0807 0.0538,-0.1345 0.0808,-0.1884 1.0224,-0.1883 2.4753,-1.8027 3.2287,-2.4753 0.4843,-0.6727 0.7534,-0.8611 1.5606,-2.0449 0.5381,-1.0763 0.5381,-1.0763 0.8072,-1.3992 1.2646,-3.0135 1.9103,-5.8387 2.2601,-9.0943 1.9911,0.2421 4.3588,0 6.2423,0.5381 0.0269,0.0538 0.0538,0.1076 0.1076,0.1883 -0.2152,1.3992 -0.8879,6.1347 -2.2332,7.48 -0.0807,0.3229 -0.1884,0.592 -0.4574,0.7803 -2.3947,4.7893 -7.1033,6.323 -12.0541,6.5652z"/>
   <path id="_216013808" class="fil0" d="M127.772 136.651c-1.3184,-0.296 -2.4216,-0.7803 -3.6055,-1.2646 -0.0269,-0.0808 -0.0538,-0.1346 -0.0538,-0.1884 -0.8341,-0.3229 -2.3946,-2.0449 -2.6099,-2.6906 -0.0807,0 -0.1345,0 -0.1883,0 -2.1525,-4.036 -2.7983,-7.7222 -2.018,-12.2693 1.0762,-3.6055 2.6637,-6.4038 6.323,-7.6953 1.9911,-0.0807 1.9911,-0.0807 3.0673,0 1.157,0.4575 1.157,0.4575 2.0987,0.9418 0.7534,0.6457 1.5337,1.13 2.0987,2.0718 0.0538,0.0269 0.1076,0.0538 0.1884,0.0807 2.1525,3.2556 3.0942,6.1077 3.0942,10.063 -0.1884,1.8296 -0.6189,3.444 -1.0763,5.1929 -0.9686,1.7489 -0.9686,1.7489 -2.0179,3.3364 -0.296,0.1345 -0.4306,0.3498 -2.2333,1.6413 -1.0224,0.3229 -2.018,0.6188 -3.0673,0.7803z"/>
   <path id="_216013736" class="fil2" d="M127.503 135.924c-1.1569,-0.0807 -1.991,-0.6996 -3.0404,-0.9955 -0.1345,-0.296 -0.4305,-0.2422 -0.5381,-0.5651 -2.8521,-1.9103 -3.9014,-5.731 -4.2781,-8.9329 0,-1.3722 -0.3498,-4.0091 0.3767,-5.2198 0.6457,-3.9822 3.5516,-7.2109 7.749,-7.2109 3.4171,0.8071 6.1616,3.4978 6.9418,7.0225 1.0763,2.018 0.6996,5.0315 0.7265,7.2109 -0.565,2.9866 -1.6413,5.6504 -4.0359,7.6145 -0.592,0.2691 -1.1839,0.5651 -1.7759,0.861 -0.7264,0.0539 -1.426,0.1346 -2.1256,0.2153z"/>
   <path id="_215615368" class="fil0" d="M126.427 133.96c-2.0718,-0.8072 -3.8207,-2.5023 -4.5472,-4.6279 -0.1614,-0.2152 -0.3498,-0.9686 -0.5112,-1.2108 -0.5112,-2.4484 -1.1839,-7.7759 0.9686,-9.6863 0.296,-0.7802 1.0224,-1.4798 1.6413,-2.0179 4.1705,-2.7714 7.5607,0.5381 9.1213,4.4933 0.1883,0.8341 0.1883,0.8341 0.3766,1.2646 0.1615,2.1525 0.5651,5.6773 -0.6188,7.5338 -0.565,1.7758 -2.3139,3.74 -4.1705,4.1974 -0.7534,0 -1.5067,0.0269 -2.2601,0.0538z"/>
   <path id="_216017792" class="fil3" d="M126.615 133.422c-0.3767,-0.1883 -0.7265,-0.3498 -1.0762,-0.5112 -4.2782,-3.0404 -5.0584,-9.0675 -3.0405,-13.7492 1.5068,-2.287 2.4485,-3.1211 5.193,-3.1211 0.6995,0.1076 1.1031,0.4305 1.7489,0.6726 1.7758,1.5337 2.9059,3.175 3.3095,5.5427 0.0807,0.2691 0.1614,0.5382 0.269,0.8072 0,4.1705 -0.0807,8.6639 -4.601,10.3052 -0.6188,0 -1.2107,0.0269 -1.8027,0.0538z"/>
   <path id="_215615608" class="fil1" d="M194.07 132.238c-0.8341,-0.3229 -0.8341,-0.3229 -1.3453,-0.3767 -0.8341,-0.4574 -1.6682,-0.8879 -2.5023,-1.3184 -1.5875,-1.2915 -3.9821,-3.5516 -4.3319,-5.6503 1.1031,-0.1077 2.2332,-0.2153 3.3633,-0.3229 0.9955,0.9417 1.8296,1.8834 3.0135,2.6099 0.3229,0.0807 0.3229,0.0807 0.6727,0.3498 0.9686,0.1883 0.9686,0.1883 1.2915,0.3498 2.4484,0 4.3588,-0.5651 5.8925,-2.6638 0.6188,-0.2959 1.0224,-1.5874 1.6143,-2.1794 3.2288,-0.5381 3.2288,-0.5381 3.74,-0.5112 -0.0269,0.3498 -0.0538,0.6996 -0.0807,1.0494 -0.6457,0.6457 -0.7265,2.2063 -1.426,3.0673 -0.5382,1.8027 -2.9597,3.74 -4.4934,4.7355 -0.5919,0.1884 -0.8341,0.3767 -2.3678,0.8072 -1.0224,0 -2.0448,0.0269 -3.0404,0.0538z"/>
   <path id="_216013592" class="fil1" d="M199.451 132.157c0.2422,-0.0807 0.4305,-0.2422 0.4843,-0.4843 2.9866,-1.8835 5.3006,-4.8432 6.0809,-8.4217 0.1883,-0.3498 0.3766,-0.6996 0.565,-1.0225 1.8834,-0.2959 3.7131,-0.7802 5.5965,-0.9148 -0.6188,4.332 -3.9552,8.3679 -7.8836,10.063 -1.5874,0.3767 -3.2287,0.565 -4.8431,0.7803z"/>
   <path id="_216017672" class="fil1" d="M45.9768 131.081c-1.0763,-0.1345 -1.0763,-0.1345 -2.583,-0.5112 -1.2108,-0.5919 -4.1167,-1.6144 -4.4934,-2.9866 -0.565,-0.2421 -0.9686,-1.2108 -1.3722,-1.3453 -2.5561,-3.6055 -3.8745,-7.184 -4.1436,-11.5698 0.0269,-1.6412 0.0538,-3.2556 0.0807,-4.87 1.1839,-5.2198 2.9866,-9.1751 8.3679,-11.0585 1.1301,0 2.2871,0 3.444,0 4.3589,1.2108 7.1033,4.2243 9.0944,8.1795 0.0807,0.296 0.269,0.4574 0.4574,1.1032 0.8341,1.2646 0.6996,3.1749 1.3453,4.4933 0.1614,1.7759 0.1614,1.7759 0.2422,4.7625 -0.1884,3.3364 -0.9148,6.1077 -2.5023,9.0136 -2.2063,2.9866 -4.2512,4.3588 -7.9374,4.7893z"/>
   <path id="_216017624" class="fil1" d="M50.4702 130.731c-0.0808,-0.0539 -0.1346,-0.0808 -0.1884,-0.1077 0,-0.269 1.0494,-0.7533 1.2377,-0.8341 0.6727,-0.6457 1.3453,-1.2915 2.018,-1.9372 2.879,-4.0629 3.5247,-8.0719 3.5247,-13.1034 -0.1883,-0.8879 -0.1883,-0.8879 -0.3767,-2.7983 -0.1614,-0.3229 -0.3498,-1.5068 -1.1569,-3.9552 -0.5651,-0.8072 -1.1032,-2.9866 -1.8835,-3.4979 -0.6457,-1.1569 -1.8834,-2.9597 -3.0942,-3.6054 -0.8072,-1.157 -2.6099,-1.7758 -3.7669,-2.4216 1.0762,-0.0807 1.0762,-0.0807 2.287,0 1.2646,0.9686 1.2646,0.9686 1.5337,1.0763 1.6413,1.4529 3.6593,3.3902 4.601,5.4081 0.7534,0.8341 1.8296,3.471 2.0449,4.601 0.565,0.8341 0.269,2.2602 1.0762,2.9059 1.4261,0.0538 2.8521,0.1076 4.2781,0.1884 0.1077,0.7803 0.2422,1.5605 0.3767,2.3408 0,2.9597 -0.5381,5.3544 -1.2646,8.1258 -0.0807,0.0538 -0.1345,0.1076 -0.1883,0.1614 -0.3498,1.4529 -1.6413,2.9328 -2.5023,4.1436 -1.2915,1.1031 -2.6099,2.1256 -4.2243,2.6906 -1.453,0.2691 -2.879,0.5381 -4.3319,0.6189z"/>
   <path id="_216016736" class="fil1" d="M101.243 128.659c-1.1839,-0.3229 -1.1839,-0.3229 -1.8834,-0.4036 -1.5068,-0.8879 -3.0405,-1.5068 -4.2782,-2.7445 -1.0224,-0.3767 -1.8834,-2.5023 -2.6099,-3.3902 -0.0538,-0.2421 -0.0807,-0.4843 -0.1076,-0.7265 1.5068,0.3229 3.2019,-0.0269 4.601,0.7534 0.565,1.157 2.6099,1.8027 3.8207,1.9642 1.9642,-0.0538 2.7175,-0.2691 4.3588,-1.2377 1.6413,0.0538 3.2557,0.2152 4.897,0.4574 0,0.1614 -0.2422,0.3767 -0.6996,1.157 -1.8296,2.0987 -3.6054,3.4171 -6.323,4.0359 -0.5919,0.0269 -1.1839,0.0808 -1.7758,0.1346z"/>
   <path id="_216017144" class="fil1" d="M105.978 128.31c-0.0269,-0.0538 -0.0538,-0.1076 -0.0538,-0.1615 2.1794,-1.1838 3.444,-2.6368 4.8163,-4.7624 0.3497,-0.1345 0.8071,-0.0807 1.1569,0.0269 0.9148,-0.0807 1.722,-0.2152 2.6369,-0.0807 0.1076,2.0718 -0.027,1.8565 -1.7221,3.3095 -1.2107,0.5381 -1.2107,0.5381 -1.5067,0.7803 -1.8027,0.5112 -3.4171,0.8341 -5.3275,0.8879z"/>
   <path id="_215615776" class="fil4" d="M194.688 127.314c-0.5113,-0.1345 -0.9956,-0.269 -1.4799,-0.3766 -0.6726,-0.296 -2.9597,-1.5875 -2.9597,-2.4485 3.4709,-0.296 6.9688,-0.9956 10.4397,-1.2108 -0.2153,0.3498 -0.2153,0.3498 -0.4036,0.9148 -0.4843,0.5112 -0.9686,1.0494 -1.426,1.5875 -1.3992,1.1301 -2.3678,1.3453 -4.1705,1.5336z"/>
   <path id="_215615896" class="fil0" d="M44.0933 126.426c-1.9103,-0.861 -3.2825,-1.8027 -4.7086,-3.3902 -0.8072,-1.2915 -0.9955,-1.8296 -1.2377,-2.1256 -1.5336,-3.2826 -1.6951,-6.6997 -1.1031,-10.2782 0.1883,-0.3767 0.3767,-1.2108 0.5381,-1.3722 0.3767,-1.6951 2.0449,-3.7938 3.6862,-4.4665 0.6457,-0.8072 2.9328,-0.5919 3.8207,-0.5919 4.1974,1.2108 6.2692,5.0315 7.2916,9.0136 0.1076,0.861 0.2422,1.722 0.3767,2.583 -0.0807,2.6368 -0.5112,4.7355 -1.6413,7.1571 -0.5112,0.6189 -1.0224,1.2377 -1.5067,1.8835 -0.888,0.6188 -1.7759,1.2377 -2.8252,1.5336 -0.9148,0 -1.8027,0.0269 -2.6907,0.0538z"/>
   <path id="_60199544" class="fil2" d="M45.3579 125.969c-3.4709,-0.269 -6.4306,-3.6323 -7.2378,-6.8611 -0.0807,-0.1345 -0.1614,-0.2422 -0.2421,-0.3498 -0.8341,-5.5158 -1.0494,-11.8388 5.1122,-14.0182 1.157,0 1.9372,0.1614 3.0404,0.3767 2.0987,1.13 4.1705,3.1211 4.8701,5.4889 0.4305,0.565 0.6726,1.8296 0.7802,2.5292 0.6458,1.426 0.6458,6.5651 -0.4574,7.9643 -0.7802,2.7444 -3.148,4.5472 -5.8656,4.87z"/>
   <path id="_216014312" class="fil5" d="M152.795 125.888c-0.6726,-0.0807 -1.3184,-0.1345 -1.9641,-0.1883 0.0269,-0.1346 0.0538,-0.2422 0.0807,-0.3498 0.6188,-0.1346 2.3139,-0.6458 2.5023,-1.2108 1.3453,-0.3229 2.5561,-3.5786 2.9328,-4.6279 0.1614,-1.0494 0.3498,-2.0987 0.5381,-3.1481 0.0269,-2.3139 0.0538,-4.6278 0.1076,-6.9149 11.785,-0.4036 23.5969,-1.0493 35.355,-1.8296 5.8387,-0.7534 11.7581,-1.1301 17.5968,-1.9642 0.1614,-0.1076 1.9642,-0.2691 4.9239,-0.8072 0.1883,-0.1076 0.1883,-0.1076 1.8834,-0.269 1.2377,-0.5113 3.148,-0.8341 4.4934,-0.7803 0.4843,2.9328 0.269,6.3768 0.0269,9.3365 -0.3498,1.1301 -0.8879,2.2601 -1.2108,3.3364 -0.0807,0 -0.1345,0.0269 -0.1884,0.0538 -0.861,1.1031 -1.9641,1.8296 -3.2018,2.4485 0,0.0538 0,0.1076 0,0.1883 -0.4574,0.0538 -0.7265,0.1345 -1.0763,0.3767 -1.1839,0.3229 -2.8521,0.6458 -3.9552,1.1839 -0.565,0.0538 -1.1839,0.1076 -1.6951,0.3498 -4.2781,0.6726 -8.5562,1.3722 -12.8344,2.0718 -1.7758,0.1614 -3.5516,0.3497 -5.3005,0.5381 -0.8879,0.1614 -3.5786,0.3498 -4.3858,0.5381 -2.7713,0.1615 -2.7713,0.1615 -10.8432,0.8879 -7.9105,0.2153 -15.8748,0.6458 -23.7853,0.7803z"/>
   <path id="_215322816" class="fil5" d="M145.53 125.511c-2.2332,-0.1345 -2.2332,-0.1345 -4.305,-0.4305 -0.1345,-0.3767 -0.6458,-1.1301 -1.0225,-1.8834 -0.1614,-0.1615 -0.1614,-0.1615 -1.8027,-3.9553 -0.4843,-1.9372 -1.5067,-4.1436 -2.2332,-6.0001 -0.1615,-0.3498 -1.3184,-3.4709 -1.7489,-3.6054 -0.2691,-1.6144 -2.1256,-3.2826 -2.9597,-4.6818 -0.0808,-0.0269 -0.1346,-0.0538 -0.1884,-0.0538 -1.1839,-1.5874 -2.7713,-2.2601 -4.5741,-3.0135 -1.8565,-0.1614 -3.4171,-0.296 -5.2736,0.0807 -0.6727,0.2691 -2.7176,0.8879 -3.0673,1.749 -0.5382,0.1345 -0.592,0.7264 -0.9956,0.8879 -1.991,2.2063 -2.9597,5.6503 -3.3633,8.5293 -0.7534,3.0673 -1.0224,6.4037 -1.6413,9.5248 -0.8072,0.1884 -1.9103,0.0539 -2.7713,0 0,-1.1838 0.5919,-2.5292 0.7803,-3.7399 0.5919,-1.2916 0.4574,-3.1481 0.861,-4.5203 0.5381,-2.879 0.5381,-2.879 0.6188,-3.6862 0.1884,-0.4305 0.1884,-0.4305 1.2915,-4.7893 1.3184,-3.0135 2.9597,-7.3186 6.4845,-8.4755 0,-0.0808 0.0269,-0.1615 0.0538,-0.2153 0.9148,-0.1614 1.8834,-0.5919 2.8251,-0.8341 1.1032,-0.0269 2.2064,-0.0538 3.3095,-0.0807 1.9911,0.2422 3.6055,0.6996 5.3813,1.6144 0.0807,0 0.1614,0.0269 0.2691,0.0538 0,0.0538 0.0269,0.1076 0.0538,0.1883 0.2152,0.0808 0.4305,0.1615 0.6726,0.2691 0,0.296 0.6727,0.565 0.888,0.6996 0.565,1.0493 1.8834,1.6951 2.4215,2.7982 0.2691,0 0.3498,0.4305 0.4574,0.6189 0.6727,0 3.6862,6.2692 3.8746,7.3454 0.269,0.4574 3.713,9.6325 3.8745,9.7939 0.5381,1.9104 1.722,3.9553 2.7982,5.6504 -0.3228,0.0538 -0.6457,0.1076 -0.9686,0.1614z"/>
   <path id="_215615536" class="fil5" d="M147.333 125.431c-1.991,-2.583 -3.148,-5.8656 -4.2781,-8.8791 -0.3498,-1.8296 -1.5606,-3.7669 -2.0718,-5.5965 -0.3767,-0.592 -0.5381,-1.2377 -0.6995,-1.8835 1.8565,-0.0269 3.7399,-0.0269 5.6234,-0.0269 4.4665,0.1884 10.0361,0.2691 10.4128,0.3767 0,4.0898 0.8879,13.1841 -4.5203,14.9869 -0.4843,0.7533 -3.4709,0.9686 -4.4665,1.0224z"/>
   <path id="_215322696" class="fil0" d="M44.5508 124.166c-3.5786,-0.7534 -5.1392,-4.0629 -5.9733,-7.3454 -0.0807,-3.5517 -0.1883,-6.323 2.4216,-8.933 0.5381,-0.2959 1.0763,-0.5919 1.6413,-0.8879 0.4574,-0.0538 0.9148,-0.0807 1.3722,-0.1076 1.9104,0.1345 3.0135,1.1032 4.2512,2.4485 2.5561,3.8476 2.9866,8.6638 0.6189,12.6998 -1.4799,1.5875 -2.2332,1.9373 -4.3319,2.1256z"/>
   <path id="_215323944" class="fil3" d="M44.0933 123.547c-2.7713,-1.453 -4.3319,-3.471 -4.7893,-6.6459 -1.157,-3.3095 0.8341,-10.5742 5.462,-9.3634 0.2422,0.1614 0.2422,0.1614 0.9955,0.3497 0.296,0.2691 0.7265,0.4844 1.5337,1.2108 0.9955,1.3723 1.6682,2.5292 2.2332,4.1974 0.1615,1.5337 0.1615,1.5337 0.3498,2.3409 0,1.6951 -0.296,3.1211 -0.7265,4.7355 -0.269,0.4574 -0.5381,0.9417 -0.8071,1.426 -0.9687,0.9687 -1.1839,1.0494 -1.2646,1.2377 -0.6727,0.1884 -0.6727,0.1884 -1.0763,0.4574 -0.6458,0 -1.2915,0.0269 -1.9104,0.0539z"/>
   <path id="_216378320" class="fil6" d="M100.166 123.547c-0.5112,-0.3229 -1.2646,-0.6727 -1.8565,-0.8611 0,-0.2421 -0.4036,-0.3497 -0.565,-0.565 1.991,0 3.9821,0.3229 5.9732,0.4843 0.296,-0.1076 0.296,-0.1076 0.4305,-0.0538 -0.4574,1.2646 -2.9597,0.9686 -3.9822,0.9956z"/>
   <path id="_215403016" class="fil6" d="M113.431 122.74c-0.1345,-0.0269 -0.2422,-0.0539 -0.3498,-0.0808 -0.0269,-0.2152 -0.0538,-0.4305 -0.0538,-0.6457 1.3991,-5.3813 1.157,-11.3007 4.0629,-16.1707 0.0538,-0.027 0.1076,-0.0539 0.1883,-0.0539 0.2153,-0.5381 0.6189,-0.9686 0.9955,-1.426 0.9149,-0.6188 0.9149,-0.6188 0.9956,-0.8072 1.0224,-0.5381 2.0987,-0.8072 3.1211,-1.2377 1.2108,0 2.4485,0 3.6862,0 1.426,0.6189 4.3588,1.5875 4.9239,3.2826 -1.8028,0.0538 -3.6055,0.1345 -5.3813,0.2152 -0.9417,0.4036 -3.7938,0.8072 -4.1167,1.7759 -2.2601,1.3184 -3.74,3.7938 -4.9777,6.0808 -0.4036,1.0763 -0.8072,2.1525 -1.1839,3.2288 -0.1614,1.1839 -0.1614,1.1839 -0.3497,1.6144 -0.3498,3.2287 -0.3498,3.2287 -0.5651,4.1435 -0.3498,0.0269 -0.6726,0.0539 -0.9955,0.0808z"/>
   <path id="_215286824" class="fil5" d="M108.05 122.471c-4.7624,-0.5112 -9.5787,-0.9686 -14.3411,-1.5875 -1.5606,-0.1076 -3.6862,-0.1345 -5.1391,-0.6457 -1.2377,-2.1525 -2.4754,-4.5472 -1.1839,-6.9419 0.592,0 1.2108,0.0269 1.8296,0.0538 3.9284,0.4574 7.9374,0.6996 11.8389,1.2646 2.852,0.9418 6.2691,0.7534 9.2288,0.861 -0.1614,2.2602 -0.6726,4.7087 -1.426,6.8343 -0.2691,0.0538 -0.5381,0.1076 -0.8072,0.1614z"/>
   <path id="_215287136" class="fil0" d="M167.594 121.206c-0.0807,-0.0807 -0.1345,-0.1614 -0.1883,-0.2153 -0.2153,-0.0807 -0.4305,-0.1345 -0.6458,-0.1883 -3.4709,-2.9866 -1.5605,-7.3993 1.9911,-9.0674 1.5875,0 2.2871,0.1076 3.3902,1.2107 1.1032,2.018 1.0763,3.471 0.1615,5.6235 -1.3185,1.8834 -2.3409,2.5292 -4.7087,2.6368z"/>
   <path id="_215287184" class="fil4" d="M168.132 120.587c-0.3767,-0.1077 -0.7265,-0.1884 -1.0763,-0.2691 0.0538,-0.1076 0.1076,-0.2153 0.1614,-0.3229 1.9373,-1.3991 2.4485,-2.3139 2.5831,-4.7086 -0.296,-1.2646 -0.9149,-1.6682 -1.8028,-2.4754 0,-0.0538 0,-0.1076 0,-0.1614 0.2691,-0.1077 0.5651,-0.2153 0.861,-0.296 2.0987,-0.1614 2.2871,0.5381 3.3902,1.9642 0,1.9372 0.1346,2.9866 -0.9148,4.6279 -0.5381,0.5919 -0.5381,0.5919 -1.4529,1.3184 -0.592,0.1076 -1.1839,0.2152 -1.7489,0.3229z"/>
   <path id="_216014456" class="fil0" d="M182.311 120.318c-0.1614,-0.0807 -0.3228,-0.1615 -0.4843,-0.2422 0,-2.3139 0.6189,-4.5741 0.7803,-6.8611 0.296,-0.565 0.296,-0.565 0.4843,-0.6727 5.0046,-0.1345 10.0092,-0.4574 14.9869,-0.9686 1.991,-0.5381 4.3588,-0.8341 6.4306,-0.9955 0.0807,0.1076 0.1883,0.2152 0.296,0.3229 -0.1346,1.9641 -0.4036,4.3857 -0.9418,6.296 -1.1031,1.1032 -3.4978,1.0494 -5.0045,1.5337 -2.1526,0.296 -4.2782,0.592 -6.4038,0.9148 -2.6099,0.1615 -2.6099,0.1615 -3.9552,0.3498 -5.1122,0.1884 -5.1122,0.1884 -6.1885,0.3229z"/>
   <path id="_216015008" class="fil7" d="M166.517 119.592c-1.2377,-0.6188 -0.8341,-2.6906 -0.8341,-3.8207 0.1345,-0.0538 0.269,-0.0807 0.4036,-0.1076 0.0269,0.4843 0.0269,0.4843 0.1076,0.4305 -0.0538,-0.4843 -0.0807,-0.9686 -0.1076,-1.4261 0.296,0.0539 0.296,0.0539 0.4574,0.2153 0.0269,-0.0538 0.0538,-0.1076 0.1076,-0.1614 -0.5112,-0.2422 0.5381,-2.5561 2.314,-0.1884 0.3228,2.5561 -0.1077,3.9822 -2.4485,5.0584z"/>
   <path id="_216014576" class="fil8" d="M182.392 119.592c0,-1.9103 0.4036,-4.0898 0.8341,-6.0001 0.0808,-0.1614 0.1615,-0.296 0.2422,-0.4305 6.5652,-0.2691 12.9958,-0.6996 19.4533,-1.7758 0.4305,0.0269 0.861,0.0538 1.2915,0.0807 -0.3498,1.7489 -0.6188,3.5516 -0.8879,5.3005 -0.4305,0.6458 -1.0493,0.3498 -1.5606,0.7265 -4.305,0.861 -8.61,1.5606 -12.9957,1.7758 -2.0987,0.1884 -4.2512,0.2691 -6.3769,0.3229z"/>
   <path id="_216014360" class="fil9" d="M76.3003 118.892c-1.3991,-0.2152 -2.6368,-0.7802 -3.8745,-1.426 -0.0269,-0.1614 -0.0538,-0.3229 -0.0808,-0.4574 0.7803,-0.2152 1.3454,-0.9148 1.8297,-1.5337 0.8879,-2.7175 -0.0807,-4.1974 -2.4754,-5.3812 0,-0.0808 0,-0.1615 0,-0.2422 3.1211,-2.3409 6.4575,-3.0404 10.1168,-1.4798 0.4305,0.2421 1.6413,0.8071 1.7758,1.2646 -2.9866,0.1345 -4.1974,1.5874 -4.1974,4.4933 0.5381,2.018 1.157,2.2332 3.0135,3.2019 0,0.0538 0,0.1345 0,0.2152 -0.1614,0.0538 -0.3228,0.1077 -0.4574,0.1615 0,0.0538 0,0.1076 0,0.1883 -1.13,0.3229 -2.2063,0.8072 -3.4171,0.9417 -0.7534,0 -1.5067,0.0269 -2.2332,0.0538z"/>
   <path id="_216014960" class="fil10" d="M27.5997 117.816c-0.0269,-0.1884 -0.0538,-0.3767 -0.0807,-0.5381 0.6458,-0.9956 0.4843,-2.3947 1.1032,-3.3364 0.2421,-1.3453 0.6726,-2.6099 0.9955,-3.9015 0.3229,-0.1883 0.3229,-0.1883 0.5112,-0.1614 0,0.6727 -0.2959,1.8027 -0.6188,2.3678 -0.3229,1.7758 -1.0494,3.5516 -1.4261,5.3274 -0.1614,0.0808 -0.3228,0.1615 -0.4843,0.2422z"/>
   <path id="_216014336" class="fil4" d="M28.8643 117.816c-0.5919,-0.8879 1.2377,-5.0315 1.453,-6.2154 0.1614,-0.565 0.3229,-1.1031 0.5112,-1.6413 0.5919,-0.1883 1.3184,-0.1076 1.9373,-0.0807 -0.1077,2.0987 -0.296,4.305 0.1614,6.3768 0,0.4305 0,0.861 0,1.3184 -1.3722,0.0808 -2.7175,0.1615 -4.0629,0.2422z"/>
   <path id="_216014528" class="fil0" d="M166.437 117.17c-0.0269,-0.0538 -0.0538,-0.0807 -0.0808,-0.1076 0.1884,0 0.3767,0 0.5651,0 -0.1615,0.0269 -0.3229,0.0538 -0.4843,0.1076z"/>
   <path id="_216014432" class="fil0" d="M166.168 116.821c-0.0269,-0.1346 -0.0538,-0.2422 -0.0807,-0.3498 0.0538,0 0.1076,0 0.1614,0 -0.0269,0.1076 -0.0538,0.2152 -0.0807,0.3498z"/>
   <path id="_216014816" class="fil0" d="M167.325 116.821c-0.0538,-0.1346 -0.0538,-0.1346 0.0538,-0.2422 0.0269,0.0269 0.0538,0.0538 0.1076,0.1076 -0.0538,0.0269 -0.1076,0.0807 -0.1614,0.1346z"/>
   <path id="_216014744" class="fil10" d="M82.9462 116.74c-0.3767,-0.1614 -0.3767,-0.1614 -1.5337,-0.3767 -0.0269,-0.0807 -0.0538,-0.1345 -0.0807,-0.1883 -1.157,-0.565 -1.2646,-1.9103 -1.3184,-3.0404 0.1614,-1.0763 0.4574,-1.5337 1.1569,-2.2602 1.157,-0.565 1.7759,-0.6457 3.0136,-0.2152 0.4574,0.4036 0.4574,0.4036 0.5381,0.5919 -2.2063,0.0808 -3.3902,0.1884 -3.6324,2.5292 0.4574,1.6413 2.0449,2.0987 3.6324,1.6144 -0.0269,0.1615 -0.0538,0.3498 -0.0807,0.5381 -0.5382,0.3498 -1.0763,0.6189 -1.6951,0.8072z"/>
   <path id="_216014384" class="fil10" d="M71.1074 116.632c-0.296,-0.0807 -0.5651,-0.1614 -0.8341,-0.2421 0,-0.0808 0,-0.1615 0,-0.2153 1.3722,-0.1883 2.1525,-0.7265 2.5561,-2.1256 0,-1.3722 -0.6727,-1.8834 -1.749,-2.5023 0,-0.5112 0,-0.5112 0.0808,-0.5919 2.2332,-0.0808 2.7444,1.5874 2.7444,3.444 -0.4574,1.2377 -0.6188,1.6413 -1.9103,2.1794 -0.296,0 -0.592,0.0269 -0.8879,0.0538z"/>
   <path id="_216014408" class="fil0" d="M213.442 116.094c-0.7534,-0.592 -1.426,-1.157 -1.5875,-2.1525 0,-1.2646 0.0539,-4.0898 1.453,-4.6817 0.4574,-0.6458 1.2108,-0.9956 1.9911,-1.1032 2.9328,0.8341 2.3677,3.4171 1.6682,5.9194 -0.0808,0.0269 -0.1346,0.0538 -0.1884,0.0807 -0.6996,1.5606 -1.8027,1.8566 -3.3364,1.9373z"/>
   <path id="_216014912" class="fil9" d="M63.6543 115.664c-0.1615,-0.8341 -0.4843,-2.2602 -0.2422,-3.0135 0.296,-0.1077 7.0226,-0.2691 7.2917,-0.3767 0.7802,0 0.8341,0.4036 1.426,0.7534 0,0.4574 0,0.9148 0,1.3722 -1.426,2.1525 -6.3768,1.2646 -8.4755,1.2646z"/>
   <path id="_216015080" class="fil4" d="M213.711 115.556c-0.2153,-0.2153 -0.2422,-0.2691 -0.2422,-0.5651 0.1615,-0.0807 0.3498,-0.1614 0.5381,-0.2421 1.157,-1.3454 1.6413,-2.4216 1.3454,-4.332 -0.4843,-0.7264 -0.9148,-1.13 -0.9687,-1.3453 0.3229,-0.1076 0.6458,-0.1883 0.9687,-0.269 2.287,0.8071 1.6144,2.9058 1.1569,4.8431 -0.8071,1.1839 -1.426,1.7758 -2.7982,1.9104z"/>
   <path id="_216014624" class="fil9" d="M82.9462 114.937c-1.157,-0.2152 -1.3992,-1.1839 -1.1301,-2.2063 0.9955,-1.2377 3.4978,-1.0225 4.897,-0.8341 0,1.0762 -0.1884,1.8565 -0.5113,2.879 -1.1031,0.0538 -2.1794,0.1076 -3.2556,0.1614z"/>
   <path id="_216014768" class="fil0" d="M167.701 114.937c0,-0.5381 0,-0.5381 0.0807,-0.5381 -0.0269,0.1614 -0.0538,0.3498 -0.0807,0.5381z"/>
   <path id="_216014504" class="fil11" d="M106.435 114.856c-2.2601,-0.2422 -5.4082,-0.4036 -7.453,-1.5875 -0.1077,-0.0269 -0.1884,-0.0269 -0.2691,-0.0269 -0.296,-0.5919 -0.9686,-0.8341 -1.2377,-1.5337 -0.0807,0 -0.1345,0 -0.1883,0 -1.2377,-5.5696 -1.6413,-11.4621 -2.1256,-17.1393 -0.1346,-2.4216 -0.2422,-4.8432 -0.3498,-7.2647 0,-9.3904 -0.0807,-19.2112 1.426,-28.5208 0.592,-7.8836 1.9373,-15.821 2.9597,-23.6776 0.9686,-1.9104 1.8296,-2.2602 3.8207,-2.8252 4.305,-0.1345 9.0944,0.0538 13.1034,1.6682 0,0.0538 0,0.1076 0,0.1883 1.5606,0.3767 3.2019,3.2557 4.0091,4.4934 0.0538,0.0269 0.1345,0.0538 0.2152,0.0807 0.0538,0.1884 0.1077,0.4036 0.1615,0.6189 0.3498,0 1.6144,2.7444 1.6144,2.7713 0.0538,0 0.1076,0 0.1883,0 2.0718,4.4127 4.0629,8.8253 5.5965,13.4532 0.1346,1.2646 0.6996,2.5023 0.8072,3.7669 0,4.305 0,4.305 -0.0807,5.6504 -0.861,4.9238 -0.9955,10.0629 -1.722,14.9868 -0.2153,5.3006 -0.2691,10.4935 -0.0269,15.7941 -1.157,0 -2.2871,0 -3.4171,0.0269 -0.592,0.0538 -1.1839,0.1076 -1.7758,0.1883 -3.0405,1.2646 -5.9733,2.4216 -7.2648,5.8656 -0.0807,0 -0.1345,0 -0.1883,0 -0.8341,2.0449 -1.722,3.8745 -2.2063,6.027 -0.0808,0.0808 -0.1346,0.1615 -0.1884,0.2691 -0.296,2.1794 -0.9148,4.4934 -1.3722,6.6459 -1.3453,0.0269 -2.6906,0.0538 -4.036,0.0807z"/>
   <path id="_216014552" class="fil7" d="M212.796 114.587c-0.3498,-0.7534 -0.4036,-1.2108 -0.4036,-2.0449 0.5381,-0.5381 0.2152,-1.3453 0.8879,-1.7489 -0.1615,-0.4843 0.1614,-0.5919 0.2421,-0.9686 0.1884,-0.0269 0.3767,-0.0538 0.592,-0.0538 1.2646,1.5336 0.7264,3.2557 -0.592,4.5741 -0.3497,0.1883 -0.3497,0.1883 -0.7264,0.2421z"/>
   <path id="_216014840" class="fil0" d="M166.894 114.399c0.0538,-0.1076 0.0538,-0.1076 0.6188,-0.1884 0,0.0539 0,0.1077 0,0.1884 -0.2152,0 -0.4305,0 -0.6188,0z"/>
   <path id="_216015368" class="fil5" d="M97.4756 113.672c-3.0404,-0.565 -6.323,-0.6996 -9.4172,-1.0224 -0.2422,-0.1077 -0.4574,-0.2153 -0.6727,-0.296 -0.1883,-1.8027 -0.3767,-2.6099 -0.7265,-5.9463 -0.1076,-0.2691 -0.1076,-0.2691 -0.0807,-0.4574 3.0404,0 6.1885,0.1883 9.202,0.6995 0.1883,1.6144 0.2691,5.5159 2.0449,6.4038 0,0.0538 0.0269,0.1076 0.0538,0.1883 0.1345,0.0538 0.2691,0.1076 0.4036,0.1614 -0.0269,0.0539 -0.0538,0.1077 -0.0807,0.1884 -0.2422,0.0269 -0.4843,0.0538 -0.7265,0.0807z"/>
   <path id="_216015104" class="fil0" d="M213.604 112.515c0.0269,-0.1076 0.0538,-0.2152 0.0807,-0.3228 0,0.269 0,0.269 -0.0807,0.3228z"/>
   <path id="_216015776" class="fil9" d="M59.43 112.058c-0.3229,-0.1076 -0.6458,-0.1883 -0.9686,-0.269 -0.8341,-3.9015 -2.4485,-6.8612 -4.8701,-10.0899 -1.2377,-1.3184 -2.4754,-2.3947 -3.9283,-3.4979 -1.0494,-0.565 -2.2871,-1.4529 -3.471,-1.6143 -1.6682,-1.1032 -4.6279,-0.5382 -6.4844,-0.2691 -1.1301,0.4574 -2.0718,0.9686 -3.0942,1.5337 -1.6144,1.3722 -1.722,1.5874 -1.9373,1.6951 -0.6726,0.9955 -1.3453,1.991 -2.018,3.0135 -0.1883,0.6457 -0.1883,0.6457 -0.7264,1.8027 -0.3498,1.5875 -0.7534,3.175 -0.9956,4.7624 -0.269,0.1346 -0.6457,0.0538 -0.9686,0 -0.5381,-1.2915 0.9417,-7.5876 2.1794,-8.2064 0.2691,-0.9417 1.2108,-2.1525 1.9642,-2.6907 0.8341,-1.1031 2.0718,-1.8296 3.2018,-2.6099 0.8341,-0.3767 1.5068,-0.565 1.749,-0.7264 2.9058,-0.6727 5.7848,-0.3498 8.6638,0.3497 0.0269,0.0539 0.0807,0.1077 0.1345,0.1884 3.6055,0.8879 8.3679,5.9463 9.7401,9.2827 0.888,1.0762 2.7445,6.0001 2.4216,7.2916 -0.2152,0 -0.4036,0.0269 -0.5919,0.0538z"/>
   <path id="_216015344" class="fil9" d="M60.8829 112.058c-0.4305,-1.6144 -0.7534,-3.8207 -1.6682,-5.2467 -0.1345,-0.6996 -0.6995,-1.9373 -1.1569,-2.5023 -2.0449,-3.7131 -5.6504,-7.9643 -9.794,-9.3365 0.0269,-0.0538 0.0538,-0.1076 0.0808,-0.1615 1.6681,-0.0269 4.4664,0.1615 11.489,0.4305 0.6726,0.4844 2.6368,1.1301 2.8521,1.8297 2.3946,1.5067 5.3543,5.4889 6.027,8.1795 0.0538,0.0538 0.1076,0.1076 0.1883,0.1615 0.4574,1.8027 1.722,4.4126 1.4261,6.2422 -3.1481,0.1615 -6.2961,0.3498 -9.4442,0.4036z"/>
   <path id="_216015224" class="fil10" d="M85.7982 111.359c-0.2959,-0.1615 -0.4843,-0.3229 -0.4843,-0.6727 0.4574,-0.0269 1.453,-0.3767 1.157,0.5112 -0.2422,0.0538 -0.4574,0.1076 -0.6727,0.1615z"/>
   <path id="_216015752" class="fil7" d="M213.98 110.982c-0.0807,-0.2153 -0.0807,-0.2153 0.0269,-0.4036 0.0808,0 0.0808,0 0.0808,0.3498 -0.0538,0 -0.0808,0.0269 -0.1077,0.0538z"/>
   <path id="_216015392" class="fil10" d="M84.9103 110.094c-0.4036,-0.3229 -0.4036,-0.3229 -0.861,-0.9149 -3.6862,-2.8789 -8.5024,-2.9866 -12.2693,-0.1614 -0.1076,0.2153 -0.1076,0.2153 -0.9686,0.861 -0.1345,-0.4305 -0.1345,-0.7803 -0.1076,-1.2646 1.2915,-0.6457 2.6099,-1.5875 3.9821,-2.0718 0.4843,-0.4036 0.9686,-0.5919 1.5337,-0.8072 1.7489,-0.9955 1.7489,-0.9955 2.0179,-1.0762 1.0763,0.0269 2.1526,0.0538 3.2288,0.1076 1.3722,1.1301 3.3095,1.722 4.6548,2.879 0.1345,0.4843 0.4843,2.0449 0.1345,2.3946 -0.4574,0 -0.9148,0.027 -1.3453,0.0539z"/>
   <path id="_216015176" class="fil4" d="M31.824 109.287c-0.0807,-0.0269 -0.1345,-0.0538 -0.1883,-0.0807 0.1883,-5.758 3.1211,-10.6281 8.61,-12.4577 1.6682,-0.1345 3.3095,-0.1883 4.9777,0.0269 0.3498,0.1883 0.3498,0.1883 2.2332,0.8072 0.0269,0.0538 0.0539,0.1076 0.0808,0.1614 -0.5651,0.1077 -0.5651,0.1077 -4.5203,0.2691 -4.6279,0.7534 -8.2872,4.2512 -9.3903,8.7984 -0.1615,0.3229 -0.3498,1.3184 -0.6996,2.4216 -0.3767,0 -0.7534,0.0269 -1.1032,0.0538z"/>
   <path id="_216015248" class="fil4" d="M158.176 108.829c-0.4036,-0.0808 -0.8072,-0.1615 -1.1839,-0.2422 0,-0.5919 0,-1.157 0.0269,-1.722 10.3052,-0.3229 20.6372,-1.157 30.9424,-1.4799 7.3454,-0.7264 7.3454,-0.7264 9.2289,-0.8071 0.9148,-0.1884 5.5696,-0.7265 6.9149,-0.8072 2.6906,-0.8072 5.7311,-0.5382 8.4217,-1.3454 4.305,-0.7264 4.8431,-0.9148 6.1077,-1.0762 1.5606,-0.6189 1.9373,0.296 2.61,1.5606 -5.0046,1.1569 -10.1437,1.9103 -15.256,2.6368 -0.269,0.1076 -2.5022,0.269 -3.4171,0.4574 -5.5427,0.5919 -11.193,1.2108 -16.7626,1.426 -5.2199,0.6458 -10.8164,0.6996 -16.0632,0.9148 -10.4934,0.3498 -10.4934,0.3498 -11.5697,0.4844z"/>
   <path id="_216015296" class="fil4" d="M153.064 108.668c-4.3588,-0.1076 -8.7177,-0.1883 -13.0765,-0.269 -0.3229,-0.4844 -0.7534,-1.157 -0.7534,-1.749 4.8701,-0.0269 4.8701,-0.0269 16.7358,0.1884 0.4036,0.4036 0.3767,1.1032 0.3498,1.6413 -0.9149,0.2959 -2.2602,0.1614 -3.2557,0.1883z"/>
   <path id="_216015272" class="fil12" d="M70.3002 108.022c-0.0808,-0.4305 -0.1615,-0.861 -0.4305,-1.2108 0.9417,-1.1301 2.6099,-1.8835 4.0359,-2.314 0.8879,0.0538 1.8027,0.1077 2.7176,0.1615 0,0.0538 0.0269,0.1076 0.0538,0.1614 -2.018,0.9417 -3.9822,2.1256 -5.9732,3.1212 -0.1346,0.0269 -0.2691,0.0538 -0.4036,0.0807z"/>
   <path id="_216015560" class="fil10" d="M132.077 107.215c-0.0269,-0.0807 -0.0538,-0.1615 -0.0807,-0.2153 -0.5381,-0.1883 -0.7265,-0.3498 -1.4799,-0.565 -0.1076,-0.3767 1.1839,-0.0807 1.3185,-0.0807 0.1076,0.2421 0.2152,0.2959 0.3766,0.7803 -0.0538,0.0269 -0.1076,0.0538 -0.1345,0.0807z"/>
   <path id="_216015608" class="fil12" d="M85.7982 106.677c-0.6188,-0.3498 -2.3408,-1.0763 -2.6099,-1.7759 1.6682,0.0808 2.9059,-0.2152 2.7445,1.722 -0.0538,0 -0.1077,0.0269 -0.1346,0.0539z"/>
   <path id="_216015632" class="fil13" d="M157.019 106.246c-0.6726,-0.9417 -0.5919,-3.444 -0.6726,-4.7086 0.0538,-0.0538 0.1076,-0.0807 0.1883,-0.1076 2.7176,0.1076 15.3097,2.018 15.3097,-2.9059 -0.2421,-1.0224 -0.6726,-2.018 -1.0762,-2.9866 -0.565,-0.9955 -1.6682,-2.287 -2.0718,-3.3095 0.5919,-0.2959 3.5785,0.3229 3.7669,0.3229 0.565,1.0494 1.3722,2.0987 1.8296,3.2019 1.5875,1.9641 2.583,5.2198 5.1661,6.2153 0.6995,0.6996 2.0179,0.6996 2.9327,0.8072 7.6146,-0.0807 7.6146,-0.0807 11.6505,-0.269 1.157,-0.1884 1.157,-0.1884 3.8476,-0.3498 2.9866,-0.7803 6.6728,-0.5381 9.3904,-2.018 2.0987,-2.7175 1.5605,-6.4306 2.1525,-9.6325 0.4036,-0.5919 1.5336,-0.8072 2.2332,-0.8072 -0.2153,1.9642 -0.1614,3.9553 -0.1614,5.9194 0.1076,0.296 0.2152,0.592 0.3497,0.9148 2.2333,2.1257 4.7356,0.5113 7.0495,-0.4305 0.1884,1.3992 0.7534,3.0136 0.6458,4.4127 -2.5023,0.4036 -4.9508,1.1032 -7.4531,1.3722 -0.5112,0.1615 -2.2601,0.3498 -3.0673,0.5381 -7.7491,1.0225 -15.525,1.8028 -23.301,2.5023 -9.5517,0.4305 -19.1573,1.0494 -28.7091,1.3184z"/>
   <path id="_216015848" class="fil11" d="M143.486 106.139c-4.4126,-0.1345 -4.4126,-0.1345 -4.7086,-0.2421 -0.4843,-0.8341 -0.9417,-1.6682 -1.3991,-2.4754 -0.0807,-0.0269 -0.1346,-0.0538 -0.1884,-0.0538 -0.6188,-1.8835 -2.8251,-3.8207 -4.305,-5.0853 -0.1614,-0.0539 -0.296,-0.0808 -0.4305,-0.1077 -0.6188,-1.2646 -3.4978,-1.7489 -4.7355,-2.2601 -1.0225,-6.0001 -0.296,-12.2693 0,-18.2963 0.1883,-0.888 0.3767,-3.2288 0.7803,-6.0809 4.7086,0 9.3903,-0.6457 14.072,-1.0493 0.3767,0.1076 0.3229,0.2959 0.4843,0.6726 3.7131,6.6728 3.7131,6.6728 6.9957,12.9151 0.2152,0.5919 0.2959,0.8072 0.3498,1.4529 -3.0405,2.314 -1.3185,6.8074 -0.6189,9.8478 0.4036,0.8341 1.9104,4.3319 3.1212,4.5741 0.2421,0.7802 1.8834,1.1031 2.6099,1.2377 0.3229,1.6143 0.565,3.2287 0.5381,4.87 -4.1974,0.0269 -8.3948,0.0538 -12.5653,0.0807z"/>
   <path id="_216015824" class="fil4" d="M94.9464 105.87c-2.6906,-0.2153 -5.3813,-0.4036 -8.0719,-0.592 -0.2422,-0.0807 -0.4843,-0.1614 -0.6996,-0.2152 -0.1883,-0.5651 -0.0807,-0.9418 0,-1.5068 0.2691,-0.0269 0.5382,-0.0538 0.8072,-0.0538 1.157,0.1614 7.8029,0.6996 8.4217,0.8341 0.2153,1.1032 0.2153,1.1032 0.1884,1.3722 -0.1884,0.1076 -0.1884,0.1076 -0.6458,0.1615z"/>
   <path id="_216015128" class="fil10" d="M69.5737 105.789c-0.2153,-0.9148 -0.8341,-1.722 -0.9417,-2.6368 0.1883,0 0.4036,0 0.6188,0 1.1032,1.157 1.722,1.0494 3.2288,1.157 0,0.0538 0,0.1076 0,0.1614 -0.9687,0.5113 -1.8297,1.1839 -2.9059,1.3184z"/>
   <path id="_216015440" class="fil3" d="M13.7968 104.901c-0.6458,-1.0762 -0.3229,-3.6323 -0.3229,-4.8969 0.0807,-0.0538 0.1883,-0.0807 0.296,-0.1077 5.7848,-0.1614 11.5966,-0.3228 17.4084,-0.4574 0.296,0.0269 0.6188,0.0538 0.9417,0.1077 0,0.0807 0,0.1614 0,0.269 -0.3767,0.2422 -0.3767,0.6996 -0.8072,0.9417 -0.6996,0.0539 -2.4754,-0.0538 -7.9643,-0.1345 -0.7534,0.3767 -0.5919,2.1525 -0.0538,2.6907 2.2332,0.0269 4.4934,0.0538 6.7535,0.1076 0.1076,0.1076 0.1076,0.1076 0.0807,0.5381 -0.1076,0.0538 -0.2152,0.1076 -0.2959,0.1614 -5.3006,0.1884 -10.7895,0.1615 -16.0362,0.7803z"/>
   <path id="_216015152" class="fil10" d="M11.3752 104.632c-0.1345,-0.0538 -0.2691,-0.0808 -0.3767,-0.1077 -0.0269,-1.5336 -0.0269,-3.0673 -0.0269,-4.6009 0.5919,0 1.2108,0 1.8296,0.0269 0,1.3722 0.2691,3.3094 -0.0807,4.6009 -0.4574,0.027 -0.9148,0.0539 -1.3453,0.0808z"/>
   <path id="_216015320" class="fil9" d="M84.8296 104.363c-4.601,-0.565 -9.4172,-0.0538 -13.9913,-0.6996 -0.7803,-0.2959 -0.9148,-0.5919 -1.3184,-1.2915 0,-1.991 0,-3.9552 0,-5.9194 0.861,-1.13 1.2915,-0.861 2.7444,-0.6726 12.8344,0.5381 12.8344,0.5381 13.2918,0.6457 0.0538,1.3992 0.1076,2.8252 0.1883,4.2512 0.1346,0.9956 0.4843,3.3364 -0.9148,3.6862z"/>
   <path id="_216015464" class="fil10" d="M10.1106 103.905c-0.1345,-0.0538 -0.2691,-0.1076 -0.3767,-0.1614 -0.2422,-0.9687 -0.1614,-2.018 -0.1883,-3.0136 0.3228,-0.2152 0.4305,-0.2421 0.7533,0 0,0.592 0.4036,2.9328 -0.1883,3.175z"/>
   <path id="_216015488" class="fil13" d="M94.5966 103.556c-2.6906,-0.2152 -5.3813,-0.4305 -8.0719,-0.6457 -0.1345,-3.2288 -0.1345,-3.2288 -0.3229,-5.1123 -0.2152,-14.2334 0,-28.1709 1.6144,-42.3237 0.7534,-3.9821 0.9686,-8.1257 1.8027,-12.1079 0.4305,-3.444 1.3185,-6.9149 2.018,-10.3051 4.1167,-0.0538 4.1167,-0.0538 8.0988,0.0538 0,0.1076 -0.2421,0.2691 -1.0762,1.8296 -0.4036,2.1256 -0.6458,4.3051 -0.8879,6.4576 -0.3229,1.1569 -0.296,2.3946 -0.5382,3.5785 -1.2646,9.6594 -2.2601,19.3726 -2.8789,29.1396 -0.0808,11.9465 -0.0808,11.9465 0,17.4085 0.3767,5.1122 0.7264,8.5293 0.8072,10.3051 0.1883,0.7265 0.1883,0.7265 0.2421,1.6144 -0.269,0.0269 -0.5381,0.0538 -0.8072,0.1076z"/>
   <path id="_216015512" class="fil10" d="M27.0616 102.748c-1.157,-0.0807 -2.3139,-0.1345 -3.444,-0.1883 -0.0269,-0.5112 -0.1345,-0.8341 0.0269,-1.3453 6.1885,0.2152 6.1885,0.2152 7.2916,0.3228 0,0.4574 -0.2421,0.7265 -0.4574,1.1301 -1.157,0.0269 -2.287,0.0538 -3.4171,0.0807z"/>
   <path id="_216015536" class="fil12" d="M68.2284 102.56c-0.4843,-0.3498 -1.9373,-2.5292 -1.9373,-3.0135 0.8341,0 1.6951,0.0269 2.5561,0.0538 0,0.9417 0,1.8834 0.0269,2.8251 -0.2152,0.027 -0.4305,0.0808 -0.6457,0.1346z"/>
   <path id="_216015680" class="fil4" d="M181.316 102.21c-1.1839,-0.5112 -3.2826,-1.3453 -3.7131,-2.6637 6.5383,0.2959 13.1303,0.4574 19.6686,-0.0808 3.4709,-0.5112 6.7804,-1.1569 10.2244,-1.991 0.1076,0 0.2153,0 0.3229,0.0269 0,0.861 -0.4036,1.5336 -0.9148,2.2063 -2.3678,0.9417 -4.9777,1.0763 -7.4531,1.6413 -2.1525,0.1614 -3.0673,0.3498 -9.1482,0.8072 -3.0135,0 -6.0001,0.0269 -8.9867,0.0538z"/>
   <path id="_216015656" class="fil14" d="M161.594 101.215c-1.8027,-0.1346 -3.6593,-0.1884 -5.4082,-0.6189 -0.3228,-1.3991 -0.7264,-2.879 -0.9148,-4.305 -0.6726,-1.3453 -0.8341,-3.0673 -1.4529,-4.4934 -0.4305,-2.0449 -1.5337,-4.0628 -2.2871,-6.027 2.3678,-0.1614 4.5203,0.0538 6.8342,0.6727 1.4261,0.5381 2.8521,1.1031 4.3051,1.6681 0,0.3229 0.9148,0.6458 1.1569,0.7534 1.3992,1.0225 1.3992,1.0225 3.5248,2.8252 0.3767,0.4574 1.8565,2.9328 2.4216,3.1211 0.0807,0.2422 0.1614,0.4844 0.2421,0.7534 0.0538,0 0.1076,0 0.1884,0 0.0538,0.2691 0.1076,0.5381 0.1883,0.8072 0.0538,0 0.1076,0 0.1614,0 0.2422,1.1032 0.9149,2.2601 0.3767,3.3364 -2.4485,1.8296 -6.5113,1.426 -9.3365,1.5068z"/>
   <path id="_216015872" class="fil14" d="M155.055 100.596c-1.453,-0.6188 -3.3364,-1.8834 -3.74,-3.5516 -1.6413,-1.9911 -1.9104,-5.5158 -1.9642,-7.9643 0.0807,-0.7803 0.6458,-4.2781 1.9104,-2.4754 0,0.3229 0.1076,0.5381 0.3228,0.7534 0.5651,2.0179 1.8835,4.0897 2.1526,6.1346 0.8341,1.2646 0.6995,3.3902 1.3722,4.7625 0.1076,0.7802 0.1883,1.5336 0.4843,2.2332 -0.1884,0.0269 -0.3767,0.0538 -0.5381,0.1076z"/>
   <path id="_216016352" class="fil4" d="M186.347 99.3313c-3.0942,-0.1345 -6.1616,-0.2691 -9.2289,-0.4036 -0.4305,-0.3229 -1.722,-1.9911 -1.5606,-2.5023 0.3767,-0.0269 0.3767,-0.0269 1.1839,0.1615 5.7311,0.1614 11.489,0.2152 17.2201,0.1883 1.6951,0.6458 2.4754,0.9955 4.1705,0.2153 2.1256,-1.6413 5.4889,-0.9687 7.9374,-2.0987 0.7803,-0.1346 1.5067,-0.5113 2.287,-0.4305 -0.0807,1.1838 -0.0807,1.1838 -0.296,2.0987 -1.6951,0.9686 -4.009,0.7533 -5.6503,1.5605 -5.4889,0.6996 -5.4889,0.6996 -5.758,0.8072 -7.2647,0.3498 -7.2647,0.3498 -10.3051,0.4036z"/>
   <path id="_216015992" class="fil10" d="M66.2642 98.9815c-1.7758,-0.4305 -2.6637,-2.6906 -4.4395,-3.2018 -0.1346,-0.1615 -0.2691,-0.3229 -0.4036,-0.4574 0.8071,0 1.3453,0.1076 7.6683,0.2959 -0.1077,0.6727 -0.2153,3.1212 -0.3229,3.3095 -0.8341,0 -1.6682,0.0269 -2.5023,0.0538z"/>
   <path id="_216015896" class="fil10" d="M33.3308 97.5286c-2.2332,-0.1345 -2.2332,-0.1345 -2.4485,-0.2422 -0.296,-0.8879 -0.0538,-2.2063 -0.0538,-3.148 2.4216,-0.1076 5.3544,-0.1884 7.6683,0.3229 -0.1345,0.1614 -0.7534,0.3228 -1.6682,0.7533 0,0.0538 0,0.1077 0,0.1615 -1.426,0.4036 -2.0987,1.8565 -3.4978,2.1525z"/>
   <path id="_216016184" class="fil14" d="M213.98 97.0981c-1.426,-0.4305 -1.5336,-0.7265 -1.9372,-2.0718 0,-2.0987 0.0807,-4.1705 0.3498,-6.2692 0,-0.0807 1.2108,-7.4531 2.6637,-5.0315 0.3767,0 0.7803,1.2108 0.8879,1.5337 0.0538,0 0.1076,0 0.1884,0 0.0269,0.1883 0.0538,0.4036 0.1076,0.6188 1.0224,1.7489 3.4709,7.9912 2.018,9.8208 -1.3723,0.8341 -2.7176,1.2377 -4.2782,1.3992z"/>
   <path id="_216016376" class="fil4" d="M195.765 96.9097c-0.2152,-0.1345 -0.8879,-0.2959 -1.5875,-0.6995 -1.991,-1.9911 -2.583,-3.471 -2.583,-6.4037 0.2691,-2.1526 1.1032,-3.9015 3.5517,-3.9015 4.1436,0.6727 5.2736,5.8925 3.8476,9.3365 -0.9417,1.2915 -1.722,1.5606 -3.2288,1.6682z"/>
   <path id="_216016016" class="fil4" d="M181.316 96.2909c-2.0449,-0.1884 -4.0898,-0.3767 -6.1347,-0.565 -0.2959,-0.296 -0.4305,-0.4844 -0.5919,-0.888 -0.0538,0 -0.1076,0 -0.1614,0 -0.2153,-0.4574 -0.4305,-0.9148 -0.6458,-1.3453 -0.0538,0 -0.1076,0 -0.1614,0 -0.0808,-0.2152 -0.1615,-0.4305 -0.2153,-0.6457 0.592,-0.296 2.0449,-0.0269 2.7176,-0.0269 4.9776,0.5112 10.0629,0.4574 15.0675,0.4574 0.5113,0.3767 0.7265,1.13 1.0494,1.6951 0.2152,0.2421 0.8072,0.861 0.9148,1.2108 -3.9552,0.0269 -7.9105,0.0538 -11.8388,0.1076z"/>
   <path id="_216015920" class="fil0" d="M157.477 96.1025c-0.0269,-0.1614 -0.0269,-0.2959 -0.0269,-0.4305 0,0.1346 0,0.2691 0.0269,0.4305z"/>
   <path id="_216015944" class="fil15" d="M84.991 95.7528c-0.2152,-0.0539 -0.4305,-0.1077 -0.6188,-0.1615 -15.229,-0.3767 -30.5118,-1.426 -45.7409,-1.7758 -7.8297,-0.5919 -15.8209,-0.8072 -23.6776,-1.0763 -0.1345,-0.0538 -0.269,-0.1076 -0.3767,-0.1345 0,-0.8341 0,-1.6682 0.027,-2.5023 19.7761,0.4574 39.5792,1.2108 59.3554,1.5606 3.7131,0.1345 7.4262,0.2691 11.1393,0.2691 0.1076,0.0269 0.2152,0.0807 0.3498,0.1345 0,1.2108 0,2.4485 0,3.6862 -0.1615,0 -0.3229,0 -0.4575,0z"/>
   <path id="_216016064" class="fil4" d="M199.801 95.5644c-0.0538,-0.1345 -0.1076,-0.2421 -0.1615,-0.3498 1.1301,-2.852 0.0269,-2.8251 3.9015,-3.2825 1.5067,-0.5651 3.6054,-1.1839 5.1391,-1.4799 -0.0538,0.9686 -0.1076,1.9373 -0.1615,2.9059 -1.3184,0.9417 -3.4978,1.1839 -5.0853,1.6144 -1.2107,0.1883 -2.4215,0.3767 -3.6323,0.5919z"/>
   <path id="_215286656" class="fil0" d="M156.67 94.5689c0,-0.2153 0,-0.4305 0,-0.6189 0,0.1884 0,0.4036 0,0.6189z"/>
   <path id="_216016232" class="fil0" d="M196.303 94.5689c-3.6323,-0.6458 -3.9552,-7.6145 0.4844,-6.5921 0.2152,0.2691 0.2152,0.2691 0.6457,0.4843 0.9686,1.2377 1.3184,2.2333 1.3184,3.8207 -0.4305,1.4261 -0.9686,1.9911 -2.4485,2.2871z"/>
   <path id="_216016256" class="fil3" d="M196.114 93.95c-0.9686,-0.1883 -1.4798,-1.2108 -1.8565,-2.0179 -0.2691,-1.2916 -0.3498,-3.0136 1.13,-3.4979 1.3184,0 1.722,0.6189 2.4754,1.6413 0.3229,1.9911 0.4574,3.5517 -1.7489,3.8745z"/>
   <path id="_216016304" class="fil16" d="M183.119 92.6854c-3.7669,-0.3228 -3.7669,-0.3228 -7.8835,-0.4843 -1.0763,-0.1883 -7.1841,-0.7265 -7.5338,-0.861 0,-0.0538 0,-0.1076 0,-0.1614 -0.3498,-0.2422 -0.4305,-0.4843 -0.8072,-0.5382 -0.4036,-0.8071 -2.3947,-2.0986 -3.2288,-2.4215 0,-0.0807 0,-0.1346 0,-0.1884 -1.8027,-0.5112 -3.3095,-1.6951 -5.2198,-2.1256 -2.1256,-0.8879 -4.8163,-0.8072 -7.0764,-0.8072 -0.1076,-0.0807 -0.2153,-0.1345 -0.296,-0.1883 -0.5381,-1.1839 -1.426,-2.5561 -1.7758,-3.7938 -0.0538,0 -0.1076,0 -0.1614,0 -0.2153,-0.5112 -0.4305,-1.0225 -0.6458,-1.5068 -0.0538,0 -0.1076,0 -0.1614,0 -0.6458,-1.4798 -1.5068,-2.9597 -2.2602,-4.4126 -0.0538,0 -0.1076,0 -0.1614,0 -0.0807,-0.2422 -0.1345,-0.4843 -0.1883,-0.6996 -0.0808,0 -0.1346,0 -0.1884,0 -0.4843,-1.722 -1.9103,-3.3364 -2.6099,-5.0046 -0.1884,-0.1614 -0.3498,-0.6188 -2.879,-5.0046 -0.5919,-1.426 -1.722,-2.7175 -2.2063,-4.1704 -0.0807,0 -0.1346,0 -0.1884,0 -0.0538,-0.1615 -0.1076,-0.3229 -0.1345,-0.4575 -1.2646,-2.0448 -2.5561,-4.1973 -3.6324,-6.3499 -0.0807,0 -0.1345,0 -0.1883,0 -0.0807,-0.2421 -0.1614,-0.4574 -0.2422,-0.6726 -0.3766,0 -1.0224,-1.6682 -1.1838,-2.018 -0.0808,0 -0.1346,0 -0.1884,0 -0.1345,-0.4574 -0.1345,-0.4574 -0.6188,-1.3453 -0.0808,0 -0.1346,0 -0.1884,0 -0.1345,-0.7265 -2.2601,-4.4127 -2.7713,-4.5741 -0.6727,-2.0718 -2.6638,-3.6593 -3.3095,-5.6503 -0.0807,-0.0269 -0.1615,-0.0539 -0.2153,-0.0808 -0.8341,-1.2915 -2.0987,-2.8789 -2.583,-4.3319 -0.0538,0 -0.1076,0 -0.1614,0 -1.4261,-2.1794 -2.8252,-4.3588 -4.2243,-6.5382 -0.0807,0 -0.1346,0 -0.1884,0 -0.1076,-0.296 -0.2152,-0.4036 -0.4305,-0.5382 -0.3498,-1.1031 -1.991,-2.5292 -2.7175,-3.4709 -3.1481,-3.0135 -6.7266,-6.1616 -11.1931,-6.8342 0,-0.0807 0.0269,-0.1614 0.0538,-0.2153 0.5651,-0.2152 0.5651,-0.2152 1.3723,-0.3767 13.7491,-0.4843 27.5252,-0.5381 41.2744,0.0539 0.1883,0.6726 1.426,1.2107 1.9641,1.4529 1.5337,0 0.9148,-0.5112 1.0494,-1.4529 5.3274,0.4843 10.9509,0.1883 16.1707,1.4529 2.583,0.8879 4.9239,1.8296 7.2647,3.2826 0,0.565 1.4261,0.861 1.6144,1.4529 0.9417,0.2153 1.6682,1.6682 2.5561,2.2064 0.7534,1.1569 1.9642,2.0448 2.7445,3.2556 0.0538,0 0.1076,0 0.1614,0 0.1076,0.296 0.4843,0.8879 0.8072,0.9956 1.3184,2.3139 3.3364,4.2243 4.4934,6.5382 0.4036,0 0.9148,1.4799 1.426,1.6951 0.7803,2.3678 3.0135,4.1167 4.1436,6.3768 0.0538,0 0.1076,0 0.1614,0 0.1346,0.3498 2.314,3.6324 2.6099,4.2243 0.0539,0 0.1077,0 0.1884,0 0.1076,0.3498 3.9283,6.2154 7.3454,11.9196 0.0538,0 0.1077,0 0.1884,0 0.1076,0.3497 0.8341,1.426 0.9148,1.6951 3.0404,4.7355 6.0001,9.6863 8.8253,14.5563 0.0538,0.0269 0.1345,0.0538 0.2152,0.0807 0.4305,1.5337 1.6413,2.7983 2.1526,4.3051 0.0538,0 0.1076,0 0.1614,0 0.1345,0.5381 0.3498,0.834 0.6457,1.7758 -1.3184,0.4305 -1.991,4.5741 -2.2332,5.9463 -2.4485,1.1031 -5.5158,2.1525 -8.1795,2.5292 -0.4843,0.1883 -2.8521,0.7265 -3.175,0.5112 -0.1883,-0.3767 -0.5112,-2.0449 -0.6188,-2.1256 -0.2153,-0.6727 -0.4843,-1.1032 -0.592,-1.5606 -0.7264,-0.3498 -0.9955,-1.3991 -1.8027,-1.8027 0,-0.0538 0,-0.1076 0,-0.1614 -1.1839,-0.4844 -1.7758,-0.7803 -3.148,-0.7803 -0.3498,0.1883 -0.3498,0.1883 -0.9687,0.3498 -2.0987,1.7758 -2.3139,3.2825 -2.3139,5.9732 0.1883,0.4574 0.1883,0.4574 0.2421,0.9955 -2.6906,0.0269 -5.3812,0.0538 -8.0719,0.0807z"/>
   <path id="_216017312" class="fil17" d="M79.6098 91.2594c-24.5925,-0.7265 -49.2925,-0.9955 -73.885,-2.018 -0.4305,-0.0807 -0.861,-0.1614 -1.2915,-0.2152 -0.269,-8.1258 -0.6188,-16.3322 -0.4305,-24.4579 0.0808,-0.0808 0.1615,-0.1346 0.2691,-0.1884 25.4265,-0.0538 50.88,-0.1076 76.3334,-0.1614 0.296,0.0269 0.5919,0.0538 0.9148,0.1076 0.1346,8.9329 0.2691,17.8928 0.4305,26.8526 -0.7803,0.0269 -1.5605,0.0538 -2.3408,0.0807z"/>
   <path id="_216016640" class="fil17" d="M82.6771 91.2594c-0.0538,-0.1076 -0.1076,-0.1883 -0.1614,-0.2691 -0.1346,-8.906 -0.2422,-17.812 -0.3498,-26.6911 2.7444,0 2.7444,0 4.1167,0.1076 -0.2153,3.0135 -0.4305,6.054 -0.6189,9.0944 -0.1345,5.8387 -0.2691,11.6774 -0.2691,17.516 -0.5919,0.4036 -1.991,0.2422 -2.7175,0.2422z"/>
   <path id="_216016688" class="fil0" d="M133.961 89.1876c-1.6951,-0.3229 -1.6951,-0.3229 -3.9015,-0.5381 -1.426,-0.8341 -1.2915,-2.583 0.0538,-3.3633 1.7759,0.2421 3.5786,0.3767 5.3275,0.7534 0.8341,0.8341 1.1032,2.3139 0,3.0404 -0.5112,0.0269 -0.9955,0.0538 -1.4798,0.1076z"/>
   <path id="_215322936" class="fil16" d="M134.606 88.6495c-0.4574,-0.1346 -3.6054,-0.4843 -4.4126,-0.6727 -0.6996,-0.4574 -0.6189,-1.0762 -0.4305,-1.8296 1.5336,-0.3767 3.6054,0.1614 5.1929,0.296 0.8072,0.6188 0.8341,2.0717 -0.3498,2.2063z"/>
   <path id="_215323056" class="fil0" d="M77.3765 87.4925c-2.0718,-0.1345 -14.5294,-0.3229 -18.9151,-0.5112 -35.2474,-0.6996 -40.0098,-0.8879 -48.3508,-0.9686 -0.7534,-0.027 -2.7445,0.1614 -3.2019,-0.4844 -0.0807,-17.4891 -0.0807,-17.4891 -0.0269,-17.6775 22.3323,0 44.6646,0.0808 66.9969,0.2153 1.5068,0.0269 3.0135,0.0807 4.5203,0.1345 0.1883,17.7582 0.1883,17.7582 0.1345,19.1036 -0.4036,0.0538 -0.7803,0.1076 -1.157,0.1883z"/>
   <path id="_215323032" class="fil18" d="M70.6499 86.766c-8.1257,-0.2959 -16.3859,-0.1614 -24.4848,-0.6726 -13.4532,-0.1884 -17.6775,-0.3498 -33.3639,-0.6189 -1.2646,-0.0807 -2.5292,-0.1614 -3.7938,-0.2152 -0.269,-0.5651 -0.2152,-2.3409 0.0269,-2.9597 22.8435,0.4305 45.7409,1.1569 68.6113,1.4529 0.7534,0.2422 0.3767,2.3409 0.3767,2.9328 -2.4754,0.0269 -4.9239,0.0538 -7.3724,0.0807z"/>
   <path id="_215323704" class="fil10" d="M7.7697 85.2593c-0.0807,-0.0538 -0.1614,-0.1077 -0.2152,-0.1615 -0.1076,-2.7982 -0.1076,-2.7982 -0.1884,-16.4667 0.1346,-0.3498 0.2691,-0.3498 0.6189,-0.2152 0,1.3453 0,2.6906 0,4.0628 -0.5112,0.6727 -0.2422,2.2333 -0.2422,3.0674 0.6996,0.7803 0.4305,2.7713 0,3.6592 0,0.8341 0,1.6682 0,2.5292 0.6727,1.0225 0.4305,2.1525 0.4305,3.3633 -0.1345,0.0538 -0.269,0.1077 -0.4036,0.1615z"/>
   <path id="_215615248" class="fil0" d="M104.902 85.2593c-2.0449,-0.296 -4.1167,-0.4036 -6.1885,-0.5112 -2.1256,-0.5651 -2.583,-1.9911 -0.9686,-3.4172 0.565,0 1.13,0 1.6951,0 2.3677,0.3498 8.5024,-0.6188 6.6458,3.471 -0.8071,0.4036 -0.8071,0.4036 -1.1838,0.4574z"/>
   <path id="_215614648" class="fil16" d="M104.552 84.5328c-2.0718,-0.1883 -4.1436,-0.3498 -6.1885,-0.5112 -1.0762,-0.2691 -1.3184,-1.4799 -0.3498,-2.0449 1.7489,0.0807 3.4979,0.1614 5.2737,0.2691 2.1525,0.269 2.5292,-0.0269 2.4216,2.0987 -0.4305,0.1345 -0.4305,0.1345 -1.157,0.1883z"/>
   <path id="_215614768" class="fil18" d="M72.9908 83.1875c-21.4713,-0.8072 -42.9964,-0.7803 -64.4408,-1.6144 0,-0.5381 -0.296,-1.8296 0,-2.2601 23.1395,0 46.3328,0.3228 69.4454,0.8341 0,0.9955 0,2.0179 0,3.0404 -1.6682,0 -3.3364,0 -5.0046,0z"/>
   <path id="_213812656" class="fil18" d="M75.8429 79.4206c-27.4445,-0.3229 -36.9425,-0.5112 -59.1941,-0.6727 -2.5561,-0.0807 -5.1122,-0.1614 -7.6683,-0.2421 -0.1076,-0.8341 -0.4305,-1.8566 0.1076,-2.583 0.2691,0.0269 0.5382,0.0807 0.8341,0.1345 22.6821,0.1614 45.3911,0.6726 68.0732,1.0224 -0.0269,0.7265 -0.0538,1.453 -0.0807,2.1794 -0.1884,0.1077 -0.1884,0.1077 -2.0718,0.1615z"/>
   <path id="_213812464" class="fil18" d="M73.9594 76.4609c-17.3815,-0.6189 -34.8706,-0.6727 -52.2791,-0.861 -6.1884,-0.1884 -12.8343,-0.2691 -13.211,-0.3767 0,-2.1256 0,-2.1256 0.0807,-2.2063 23.0588,0.1345 46.1176,0.269 69.1763,0.4305 0.0538,0.0269 0.1076,0.0538 0.1884,0.1076 0,0.9148 0,1.8296 0,2.7444 -0.7534,0.3767 -3.0405,0.1615 -3.9553,0.1615z"/>
   <path id="_213812944" class="fil0" d="M114.965 75.4653c-1.5068,-0.0807 -4.2513,-0.834 -4.9239,-2.4484 -0.0807,-0.0269 -0.1345,-0.0538 -0.1884,-0.0538 -0.2959,-0.8341 -0.4574,-1.5068 -0.6188,-2.3678 -3.1481,-1.2915 -6.7266,-1.426 -9.7132,-3.2019 -0.296,-0.4843 -0.5919,-0.9686 -0.861,-1.426 -0.3498,-2.6368 -0.0269,-5.1122 0.1076,-7.8029 0.1615,-0.8879 0.3498,-3.5785 0.5381,-4.4933 0.5113,-4.6548 1.4261,-9.4173 1.7759,-14.0721 1.0762,-4.1704 3.9821,-3.5516 7.8566,-3.4709 3.7131,0.592 6.4576,0.4305 8.5293,3.8207 0.0539,0 0.1077,0 0.1884,0 0.1614,0.4036 0.7803,1.2108 0.9686,1.722 0.0538,0 0.1076,0 0.1884,0 0.9417,1.7489 1.8834,3.4979 2.8251,5.2737 0.9687,3.2287 3.0674,6.2423 3.6593,9.6056 1.3184,3.3364 0.4843,7.8835 0.2691,11.3814 -0.3498,1.991 -0.3498,1.991 -0.6996,3.2287 -0.4305,1.157 -0.9417,1.9911 -2.0987,2.3678 -1.1301,-0.0269 -2.2601,-0.0538 -3.3633,-0.0538 -0.2691,0.3498 -0.4843,0.6457 -0.8879,0.8072 -0.0269,0.0538 -0.0538,0.1345 -0.0538,0.2152 -0.6727,0.2691 -1.3453,0.5381 -1.9911,0.8341 -0.5112,0.0269 -1.0224,0.0807 -1.5067,0.1345z"/>
   <path id="_215041744" class="fil16" d="M114.776 74.9272c-1.0493,-0.1614 -1.9642,-0.6188 -2.9597,-0.8879 -0.2421,-0.5112 -1.1301,-1.0493 -1.5337,-1.5875 -0.6457,-4.3319 -0.2152,-9.3096 -0.2152,-13.6684 0.1076,-0.6996 0.2691,-1.4799 0.9417,-1.6951 0,-0.565 2.3409,-0.9686 2.6907,-1.0494 2.2601,0 4.6009,0 5.8655,2.1256 -0.0269,2.9059 -0.0269,5.8118 -0.0269,8.7177 -1.3184,0.0807 -1.2377,-0.1345 -2.1794,0.9148 -0.565,1.6413 -1.13,5.0853 1.1301,5.6773 -0.4574,1.0762 -2.7176,1.3453 -3.7131,1.4529z"/>
   <path id="_215041816" class="fil16" d="M120.508 72.9631c-0.7534,-0.0539 -1.5068,-0.1077 -2.2602,-0.1615 -0.2421,-0.3229 -0.2421,-0.3229 -0.4305,-0.3767 -0.4305,-1.8027 -0.5381,-3.2556 0.4305,-4.87 1.4261,-0.1884 4.7356,0.7264 6.054,1.5336 0.1614,0.6727 0.1614,2.7983 -0.6458,3.0674 -0.1614,0.3767 -0.3767,0.5112 -0.4574,0.7264 -0.9148,0.0269 -1.8027,0.0538 -2.6906,0.0808z"/>
   <path id="_215041096" class="fil18" d="M67.5019 72.8823c-19.534,-0.3497 -39.1488,-0.0538 -58.6828,-0.6188 -0.1076,-0.1884 -0.1076,-0.1884 -0.1346,-0.7265 0.8611,0.1345 1.6951,0.1345 2.5023,-0.1883 0.3498,-0.9687 0.3767,-1.722 -0.4574,-2.3947 -0.7264,-0.0269 -1.4529,-0.0269 -2.1525,-0.0269 0.0269,-0.1883 0.0538,-0.3767 0.1076,-0.5381 5.7311,-0.0538 25.6687,0.1345 53.8935,0.2152 5.1122,0.0269 10.2245,0.0807 15.3367,0.1346 0,1.3453 0,2.6906 0,4.0359 -3.471,0.0269 -6.9419,0.0538 -10.4128,0.1076z"/>
   <path id="_215438616" class="fil0" d="M74.0671 72.5056c-1.157,-0.6457 -1.6682,-1.8834 -0.6996,-3.0404 1.5067,-0.5381 2.7175,-0.5112 3.4978,0.861 0,2.0449 -1.0224,2.0987 -2.7982,2.1794z"/>
   <path id="_215438112" class="fil0" d="M59.1609 72.2366c-0.861,-0.2153 -1.0224,-1.157 -1.0224,-1.9373 0.4036,-1.2646 1.8027,-1.157 2.9597,-0.8879 0.7803,1.0494 0.9686,1.6682 -0.0538,2.6907 -0.6458,0.0269 -1.2646,0.0807 -1.8835,0.1345z"/>
   <path id="_215458584" class="fil0" d="M45.4387 72.1559c-1.4261,-0.5651 -1.8566,-1.4799 -1.0225,-2.8252 0.6189,-0.4574 1.5606,-0.2422 2.314,-0.2691 1.2108,1.0494 1.2915,2.3409 -0.296,2.9597 -0.3498,0.0269 -0.6727,0.0808 -0.9955,0.1346z"/>
   <path id="_215458752" class="fil0" d="M20.4157 71.8868c-1.2377,-0.4843 -1.2377,-1.3453 -0.8072,-2.4216 1.722,-0.7803 3.0943,-0.4574 3.0943,1.5337 -0.6996,0.9417 -1.1032,0.8341 -2.2871,0.8879z"/>
   <path id="_213588464" class="fil0" d="M32.3622 71.8868c-0.296,-0.2153 -0.592,-0.4036 -0.861,-0.5919 -0.8341,-2.3409 1.8565,-2.879 3.1211,-1.3992 0,0.4305 0,0.861 0,1.3184 -0.2153,0.1884 -0.4305,0.4036 -0.6458,0.6189 -0.5381,0 -1.0762,0.0269 -1.6143,0.0538z"/>
   <path id="_213588008" class="fil10" d="M74.3361 71.8868c-0.2152,-0.0807 -0.565,-0.2153 -0.6457,-0.4574 -0.0538,0 -0.1077,0 -0.1615,0 -0.0269,-0.4036 -0.0269,-0.8072 -0.0269,-1.1839 0.1884,-0.0538 0.2691,-0.2691 0.4574,-0.3767 1.453,0 1.4261,1.4261 0.3767,2.018z"/>
   <path id="_60285160" class="fil10" d="M59.2685 71.6985c-0.3497,-0.6189 -0.5112,-0.6189 -0.5112,-1.3992 0.6189,-0.5112 0.7803,-0.6726 1.3453,0.0269 0.1077,0.7803 -0.0807,1.2377 -0.8341,1.3723z"/>
   <path id="_216325560" class="fil10" d="M75.5738 71.6985c0.0269,-0.4844 0.0807,-0.9687 0.1345,-1.4261 -0.1883,-0.1883 -0.1883,-0.1883 -0.2152,-0.4574 0.1614,0.0269 0.3229,0.0807 0.4843,0.1345 0.1614,0.5382 0.2422,1.1301 0.0807,1.6951 -0.1614,0 -0.3228,0.0269 -0.4843,0.0539z"/>
   <path id="_216325872" class="fil10" d="M60.8829 71.4294c-0.0538,-1.3722 -0.0538,-1.3722 0.0269,-1.3991 0.1615,0.4305 0.2422,0.8879 0.0808,1.3453 -0.0539,0 -0.0808,0.0269 -0.1077,0.0538z"/>
   <path id="_216325632" class="fil0" d="M152.365 71.4294c-1.0224,-0.1884 -1.991,-0.6458 -2.9597,-0.8879 0,-0.0807 0,-0.1346 0,-0.1884 -2.0987,-0.7264 -4.1705,-3.9283 -5.2736,-5.731 -0.0807,-0.2691 -0.5651,-0.9417 -0.8072,-1.453 -0.2422,-0.2152 -1.157,-1.9103 -1.4261,-2.2063 -0.7264,-1.157 -1.6143,-2.4485 -2.1525,-3.7131 -0.1076,-0.0807 -0.1883,-0.1614 -0.269,-0.2152 -0.7803,-1.9911 -2.7176,-3.7669 -3.2826,-5.758 -0.1345,-0.0538 -3.7131,-5.3275 -3.9822,-6.6728 -0.1614,-0.0807 -3.148,-5.1391 -3.3902,-5.4351 -0.6457,-1.5067 -1.9372,-2.8251 -2.5292,-4.3319 -0.4305,-0.4305 -0.5919,-1.2377 -1.0762,-1.5606 -0.9955,-2.0448 -2.3947,-3.9821 -3.4171,-6.0539 -0.2691,-0.8341 -0.2691,-0.8341 -0.5382,-1.3453 0,-1.9104 -0.1076,-2.6099 1.6144,-3.5517 6.0809,-1.0762 12.9151,-0.9417 19.0498,-1.1569 6.323,0 12.646,0.1345 18.942,0.4305 1.453,0.1883 1.453,0.1883 4.6818,0.3767 1.6412,0.3228 3.4709,0.861 4.8431,1.8834 0.0807,0.0269 0.1883,0.0538 0.296,0.0807 0.4036,0.8072 1.722,0.9956 2.1256,1.8297 0.5112,0.1076 1.8565,1.5874 1.991,1.9641 1.3723,1.3184 2.61,3.1212 3.7669,4.6548 0.888,1.453 2.3678,2.8521 2.9597,4.4127 0.4844,0 0.5113,1.0762 0.9956,1.2377 2.6906,4.1166 5.6234,8.2602 8.0719,12.5114 0.5381,0.6727 2.0718,3.2019 3.0404,4.601 0.4843,1.4799 2.583,4.1705 3.3633,5.462 1.2108,1.0763 1.6682,3.3902 2.9059,4.4934 0.6189,1.1301 3.4978,4.4665 2.3947,5.8387 -0.3498,0.0807 -0.3498,0.0807 -9.5249,0 -2.3139,-0.0807 -4.6279,-0.1346 -6.9149,-0.1884 -11.1662,0 -22.3323,0.4843 -33.4985,0.6727z"/>
   <path id="_216325584" class="fil10" d="M20.4157 71.3487c-0.4843,-0.4843 -0.4036,-0.6996 -0.4036,-1.3992 1.0494,-0.3497 1.3723,0.1077 0.9687,1.2377 -0.1884,0.0538 -0.3767,0.1077 -0.5651,0.1615z"/>
   <path id="_216325752" class="fil10" d="M32.4429 71.3487c-0.4574,-0.5382 -0.7265,-0.8341 -0.2153,-1.4799 0.2153,0 0.4574,0 0.6996,0 0.5919,0.592 0.296,1.3453 -0.4843,1.4799z"/>
   <path id="_216326280" class="fil10" d="M45.0082 71.3487c-0.4574,-0.4574 -0.4036,-0.6727 -0.4036,-1.3184 0.5919,-0.3498 0.6995,-0.4574 1.3184,-0.0539 0.0807,1.0225 0.1345,1.2646 -0.9148,1.3723z"/>
   <path id="_216325728" class="fil10" d="M46.6225 71.3487c-0.0269,-0.5112 -0.0538,-0.9956 -0.0538,-1.4799 0.0808,0 0.1615,0 0.2422,0 0.1614,0.6996 0.2691,0.8072 -0.1884,1.4799z"/>
   <path id="_216325992" class="fil10" d="M33.9765 71.0796c-0.0269,-0.3767 -0.0538,-0.7534 -0.0538,-1.1301 0.0538,0.0269 0.1077,0.0539 0.1615,0.0808 0,0.9148 0,0.9148 -0.1077,1.0493z"/>
   <path id="_216326040" class="fil10" d="M9.0343 70.9989c-0.4036,-0.592 -0.4305,-0.9148 -0.0269,-1.5068 0.9687,0 0.8879,0.3498 0.9417,1.1839 -0.2959,0.2153 -0.5381,0.296 -0.9148,0.3229z"/>
   <path id="_216326136" class="fil16" d="M128.848 70.9989c-0.1076,-0.1076 -0.2152,-0.2153 -0.3228,-0.296 0.8072,-3.9821 0.8879,-8.5831 0.6457,-12.6191 -0.4305,-1.5067 -0.861,-3.0135 -1.2646,-4.4933 -0.3498,-0.5113 -0.5919,-2.1526 -0.9955,-2.4216 -0.6189,-2.4216 -2.1794,-4.6279 -2.9597,-6.9957 -0.565,-0.6726 -0.7803,-2.0987 -1.4261,-2.583 -1.0224,-2.3947 -2.7982,-4.8969 -4.574,-6.8342 0.4305,-0.565 2.5023,-0.9686 3.2018,-0.8072 0.0538,0.1883 0.1076,0.3767 0.1884,0.5919 0.0538,0.0269 0.1076,0.0539 0.1883,0.0808 1.2915,2.4753 3.3633,4.7893 4.4934,7.2916 1.0493,1.0493 1.4529,2.879 2.5292,3.9552 0.6457,1.5337 1.8565,2.9059 2.583,4.4127 0.2421,0.2421 0.3229,0.4305 0.4574,0.7803 1.0493,1.0493 1.4529,3.2825 2.583,4.1974 3.6324,6.323 3.6862,6.5651 3.8745,6.7535 0.4843,0.8341 1.3454,2.9866 2.0449,3.5516 0.3767,1.157 2.2602,3.1211 1.9911,4.1974 -4.3858,0.6996 -8.7984,1.157 -13.238,1.2377z"/>
   <path id="_216326184" class="fil10" d="M10.568 70.8913c-0.0269,-0.4305 -0.1614,-0.861 0.0807,-1.2108 0.1884,0.1883 0.1076,0.8341 0.1076,1.157 -0.0807,0 -0.1345,0.0269 -0.1883,0.0538z"/>
   <path id="_216326736" class="fil4" d="M152.714 70.8913c-1.1301,-0.5651 -2.5292,-0.6458 -3.6593,-1.2915 0.1884,-0.5651 8.4486,-1.5606 9.7402,-1.7221 0.9417,-0.0538 2.0448,-0.0538 2.9597,-0.3497 2.9327,-0.1884 5.5427,-0.861 8.4217,-1.3454 1.3184,-0.5112 2.9058,-1.0224 4.305,-1.1569 0.3498,-0.1884 3.5247,-0.9148 3.8476,-1.0763 1.4529,-0.1883 2.018,-0.3767 3.0673,-0.4574 3.8745,0 3.8745,0 5.758,0.0807 2.7982,0.3767 5.4351,1.0225 8.1257,1.6413 0.6727,0.4843 1.7489,0.4305 2.4216,0.9686 2.0987,0.4844 4.1974,1.9373 4.1974,4.3051 -9.9823,-0.2422 -20.0184,-0.2691 -30.0006,-0.2691 -10.4935,0.3498 -12.9151,0.5381 -19.1843,0.6727z"/>
   <path id="_216326760" class="fil10" d="M21.9494 70.8105c0,-0.1614 0.0269,-0.3228 0.0538,-0.4843 0.0538,-0.0269 0.1345,-0.0538 0.2153,-0.0538 -0.0269,0.1345 -0.0539,0.296 -0.0808,0.4574 -0.0807,0.0269 -0.1345,0.0538 -0.1883,0.0807z"/>
   <path id="_216327024" class="fil10" d="M21.6803 70.1917c0,-0.1076 0,-0.1883 0,-0.2691 0.0538,0 0.1077,0 0.1884,0 -0.0807,0.0808 -0.1346,0.1615 -0.1884,0.2691z"/>
   <path id="_216326520" class="fil16" d="M108.776 69.815c-2.4485,-0.4036 -5.166,-1.3453 -7.5338,-2.0987 -0.3767,-0.2691 -0.3767,-0.2691 -0.9148,-0.4036 -0.0807,-0.2152 -0.0807,-0.2152 -0.7265,-0.8072 -0.7534,-1.5336 -0.4843,-3.2287 -0.4843,-4.9238 0.6457,-7.5876 1.5606,-15.256 2.7714,-22.7897 0.6457,-1.2108 1.2107,-1.6144 2.4753,-2.1257 3.4172,-0.3228 7.1033,0.296 10.359,1.2108 1.426,1.0225 2.6099,2.6369 3.4709,4.1436 0.0538,0 0.1076,0 0.1615,0 0.7533,2.2871 2.5292,4.4665 3.3902,6.7535 0.1614,0.1615 0.3228,0.7803 0.9686,2.0449 0.1614,0.6188 0.8072,2.0449 1.6144,4.305 0.1614,0.8072 0.3498,1.157 0.8072,2.9597 0.1345,3.2019 0.565,7.3993 -0.4305,10.4397 -0.0538,0.0269 -0.1077,0.0538 -0.1615,0.0807 -0.3228,-0.3229 -0.7803,-0.4574 -1.2377,-0.4843 -0.0538,-0.5381 0.1077,-2.6099 0.2153,-2.879 0.1076,-2.4754 0.1076,-4.9508 0.0807,-7.4261 -0.6727,-2.5023 -1.4798,-4.9508 -2.4216,-7.3724 -0.2152,-0.4036 -0.4036,-0.8072 -0.5919,-1.2108 -0.9417,-2.1794 -1.2108,-2.5561 -2.1794,-4.601 -0.6996,-1.2108 -1.8297,-2.5292 -2.3678,-3.7669 -0.0807,0 -0.1345,0 -0.1883,0 -1.157,-2.1525 -3.4979,-1.5336 -5.462,-2.3139 -2.3947,-0.2153 -6.323,-1.1032 -7.3186,1.9373 -0.8072,7.8028 -2.2601,15.3635 -2.4215,23.2471 0.4036,1.8296 1.426,2.7175 3.3633,2.9866 1.2915,0.7803 3.6861,1.2108 5.2467,1.5605 0,0.5113 0.0269,1.0225 0.0538,1.5337 -0.1883,0 -0.3767,0 -0.5381,0z"/>
   <path id="_216326928" class="fil19" d="M148.221 68.9271c-0.6188,-0.6188 -1.13,-0.9417 -1.2376,-1.8027 1.2107,-0.1346 1.2107,-0.1346 2.2063,-0.4036 2.7175,-0.0807 2.7175,-0.0807 5.8118,0 0.0269,0.0538 0.0538,0.1076 0.0807,0.1883 -0.2422,0.2422 -0.1884,0.7265 -0.4036,0.8879 -2.0718,0.3229 -4.3858,0.9956 -6.4576,1.1301z"/>
   <path id="_216326976" class="fil20" d="M109.126 67.7701c-0.5382,-0.269 -1.0225,-0.4036 -1.6144,-0.4843 -1.8835,-1.0762 -4.1974,-0.8341 -5.8925,-2.3947 -0.6996,-3.9014 0.0269,-7.8566 0.3767,-11.785 0.1076,-0.7264 0.2152,-1.4529 0.3498,-2.1525 0.0807,0 0.1614,0 0.269,0 1.7758,2.0987 2.7714,4.5203 3.7669,7.0764 0.9686,2.9328 2.0987,5.9194 2.879,8.906 -0.0269,0.7534 -0.0269,0.7534 -0.1345,0.8341z"/>
   <path id="_216327072" class="fil20" d="M121.96 67.7701c-0.5381,-0.2959 -1.426,-0.3498 -1.722,-0.861 -0.0538,-2.9866 -0.1076,-5.9732 -0.1345,-8.9329 -1.453,-2.9059 -5.758,-2.9866 -8.5024,-2.018 -0.2422,0.2422 -0.592,0.3767 -0.9149,0.4843 -0.2959,0.296 -0.5919,0.592 -0.8879,0.9149 -0.1883,0.565 -0.1883,0.565 -0.3767,0.8071 -0.0269,2.0449 -0.0538,4.1167 -0.0807,6.1885 -0.0538,0.1345 -0.1076,0.2691 -0.1614,0.4305 -0.5381,-2.7713 -1.8297,-5.3274 -2.6368,-7.9643 -0.7534,-0.8879 -0.861,-3.0135 -1.7759,-3.74 -0.2959,-1.2107 -1.2377,-2.0448 -2.1525,-2.8251 0.3229,-0.8072 3.3633,-1.0494 4.0629,-1.2915 4.7893,-0.3498 10.9509,-1.1032 14.4218,3.0135 0.7534,1.9103 1.0763,3.0404 1.2377,3.2826 0.2691,1.426 0.5919,2.852 0.8072,4.305 -0.0269,1.2915 -0.0538,2.583 -0.0807,3.9014 -0.1615,0.9686 -0.0269,3.6055 -0.6727,4.2512 -0.1614,0 -0.296,0.0269 -0.4305,0.0538z"/>
   <path id="_216327048" class="fil19" d="M155.674 67.7701c-0.0807,-0.0538 -0.1345,-0.0807 -0.1883,-0.1076 1.0762,-2.9866 4.8431,-5.1122 8.0181,-4.4396 0.1076,0.0808 0.2421,0.1884 0.3767,0.296 0,1.3722 -0.9149,1.3453 -2.0987,1.5875 -0.8072,0.3498 -0.8072,0.3498 -1.5068,0.5381 0.7534,0.2422 4.7624,-0.6726 4.7624,0.8879 -3.0942,0.5382 -6.2692,0.6727 -9.3634,1.2377z"/>
   <path id="_216326544" class="fil21" d="M146.795 67.0437c-0.5919,-0.296 -0.7534,-0.6727 -1.1032,-1.2377 -1.3184,-0.6458 -1.1569,-2.61 -2.1794,-3.2826 -0.3228,-0.8072 -0.9417,-1.4799 -1.2646,-2.2871 0.2691,-2.5561 1.5337,-8.7176 5.3006,-8.1257 0.2152,0.2422 0.2152,0.2422 0.5381,0.3498 1.9104,3.4709 1.9104,7.184 1.5337,11.0854 -0.1884,0.7265 -0.1884,0.7265 -0.3767,2.6368 -1.1032,0.1884 -1.1032,0.1884 -2.314,0.592 -0.0538,0.0807 -0.1076,0.1614 -0.1345,0.2691z"/>
   <path id="_216326424" class="fil10" d="M165.71 66.5055c-0.1345,-0.8072 -0.8879,-1.2108 -1.5606,-1.5336 0,-0.0808 0,-0.1615 0,-0.2153 0.0538,-0.0269 0.1076,-0.0538 0.1884,-0.0807 0.2152,-0.9686 0.4036,-1.5337 1.5067,-1.5337 0.1076,0.9956 0.2153,2.018 0.3498,3.0404 -0.1345,0.2153 -0.2422,0.2691 -0.4843,0.3229z"/>
   <path id="_216327144" class="fil22" d="M166.894 66.2365c-0.1615,-1.1032 -0.5112,-2.314 -0.4036,-3.4441 1.0762,-0.3228 1.8027,-0.4574 2.9328,-0.4574 0.1076,1.0225 0.5919,1.722 0,2.583 -0.7534,0.5382 -1.6144,1.1032 -2.5292,1.3185z"/>
   <path id="_216326664" class="fil16" d="M199.343 66.2365c-1.0763,-0.861 -2.6099,-0.888 -3.7669,-1.5606 -1.5875,-0.3498 -3.3633,-0.7534 -4.9239,-1.2646 -0.1345,-0.861 -0.1345,-0.861 -0.2421,-4.3588 -0.2422,-2.2064 -0.6189,-5.3813 -1.7759,-7.2917 -0.4843,-2.3139 -1.991,-4.3588 -2.5292,-6.6459 -0.1883,-0.2421 -0.4305,-0.4574 -0.1614,-0.8071 0.1614,0.269 1.8296,3.3363 2.4754,3.7669 1.6413,2.7175 3.1749,4.9507 3.2557,5.2467 0.5112,0.3229 0.565,1.1301 1.0762,1.5068 0.9417,2.0448 2.5561,4.1166 3.6862,6.027 0.2421,0.2152 1.9641,3.0404 2.2332,3.3633 0.296,0.7803 0.8341,1.2915 1.1301,2.018 -0.1615,0 -0.3229,0 -0.4574,0z"/>
   <path id="_216327240" class="fil10" d="M152.634 66.1557c-0.7803,-0.2959 -1.6682,-0.1614 -2.5023,-0.1883 0.0538,-0.1614 0.1076,-0.3229 0.1614,-0.4574 0.9418,-0.1884 1.3454,-0.4036 2.5023,-0.6996 0.0538,0.4305 0.1077,0.8072 0.0269,1.2646 -0.0807,0.0269 -0.1345,0.0538 -0.1883,0.0807z"/>
   <path id="_216327216" class="fil22" d="M153.871 66.1557c-0.5112,-1.0224 -0.7534,-2.6368 -0.7534,-3.7399 0.9417,-0.0539 1.9911,-0.1346 2.879,-0.4575 0.1345,0 0.2691,0 0.4305,0.027 0.8341,2.3946 0.7534,2.2601 -0.9417,4.1166 -0.5382,0 -1.0763,0.0269 -1.6144,0.0538z"/>
   <path id="_216323952" class="fil10" d="M169.665 65.7791c-0.1345,-0.0539 -0.2421,-0.1077 -0.3498,-0.1346 1.3185,-0.9686 1.0763,-1.3991 0.8341,-3.1211 0.1077,-0.2691 0.1077,-0.2691 0.3498,-0.4843 0.4036,0.9148 0.592,1.8565 0.8341,2.8251 -0.4574,0.6996 -1.0493,0.4574 -1.6682,0.9149z"/>
   <path id="_216323664" class="fil21" d="M150.105 64.9719c-0.1884,-1.1301 0.1345,-2.6369 0.4036,-3.7938 0,-1.157 0.1614,-2.8521 -0.2691,-4.0091 0,-0.8341 0,-0.8341 0.0807,-1.0762 0.0539,0.2421 0.1077,0.4843 0.1884,0.7264 0.8072,1.1032 1.1301,3.3902 1.2646,4.7625 0.5112,0.7533 0.9686,1.5605 0.9686,2.5292 -0.8072,0.3228 -1.7758,0.6726 -2.6368,0.861z"/>
   <path id="_216323976" class="fil10" d="M172.006 64.9719c-0.1076,-0.5651 -0.8341,-2.3947 -0.4036,-2.8252 0.4574,0 0.4036,1.1032 0.6996,1.5606 0.6188,0.4305 0.6188,0.4305 0.7264,0.6188 -0.1345,0.4305 -0.5919,0.5919 -1.0224,0.6458z"/>
   <path id="_216323352" class="fil19" d="M174.778 64.2723c-0.0807,-0.0538 -0.1345,-0.0807 -0.1883,-0.1076 0,-0.3498 1.722,-0.7265 1.7758,-0.9956 -0.9686,-0.4843 -3.9821,1.453 -3.6323,-0.6995 0.5381,-0.8072 1.7758,-1.1839 2.6637,-1.3992 0.9686,-0.9686 3.5516,-0.565 4.6279,0.1077 0.4036,0.4036 1.3722,1.1031 1.3184,1.7758 -0.9417,0.0807 -1.9104,0.1345 -2.7983,0.4574 -1.2915,0.1076 -2.5023,0.6457 -3.7669,0.861z"/>
   <path id="_216323928" class="fil21" d="M157.558 63.4651c-0.3498,-0.1614 -0.3767,-1.3722 -0.592,-1.8296 0.3229,-0.7534 0.296,-1.5606 -0.3498,-2.2064 -0.1883,-0.9686 -1.3991,-2.5561 -1.0762,-3.3633 0.8341,-0.5381 1.5067,-1.6412 2.1256,-2.3946 0.1614,-0.6727 1.4798,-0.9148 2.0987,-0.7534 0.8341,0.6188 2.6368,0.7265 3.6592,0.8879 0.5382,0.7803 1.453,2.6368 0.6458,3.444 0,1.0494 0.2422,1.3453 1.0494,1.9642 0,0.296 0,0.5919 0,0.8879 -1.3185,0.5112 -2.5562,1.5875 -3.8477,2.0449 -0.8072,-1.6413 -2.6368,-1.1839 -2.9597,0.5381 -0.269,0.1345 -0.269,0.4305 -0.3767,0.6996 -0.1345,0.0269 -0.269,0.0538 -0.3766,0.0807z"/>
   <path id="_216323688" class="fil10" d="M158.634 63.3575c0.5112,-1.2915 0.8879,-2.2063 2.0987,-0.9956 0,0.0808 0,0.1615 0,0.2422 -0.5112,0.3767 -1.4798,0.6727 -2.0987,0.7534z"/>
   <path id="_216323280" class="fil16" d="M189.226 63.3575c-0.2153,-0.1346 -0.2153,-0.1346 -2.1256,-0.4036 0,-1.5068 0.1883,-3.5517 0.1883,-5.7849 -0.1345,-1.1032 -0.2691,-2.2063 -0.3767,-3.3095 -0.6726,-2.2601 -1.6413,-5.5965 -3.0404,-7.5876 -0.6996,-1.7758 -1.9642,-3.8207 -2.9597,-5.4351 -1.0763,-0.9148 -1.6413,-3.3364 -2.9597,-3.9821 -1.6144,-1.8296 -2.4216,-2.4485 -4.8162,-2.7714 -2.1795,-0.7264 -5.5159,-0.7533 -7.7222,0.0808 -1.2108,0.8341 -1.3453,0.9686 -2.5292,0.1076 -0.0538,-1.2915 -0.1614,-2.7714 1.4261,-3.1481 0.1076,0.6727 0.1345,0.6996 0.7802,0.6996 0.2153,-0.3498 0.2153,-0.3498 0.4844,-0.565 0.4574,-1.4261 7.7759,0.1345 9.3365,0.3228 0.3229,0.1615 1.1569,0.3498 1.5336,0.592 1.9911,0.3767 4.1436,4.009 5.0584,5.5696 0.0539,0.0269 0.1077,0.0538 0.1884,0.1076 0.8341,2.5292 2.9597,4.7894 3.7131,7.3993 0.5919,0.5919 0.5919,1.5606 1.0493,2.1794 0.3498,1.6682 1.453,3.148 1.722,4.8162 0.5381,0.5382 1.0494,3.0405 1.157,4.0091 0.2691,0.8072 0.861,6.619 0.4305,7.0495 -0.1883,0 -0.3767,0.0269 -0.5381,0.0538z"/>
   <path id="_216323424" class="fil12" d="M164.096 63.0077c-0.565,-0.4574 -1.1839,-0.4036 -1.8834,-0.4574 0.6995,-1.1301 3.2287,-2.0449 4.4664,-2.2871 1.8835,-0.9417 4.7625,-0.8071 6.8073,-0.6188 0.296,0.1614 0.296,0.1614 1.5875,0.4574 0.1076,0.296 0.1076,0.296 0.0538,0.4305 -0.8879,0.1614 -1.6413,0.6189 -2.4215,0.9955 -1.0763,0 -2.1526,0 -3.2288,0 -1.8835,0.2691 -3.6324,1.1301 -5.3813,1.4799z"/>
   <path id="_216323472" class="fil16" d="M185.54 63.0077c-0.1614,-0.0269 -0.3229,-0.0538 -0.4574,-0.0807 -0.0538,-0.1346 -0.1076,-0.2691 -0.1345,-0.3767 0.0538,-5.3006 0.4574,-8.9867 -1.8028,-13.7223 -0.4843,-1.9103 -1.991,-3.6054 -2.6368,-5.462 -0.0538,0 -0.1076,0 -0.1614,0 -0.5651,-0.9955 -1.7759,-2.5561 -2.1525,-3.6861 -0.0808,-0.0269 -0.1615,-0.0539 -0.2153,-0.0808 -2.5292,-3.6861 -5.5965,-3.8207 -9.7401,-3.8207 -0.5381,0.1884 -1.722,0.7265 -2.2601,0.7265 -0.3498,-0.3498 -0.6458,-0.6457 -1.0763,-0.861 0.0269,-0.1614 0.0538,-0.3229 0.0807,-0.4574 3.0673,-1.9104 6.7535,-0.565 10.063,-0.1345 1.9911,1.1569 3.8207,3.3633 4.8432,5.4351 0.0538,0 0.1076,0 0.1883,0 0.1076,0.3766 1.5068,2.6368 1.7758,3.3363 0.0538,0 0.1076,0 0.1884,0 0.4036,1.3185 1.426,2.5023 1.8027,3.8477 0.0538,0 0.1076,0 0.1614,0 0.5113,2.0987 1.8566,3.9552 2.2064,6.1884 0.6726,2.7445 0.3497,6.0271 0.269,8.8791 -0.1345,0.296 -0.6457,0.2422 -0.9417,0.2691z"/>
   <path id="_216323544" class="fil10" d="M183.738 62.8193c-1.4261,-0.1345 -1.4261,-0.1345 -1.7759,-0.269 -1.3184,-1.8835 -2.1794,-2.314 -4.4664,-2.879 -0.3498,-0.2422 -0.6996,-0.5381 -1.1032,-0.6996 0,-0.0807 0,-0.1345 0,-0.1883 -0.4574,-0.1345 -0.4574,-0.1345 -1.3453,-0.1345 -0.9955,0.5381 -2.5561,0.7533 -3.3364,-0.1884 -1.2108,-2.4485 -2.583,-4.7086 -4.2243,-6.888 -1.3722,-1.3184 -2.3408,-2.0718 -2.5292,-2.3409 0.1884,-2.6637 0.592,-5.3813 0.6996,-8.0181 0.4305,-0.6726 0.7265,-1.3184 0.9955,-2.0718 0,-0.6995 -0.1614,-1.3184 -0.1614,-2.0987 2.6099,-1.1569 6.0539,-0.7802 8.61,0.3498 1.6413,1.0763 3.0673,3.1481 3.9284,4.897 0.0807,0.0538 0.1614,0.1345 0.269,0.2152 0.6727,1.722 1.9373,3.175 2.5292,4.897 0.2422,0.3229 0.2422,0.3229 1.722,3.8745 0.4036,1.3184 0.8072,2.4754 0.9417,3.9014 0,5.1392 0,5.1392 -0.0807,6.7535 -0.1345,0.4574 -0.2152,0.7803 -0.6726,0.8879z"/>
   <path id="_216323520" class="fil10" d="M152.634 61.8507c-0.1884,-0.4574 -0.3229,-0.5381 -0.3229,-1.0493 1.2108,-0.0269 2.9597,0.0538 3.9553,-0.7265 1.0224,1.5337 -1.157,1.426 -2.1257,1.722 -0.5112,0 -1.0224,0.0269 -1.5067,0.0538z"/>
   <path id="_216324624" class="fil0" d="M161.244 61.3933c-0.1076,-0.1345 -0.1076,-0.1345 -0.7803,-0.4305 -0.7802,-1.426 -0.6188,-2.3408 0.9149,-2.9597 1.4798,0.7265 1.7489,1.5337 0.9686,2.9597 -0.4036,0.2153 -0.6458,0.3767 -1.1032,0.4305z"/>
   <path id="_216324264" class="fil10" d="M161.055 60.6668c-0.6189,-0.8341 -0.6996,-1.1838 0.0538,-1.9372 1.2915,0 1.157,1.0493 0.7803,1.8834 -0.296,0 -0.565,0.0269 -0.8341,0.0538z"/>
   <path id="_216324744" class="fil16" d="M201.684 60.3171c-0.4036,-0.5113 -0.861,-1.3723 -1.13,-1.6682 -0.6189,-1.5875 -2.1256,-3.4979 -2.9597,-4.9777 -0.4305,-0.3767 -1.0225,-1.2915 -1.1839,-1.8297 -3.3364,-2.9597 2.879,-4.9776 4.9507,-2.5022 0.1346,0.3228 0.296,0.6457 0.4575,0.9955 0.0807,0.7534 0.0807,0.7534 0.0807,9.8477 -0.0807,0.0269 -0.1615,0.0807 -0.2153,0.1346z"/>
   <path id="_216324120" class="fil22" d="M152.634 60.2363c-1.3453,-1.3453 -1.0494,-4.0359 -2.3947,-5.5158 -0.6995,-1.3184 -1.5605,-2.7444 -3.0135,-3.2556 -0.565,0.0538 -1.1301,0.1076 -1.6951,0.1614 0,-0.5381 2.1525,-1.3991 2.5561,-1.3991 0.861,0.9686 0.861,0.9686 1.0763,1.0762 1.3991,1.722 3.0673,4.1974 4.8969,5.6504 0.2691,-0.0269 0.5382,-0.0539 0.8341,-0.0808 0.5651,0.5651 0.9956,1.8297 0.9956,2.6638 -0.6996,0.6995 -2.3409,0.6726 -3.2557,0.6995z"/>
   <path id="_216324048" class="fil10" d="M176.392 60.048c-0.4036,-0.2153 -0.8072,-0.4036 -1.2108,-0.5919 0,-0.1077 0,-0.1884 0,-0.2691 0.6189,0 0.861,0.3229 1.3992,0.4036 -0.0807,0.4036 -0.0807,0.4036 -0.1884,0.4574z"/>
   <path id="_216324480" class="fil10" d="M165.979 59.7789c-0.2153,-0.3228 -0.2153,-0.3498 -0.2153,-0.7803 0.6458,-0.3497 2.1525,-0.9686 2.9059,-0.9686 0.1076,0.2691 0.2152,0.565 0.3229,0.861 -0.4036,0.2153 -0.4036,0.2153 -3.0135,0.8879z"/>
   <path id="_216324192" class="fil10" d="M141.602 59.3215c-1.2377,-2.9328 -3.7938,-5.5427 -5.0315,-8.4755 -0.2691,-0.3229 -0.3767,-0.5112 -0.1884,-0.8879 1.4799,-0.7265 2.7176,1.8834 3.0943,3.0135 1.0762,1.5068 1.5067,3.6593 2.2332,5.3544 0,0.296 0,0.6188 0,0.9417 -0.0538,0 -0.0807,0.0269 -0.1076,0.0538z"/>
   <path id="_216324216" class="fil21" d="M170.123 59.0525c-1.13,-0.4305 -0.7264,-2.1795 -1.1031,-3.0943 -1.0225,-0.8879 -1.5606,-2.3139 -1.7758,-3.6323 0.4843,0.1883 0.9148,1.1838 1.1569,1.6143 0.0538,0 0.1077,0 0.1884,0 0.8072,1.4799 1.6144,2.9867 2.4485,4.4934 -0.027,0.1345 -0.027,0.296 -0.027,0.4574 -0.2959,0.0538 -0.5919,0.1076 -0.8879,0.1615z"/>
   <path id="_216324576" class="fil10" d="M165.011 58.3529c-0.3229,-0.1614 -0.3229,-0.7803 -0.1345,-1.0494 0.0807,0 0.1614,0 0.2422,0 0.0538,0.0539 0.1076,0.1077 0.1614,0.1884 1.0762,0 2.1525,-0.296 2.8252,-1.1839 0.1614,0.0269 0.3228,0.0538 0.5112,0.1076 0,0.1884 0,0.4036 0,0.6189 -1.2108,0.861 -2.1256,1.157 -3.6055,1.3184z"/>
   <path id="_216325248" class="fil20" d="M141.952 57.4381c-0.5113,-2.1256 -2.4216,-6.4845 -3.9822,-7.8567 -0.296,-0.0807 -0.296,-0.0807 -0.3767,-0.2421 0.296,-1.1839 4.7625,-1.4799 5.6773,-1.6413 1.8565,0 3.74,0 5.6234,0.0269 0,0.0807 0,0.1614 0,0.269 -0.4036,0.3498 -0.7803,0.6996 -1.157,1.0763 -0.861,1.7489 -3.3364,1.2915 -3.3364,3.6593 -1.1838,1.426 -1.6951,2.9058 -2.2332,4.6548 -0.0807,0 -0.1614,0.0269 -0.2152,0.0538z"/>
   <path id="_216325008" class="fil22" d="M165.549 56.8999c-0.6458,-0.2152 -1.0225,-2.3408 -1.2377,-2.8789 -0.296,-0.296 -0.0808,-0.5113 0.1076,-0.8072 0,-1.3992 -1.3722,-3.2557 -2.2332,-4.2512 -0.027,-0.1615 -0.0539,-0.3229 -0.0808,-0.4574 2.0718,-0.6727 4.7087,3.9552 5.0853,5.7041 1.1032,1.8565 0.0808,2.3678 -1.6412,2.6906z"/>
   <path id="_216324600" class="fil0" d="M159.441 56.8192c-1.2646,-0.6995 -1.8834,-1.5605 -0.9417,-2.879 0.296,-0.1076 0.296,-0.1076 0.4305,-0.2959 1.0224,0 1.2646,0.0538 1.8834,0.8072 0.1077,1.2915 0.1077,2.2063 -1.3722,2.3677z"/>
   <path id="_216325080" class="fil21" d="M154.14 56.2811c-1.9641,-2.2601 -3.9283,-4.5203 -5.8655,-6.7804 0,-0.0538 0,-0.1076 0,-0.1614 0.5112,-0.3498 0.8071,-0.6996 1.1569,-1.1839 0.1615,0 0.3498,0 0.5382,0 1.0762,1.0224 2.2332,2.2332 3.5785,2.7982 0.8072,0.8072 2.6906,1.3723 3.6862,1.8835 -0.1615,1.2377 -1.7489,2.5561 -2.6907,3.3902 -0.1345,0 -0.269,0.0269 -0.4036,0.0538z"/>
   <path id="_216325152" class="fil10" d="M159.441 56.2811c-0.6996,-0.565 -0.8879,-1.1301 -0.4843,-1.9373 1.3184,-0.1614 1.7489,0.7803 0.9686,1.8835 -0.1614,0 -0.3229,0.0269 -0.4843,0.0538z"/>
   <path id="_216324912" class="fil21" d="M162.212 53.1331c-0.8341,-0.4036 -1.9373,-0.7265 -2.8521,-0.8072 0,-0.6458 0.296,-2.018 0.5919,-2.5292 0.4574,-0.2153 0.9148,-0.4305 1.3723,-0.6458 1.0224,0 2.1794,3.1481 2.5022,3.9014 -0.5381,0.0269 -1.0762,0.0538 -1.6143,0.0808z"/>
   <path id="_216325176" class="fil10" d="M158.096 52.4335c-1.8296,-0.7803 -3.6055,-1.722 -5.3544,-2.6368 0.1615,0 0.3229,0 0.5112,0 0.0269,0.0538 0.0539,0.1345 0.0808,0.2152 2.0179,0.1345 3.6861,0.4036 5.7041,0.0269 0.0538,0.0538 0.1076,0.1345 0.1884,0.2153 -0.1346,0.6188 -0.3767,1.991 -1.1301,2.1794z"/>
   <path id="_216325344" class="fil3" d="M120.238 50.3617c-1.3991,-1.5606 -4.6279,-1.9373 -6.5652,-2.287 -3.148,0 -8.0719,-0.3229 -10.9239,1.3453 -0.2422,-0.5113 -0.0808,-1.2646 -0.0539,-1.8566 0.7265,-4.7624 0.7265,-4.7624 0.888,-6.6997 0.6457,-1.7758 1.8296,-2.0448 3.6861,-1.8565 -0.3228,2.5023 -1.2108,4.7086 1.5068,5.8387 2.9328,-0.1076 5.8656,-0.1884 8.7984,-0.2691 1.0224,1.0225 2.018,3.6324 2.5292,5.0584 0.2152,0.2153 0.2421,0.3498 0.269,0.6727 -0.0538,0 -0.1076,0.0269 -0.1345,0.0538z"/>
   <path id="_216325536" class="fil19" d="M155.055 49.6352c-4.0898,-0.6726 -7.6145,-3.1749 -7.9912,-7.4261 0.2152,0.1076 0.2152,0.1076 0.3228,0.3497 0.6996,0.3767 2.6369,0.6996 2.314,-0.6457 -0.0538,-0.0269 -0.1076,-0.0269 -0.1345,-0.0269 -0.592,0.5112 -1.3454,0.8879 -1.8297,0.0807 -0.0269,-0.3229 -0.0269,-0.6457 -0.0269,-0.9417 -1.6682,-0.8341 -2.6637,-2.9328 -1.426,-4.5741 1.2646,-0.7265 2.1256,-0.1345 2.9866,0.9148 0.3767,0.8341 1.5606,1.453 2.3408,0.861 0,-0.9148 -0.6188,-1.7489 0.6458,-2.287 1.426,-1.9104 0.9417,-4.2781 -0.2691,-6.1616 -0.0269,-0.0807 -0.0269,-0.1614 -0.0269,-0.2152 0.3229,-0.1615 0.6458,-0.296 0.9956,-0.4305 1.3722,0 2.4754,-0.6458 3.8207,0.0269 0.1076,0.2152 1.6951,1.6143 1.7758,1.8027 1.157,0 0.7534,-1.2915 0.7534,-2.1794 0.0807,0 0.1614,0 0.2421,0 0.2422,0.2421 0.4305,0.269 0.7534,0.3767 0,0.0807 0.0269,0.1614 0.0538,0.269 -0.2421,0.2153 -0.4843,0.4305 -0.6995,0.6458 0.7533,0.0538 0.7533,0.0538 1.4529,-0.0807 -0.0807,-0.0538 -0.1345,-0.1077 -0.1883,-0.1615 0,-0.0807 0,-0.1614 0,-0.2421 1.5605,0 1.426,0.5919 1.426,2.1256 -0.0538,0.2152 -0.0807,0.4305 -0.1076,0.6726 -0.4843,0 -0.8072,-0.6188 -1.1301,-0.9148 -2.3678,0 -2.3409,1.3184 -2.2601,3.3633 0.565,0.2691 1.991,-0.0538 2.6637,-0.0538 2.7175,0.5381 4.9777,1.8296 4.3319,5.1391 -0.1883,0.1346 -0.6457,0.861 -1.157,1.2915 -1.0493,0.592 -2.5292,0.6189 -3.6861,0.296 -0.4574,-0.4574 -1.2646,-0.6996 -1.8835,-0.7803 0.7803,1.5875 4.0091,2.0987 5.4351,1.157 0.1615,-0.0269 0.3498,-0.0538 0.5381,-0.0538 -0.4574,2.4754 -0.8341,3.6054 -2.4753,5.5965 -1.1032,0.9417 -2.3409,1.5875 -3.7131,2.0718 -1.2915,0.0269 -2.583,0.0807 -3.8476,0.1345z"/>
   <path id="_216325320" class="fil3" d="M135.575 49.4738c-0.4574,-1.6144 -1.8834,-2.879 -2.4753,-4.4127 -0.2153,-0.2152 -0.2422,-0.269 -0.2422,-0.565 6.3768,-0.1883 6.3768,-0.1883 8.61,-0.3767 2.2871,-1.2646 1.8566,-3.444 2.4485,-5.731 0.0538,-0.027 0.1076,-0.0539 0.1884,-0.0539 0.1345,1.8835 1.1569,3.0405 2.3677,4.3589 0.296,1.8834 1.1301,2.7982 2.018,4.4395 -3.74,-0.1614 -9.3096,-0.3767 -12.3769,2.2871 -0.1884,0 -0.3767,0.0269 -0.5382,0.0538z"/>
   <path id="_216324840" class="fil0" d="M157.638 49.0971c-0.8072,-0.3229 -1.3722,-0.3498 -1.3722,-1.3184 0.6188,0.5381 1.2376,0.7534 2.0986,0.8072 0.2153,-0.2422 0.2153,-0.2422 0.4306,-0.3229 0,-0.1883 -0.027,-1.0763 0.4035,-0.7265 0.1077,0.3229 0.1077,0.3229 0.2691,0.4574 0.3767,-0.4574 0.4843,-0.6995 0.6458,-1.2646 0.6726,0 0,1.2108 -0.1077,1.5337 -0.8341,0.565 -1.3722,0.7803 -2.3677,0.8341z"/>
   <path id="_216325416" class="fil10" d="M164.096 48.6666c-0.1614,-0.5112 -1.0762,-0.6458 -0.7534,-1.3184 0.4305,-0.2153 0.6189,-0.6996 0.8072,-1.0763 0.1346,0 0.296,0 0.4574,0.0269 -0.1076,0.7265 -0.2152,1.4799 -0.2959,2.2333 -0.0808,0.0269 -0.1615,0.0807 -0.2153,0.1345z"/>
   <path id="_216380168" class="fil11" d="M108.776 44.1732c-1.5068,-0.4305 -1.2915,-1.426 -1.2377,-2.7982 0.1883,-0.6458 0.1883,-0.6458 0.3767,-2.3678 0.5919,0 1.1839,0 1.7758,0 0.6458,0.6458 -0.565,2.5023 0.5919,3.148 5.6504,0 5.6504,0 5.9464,0.0808 0.3228,0.5112 0.6726,1.0493 1.0224,1.5874 -0.0538,0.0539 -0.0807,0.1077 -0.1076,0.1884 -2.7983,0.0538 -5.5966,0.1076 -8.3679,0.1614z"/>
   <path id="_216380216" class="fil0" d="M157.289 44.0925c-0.296,-0.1614 -2.4216,-1.3453 -1.3722,-1.8565 0.7803,0.9417 1.3991,1.3722 2.7175,0.8879 0.3767,-0.3767 0.5112,-0.5381 1.0225,-0.6189 0.269,1.1301 -1.5875,1.4799 -2.3678,1.5875z"/>
   <path id="_216380336" class="fil11" d="M132.535 43.8234c-0.6188,-0.5112 -0.9686,-1.2107 -1.2646,-1.991 3.0674,-0.0538 6.1347,-0.1077 9.2289,-0.1346 0.2422,-0.269 0.592,-0.4843 0.9417,-0.9417 0.296,-2.6099 0.7265,-5.2198 0.8072,-7.8297 -0.2959,-0.296 -0.5381,-0.4036 -0.9417,-0.5651 -5.2736,-0.0269 -10.5204,-0.0538 -15.7671,-0.0538 -0.5113,-0.4574 -1.1032,-1.1839 -1.0225,-1.9103 5.7849,0 11.5967,0 17.4085,0 1.7758,0.2152 1.9372,0.6457 1.9372,2.5292 -1.5067,2.3408 -0.7534,5.0853 -0.9686,7.749 -0.2691,1.5068 -0.296,2.1256 -1.5606,2.9059 -2.9328,0.0807 -5.8656,0.1614 -8.7984,0.2421z"/>
   <path id="_216380240" class="fil10" d="M110.66 41.6709c-0.1076,-0.0538 -0.1883,-0.0807 -0.269,-0.1076 -0.0538,-0.7534 0,-1.5067 0.3228,-2.1794 1.6951,0 4.1705,0.3498 4.7894,2.2063 -1.6144,0.0269 -3.2288,0.0538 -4.8432,0.0807z"/>
   <path id="_216379928" class="fil14" d="M145.988 41.4826c-0.4305,-0.8879 -1.0224,-1.5875 -1.3184,-2.6099 -0.0269,-1.0494 -0.0538,-2.0449 0.0807,-3.0943 -0.8341,0.2691 -0.6457,1.1301 -1.2377,1.4261 0,-2.0449 0.0807,-2.7176 1.1839,-4.4127 0.3767,-0.1614 0.3767,-0.1614 1.3722,-0.2421 1.6951,-0.6189 3.2288,-1.6951 4.8163,-2.583 0.1345,0 0.269,0 0.4305,0 1.2377,1.2377 1.2915,2.9597 1.0762,4.6548 -0.1345,0.0269 -0.2421,0.0538 -0.3497,0.0807 -0.1884,-0.2691 -0.3767,-0.5381 -0.5382,-0.8072 -0.2152,1.2646 -0.5112,2.5023 -0.6457,3.7669 -0.8072,0.4036 -1.5606,-1.1839 -2.1256,-1.6144 -0.2691,-0.5381 -0.0808,-1.1839 -0.3767,-1.6951 -0.1615,0.2691 -0.1615,0.2691 -0.2691,0.9955 -0.3767,0 -0.6726,-0.1345 -0.9417,-0.4036 -0.1884,0.2153 -0.3767,0.4305 -0.5381,0.6458 -1.6144,0.8879 -2.0987,3.7669 -0.5113,4.9508 0.0269,0.269 0.2153,0.7803 -0.1076,0.9417z"/>
   <path id="_216380288" class="fil10" d="M130.92 41.2942c-0.4843,-0.4843 -0.7533,-1.3722 -1.2107,-1.7489 -3.3364,-5.7041 -3.3364,-5.7041 -3.5786,-5.9194 -0.0538,-0.1883 -0.0807,-0.3767 -0.1076,-0.5381 0.1076,-0.0807 14.5563,-0.0807 15.6864,0 0,2.3678 -0.565,4.9239 -0.8072,7.2647 -0.3498,0.5381 -0.3498,0.5381 -0.6457,0.7265 -0.8072,0.0807 -0.8072,0.0807 -9.3366,0.2152z"/>
   <path id="_216380552" class="fil0" d="M148.679 40.218c-0.3498,-0.3498 -0.5113,-0.7534 -0.7803,-1.157 0.7533,-0.7534 0.1076,-1.3991 -0.8072,-1.157 -0.2422,0.8341 0.3229,1.1032 0.1883,1.8028 -0.7534,0 -0.7265,-1.2646 -0.7265,-1.722 0.6458,-1.1301 1.6413,-0.4844 2.3947,0.1345 0.1345,0.4036 0.1345,0.4036 0.3229,0.6457 -0.2691,0.1615 -0.5919,0.1615 -0.7265,0.296 0.0269,0.1615 0.0538,0.3498 0.0807,0.5381 0.1077,0.0539 0.2153,0.1346 0.3498,0.2153 0,0.0538 0,0.1076 0,0.1883 -0.1076,0.0539 -0.2152,0.1346 -0.2959,0.2153z"/>
   <path id="_216379880" class="fil0" d="M156.401 36.9085c-0.0807,-0.0269 -0.1345,-0.0538 -0.1884,-0.0807 0,-0.0807 0.0269,-0.1615 0.0539,-0.2422 0.2421,-0.0807 0.4843,-0.1345 0.7264,-0.1883 -2.018,-0.2422 -2.5561,-0.5381 -2.7444,-2.5292 0.3767,-1.5337 1.3184,-1.8566 2.7713,-1.8566 0.8072,0.4036 1.2108,1.5068 1.2108,2.3947 -0.1883,1.1301 -0.8879,1.5068 -1.3453,2.4485 -0.1614,0 -0.3229,0.0269 -0.4843,0.0538z"/>
   <path id="_216379976" class="fil10" d="M155.486 35.6439c-0.6189,-1.3722 -0.9148,-1.7758 0.2152,-2.9059 0.3767,0 0.7803,0 1.1839,0 0.4305,0.4574 0.6996,0.6996 0.6996,1.3184 -1.2915,0 -1.5337,0.3229 -1.6413,1.5337 -0.1615,0 -0.3229,0.0269 -0.4574,0.0538z"/>
   <path id="_216380408" class="fil10" d="M159.791 34.2986c-0.8072,-0.4843 -0.4574,-1.3991 -0.0269,-2.018 1.2646,-0.0807 1.7758,-0.0269 1.7758,1.2646 -0.1076,0.0269 -0.1883,0.0538 -0.2691,0.0807 -0.0538,-0.0807 -0.1076,-0.1345 -0.1614,-0.1883 -0.5381,0 -0.9417,0.5112 -1.3184,0.861z"/>
   <path id="_216380768" class="fil13" d="M117.117 34.1371c-0.592,-0.4574 -0.592,-0.4574 -0.7534,-0.6995 -2.3409,-0.7803 -4.7355,-0.9686 -7.0764,-1.6144 -2.9059,-0.1883 -5.6772,-0.6727 -8.4486,0.5381 -2.9059,-0.0269 -5.8118,-0.0538 -8.7177,-0.0807 -0.2152,-1.6413 0.7265,-4.009 1.2377,-5.5965 0.8341,-1.9373 0.8341,-1.9373 1.5875,-3.3902 1.2915,-2.018 2.7983,-4.2243 5.1929,-5.0046 1.749,-1.7489 5.193,0.4305 7.1302,0.9955 0.4574,0.3767 2.018,0.9148 2.1525,1.3722 3.6324,1.9373 6.5383,5.9733 8.9599,9.202 0.0538,0.2691 0.1614,0.3767 0.3767,0.5382 0.565,0.9148 1.13,1.8296 1.722,2.7444 -0.5113,0.5112 -2.5292,0.861 -3.3633,0.9955z"/>
   <path id="_216381128" class="fil23" d="M144.723 32.1461c-0.1345,-0.0269 -0.2421,-0.0538 -0.3498,-0.0807 -0.0269,-0.9418 -0.0538,-1.8566 -0.0538,-2.7714 0.4305,-1.7489 -0.4574,-3.5516 0.3767,-5.2467 1.6413,-1.0763 6.6997,-3.9015 7.8298,-0.8611 0.5381,0.1346 1.2377,1.2646 1.1031,1.8028 -1.5874,0.5919 -2.4215,1.5067 -1.4798,3.2287 0.0538,0.0269 0.1345,0.0808 0.2152,0.1346 -0.0538,0.565 -3.8476,2.287 -4.6817,2.7175 0,0.0538 0,0.1076 0,0.1884 -2.018,0.6995 -2.018,0.6995 -2.9597,0.8879z"/>
   <path id="_216381008" class="fil16" d="M176.742 31.7156c-0.2152,-0.3229 -0.5919,-0.3498 -0.9686,-0.4036 -1.8835,-0.8072 -4.1974,-0.6996 -6.2154,-1.1032 -1.157,-0.0538 -2.3139,-0.0807 -3.4709,-0.1076 0,-0.0538 0,-0.0807 0,-0.1076 0.4843,-0.0538 0.9686,-0.1077 1.4798,-0.1346 2.018,-0.5919 3.6324,-1.426 3.1212,-3.74 -2.2871,-2.6099 -6.0002,-1.1838 -8.8522,-0.565 -0.7534,-0.7534 -1.1032,-1.9372 -1.6951,-2.8521 -0.0269,-0.1345 -0.0269,-0.269 -0.0269,-0.3767 3.6861,0.0808 6.9956,0.1346 10.1437,2.0718 0.3498,0.3498 1.13,0.8072 2.1794,1.7759 1.6951,1.0224 3.74,3.7669 4.8431,5.5427 -0.1883,0 -0.3767,0 -0.5381,0z"/>
   <path id="_216380048" class="fil10" d="M162.939 31.2582c0,-0.3498 0,-0.6727 0,-0.9956 0.1346,0.0538 0.296,0.1077 0.4574,0.1615 0.0269,0.1614 0.0539,0.3228 0.0808,0.4843 -0.1346,0.0269 -0.2422,0.0538 -0.3498,0.0807 0,0.0807 0,0.1614 0,0.2691 -0.0807,0 -0.1346,0 -0.1884,0z"/>
   <path id="_216380672" class="fil14" d="M164.903 30.9891c-0.4843,-1.0763 -0.7803,-1.9911 -1.9373,-2.3139 0.0269,0.2421 0.1884,0.4035 0.2691,0.7533 0.0807,0 0.1614,0 0.2422,0.0269 0,0.0808 0,0.1615 0,0.2691 -0.1884,-0.0269 -1.0763,-0.4305 -1.1839,-0.5919 -0.9148,-0.1615 -0.9148,-0.1615 -2.1794,-0.6189 -0.0269,-0.0807 1.9641,-0.861 3.0135,-1.1839 2.879,-1.5336 2.3677,1.8297 1.9911,3.5248 -0.0808,0.0269 -0.1615,0.0807 -0.2153,0.1345z"/>
   <path id="_216381056" class="fil0" d="M156.481 30.6393c-0.4036,-0.0538 -0.7803,-0.0807 -1.157,-0.1076 0,-0.8341 1.453,-0.3229 1.7759,-0.1614 -0.027,0.0538 -0.0539,0.1076 -0.0808,0.1883 -0.1883,0.0269 -0.3767,0.0538 -0.5381,0.0807z"/>
   <path id="_216381344" class="fil16" d="M143.566 30.1819c-0.2152,-0.1076 -0.4305,-0.2152 -0.6457,-0.3229 -6.3499,-0.0269 -12.6729,-0.0538 -18.9959,-0.0538 -1.157,-1.157 -1.3722,-2.9597 -2.1256,-4.2781 0.0269,-0.5112 0.0538,-1.0224 0.0807,-1.5337 0.3498,-0.6457 0.6996,-0.8072 1.2915,-1.13 8.2064,-0.9418 16.5205,-0.9418 24.7808,-1.157 -0.3767,0.1345 -0.4305,0.1883 -0.6727,0.5112 -1.7489,0.3498 -2.6637,0.861 -3.4978,2.3947 0,4.4934 0,4.4934 -0.1076,5.5158 -0.0538,0 -0.0808,0.0269 -0.1077,0.0538z"/>
   <path id="_216380744" class="fil10" d="M158.553 30.1819c-0.3229,-0.5381 -0.861,-0.8341 -1.1301,-1.3991 0.3767,0 0.7534,0 1.157,0 0.1883,0.4036 0.1883,0.861 0.1614,1.3453 -0.0807,0 -0.1345,0.0269 -0.1883,0.0538z"/>
   <path id="_216380888" class="fil23" d="M166.356 29.3747c-0.0807,-0.0269 -0.1345,-0.0538 -0.1883,-0.0807 -0.1076,-0.9686 -0.1345,-1.6413 -0.6996,-2.3947 0.4843,-0.9955 4.9508,-0.8072 4.4127,1.2377 -1.0763,0.8879 -2.1525,1.0763 -3.5248,1.2377z"/>
   <path id="_216381272" class="fil10" d="M153.791 28.6482c-1.2108,-0.6726 -1.7759,-1.2915 -1.1032,-2.6368 1.722,-0.565 2.314,0.4036 2.1256,2.1256 -0.3498,0.296 -0.5919,0.4036 -1.0224,0.5112z"/>
   <path id="_216380960" class="fil23" d="M155.486 28.2177c0,-1.0762 0.6726,-0.861 1.5874,-0.861 2.3409,-0.3767 2.8252,-0.565 3.7131,-0.7264 1.5068,-0.9149 8.0719,-2.583 9.0675,-0.4036 -0.1615,-0.0269 -0.3229,-0.0269 -0.4574,-0.0269 -1.0225,-0.5113 -2.4216,-0.3498 -3.5786,-0.296 -0.7265,0.3229 -2.583,0.4305 -3.148,0.9955 -1.4261,0.2691 -2.8521,0.9148 -4.3051,1.2646 -0.9686,0 -1.9372,0.0269 -2.8789,0.0538z"/>
   <path id="_216381416" class="fil23" d="M155.593 26.6841c-1.1301,-0.7534 -1.2915,-2.2333 -1.9911,-3.2826 -0.2421,-0.2691 -1.2377,-1.0493 -1.13,-1.426 1.9103,0 4.87,-0.3767 6.6458,0.269 0.4843,0.8072 1.0494,1.4261 1.3453,2.3678 0.1884,0.1883 0.6189,0.861 0.6189,1.1031 -1.8027,0.888 -3.5247,0.888 -5.4889,0.9687z"/>
   <path id="_216381464" class="fil24" d="M148.221 17.8857c-0.1345,-0.1884 -0.5919,-0.4036 -1.6951,-1.3722 -3.3094,-3.8476 -6.8073,-7.776 -9.8477,-11.8388 0.0538,-0.0808 0.1076,-0.1615 0.1884,-0.2153 1.3991,1.2915 2.5561,2.879 3.9552,4.1436 2.4485,2.7983 5.0584,5.5696 7.5338,8.341 0.1614,0.3498 0.1614,0.3498 0.1614,0.8879 -0.1076,0 -0.2152,0.0269 -0.296,0.0538z"/>
   <path id="_215177280" class="fil25" d="M108.001 84.317l0 6.5127 -1.0191 0 -0.6974 -1.7166c-0.7421,1.2739 -1.8885,1.9141 -3.4427,1.9141 -1.7356,0 -3.0318,-0.6625 -3.8885,-1.9809 -0.8535,-1.3185 -1.2834,-2.844 -1.2834,-4.5796 0,-1.8344 0.4777,-3.3886 1.4331,-4.6592 0.9554,-1.2739 2.2898,-1.9109 4.0063,-1.9109 1.2835,0 2.3376,0.3726 3.1656,1.1179 0.8249,0.742 1.3472,1.6656 1.5669,2.7738l-1.9968 0.3535c-0.3726,-1.5541 -1.2675,-2.3312 -2.6783,-2.3312 -0.9013,0 -1.637,0.3663 -2.207,1.1019 -0.5701,0.7325 -0.8535,1.8631 -0.8535,3.3854 0,3.2165 1.0095,4.8248 3.0222,4.8248 0.7835,0 1.4332,-0.2707 1.9459,-0.8121 0.5127,-0.5414 0.7707,-1.258 0.7707,-2.1465l-2.6306 0 0 -1.8471 4.7866 0z"/>
   <path id="_215177280" class="fil25" d="M115.297 91.0272c-1.691,0 -3.0095,-0.637 -3.9522,-1.9045 -0.9427,-1.2707 -1.4108,-2.8376 -1.4108,-4.7038 0,-1.8535 0.5,-3.4044 1.5,-4.6497 1.0032,-1.2484 2.3248,-1.8726 3.9649,-1.8726 1.6561,0 2.9618,0.6242 3.9236,1.8726 0.9618,1.2453 1.4427,2.8058 1.4427,4.6784 0,1.9649 -0.5,3.5541 -1.4968,4.7643 -1,1.2102 -2.3217,1.8153 -3.9714,1.8153zm0.0191 -1.8504c0.8281,0 1.5255,-0.3407 2.0988,-1.0254 0.5732,-0.6847 0.8598,-1.9236 0.8598,-3.7229 0,-1.4618 -0.2388,-2.6083 -0.7102,-3.4363 -0.4713,-0.8312 -1.207,-1.2453 -2.2006,-1.2453 -1.9681,0 -2.949,1.5828 -2.949,4.7484 0,1.5351 0.2484,2.7007 0.7516,3.4936 0.5,0.793 1.2165,1.1879 2.1496,1.1879z"/>
   <path id="_215177280" class="fil25" d="M125.577 78.0941l-0.9427 8.8726 -0.9681 0 -0.8981 -8.8726 2.8089 0zm-0.2898 10.4044l0 2.3312 -2.3216 0 0 -2.3312 2.3216 0z"/>
  </g>
 </g>
</svg>
