<?xml version="1.0" encoding="UTF-8"?>
<!DOCTYPE svg PUBLIC "-//W3C//DTD SVG 1.1//EN" "http://www.w3.org/Graphics/SVG/1.1/DTD/svg11.dtd">
<!-- Creator: CorelDRAW -->
<svg xmlns="http://www.w3.org/2000/svg" xml:space="preserve" width="245mm" height="150mm" style="shape-rendering:geometricPrecision; text-rendering:geometricPrecision; image-rendering:optimizeQuality; fill-rule:evenodd; clip-rule:evenodd"
viewBox="0 0 245 150">
 <defs>
  <style type="text/css">
   <![CDATA[
    .str0 {stroke:#1F1A17;stroke-width:0.7056}
    .fil14 {fill:none}
    .fil4 {fill:#007CC3;fill-rule:nonzero}
    .fil8 {fill:#0093DD;fill-rule:nonzero}
    .fil0 {fill:#1F1A17;fill-rule:nonzero}
    .fil12 {fill:#75C5F0;fill-rule:nonzero}
    .fil9 {fill:#DA251D;fill-rule:nonzero}
    .fil7 {fill:white;fill-rule:nonzero}
    .fil1 {fill:#231F20;fill-rule:nonzero}
    .fil5 {fill:#27AAE1;fill-rule:nonzero}
    .fil13 {fill:#414042;fill-rule:nonzero}
    .fil2 {fill:#58595B;fill-rule:nonzero}
    .fil3 {fill:#D1D3D4;fill-rule:nonzero}
    .fil6 {fill:#E6E7E8;fill-rule:nonzero}
    .fil11 {fill:#ECC19C;fill-rule:nonzero}
    .fil10 {fill:#008CCC;fill-rule:nonzero}
   ]]>
  </style>
 </defs>
 <g id="Capa_x0020_1">
  <metadata id="CorelCorpID_0Corel-Layer"/>
  <path id="path22" class="fil0" d="M3.9713 49.916c-0.0272,-0.1636 -0.0228,-0.3326 0.0164,-0.4976 0.4667,-1.9483 2.321,-2.8602 3.8844,-3.4372 4.5867,-1.6924 9.3667,-2.9085 14.2196,-3.6189 0.7563,-5.0124 1.9819,-9.6952 3.6466,-13.93 2.5493,-6.4849 6.061,-11.7426 10.4372,-15.6268 5.5016,-4.8833 12.3589,-7.5793 20.3812,-8.0127 14.8867,-0.8047 36.9765,-1.8746 56.8471,-1.8746 30.7907,0 47.542,2.572 51.1989,7.8626 10.788,11.4862 12.4157,15.5369 17.2307,27.5216l0.1004 0.2503c0.8757,2.1787 1.7984,5.1347 2.7474,8.7978 0.4165,-0.123 0.8504,-0.1861 1.29,-0.1861l7.1236 0c2.5251,0 4.5794,2.0544 4.5794,4.5794l0 9.8707c0,0.2417 -0.0199,0.4834 -0.0588,0.7221 1.1164,-0.0267 2.2471,-0.0622 3.2805,-0.0947 2.275,-0.0715 4.6271,-0.1457 6.9191,-0.1457 6.5103,0 13.7905,0.537 18.426,4.5193 6.5586,5.6352 11.2176,13.3912 13.1189,21.8403 0.0422,0.1879 0.0821,0.3762 0.1217,0.5652 0.1019,0.4846 0.1854,0.9137 0.2549,1.3117 1.1921,6.7921 0.6144,13.8393 -1.6706,20.3797 -0.1058,0.3027 -0.2147,0.6049 -0.3271,0.9034 -0.0651,0.1746 -0.1768,0.3281 -0.3201,0.4423 -0.2591,0.2077 -0.5224,0.4121 -0.7883,0.6185 -4.8483,3.7627 -10.3928,6.9602 -16.4868,9.508 -0.5339,1.9432 -1.2081,3.7492 -2.0068,5.3738 -2.6392,5.3682 -6.5226,8.7291 -10.935,9.4632 -2.4768,0.4121 -4.5995,0.6127 -6.4898,0.6127 -2.2015,0 -4.0303,-0.275 -5.5837,-0.84 -3.9887,-0.166 -7.854,-2.7696 -10.9317,-7.3584 -1.1794,0.0299 -2.399,0.0451 -3.6332,0.0451 -9.4362,0 -20.9036,-0.8547 -34.0981,-2.5412 -2.0067,11.1541 -8.1322,19.0841 -15.426,19.8545 -2.3154,0.2446 -4.4145,0.3685 -6.2388,0.3685 -2.9425,0 -5.2881,-0.3098 -7.1631,-0.9462 -4.2268,-0.2762 -8.1394,-3.2703 -11.0307,-8.4465 -2.109,-3.7756 -3.5399,-8.4601 -4.1551,-13.589 -3.2051,-0.5339 -26.5176,-4.419 -26.5176,-4.419 -2.5473,9.5356 -8.1221,15.8398 -14.6866,16.5331 -2.3156,0.2446 -4.4148,0.3685 -6.2392,0.3685 -2.9433,-0.0003 -5.2888,-0.31 -7.1629,-0.9462 -4.227,-0.276 -8.1396,-3.27 -11.031,-8.4465 -2.3433,-4.1951 -3.8224,-9.3946 -4.3147,-15.1276l-11.9972 -2.1173c-0.3331,-0.0608 -0.6152,-0.2814 -0.7506,-0.5828l-0.0537 -0.1171c-0.0556,-0.1212 -5.6069,-12.2644 -10.1812,-25.6331 -1.6792,-4.907 -3.0422,-9.4213 -4.0521,-13.4173 -0.0532,-0.2102 -0.1058,-0.4198 -0.157,-0.6269 -1.2888,-5.2228 -1.9896,-9.6768 -2.0832,-13.2382 -0.0044,-0.1771 -0.0076,-0.3521 -0.0093,-0.5253 -0.0233,-2.3465 0.2309,-4.3521 0.756,-5.9694z"/>
  <path id="path34" class="fil1" d="M95.1974 36.3785c0.0083,0 0.0164,-0.0022 0.0242,-0.0064 1.3368,-0.753 2.8662,-1.1512 4.4219,-1.1512 0.718,0 1.4301,0.0879 2.1173,0.2611 0.0037,0.0012 0.0079,0.0017 0.012,0.0017 0.012,0 0.0238,-0.0046 0.0329,-0.0129 0.0122,-0.0111 0.0181,-0.0275 0.0154,-0.0438 -0.0919,-0.5804 -0.3671,-1.1175 -0.7751,-1.5119 -0.5456,-0.5275 -1.3319,-0.8302 -2.1575,-0.8302 -0.2806,0 -0.5592,0.0353 -0.8274,0.105 -1.0006,0.259 -1.9238,1.0032 -2.4694,1.9909 -0.1847,0.3344 -0.3331,0.717 -0.4415,1.1365 -0.0052,0.0189 0.0016,0.0391 0.0173,0.0509 0.0088,0.0068 0.0194,0.0103 0.0299,0.0103z"/>
  <path id="path38" class="fil1" d="M111.81 34.6974c0.0138,0 0.0267,-0.0056 0.0362,-0.0162 0.0138,-0.0152 0.0167,-0.0372 0.0074,-0.0553 -0.4575,-0.8816 -0.9286,-1.7406 -1.4003,-2.5539 -0.0088,-0.015 -0.025,-0.0243 -0.0423,-0.0243 -0.0013,0 -0.0024,0 -0.0034,0 -0.0605,0.0044 -0.121,0.0086 -0.1818,0.0157 -0.8859,0.1034 -1.6495,0.4871 -2.0947,1.053 -0.2285,0.2902 -0.3749,0.6622 -0.4119,1.0464 -0.0015,0.0152 0.0044,0.0304 0.0154,0.0407 0.0093,0.0085 0.0211,0.0132 0.0333,0.0132 0.003,0 0.0059,-0.0003 0.0086,-0.001 0.0756,-0.0132 0.1516,-0.0265 0.2341,-0.0358 0.2843,-0.0318 0.5735,-0.0479 0.8601,-0.0479 0.9967,0 1.9796,0.189 2.9215,0.562 0.0056,0.0022 0.012,0.0034 0.0178,0.0034z"/>
  <path id="path42" class="fil1" d="M118.993 54.1628c0.0152,0 0.0294,-0.007 0.0387,-0.019 0.0093,-0.0118 0.0125,-0.0275 0.0088,-0.0422 -1.2254,-4.7684 -2.6949,-9.2621 -4.368,-13.3559 -0.5875,-1.4377 -1.2279,-2.8813 -1.9038,-4.2904 -0.0083,-0.0174 -0.0257,-0.0279 -0.0443,-0.0279 -0.0047,0 -0.0096,0.0008 -0.0143,0.0022 -0.0232,0.0071 -0.0379,0.0301 -0.034,0.0542l1.5781 10.4086c0.3436,2.2689 0.7332,4.8404 -0.1009,7.2051 -0.0051,0.0149 -0.0029,0.0315 0.0064,0.0448 0.009,0.0127 0.0239,0.0205 0.0399,0.0205l4.7934 0z"/>
  <path id="path46" class="fil2" d="M80.4738 66.9882c4.3986,0 8.8005,-1.0745 12.7289,-3.1071 0.2667,-0.1381 0.5312,-0.2808 0.7938,-0.4278 0.8979,-0.5022 1.747,-1.0378 2.524,-1.5918 0.0417,-0.0298 0.0906,-0.0455 0.1418,-0.0455 0.0794,0 0.1538,0.0384 0.1999,0.1026 0.0784,0.1102 0.0526,0.2635 -0.0573,0.3416 -0.562,0.4009 -1.1717,0.7993 -1.8116,1.1838 -0.0181,0.011 -0.0272,0.0325 -0.0223,0.0533 0.0049,0.0206 0.0226,0.0358 0.0438,0.0375 0,0 7.3055,0.5846 7.3067,0.5846 0.0132,0 0.0259,-0.0054 0.035,-0.0152 0.0102,-0.0106 0.0152,-0.025 0.0134,-0.0395l-0.2787 -2.3984c-0.0017,-0.0173 -0.0129,-0.0323 -0.0291,-0.0394 -0.2922,-0.1266 -0.5934,-0.2518 -0.8965,-0.3732 -0.0057,-0.0022 -0.0121,-0.0034 -0.0182,-0.0034 -0.0117,0 -0.0232,0.0042 -0.0323,0.0122 -0.014,0.012 -0.0196,0.0308 -0.0152,0.0488 0.0718,0.2848 0.1127,0.5627 0.1212,0.8257 0.0019,0.0654 -0.021,0.1276 -0.0659,0.1759 -0.0446,0.0475 -0.1053,0.0749 -0.1702,0.0774l-0.0004 -0.0001c-0.1413,0 -0.2486,-0.1041 -0.2528,-0.2366 -0.0129,-0.3869 -0.0942,-0.779 -0.2422,-1.1646 -0.0796,-0.2079 -0.1829,-0.4205 -0.3075,-0.6321 -0.0023,-0.0044 -0.0052,-0.0083 -0.0086,-0.0117 -0.4587,-0.7807 -1.1769,-1.4578 -2.0695,-1.9486 -0.1166,-0.0642 -0.2356,-0.1264 -0.3581,-0.1842 0.0028,-0.0184 -0.0054,-0.0372 -0.0215,-0.0479 -0.0083,-0.0055 -0.0176,-0.0081 -0.0269,-0.0081 -0.0135,0 -0.0267,0.0056 -0.0362,0.0162 -1.3469,-0.6071 -2.8087,-0.7885 -4.1873,-0.8941 -0.0015,0 -0.0027,-0.0003 -0.0039,-0.0003 -0.0138,0 -0.027,0.0059 -0.0363,0.0162 -0.4315,0.4751 -0.9856,0.8522 -1.6022,1.09 -0.2275,0.0876 -0.4683,0.1577 -0.7159,0.2081 -0.1256,0.0255 -0.2667,0.0463 -0.4315,0.0635 -0.0134,0.0012 -0.0257,0.008 -0.0338,0.0191 -0.0085,0.0107 -0.0117,0.0245 -0.0093,0.038 0.013,0.0749 0.0233,0.1327 0.0316,0.1905 0.0265,0.1824 0.0463,0.3712 0.0607,0.5772 -0.1734,0.1403 -0.3281,0.2725 -0.4726,0.4048 -0.4459,0.4087 -0.8554,0.8468 -1.197,1.2217 -0.001,0.001 -0.3711,0.4099 -0.3711,0.4099 -0.4004,0.4447 -0.8529,0.9477 -1.3238,1.4059 -0.1536,0.1496 -0.314,0.2973 -0.491,0.4521 -0.3279,0.2867 -0.633,0.5228 -0.9323,0.7214 -0.958,0.6365 -2.0279,0.9866 -3.0126,0.9866 -0.3296,0 -0.6497,-0.0384 -0.9518,-0.1143 -0.1308,-0.033 -0.2107,-0.1663 -0.1776,-0.297 0.0274,-0.1092 0.1249,-0.1852 0.2373,-0.1852 0.0198,0 0.0402,0.0023 0.0602,0.0074 0.264,0.0661 0.5447,0.0999 0.8343,0.0999 0.8875,0 1.8602,-0.3216 2.7394,-0.9054 0.1523,-0.1011 0.3127,-0.2184 0.5042,-0.3693 0.1876,-0.1479 0.3664,-0.2989 0.5314,-0.4488 0.5787,-0.526 1.1039,-1.1094 1.6116,-1.6736l0.0997 -0.1104c0.0152,-0.0167 0.0166,-0.0417 0.0043,-0.0603 -1.842,-2.7473 -4.4964,-5.0385 -7.4744,-6.451 -0.0066,-0.0034 -0.0138,-0.0049 -0.0211,-0.0049 -0.0107,0 -0.0213,0.0036 -0.0298,0.0102l-5.5847 4.3311c-0.4288,0.3355 -0.9252,0.7381 -1.353,1.1794 -0.1453,0.1498 -0.2721,0.2928 -0.3882,0.4374 -0.361,0.4496 -0.5976,0.8948 -0.7239,1.3605 -0.0255,0.0941 -0.0478,0.1893 -0.0644,0.2871 -0.0113,0.0671 -0.0181,0.1347 -0.0242,0.2025 -0.1161,1.2773 0.672,2.6741 1.9606,3.4762 1.3615,0.8475 3.0613,1.0326 4.3898,1.0995 0.4496,0.0225 0.9073,0.034 1.3611,0.034z"/>
  <path id="path50" class="fil1" d="M32.9767 109.68c0.0125,0 0.0245,-0.005 0.0335,-0.0135 0.0103,-0.0096 0.0159,-0.0231 0.0154,-0.0372 0,0 -0.0132,-0.3906 -0.0172,-0.5351l-0.0054 -0.2155c-0.0075,-0.3529 -0.0127,-0.7072 -0.0127,-1.0638l0.0008 -0.0588c0.0122,-10.1138 3.1955,-19.2616 8.3078,-23.8748 0.0181,-0.0159 0.0215,-0.0426 0.0085,-0.0627 -0.0095,-0.0144 -0.0249,-0.0225 -0.0411,-0.0225 -0.0069,0 -0.0132,0.0012 -0.0196,0.0041 -8.2953,3.618 -8.8683,20.6482 -8.8466,25.7815 0,0.025 0.0194,0.0461 0.0444,0.0486 0,0 0.5307,0.0497 0.5322,0.0497z"/>
  <path id="path54" class="fil3" d="M88.7911 60.6567c0.0137,0 0.0267,-0.0057 0.036,-0.0159 0.357,-0.3887 0.8366,-0.8941 1.3775,-1.3582 0.0125,-0.0105 0.0189,-0.0264 0.0172,-0.0423 -0.0199,-0.1832 -0.047,-0.3661 -0.083,-0.5596 -0.0348,-0.1876 -0.0706,-0.3524 -0.1092,-0.5035 -0.357,-1.387 -1.1133,-2.6739 -2.1288,-3.6241 -0.7237,-0.6769 -1.618,-1.2181 -2.5868,-1.5646 -0.1545,-0.0556 -0.311,-0.1055 -0.469,-0.1508 -0.4026,-0.1149 -0.811,-0.1964 -1.2611,-0.2525 -0.0015,-0.0003 -0.0028,-0.0003 -0.0044,-0.0003 -0.0081,0 -0.0179,0.0023 -0.025,0.0054 0,0 -0.0546,-0.0107 -0.0563,-0.0107 -0.0108,0 -0.0213,0.0034 -0.0299,0.0103l-2.0491 1.5888c-0.0135,0.0102 -0.0206,0.0269 -0.0191,0.0436 0.0015,0.0166 0.0118,0.0316 0.027,0.0389 2.9384,1.4519 5.4708,3.6559 7.3236,6.3741 0.0083,0.0123 0.022,0.0201 0.0367,0.0214 0.0013,0 0.0024,0 0.0037,0z"/>
  <path id="path58" class="fil4" d="M72.31 61.8889c0.0226,0 0.0423,-0.0154 0.0475,-0.0375 0.1596,-0.6516 0.5096,-1.2724 1.0701,-1.8979 0.0106,-0.0115 0.0149,-0.0272 0.0117,-0.0423 -2.0279,-10.1158 -0.2453,-44.1897 -0.1682,-45.6352l0.0075 -0.0674 0.0177 -0.0291c0.0668,-0.1332 0.4611,-0.5681 2.741,-0.5681 3.2646,0 8.8262,0.8404 16.5304,2.4986 2.4187,0.5204 4.7799,1.5166 7.0187,2.9612 0.2552,0.1645 0.5201,0.3433 0.7878,0.5311 2.1001,1.4728 4.1132,3.364 5.9828,5.6207 0.4668,0.5637 0.9512,1.1855 1.4397,1.8484l0.0412 0.0557c0.0909,0.1234 0.1722,0.2335 0.253,0.3457 0.8977,1.247 1.7845,2.6171 2.6354,4.0722l0.0936 0.1595c0.0661,0.1124 0.132,0.224 0.1972,0.3379 0.2179,0.3813 0.4361,0.7763 0.6663,1.2075 0.2454,0.4464 0.4709,0.8762 0.6969,1.3221l0.1092 0.2069c0.0534,0.1034 0.1068,0.2072 0.1597,0.3123 0.1347,0.2694 0.2688,0.5427 0.4021,0.8172 0.722,1.4854 1.4211,3.0532 2.0777,4.6602 1.6973,4.1547 3.1852,8.716 4.4231,13.5575 0.0057,0.0218 0.025,0.037 0.0473,0.037l1.668 -0.0002c0.0947,0 0.2015,0.0059 0.3259,0.0184 0.0017,0 0.0034,0.0003 0.0049,0.0003 0.014,0 0.0272,-0.0061 0.0365,-0.0164 0.0106,-0.0117 0.0147,-0.0277 0.0113,-0.0431 -1.9758,-9.1353 -7.833,-24.6758 -13.0785,-32.3694 -0.4462,-0.6542 -0.9954,-1.2965 -1.6328,-1.9087 -0.1127,-0.1082 -0.2268,-0.2154 -0.3441,-0.321 -8.5564,-7.7002 -29.2151,-8.1903 -29.4227,-8.1942 -0.1496,-0.0056 -1.5215,-0.0537 -3.7226,-0.0537 -0.5588,0 -1.1696,0.0035 -1.8232,0.0111 -0.0179,0.0003 -0.034,0.0101 -0.0423,0.0257 -0.4805,0.8871 -4.5922,9.8417 -1.0482,50.5322 0.0022,0.0252 0.0235,0.0448 0.049,0.0448l1.7294 0z"/>
  <path id="path62" class="fil1" d="M48.1446 134.181c3.4749,-0.0041 6.8522,-2.2378 9.51,-6.2892 1.997,-3.0446 3.5109,-6.9932 4.3783,-11.4193 0.0027,-0.0127 -0.0003,-0.0262 -0.0078,-0.0372 -0.0076,-0.0108 -0.0191,-0.0181 -0.0324,-0.0204 -0.3328,-0.0548 -2.1151,-0.3518 -2.1151,-0.3518l-0.0166 -0.1891c-0.0013,-0.0127 -0.13,-1.435 -0.4535,-3.7342 -0.0032,-0.0241 -0.024,-0.0422 -0.0485,-0.0422l-0.0005 0c-0.0245,0.0002 -0.0454,0.0186 -0.048,0.0431 -1.1272,9.1105 -5.7392,15.723 -10.9665,15.723 -1.7248,0 -3.3827,-0.6852 -4.9269,-2.0362 -0.1626,-0.1423 -0.31,-0.2783 -0.4509,-0.4158 -3.6116,-3.5306 -5.8552,-10.2733 -5.8552,-17.5974 0,-11.0552 5.039,-20.0494 11.233,-20.0494 0.8181,0 1.6402,0.1614 2.4429,0.4794 0.1587,0.063 0.3118,0.1293 0.4551,0.1977 0.4655,0.2206 0.9436,0.5132 1.4211,0.8698 0.0088,0.0066 0.0191,0.0098 0.0293,0.0098 0.0118,0 0.0236,-0.0042 0.0329,-0.0125 0.0171,-0.0154 0.0213,-0.0412 0.0096,-0.0612 -0.3296,-0.5606 -0.6635,-1.0805 -0.9928,-1.5455 -0.1004,-0.1418 -0.2014,-0.2826 -0.304,-0.4193 -2.0744,-2.7611 -4.419,-4.1611 -6.9682,-4.1611 -0.1249,0 -0.2501,0.0034 -0.3767,0.01 -0.4288,0.0226 -0.8515,0.0784 -1.2918,0.1705 -5.6397,4.0261 -9.291,13.6198 -9.3206,24.4488l-0.0005 0.0367c-0.0008,0.3622 0.0054,0.7224 0.0127,1.0824 0.0041,0.2038 0.0105,0.4065 0.0171,0.6093l0.0189 0.4822 0.013 0.263c0.2977,5.8661 1.7147,11.4598 3.9899,15.7509 2.2674,4.2765 5.2962,7.0937 8.5285,7.9324 0.5497,0.1428 1.1205,0.2319 1.6966,0.265 0.0007,0.0003 0.0014,0.0003 0.0021,0.0003 0.0084,0 0.0189,-0.003 0.026,-0.0069 0.1067,0.0107 0.2329,0.0142 0.3595,0.0144z"/>
  <path id="path66" class="fil5" d="M111.032 43.6275c0.0051,0 0.0105,-0.0007 0.0154,-0.0027 0.2664,-0.0896 0.5137,-0.1986 0.7349,-0.3238 0.1709,-0.0964 0.3842,-0.2311 0.5201,-0.4204 0.013,-0.0179 0.0247,-0.0392 0.0412,-0.0703 0.0042,-0.0078 0.0061,-0.0166 0.0059,-0.0254 -0.0174,-0.3275 -0.0588,-0.614 -0.1263,-0.8767 -0.0684,-0.2659 -0.1698,-0.5184 -0.3017,-0.7498 -0.0047,-0.0081 -0.0113,-0.0145 -0.0191,-0.0189 -0.0987,-0.0537 -0.1815,-0.0933 -0.2603,-0.1244 -0.1536,-0.0608 -0.2919,-0.0914 -0.4117,-0.0914 -0.0899,0 -0.1682,0.0177 -0.2334,0.0524 -0.2136,0.1144 -0.3005,0.422 -0.336,0.6601 -0.0963,0.6464 0.0198,1.3441 0.3272,1.9642 0.0083,0.0168 0.0256,0.0271 0.0438,0.0271z"/>
  <path id="path70" class="fil5" d="M99.95 45.4033c0.8505,-0.0896 1.6679,-0.2963 2.4298,-0.6146 0.0191,-0.0081 0.0311,-0.0273 0.0301,-0.048 -0.0418,-0.7846 -0.227,-1.4891 -0.5505,-2.094 0,-0.0231 -0.011,-0.0211 -0.0335,-0.026 -0.0931,-0.0206 -0.1866,-0.0392 -0.2804,-0.0505 -0.0937,-0.0112 -0.1883,-0.0171 -0.2808,-0.0171 -0.4945,0 -0.9367,0.1651 -1.2134,0.4525 -0.3168,0.3292 -0.4648,0.8704 -0.3954,1.4476 0.0323,0.2716 0.1097,0.5635 0.2431,0.9188 0.0074,0.0191 0.0255,0.0316 0.0459,0.0316 0.0016,0 0.0034,0 0.0051,-0.0003z"/>
  <path id="path74" class="fil1" d="M73.8815 59.4712c0.0122,0 0.0245,-0.0046 0.0335,-0.0134 0.4288,-0.4036 0.8914,-0.7717 1.2464,-1.0469l0.0488 -0.0377c0.0139,-0.011 0.0213,-0.0287 0.0184,-0.0463 -0.3828,-2.4991 -0.7029,-4.97 -0.9509,-7.3442 -0.1714,-1.6375 -0.2637,-3.4953 0.8186,-4.8135 0.6994,-0.8524 1.8727,-1.3838 3.2186,-1.4585 0.1119,-0.0061 0.2231,-0.0085 0.334,-0.0085 0.0659,0 0.1313,0.0012 0.1969,0.0027l0.001 -0.0002c0.023,0 0.0428,-0.0159 0.0479,-0.0384 0.0407,-0.1832 0.0826,-0.3661 0.1244,-0.549l0.0111 -0.0473c0.0034,-0.0149 -0.0005,-0.0308 -0.0103,-0.0424 -0.0093,-0.0112 -0.023,-0.0176 -0.0375,-0.0176 -0.001,0 -0.0017,0 -0.0027,0 -0.1133,0.0061 -0.2268,0.0115 -0.3384,0.0115 -1.0231,0 -1.8329,-0.2571 -2.4748,-0.7865 -1.3636,-1.1251 -1.4539,-3.0722 -1.4316,-4.8091l0.0639 -4.9416c0.0274,-2.1112 0.1996,-4.4724 1.902,-5.7698 0.7165,-0.5461 1.663,-0.8348 2.7364,-0.8348 0.1494,0 0.3166,0.0079 0.5121,0.024 0.0014,0 0.0027,0.0003 0.0041,0.0003 0.0132,0 0.026,-0.0054 0.035,-0.0152 0.0103,-0.0105 0.0154,-0.025 0.0135,-0.0396 -0.0828,-0.7024 -0.0635,-1.3944 0.0578,-2.0566 0.3622,-1.9848 1.6182,-3.7781 3.3598,-4.7971 1.8671,-1.0924 4.0684,-1.243 6.1688,-1.243 0.3228,0 0.6472,0.0038 0.9734,0.0093 2.6031,0.0436 5.2288,0.129 7.8039,0.2542 0.0007,0 0.0017,0.0002 0.0024,0.0002 0.0215,0 0.0407,-0.0142 0.047,-0.0349 0.0064,-0.0218 -0.0027,-0.0451 -0.0223,-0.0563 -1.9079,-1.1143 -3.9025,-1.9004 -5.9277,-2.336 -9.5648,-2.0583 -14.2383,-2.4902 -16.4746,-2.4902 -1.5332,0 -2.0575,0.2015 -2.2118,0.2882 -0.0147,0.0083 -0.0242,0.0235 -0.025,0.0402 -0.0728,1.4159 -1.764,34.8026 0.0796,45.0036 0.0031,0.0179 0.0159,0.0323 0.0331,0.038 0.0048,0.0017 0.01,0.0024 0.0152,0.0024z"/>
  <path id="path78" class="fil6" d="M109.603 43.8624c0.2772,0 0.5659,-0.0284 0.8573,-0.084 0.015,-0.0027 0.0275,-0.0125 0.0345,-0.0257 0.0069,-0.0134 0.0071,-0.0291 0.001,-0.0428 -0.3115,-0.6764 -0.4249,-1.4387 -0.3191,-2.1461 0.0757,-0.5075 0.2743,-0.8503 0.5894,-1.0193 0.11,-0.0588 0.2385,-0.0938 0.3818,-0.1036 0.021,-0.0014 0.039,-0.0164 0.0441,-0.037 0.0051,-0.0205 -0.0034,-0.0418 -0.0215,-0.0533l-0.027 -0.0184c-0.0152,-0.0103 -0.0301,-0.0206 -0.0458,-0.0297 -0.2449,-0.1374 -0.5253,-0.2101 -0.8108,-0.2101 -0.3746,0 -0.7229,0.1288 -0.9553,0.3536 -0.4653,0.4501 -0.5037,1.1984 -0.4542,1.747 0.0492,0.5473 0.1843,1.0956 0.4015,1.6292 0.0072,0.0174 0.0236,0.0292 0.0424,0.0304 0.0936,0.0059 0.1876,0.0098 0.2817,0.0098z"/>
  <path id="path82" class="fil6" d="M99.0016 45.454c0.1119,0 0.2238,-0.0032 0.3354,-0.0073 0.0157,-0.0005 0.0299,-0.0086 0.0387,-0.0214 0.0088,-0.0127 0.011,-0.0291 0.0059,-0.0436 -0.1119,-0.3223 -0.1795,-0.5987 -0.2121,-0.8703 -0.0881,-0.732 0.1044,-1.4047 0.5287,-1.8452 0.3664,-0.3809 0.9382,-0.599 1.5683,-0.599 0.0208,0 0.1009,0.0038 0.1013,0.0038 0.0186,0 0.0361,-0.0107 0.0444,-0.0279 0.0083,-0.0176 0.0054,-0.0381 -0.0074,-0.0531 -0.4716,-0.5508 -1.0755,-0.9308 -1.7,-1.0706 -0.1797,-0.0402 -0.3658,-0.0608 -0.5534,-0.0608 -0.7837,0 -1.5262,0.3551 -1.9376,0.9267 -0.538,0.7474 -0.4782,1.6835 -0.3947,2.1749 0.0654,0.3867 0.188,0.7959 0.3864,1.2881 0.0061,0.0154 0.0196,0.0265 0.0358,0.0297 0.572,0.1168 1.1645,0.176 1.7603,0.176z"/>
  <path id="path86" class="fil1" d="M131.443 67.0268c20.3863,-0.8644 45.094,-2.3511 51.167,-3.5719 0.189,-0.0382 0.3573,-0.0759 0.5113,-0.1133 0.3707,-0.0909 0.635,-0.1793 0.7851,-0.2631 0.0181,-0.01 0.0279,-0.0301 0.0247,-0.0501 -0.0798,-0.5175 -0.5206,-3.2969 -1.3738,-7.2198 -0.0018,-0.0079 -0.0061,-0.0164 -0.0113,-0.0226 -0.1396,-0.6651 -0.3016,-1.3858 -0.4782,-2.1496 -0.0018,-0.0076 -0.0064,-0.0164 -0.0116,-0.0226 -0.9205,-3.9723 -1.986,-7.8335 -3.157,-11.4568 -3.3046,-10.2223 -9.1584,-23.7083 -18.2809,-29.9018 -0.0081,-0.0056 -0.0176,-0.0085 -0.0274,-0.0085 -0.0005,0 -49.0678,1.1887 -49.0678,1.1887 -0.0169,0.0003 -0.0321,0.0091 -0.0407,0.0233 -0.0086,0.0142 -0.0096,0.032 -0.0022,0.047 2.0244,4.1484 19.7797,40.8928 19.9119,53.4727 0,0.0132 0.0056,0.0259 0.0151,0.035 0.0091,0.0088 0.0211,0.0134 0.0338,0.0134 0.0008,0 0.0015,0 0.002,0z"/>
  <path id="path90" class="fil7" d="M226.303 96.6605c0.0076,0 0.0152,-0.0017 0.0223,-0.0054 0.995,-0.5091 1.9552,-1.0357 2.8537,-1.5648 2.9687,-1.7483 5.7884,-3.7855 8.3808,-6.0551 0.0131,-0.0117 0.0193,-0.0299 0.0154,-0.0475 -1.7919,-8.128 -6.4129,-15.877 -12.6783,-21.2599 -0.1916,-0.1646 -0.4065,-0.3353 -0.6573,-0.5209 -0.0086,-0.0064 -0.0187,-0.0098 -0.0292,-0.0098 -0.0059,0 -0.012,0.0013 -0.0176,0.0034 -0.0157,0.0061 -0.0272,0.0196 -0.0304,0.0363 -0.3589,1.8305 0.2114,4.0191 0.5834,5.1608 0.2101,0.6448 0.4482,1.3757 0.5699,2.0666 0.0012,0.0073 0.0073,0.0186 0.0117,0.0247 0.1678,0.9587 0.0637,1.7399 -0.3218,2.3771 -0.0088,0.0144 -0.0095,0.0323 -0.0019,0.0473 0.0671,0.1337 0.1351,0.2669 0.2074,0.3974 -1.1683,6.3844 -0.8072,13.0633 1.0449,19.3145 0.0042,0.0143 0.0145,0.0255 0.0277,0.0311 0.0062,0.0029 0.0127,0.0042 0.0193,0.0042z"/>
  <path id="path94" class="fil3" d="M48.344 127.374c2.683,0 5.2536,-1.818 7.2387,-5.1191 1.9706,-3.2788 3.197,-7.7316 3.4531,-12.5382 -0.9011,-5.5115 -2.5864,-13.2727 -5.5026,-19.0082 -0.811,-0.8179 -1.6681,-1.4355 -2.5563,-1.8479 -0.1462,-0.0679 -0.299,-0.1323 -0.4543,-0.1916 -0.7219,-0.2747 -1.4549,-0.4143 -2.1785,-0.4143 -5.9238,0 -10.7432,8.7746 -10.7432,19.5597 0,7.0006 2.0837,13.5138 5.4377,16.9976 0.14,0.1457 0.2879,0.2912 0.4398,0.4325 1.521,1.413 3.1578,2.1295 4.8656,2.1295z"/>
  <path id="path98" class="fil7" d="M191.47 103.963c0.025,0 0.0458,-0.0189 0.0487,-0.0436 0.2329,-2.1178 0.129,-4.2586 -0.3088,-6.3634 -0.0018,-0.0074 -0.0076,-0.0184 -0.0125,-0.0245 -0.0683,-0.3377 -0.1502,-0.6803 -0.2366,-1.0047 -0.4396,-1.6464 -1.0821,-3.2211 -1.9104,-4.6796 -1.0534,-1.8552 -2.4116,-3.5339 -4.0369,-4.9898l-0.1305 -0.1175c-0.0771,-0.0698 -0.1481,-0.1342 -0.2209,-0.1964 -0.0257,-0.0233 -0.0386,-0.034 -0.0389,-0.0343 -0.0454,-0.0389 -0.0962,-0.0793 -0.1472,-0.12l-0.0947 -0.0762c-0.0089,-0.0071 -0.0196,-0.0107 -0.0309,-0.0107 -0.0007,0 -0.0012,0 -0.0019,0 -2.4869,0.1028 -4.9891,0.1548 -7.437,0.1548 -9.4847,0 -19.0828,-0.7516 -27.7567,-2.1737 -0.0028,-0.0005 -0.0052,-0.0007 -0.0079,-0.0007 -0.0108,0 -0.021,0.0034 -0.0296,0.01 -0.0108,0.0081 -0.0177,0.0204 -0.0191,0.0335 -0.0755,0.6735 -0.0485,1.3611 0.0803,2.0441 0.3485,1.8472 1.2964,3.5222 2.2131,5.1424 1.5707,2.7751 3.1945,5.6441 5.2986,8.1161 0.0071,0.0083 0.0172,0.0142 0.0282,0.0162 7.8232,1.5064 15.4941,2.696 22.185,3.4412 0.0024,0.0011 0.0129,0.003 0.0159,0.003 0.0073,0 0.0152,-0.0017 0.0215,-0.0044 0.0149,0.0066 0.3925,0.0482 0.4496,0.0546 0.003,0.001 0.0128,0.0022 0.0144,0.0022 0.0074,0 0.0152,-0.0017 0.0218,-0.0046 3.4674,0.3832 6.636,0.6347 9.3993,0.7515 0.2687,0.0113 0.5363,0.0198 0.8038,0.0284 0,0 0.5524,0.0196 0.6352,0.0218 0.4038,0.0113 0.8045,0.0184 1.2043,0.0243l0.0008 0z"/>
  <path id="path102" class="fil1" d="M192.925 103.974c5.232,0 10.3146,-0.4369 15.1068,-1.2983 0.0049,-0.0005 0.0098,-0.0015 0.0147,-0.0032 0.1384,-0.0245 0.4668,-0.0862 0.4668,-0.0862 0.0054,-0.0003 0.0105,-0.0018 0.0157,-0.0037 3.4054,-0.6353 6.6945,-1.4917 9.7849,-2.5464 0.1159,-0.0396 0.4641,-0.1616 0.4641,-0.1616 2.4369,-0.8519 4.7966,-1.8445 7.0138,-2.9496 0.0213,-0.0108 0.0318,-0.035 0.025,-0.0579 -1.8739,-6.2676 -2.2623,-12.9915 -1.1228,-19.445 0.0038,-0.0211 -0.0069,-0.0424 -0.026,-0.0522 -0.0071,-0.0034 -0.0147,-0.0054 -0.0223,-0.0054 -0.013,0 -0.0257,0.0054 -0.0353,0.0152 -0.2091,0.2168 -0.4576,0.4171 -0.7388,0.5958 -3.697,2.3497 -7.9216,3.6126 -11.9358,4.6274 -1.1867,0.3001 -2.4511,0.5926 -3.7578,0.8699 -0.1662,0.0355 -0.3342,0.0696 -0.5022,0.1036l-0.2922 0.0593c-2.4449,0.4995 -4.9967,0.9371 -7.5841,1.3001 -0.0025,-0.0005 -0.0047,-0.0008 -0.0069,-0.0008 -0.0076,0 -0.0135,0.0032 -0.0213,0.0076 -0.1173,0.0139 -0.591,0.0764 -0.6338,0.082 -0.0039,-0.001 -0.008,-0.0014 -0.0122,-0.0014 -0.0059,0 -0.0117,0.0009 -0.0169,0.0034 -0.0044,0.0007 -0.0083,0.0022 -0.012,0.0041 -0.4484,0.0603 -0.8914,0.1193 -1.3376,0.1754 -0.2013,0.0252 -0.6558,0.0796 -0.6558,0.0796l-0.1641 0.0194c-3.6581,0.4378 -7.4889,0.7549 -11.3865,0.9425 -0.013,0.0008 -0.0252,0.0066 -0.034,0.0164 -0.0537,0.06 -0.107,0.1212 -0.1599,0.1827 -0.0177,0.0203 -0.0157,0.0507 0.0041,0.0686 1.6562,1.4874 3.04,3.2 4.1131,5.0902 0.7102,1.2507 1.2928,2.6037 1.7311,4.0211 0.0977,0.3154 0.1805,0.6038 0.253,0.8823 0.6323,2.4217 0.8174,4.9139 0.5505,7.4066 -0.0015,0.0138 0.0029,0.0277 0.012,0.038 0.0093,0.0103 0.0225,0.0162 0.0362,0.0164 0.2895,0.0027 0.5785,0.0041 0.8665,0.0041z"/>
  <path id="path106" class="fil4" d="M21.9914 49.9896c0.0105,0 0.0208,-0.0034 0.0293,-0.0098 0.012,-0.0091 0.0191,-0.0231 0.0196,-0.038 0.023,-0.827 0.1205,-3.0809 0.5256,-6.141 0.0019,-0.0152 -0.0032,-0.0304 -0.0143,-0.0412 -0.0091,-0.0093 -0.0215,-0.0144 -0.0345,-0.0144 -0.0019,0 -0.0043,0.0003 -0.0066,0.0005 -4.9381,0.6822 -9.8055,1.9003 -14.4672,3.6204 -0.4148,0.1531 -1.0318,0.3964 -1.5933,0.7401 -0.02,0.0122 -0.0284,0.037 -0.0203,0.0587 0.0071,0.0194 0.026,0.0321 0.0461,0.0321 0.0025,0 0.0051,-0.0003 0.0081,-0.0007 1.0373,-0.1739 2.1374,-0.2618 3.2698,-0.2618 4.0087,0 8.4125,1.0598 12.2252,2.0534 0.0041,0.0012 0.0083,0.0017 0.0125,0.0017z"/>
  <path id="path110" class="fil4" d="M194.105 63.3682c0.3602,0 0.7236,-0.0022 1.09,-0.0061 0.0156,-0.0003 0.0303,-0.0078 0.0394,-0.0205 0.371,-0.5221 0.5674,-1.1331 0.5674,-1.7666l0 -9.8705c0,-1.688 -1.3733,-3.0611 -3.0611,-3.0611l-7.1235 0c-0.6607,0 -1.2931,0.2119 -1.8283,0.613 -0.0157,0.0117 -0.0231,0.0316 -0.0184,0.0509 1.5394,6.2451 2.6572,12.3619 2.8656,13.5247 0.0037,0.0202 0.0199,0.0362 0.0402,0.0396 1.9723,0.3387 4.3328,0.4966 7.4287,0.4966z"/>
  <path id="path114" class="fil1" d="M200.433 136.064c1.7818,0 3.8565,-0.1949 6.1656,-0.5794 3.916,-0.6516 7.4041,-3.7184 9.8217,-8.6352 0.7638,-1.5538 1.4088,-3.2813 1.9164,-5.1348 0.005,-0.0179 -0.0007,-0.037 -0.0144,-0.0495 -0.0093,-0.008 -0.0208,-0.0125 -0.0328,-0.0125 -0.0059,0 -0.0122,0.0013 -0.0181,0.0037 -0.782,0.3137 -1.4422,0.5692 -2.0782,0.8045 -2.9859,1.1037 -6.142,2.073 -9.3801,2.8809 -0.0155,0.0037 -0.028,0.0147 -0.0339,0.0296 -0.2524,0.638 -0.4959,1.2019 -0.7447,1.7235 -2.3205,4.8683 -5.6419,7.8925 -9.3524,8.5147 -0.023,0.0037 -0.0401,0.0236 -0.0406,0.047 -0.0008,0.0236 0.0154,0.0441 0.0384,0.049 1.0993,0.2381 2.3619,0.3585 3.7531,0.3585z"/>
  <path id="path118" class="fil1" d="M118.137 98.2642c0.8186,0 1.6449,0.1643 2.4552,0.4883 0.0632,0.0252 0.1273,0.0517 0.1996,0.0848 0.0877,0.0355 0.1626,0.0685 0.2372,0.104 0.5075,0.2415 1.0046,0.5454 1.4772,0.9031 1.4936,1.1294 2.8598,2.8645 3.9535,5.0185 0.5012,0.9874 0.9518,2.0767 1.3385,3.2377 1.0283,3.0878 1.572,6.6193 1.572,10.213 0,1.522 -0.0999,3.0565 -0.2968,4.5601l-0.0187 0.1442c-0.0149,0.1178 -0.0293,0.2302 -0.0455,0.3409 -1.2876,8.8344 -5.7585,15.0043 -10.8723,15.0043 -1.725,0 -3.3829,-0.6852 -4.9271,-2.0365 -0.1626,-0.1423 -0.31,-0.2782 -0.4506,-0.4156 -3.6116,-3.5305 -5.8555,-10.2733 -5.8555,-17.5974 0,-11.0552 5.0394,-20.0494 11.2333,-20.0494m-0.1903 46.4162c6.5971,-0.0157 12.4297,-8.0059 14.1841,-19.4306 0.0696,-0.4551 0.1325,-0.9127 0.1871,-1.3609 0.0198,-0.1616 0.0387,-0.3237 0.0566,-0.4863 0.0413,-0.3715 0.0786,-0.7452 0.1109,-1.1216 0.1082,-1.2612 0.166,-2.5515 0.1712,-3.8354l0.0007 -0.1154c0.0008,-0.3512 -0.0051,-0.7003 -0.0122,-1.0494 -0.0043,-0.2316 -0.0117,-0.4621 -0.0198,-0.6923l-0.0157 -0.4033c-0.0135,-0.3082 -0.0319,-0.6151 -0.0512,-0.9212 -0.0161,-0.2491 -0.034,-0.4979 -0.0543,-0.7455l-0.0022 -0.0296c-0.6938,-8.4317 -3.6364,-15.7852 -7.8719,-19.6703 -0.1188,-0.109 -0.2385,-0.2143 -0.3593,-0.3177 -1.973,-1.6894 -4.0872,-2.5488 -6.284,-2.5544 -2.2667,0.0045 -4.4433,0.9163 -6.4703,2.7101 -0.2292,0.2029 -0.4608,0.4214 -0.6873,0.6496 -3.3692,3.3902 -5.9136,9.1321 -6.98,15.7534 -0.0933,0.5784 -0.1773,1.1796 -0.2498,1.7874 -0.2082,1.7431 -0.3179,3.5386 -0.3252,5.3356l-0.0008 0.1124c-0.0007,0.3518 0.0052,0.7013 0.012,1.0498 0.005,0.2344 0.0122,0.4677 0.0204,0.7006l0.0154 0.3931c0.0352,0.7942 0.092,1.6003 0.1689,2.3965 0.0162,0.1692 0.034,0.3372 0.0522,0.5052 1.1874,10.9976 6.1349,19.4638 12.3104,21.0669 0.554,0.1438 1.1258,0.2326 1.6991,0.2642 0.0007,0.0003 0.0017,0.0003 0.0024,0.0003 0.0088,0 0.0189,-0.0027 0.0265,-0.0071 0.1065,0.012 0.2358,0.0157 0.3658,0.0159l0.0003 0z"/>
  <path id="path122" class="fil3" d="M118.137 137.873c4.8784,0 9.1514,-6.0007 10.3913,-14.5928 0.0171,-0.119 0.0325,-0.2395 0.048,-0.3602l0.0161 -0.1254c0.1911,-1.4769 0.288,-2.9847 0.288,-4.4812 0,-4.8314 -0.9805,-9.4744 -2.7606,-13.0735 -1.09,-2.2043 -2.4655,-3.9579 -3.9779,-5.0716 -0.4548,-0.3331 -0.9154,-0.6078 -1.3709,-0.8177 -0.1501,-0.0691 -0.2975,-0.1313 -0.4379,-0.1844 -0.7204,-0.2735 -1.4595,-0.4124 -2.1961,-0.4124 -5.9238,0 -10.7434,8.7746 -10.7434,19.5597 0,7.0003 2.0837,13.5136 5.4377,16.9976 0.1418,0.1468 0.2896,0.2923 0.4403,0.4324 1.5207,1.4129 3.1578,2.1295 4.8654,2.1295z"/>
  <path id="path126" class="fil1" d="M54.6252 135.108c1.7769,0 3.8318,-0.1219 6.108,-0.3622 6.0987,-0.644 11.3043,-6.8607 13.5849,-16.2238 0.0032,-0.0132 0.0008,-0.0272 -0.0066,-0.0386 -0.0076,-0.0113 -0.0194,-0.0191 -0.0328,-0.0213 -0.5711,-0.0948 -11.6954,-1.9481 -11.698,-1.9481 -0.0231,0 -0.0433,0.0167 -0.048,0.0396 -1.9258,10.0257 -7.0389,17.0929 -13.0259,18.0053 -0.0234,0.0032 -0.0409,0.0233 -0.0416,0.0468 -0.0004,0.0238 0.0157,0.0446 0.039,0.0492 1.4301,0.3007 3.1529,0.4531 5.121,0.4531z"/>
  <path id="path130" class="fil1" d="M193.924 135.308c0.084,0 0.1579,-0.0445 0.2037,-0.1207l0.3064 0.0558c0.1016,0.0218 0.2054,0.0414 0.3117,0.0573 0.0165,0.0025 0.0328,0.0035 0.0485,0.0035 0.0843,0 0.1612,-0.0338 0.2204,-0.0962 0,0 0.0527,0.0235 0.073,0.0313l0.1374 0.0041c0.175,0 0.3516,-0.0054 0.5248,-0.0163 4.1893,-0.2854 7.9764,-3.7992 10.392,-9.64 0.0069,-0.0172 0.0039,-0.0368 -0.008,-0.0505 -0.0096,-0.011 -0.0231,-0.0174 -0.0372,-0.0174 -0.0039,0 -0.0076,0.0005 -0.0116,0.0015 -4.9372,1.1906 -10.1635,2.0247 -15.5337,2.479 -0.0394,0 -0.0815,0.0037 -0.1224,0.0115l-0.1746 0.0157c-0.0135,0.001 -0.026,0.0074 -0.0343,0.0179 -0.0085,0.0106 -0.0122,0.0241 -0.0105,0.037l0.0029 0.0211c-0.0181,0.0125 -0.0358,0.0261 -0.0529,0.0409 -0.0517,-0.0341 -0.1114,-0.0581 -0.1734,-0.0605l-0.0365 -0.0008c-0.0816,0 -0.155,0.0111 -0.2317,0.035l-0.0005 -0.0024c-0.0029,-0.025 -0.024,-0.0431 -0.0484,-0.0431 -0.0013,0 -0.2253,0.0173 -0.2253,0.0173 -0.2797,0.022 -0.5593,0.0438 -0.8405,0.0627 -1.0983,0.0739 -2.2853,0.1337 -3.5273,0.1776 -0.0179,0.0007 -0.0338,0.0107 -0.0419,0.0264 -0.008,0.0159 -0.0071,0.0348 0.0024,0.0497 1.965,2.9668 4.1807,5.0033 6.586,6.0528 0.0196,0.0767 0.0667,0.135 0.1345,0.1666 0.3967,0.1834 0.767,0.3264 1.1654,0.4501 0.0252,0.0076 0.0509,0.0118 0.0769,0.0118 0.0629,0 0.1249,-0.0236 0.1778,-0.0667l0.6342 0.2633c0.0402,0.0169 0.0772,0.0247 0.1127,0.0247z"/>
  <path id="path134" class="fil1" d="M124.418 145.607c1.7767,0 3.8316,-0.1219 6.108,-0.3622 6.8074,-0.7195 12.5314,-8.5578 14.2437,-19.5052 0.0019,-0.0132 -0.0013,-0.0265 -0.0093,-0.037 -0.0079,-0.0106 -0.0196,-0.0176 -0.0328,-0.0191 -3.8318,-0.5033 -7.8257,-1.0787 -11.8705,-1.7103 -0.0024,-0.0005 -0.0049,-0.0008 -0.0073,-0.0008 -0.0108,0 -0.0211,0.0037 -0.0297,0.0101 -0.0105,0.0081 -0.0173,0.0199 -0.0191,0.033 -0.0561,0.456 -0.1168,0.8983 -0.1804,1.3139 -0.1328,0.8681 -0.2927,1.7343 -0.4749,2.575 -2.0656,9.5244 -7.1044,16.2586 -12.8365,17.1556 -0.0235,0.0034 -0.0408,0.0232 -0.0413,0.047 -0.0008,0.0238 0.0156,0.0443 0.0386,0.049 1.4268,0.299 3.1464,0.4508 5.1115,0.451z"/>
  <path id="path138" class="fil4" d="M121.267 72.8772c0.0223,0 0.044,-0.0014 0.0661,-0.0029l0.0477 -0.0027c0.1781,-0.0071 0.3372,-0.0252 0.4852,-0.0561 1.3557,-0.2821 2.3396,-1.4918 2.3396,-2.8769l0 -12.3473c0,-1.2111 -0.7641,-2.3149 -1.9011,-2.7459 -0.1736,-0.0659 -0.3543,-0.1153 -0.5372,-0.1469 -0.1781,-0.0309 -0.3416,-0.0458 -0.5003,-0.0458l-7.5401 0c-0.1075,0 -0.2223,0.0076 -0.3521,0.0231 -1.4745,0.1773 -2.5866,1.4306 -2.5866,2.9155l0 12.3473c0,1.6204 1.3182,2.9386 2.9386,2.9386l7.5402 0z"/>
  <path id="path142" class="fil2" d="M104.68 64.308c0.0147,0 0.0286,-0.0066 0.038,-0.0181 0.01,-0.0125 0.0134,-0.0292 0.0088,-0.0449 -0.1639,-0.5568 -0.3642,-1.1049 -0.5956,-1.6289 -0.0046,-0.0101 -0.0125,-0.0187 -0.0225,-0.0238 -0.453,-0.2319 -0.9313,-0.4628 -1.4216,-0.6867 -0.0063,-0.0026 -0.0132,-0.0044 -0.0203,-0.0044 -0.0103,0 -0.0203,0.0034 -0.0289,0.0096 -0.014,0.0103 -0.0218,0.0276 -0.0196,0.0453l0.252 2.1677c0.0027,0.0233 0.0213,0.0414 0.0448,0.0431 0,0 1.7637,0.1411 1.7649,0.1411z"/>
  <path id="path146" class="fil3" d="M105.854 64.402c0.012,0 0.0235,-0.0045 0.0326,-0.0122 0.0098,-0.0089 0.0157,-0.0216 0.0164,-0.0348l0.0531 -1.2536c0.0005,-0.0118 -0.0034,-0.0236 -0.0107,-0.0329l-1.3829 -1.7203c-0.0096,-0.0117 -0.0237,-0.0184 -0.0384,-0.0184 -0.0042,0 -0.0086,0.0008 -0.0127,0.0017 -0.0189,0.0052 -0.0329,0.0209 -0.0358,0.0402l-0.0816 0.5517c-0.0015,0.0101 -0.0047,0.0186 -0.0093,0.0297 -0.0052,0.0128 -0.0064,0.0323 -0.0005,0.0448l0.0294 0.06c0.0301,0.0617 0.06,0.1234 0.0886,0.1859 0.0985,0.2147 0.1967,0.4484 0.3008,0.7141 0.1773,0.4518 0.331,0.9107 0.4567,1.3642 0.0056,0.0199 0.0227,0.0343 0.0433,0.0358 0,0 0.5498,0.0441 0.551,0.0441z"/>
  <path id="path150" class="fil3" d="M110.043 64.737c0.0125,0 0.0245,-0.0049 0.0336,-0.0132 0.01,-0.0096 0.0156,-0.0228 0.0154,-0.0367 -0.0257,-1.6068 -0.265,-3.2076 -0.7107,-4.7577 -0.0052,-0.0177 -0.0191,-0.0306 -0.037,-0.0345 -0.0032,-0.0008 -0.0069,-0.001 -0.0103,-0.001 -0.0142,0 -0.0279,0.0064 -0.0375,0.0174l-1.0898 1.2925c-0.0248,0.0294 -0.0615,0.0512 -0.1127,0.0666 -0.0167,0.0051 -0.0296,0.0189 -0.0338,0.036 -0.0609,0.2654 -0.1374,0.5338 -0.2339,0.8206 -0.0575,0.1726 -0.121,0.3436 -0.188,0.5086l-0.0319 0.082c-0.0049,0.0121 -0.0049,0.025 0.0003,0.0368l0.7496 1.821c0.007,0.0168 0.023,0.0286 0.0413,0.0301 0,0 1.6442,0.1315 1.6454,0.1315z"/>
  <path id="path154" class="fil1" d="M107.745 64.5532c0.0154,0 0.0303,-0.0073 0.0394,-0.0203 0.01,-0.0137 0.0122,-0.0316 0.0059,-0.0473l-0.7239 -1.7578c-0.0076,-0.0188 -0.0289,-0.0365 -0.0492,-0.0365 -0.0013,0 -0.5121,0.0456 -0.5121,0.0456 -0.0245,0.0019 -0.0436,0.022 -0.0448,0.0465l-0.0684 1.6145c-0.0009,0.0263 0.0189,0.0488 0.0451,0.0507 0,0 1.3068,0.1046 1.308,0.1046z"/>
  <path id="path158" class="fil8" d="M83.3387 72.9636c0.4981,-0.0143 0.8919,-0.431 0.8778,-0.9291l-0.0326 -1.136c-0.0135,-0.4761 -0.3874,-0.8524 -0.8606,-0.8767l0 -0.0014c0,-0.0238 -0.0173,-0.0441 -0.0406,-0.048 -0.0028,-0.0008 -0.0057,-0.001 -0.0086,-0.001 -0.0203,0 -0.0386,0.0127 -0.0458,0.0324l-0.0069 0.0179 -5.9081 0.1687c-0.4981,0.0143 -0.8917,0.4311 -0.8774,0.9291l0.0323 1.1361c0.0069,0.2412 0.1073,0.4653 0.2829,0.6311 0.1707,0.1614 0.3849,0.2468 0.6193,0.2468 0.0005,0 5.9683,-0.1699 5.9683,-0.1699z"/>
  <path id="path162" class="fil1" d="M67.9773 61.8699c0.0135,0 0.0262,-0.0055 0.0358,-0.0152 0.0098,-0.0106 0.0144,-0.025 0.013,-0.0392 -0.4479,-4.083 -4.2841,-40.1159 -1.0991,-47.91 0.0059,-0.0149 0.0044,-0.0321 -0.0047,-0.0455 -0.009,-0.0138 -0.024,-0.0218 -0.0404,-0.022 -0.0839,-0.0008 -0.1792,-0.0013 -0.2853,-0.0013 -1.9926,0 -7.2131,0.1771 -12.6332,1.8171 -9.0636,2.7427 -14.2652,8.0536 -15.4598,15.7847 -2.706,17.5072 0.111,23.2096 0.4408,23.8023 0.005,0.0083 0.0118,0.0152 0.0201,0.0195 1.09,0.5679 11.161,5.5791 29.0099,6.6096 0.001,0 0.002,0 0.0029,0z"/>
  <path id="path166" class="fil9" d="M19.1319 72.5972c0.0144,0 0.0282,-0.0064 0.0375,-0.0176 0.0095,-0.0113 0.0134,-0.0262 0.0105,-0.0407 -1.4407,-7.3895 -7.4899,-13.987 -14.7101,-16.0441 -0.0044,-0.0012 -0.0088,-0.0019 -0.0135,-0.0019 -0.0107,0 -0.0215,0.0034 -0.0301,0.0103 -0.0125,0.0098 -0.0194,0.0247 -0.0189,0.0404 0.1231,3.4982 0.8434,7.9016 2.1413,13.0878 0.0037,0.0144 0.0135,0.0262 0.0269,0.0323 3.9009,1.8408 8.2427,2.8551 12.5554,2.9335l0.001 0z"/>
  <path id="path170" class="fil10" d="M160.815 11.7966c9.2817,6.2473 15.2124,19.8805 18.5529,30.2169 0.98,3.0322 1.889,6.2434 2.7021,9.5443 0.0019,0.007 0.007,0.0164 0.0117,0.0223 0.1614,0.6697 0.321,1.3373 0.4724,1.9924 0.0017,0.008 0.0066,0.0168 0.012,0.023 1.3116,5.6611 1.8704,9.4955 1.8758,9.5337l0.0174 0.1185 -0.083 0.0859c-0.1222,0.1272 -0.4364,0.2591 -0.9342,0.3921 -0.1624,0.0433 -0.3434,0.0869 -0.5422,0.1303 -8.2571,1.7977 -47.3159,3.4865 -51.7425,3.6733l-0.2603 0.0108 0.0051 -0.2586c0.1693,-12.6854 -19.8606,-53.5602 -20.0629,-53.9717l-0.1689 -0.3438c0,0.0002 49.8005,-1.2061 50.0797,-1.213l0.0649 0.0436zm-44.2752 71.4591c-2.9536,0 -5.5171,0.6345 -7.6194,1.8854 -3.2222,1.9174 -5.3165,5.257 -6.2246,9.9263 -3.1409,16.154 -2.7488,19.8018 -2.7444,19.8368l0.0428 0.3208c-0.0641,-0.0096 -34.0048,-4.825 -34.3474,-4.8738l-0.0495 -0.1398c-0.1188,-0.335 -11.9752,-33.4949 -22.6668,-33.7178l-0.094 -0.0017 -0.0683 -0.0641c-0.409,-0.383 -10.0164,-9.4375 -10.0164,-14.5228 0,-3.6858 0.2201,-36.2433 7.8496,-44.3501 5.7627,-6.1222 24.5811,-6.7832 32.4047,-6.7832 2.429,0 4.0042,0.0605 4.1758,0.0674 0.0627,0.0012 6.349,0.1435 13.2636,1.4926 9.4076,1.8356 15.6407,4.9124 18.5267,9.1448 5.4289,7.9623 11.3226,23.6711 13.2163,32.7892 0.0037,0.0179 0.0169,0.0321 0.0343,0.0372 1.4561,0.424 2.4731,1.7762 2.4731,3.2884l0 12.3472c0,1.6258 -1.1581,3.0378 -2.7537,3.3577 -0.0241,0.0049 -0.0409,0.0269 -0.0392,0.0514l0.7376 10.7973 -0.3423 -0.1077c-0.025,-0.0081 -2.5228,-0.7815 -5.7586,-0.7815m63.6584 44.6643c1.3289,0 2.6354,-0.0173 3.8827,-0.0516 0.0043,0.0017 0.0088,0.0027 0.0127,0.0032l0.0093 -0.0502 0.0184 0.0458 0.526 -0.0142c0.0032,0.0012 0.0127,0.0032 0.0147,0.0032 0.0079,0 0.0174,-0.0018 0.0233,-0.0034 1.3738,-0.0451 2.6815,-0.1085 3.8859,-0.1893 0.3582,-0.0243 0.7211,-0.0507 1.0863,-0.0789l0 -0.0017c0.0056,0.0009 0.0163,0.0017 0.0171,0.0014l0.4732 -0.0384c5.6152,-0.4562 11.0813,-1.3268 16.2458,-2.5865l0.0021 -0.0001c0.0073,0 0.0198,-0.0041 0.0264,-0.0073 0.1751,-0.0429 0.3514,-0.0863 0.5285,-0.1305 0.0017,0.0002 0.0037,0.0004 0.0056,0.0004l0.0272 -0.059 0.012 0.0475c4.0081,-1.006 7.88,-2.2642 11.5083,-3.7394 0.188,-0.0766 0.3761,-0.1538 0.5639,-0.2321 6.2684,-2.6049 11.9547,-5.9293 16.9014,-9.8793 0.0069,-0.0056 0.0122,-0.013 0.0152,-0.0213 2.3945,-6.491 3.0707,-13.7296 1.9033,-20.3827 -0.0534,-0.3042 -0.1129,-0.6074 -0.1741,-0.9103 -0.0034,-0.0172 -0.0157,-0.0308 -0.0324,-0.0367 -0.0051,-0.0018 -0.0105,-0.0027 -0.0157,-0.0027 -0.0117,0 -0.023,0.0041 -0.032,0.012 -2.5517,2.2076 -5.3124,4.1909 -8.2054,5.8946 -0.9617,0.5662 -1.9748,1.1206 -3.0117,1.6479 -0.1095,0.0556 -0.443,0.2213 -0.443,0.2213 -2.238,1.1135 -4.6181,2.1127 -7.0741,2.9698 0,0 -0.346,0.1209 -0.464,0.1611 -3.1094,1.0586 -6.4173,1.9182 -9.832,2.5549 -0.005,0.0004 -0.4839,0.0894 -0.4864,0.0903 -4.8319,0.8682 -9.9394,1.3075 -15.1903,1.3075 -0.2087,0 -0.4187,-0.0029 -0.6287,-0.0059l-0.8414 -0.0098c-0.4052,-0.0061 -0.8113,-0.0152 -1.2188,-0.0264 -0.0132,-0.0005 -0.8272,-0.0257 -0.8272,-0.0257 -0.2015,-0.0056 -0.4026,-0.0113 -0.6051,-0.0199 -2.7695,-0.117 -5.9437,-0.3688 -9.4339,-0.7484 0,0 -0.0063,-0.0017 -0.0075,-0.0017l-0.4695 -0.0502c-0.0022,-0.0007 -0.0127,-0.0029 -0.0159,-0.0029 -0.0073,0 -0.0152,0.0017 -0.0215,0.0044 -6.5118,-0.73 -13.9948,-1.8825 -21.6228,-3.3363l-0.7907 -0.1523 -0.1254 -0.1428c-0.0791,-0.0928 -0.1555,-0.1884 -0.2321,-0.2836l-0.1335 -0.1662c-1.9787,-2.4283 -3.5776,-5.2536 -4.9884,-7.7461 -0.9359,-1.654 -1.9033,-3.3635 -2.2667,-5.2905 -0.1454,-0.7689 -0.1743,-1.532 -0.0859,-2.2681 0.0218,-0.1818 0.046,-0.3397 0.0742,-0.4835 0.0122,0.0025 0.4927,0.0836 0.4927,0.0836 8.6421,1.4208 18.2297,2.1721 27.7259,2.1721 2.2968,0 4.611,-0.0438 6.8784,-0.1305l1.5264 -0.0612c0.1224,-0.0059 0.4846,-0.0257 0.6195,-0.0334l0.0505 -0.0027c0.024,-0.0005 0.034,-0.0019 0.0387,-0.0022 3.9652,-0.2023 7.8567,-0.5395 11.566,-1.0021 0.3122,-0.0389 0.6235,-0.0789 0.934,-0.1197 0.0139,-0.002 0.0262,-0.0096 0.0343,-0.0211 -0.0022,-0.0019 -0.002,-0.0029 0.0005,-0.0029 0.0037,0 0.012,0.0024 0.0257,0.0088 0.0063,0.0027 0.0131,0.0044 0.0203,0.0044 0.0019,0 0.2557,-0.0328 0.2557,-0.0328 0.1341,-0.0169 0.2681,-0.0341 0.401,-0.0522 0.0042,0.0008 0.0084,0.001 0.0125,0.001 0.0042,0 0.0081,-0.0003 0.0121,-0.0017 2.4609,-0.3402 4.9011,-0.7467 7.2579,-1.2117l0.1908 -0.0375c0.2377,-0.047 0.4755,-0.094 0.7111,-0.1423 1.5419,-0.3176 3.0143,-0.6531 4.3766,-0.9977 3.9746,-1.0045 8.1543,-2.2529 11.7933,-4.5654 1.9087,-1.2132 1.3626,-2.8901 0.671,-5.0133 -0.4114,-1.2626 -1.0292,-3.677 -0.5448,-5.6594 0.0051,-0.02 -0.0032,-0.0411 -0.0204,-0.0524 -4.3283,-2.8745 -10.6467,-3.2622 -16.2563,-3.2622 -2.261,0 -4.6022,0.0738 -6.8664,0.1448 -1.6045,0.0504 -3.4198,0.1077 -5.1281,0.1293 -0.2307,0.0027 -0.4614,0.0056 -0.6899,0.0071 -0.2223,0.0014 -0.6636,0.0022 -0.6654,0.0022 -3.2261,0 -5.6797,-0.1717 -7.7215,-0.5405l-0.1682 -0.0303 -0.0294 -0.1685c-0.0483,-0.274 -1.197,-6.7665 -2.838,-13.4661l-0.1371 -0.5557c-1.0577,-4.2534 -2.0819,-7.624 -3.0438,-10.0181l-0.1008 -0.2512c-4.7443,-11.8078 -6.3424,-15.7855 -16.9979,-27.1215l-0.0257 -0.0331c-2.9277,-4.4437 -17.4495,-6.8815 -43.1595,-7.2433 -2.2287,-0.0311 -4.5694,-0.047 -6.957,-0.047 -19.2785,0 -40.3993,1.008 -56.6459,1.8862 -17.3666,0.9388 -25.6181,12.8443 -29.4819,22.6665 -1.6946,4.3068 -2.9247,9.0947 -3.6557,14.2312 -0.0243,0.1699 -0.0473,0.3377 -0.0698,0.503 -0.5387,3.9884 -0.5539,6.6246 -0.5539,6.6501l-0.001 0.3161 -0.3061 -0.0803c-4.1181,-1.0792 -8.4727,-2.133 -12.4648,-2.133 -1.4598,0 -2.777,0.1357 -4.0275,0.4147 -0.0137,0.0032 -0.0252,0.0117 -0.032,0.024 -0.91,1.63 -1.3471,4.0078 -1.2996,7.0675 0.0004,0.0215 0.0152,0.0406 0.0362,0.0463 3.7492,1.0295 7.3206,3.2591 10.0561,6.2786 2.6653,2.9421 4.5155,6.6194 5.2092,10.3551 0.0306,0.1631 0.0581,0.3259 0.0837,0.4892l-0.0977 0.0013c-0.0744,0 -0.1491,-0.0019 -0.2238,-0.0037l-0.1749 -0.0037c-4.2681,-0.0551 -8.5825,-1.017 -12.4774,-2.7809 -0.0066,-0.0029 -0.0132,-0.0043 -0.0201,-0.0043 -0.0112,0 -0.0226,0.0038 -0.0316,0.0115 -0.0144,0.012 -0.0205,0.0314 -0.0159,0.0497 4.2929,16.7049 12.9511,36.0004 13.9246,38.1456 0.0063,0.0147 0.02,0.0252 0.0357,0.0282l11.1674 1.9706c0.0029,0.0005 0.0056,0.0008 0.0085,0.0008 0.0117,0 0.0231,-0.0039 0.0319,-0.0118 0.0112,-0.0096 0.0173,-0.0235 0.0171,-0.0384 -0.0024,-0.1078 -0.0049,-0.2398 -0.0071,-0.3909 -0.0022,-0.1457 -0.0041,-0.3095 -0.0051,-0.4927 -0.0144,-2.5201 0.1073,-7.4972 1.0861,-12.5167 1.6087,-8.249 4.9227,-13.1649 9.5842,-14.2159 0,0 0.0511,-0.0098 0.0536,-0.0108 0.3532,-0.0771 0.7291,-0.1335 1.1174,-0.1672l0.1217 -0.0103c0.0706,-0.0064 0.133,-0.012 0.1959,-0.0152 0.1418,-0.0076 0.2831,-0.0115 0.4232,-0.0115 2.6859,0 5.1323,1.4176 7.2717,4.2135 0.1021,0.1335 0.2037,0.2699 0.3047,0.4094 0.6714,0.9311 1.3236,2.0192 1.9382,3.2345 0.2809,0.5557 0.5586,1.1466 0.825,1.7561 0.8616,1.9699 1.666,4.2579 2.3911,6.8003 0.694,2.4335 1.3175,5.125 1.8543,8.0005 0.0005,0.0034 0.0017,0.0068 0.0032,0.0102 0.1601,0.8627 0.3107,1.7282 0.4483,2.5819 0.0013,0.008 0.0054,0.0171 0.0106,0.024 0.4839,3.0197 0.7266,5.3123 0.7892,5.9424 0.0023,0.022 0.0189,0.0399 0.0407,0.0436 0,0 14.0823,2.3477 14.0871,2.3477 0,0 28.4743,4.7457 28.477,4.7457 0.0122,0 0.024,-0.0046 0.0333,-0.0132 0.0111,-0.0102 0.0169,-0.0249 0.0154,-0.0402 -0.0676,-0.7483 -0.1178,-1.4994 -0.1491,-2.2318 -0.0051,-0.1185 -0.0098,-0.2373 -0.0139,-0.3559 -0.0047,-0.1261 -0.0088,-0.2522 -0.0125,-0.3786 0,0 -0.0069,-0.2456 -0.0096,-0.3685 -0.0074,-0.3451 -0.0125,-0.6913 -0.0122,-1.0579l0.0007 -0.1178c0.0071,-2.431 0.1979,-4.8375 0.5677,-7.1529 0.094,-0.5899 0.2027,-1.1887 0.323,-1.7801 1.1279,-5.5465 3.3064,-10.3642 6.1334,-13.565 0.005,-0.0057 0.0103,-0.0174 0.0122,-0.0245 0.2302,-0.2579 0.4822,-0.5248 0.7435,-0.7837 2.2522,-2.2338 4.8184,-3.4147 7.4211,-3.4147l0.0352 -0.0492 0 0.049c2.3468,0.0047 4.5885,0.9193 6.663,2.7187 0.121,0.1051 0.2412,0.2131 0.3609,0.324 1.3766,1.2769 2.6333,2.925 3.7356,4.8985 2.25,4.0276 3.7426,9.3422 4.2029,14.9653l0.0157 0.1952c0.0174,0.2231 0.034,0.4462 0.0483,0.6705 0.0203,0.314 0.0382,0.6293 0.0524,0.9457 0.0049,0.1137 0.0093,0.2275 0.0134,0.3414 0.005,0.1295 0.0094,0.2593 0.013,0.3889 0.001,0.0391 0.0098,0.4045 0.0098,0.4045 0.0049,0.2366 0.0091,0.4739 0.0108,0.7122l0.001 0.2973 -0.0008 0.1313c-0.0047,1.6703 -0.0982,3.3468 -0.2775,4.9827 -0.0027,0.026 0.0152,0.0495 0.0412,0.0537 4.0759,0.6365 8.0935,1.2151 11.9407,1.7196 0.0386,0.0054 0.4704,0.0609 0.4826,0.0627 13.5251,1.7595 25.255,2.6513 34.8649,2.6513m0 -0.0002l0 0 0 0z"/>
  <path id="path174" class="fil11" d="M90.5701 58.1656c0.8341,-0.0757 1.6258,-0.4073 2.2292,-0.934 0.1616,-0.1419 0.309,-0.2969 0.4386,-0.4614 0.0813,-0.1036 0.1501,-0.2018 0.2106,-0.3002 0.6687,-1.089 0.7344,-2.4511 0.7981,-3.7683l0.021 -0.4214c0.0593,-1.1096 0.2035,-2.3842 0.8213,-3.4243 0.074,-0.1239 0.1528,-0.2424 0.2352,-0.3519 0.1361,-0.1807 0.2767,-0.3379 0.4302,-0.4799 0.0453,-0.0422 0.1045,-0.0654 0.1665,-0.0654 0.0679,0 0.1335,0.0287 0.1793,0.0786 0.0448,0.0477 0.0676,0.1101 0.0654,0.1755 -0.0027,0.0654 -0.0304,0.1261 -0.0784,0.1702 -0.0855,0.0794 -0.1734,0.1739 -0.2689,0.2892 -0.0093,0.0113 -0.0132,0.0265 -0.0102,0.0409 0.0029,0.0144 0.0122,0.0269 0.0252,0.0338 0.1141,0.0593 0.2277,0.119 0.3411,0.1802 0.0071,0.0042 0.0152,0.0061 0.023,0.0061 0.0154,0 0.0306,-0.0073 0.0399,-0.0205 0.2381,-0.3316 0.3581,-0.7212 0.338,-1.0976 -0.039,-0.7293 -0.5863,-1.4304 -1.3019,-1.6672 -0.1444,-0.0479 -0.3007,-0.0766 -0.4778,-0.0881 -0.0421,-0.0024 -0.0845,-0.0039 -0.1266,-0.0039 -0.1202,0 -0.2441,0.011 -0.368,0.0323 -0.4313,0.0747 -0.8331,0.2748 -1.1317,0.5635 -0.536,0.5182 -0.7952,1.3464 -0.6597,2.1097 0.0115,0.0644 -0.0029,0.1293 -0.0404,0.1829 -0.0372,0.0537 -0.0936,0.0896 -0.1579,0.1009 -0.0145,0.0027 -0.0292,0.0039 -0.0432,0.0039 -0.1187,0 -0.2199,-0.085 -0.2407,-0.202 -0.1658,-0.9333 0.1416,-1.9097 0.8015,-2.5478 0.3335,-0.3225 0.7667,-0.551 1.2528,-0.6612 0.0145,-0.0032 0.027,-0.013 0.0336,-0.0268 0.0063,-0.0134 0.0061,-0.0291 -0.0003,-0.0426 -0.0771,-0.1557 -0.1611,-0.2887 -0.2491,-0.3957 -0.3176,-0.3847 -0.8113,-0.633 -1.3209,-0.6639 -0.0316,-0.002 -0.063,-0.0029 -0.0946,-0.0029 -0.1312,0 -0.2632,0.0166 -0.392,0.0492 -0.1273,0.0323 -0.228,0.07 -0.3159,0.1183 -0.7886,0.4312 -1.0413,1.4813 -1.1971,2.5519 -0.0176,0.1215 -0.1197,0.2097 -0.2427,0.2097 -0.0112,0 -0.023,-0.0008 -0.0345,-0.0025 -0.0649,-0.0093 -0.1219,-0.0433 -0.1613,-0.0957 -0.039,-0.0524 -0.0554,-0.117 -0.0459,-0.1817 0.1737,-1.1963 0.4692,-2.3771 1.4466,-2.9115 0.1247,-0.0681 0.2701,-0.1237 0.432,-0.1648 0.0252,-0.0064 0.0412,-0.0316 0.036,-0.0571 -0.0913,-0.4518 -0.2311,-0.8159 -0.4275,-1.114 -0.4173,-0.6335 -1.1748,-1.0309 -1.9762,-1.0373l-0.0118 0.0477 -0.013 -0.0474 -0.0064 0c-0.1521,0 -0.3078,0.0163 -0.4577,0.0479 -0.1237,0.026 -0.2341,0.0585 -0.3382,0.0992 -0.9878,0.3872 -1.6263,1.5105 -1.4531,2.5576 0.0107,0.0644 -0.0042,0.1291 -0.0424,0.1822 -0.038,0.0534 -0.0945,0.0887 -0.1592,0.0994 -0.0132,0.0023 -0.0264,0.003 -0.0394,0.003 -0.1207,0 -0.2223,-0.086 -0.2419,-0.2048 -0.2099,-1.2663 0.5623,-2.6252 1.7571,-3.0934 0.084,-0.0328 0.1829,-0.0634 0.3017,-0.0931 0.0142,-0.0034 0.0261,-0.0129 0.0325,-0.0264 0.0061,-0.013 0.0061,-0.0284 0.0003,-0.0417 -0.0409,-0.0874 -0.0872,-0.1768 -0.1445,-0.2735 -0.0884,-0.1489 -0.1875,-0.2885 -0.2943,-0.4149 -0.3656,-0.4315 -0.8258,-0.7395 -1.3302,-0.8901 -0.2417,-0.0723 -0.4974,-0.1087 -0.7597,-0.1087 -0.598,0 -1.2026,0.1905 -1.7027,0.536 -0.1508,0.1046 -0.2904,0.2222 -0.4148,0.3497 -0.1257,0.1289 -0.2339,0.2633 -0.3223,0.3992 -0.5253,0.8081 -0.6605,1.9527 -0.3804,3.2227 0.1573,0.7149 0.422,1.4197 0.6776,2.1016 0.143,0.3813 0.3017,0.804 0.4357,1.2171 0.5108,1.5754 0.7395,3.2257 0.6801,4.9051 -0.0008,0.0215 0.0127,0.0409 0.033,0.0478 1.0728,0.3683 2.061,0.9571 2.8578,1.7025 1.0981,1.0275 1.9089,2.4244 2.2826,3.9331 0.0057,0.022 0.0255,0.0372 0.0475,0.0372 0.0015,0 0.003,-0.0002 0.0044,-0.0002z"/>
  <path id="path178" class="fil1" d="M88.7621 40.2945c0.0148,-0.001 0.0282,-0.0084 0.0366,-0.0204 0.7437,-1.0369 1.1925,-2.2448 1.2981,-3.494 0.1092,-1.2984 -0.1511,-2.6068 -0.7532,-3.7835 -0.0869,-0.1702 -0.1832,-0.3401 -0.2855,-0.5052 0.1964,0.01 0.3925,0.0181 0.5887,0.0245 0.3551,0.0115 0.7104,0.0173 1.0574,0.0173 4.0093,0 7.9319,-0.728 11.6591,-2.1638 2.1418,-0.8253 3.7872,-1.7774 5.0302,-2.911 0.0186,-0.0168 0.0213,-0.045 0.0064,-0.0653 -2.4675,-3.3423 -5.1514,-5.9777 -7.9775,-7.8333 -0.0071,-0.0046 -0.0154,-0.0075 -0.0242,-0.008 -2.9878,-0.1511 -5.9635,-0.2523 -8.8446,-0.3002 -0.3218,-0.0054 -0.6421,-0.0093 -0.9597,-0.0093 -2.0345,0 -4.1606,0.1425 -5.927,1.1759 -1.6199,0.9477 -2.7883,2.6159 -3.1255,4.4623 -0.1249,0.6818 -0.1364,1.3844 -0.0345,2.0881 0.0232,0.1605 0.0553,0.3294 0.0977,0.5168 0.2232,0.9876 0.667,1.912 1.2833,2.6738 0.0003,0.001 0.0201,0.0402 0.0204,0.041 0.0088,0.0169 0.0257,0.0265 0.0433,0.0265 0.0073,0 0.0144,-0.0015 0.0213,-0.005 0.3132,-0.1513 0.6262,-0.2279 0.9298,-0.2279 0.1352,0.0002 0.2449,0.1101 0.2449,0.2451 0,0.1349 -0.1101,0.2446 -0.2456,0.2446 -0.645,0 -1.313,0.4337 -1.7019,1.1049 -0.3164,0.5458 -0.48,1.2384 -0.515,2.1795 -0.0654,1.7485 0.2956,3.5251 1.0432,5.1377 0.0051,0.0106 0.0137,0.0191 0.0245,0.0241l2.3849 1.0797c0.0066,0.003 0.0132,0.0044 0.0201,0.0044 0.011,0 0.0218,-0.0037 0.0306,-0.0108 0.6134,-0.4942 1.4123,-0.7773 2.192,-0.7773 0.3078,0 0.6076,0.0429 0.8909,0.1276 0.5378,0.1606 1.0398,0.4807 1.4519,0.9255 0.0094,0.01 0.0223,0.0157 0.0358,0.0157 0.001,0 0.0022,0 0.0031,0z"/>
  <path id="path182" class="fil8" d="M48.3687 67.2965c0.4949,0 0.8933,-0.3855 0.9075,-0.8774l0.0329 -1.1363c0.0068,-0.2409 -0.0804,-0.4704 -0.2464,-0.646 -0.1658,-0.1758 -0.3898,-0.2765 -0.6309,-0.2836l-5.9666 -0.1721c-0.2326,-0.0003 -0.4525,0.0874 -0.6213,0.2464 -0.1753,0.1655 -0.276,0.3898 -0.2829,0.631l-0.0327 1.136c-0.0072,0.241 0.0803,0.4704 0.2458,0.6465 0.1658,0.1754 0.3899,0.276 0.6313,0.2831 0,0 5.9628,0.1724 5.9633,0.1724z"/>
  <path id="path186" class="fil12" d="M48.4461 63.8636c0.3723,0.0108 0.7178,0.1658 0.9732,0.4367 0.2554,0.2706 0.3901,0.6245 0.3794,0.9967l-0.0326 1.136c-0.0215,0.7461 -0.6465,1.3532 -1.3926,1.3532l-5.9824 -0.1727c-0.3717,-0.0107 -0.7175,-0.1657 -0.9729,-0.4363 -0.2554,-0.2706 -0.3904,-0.6247 -0.3796,-0.997l0.0328 -1.136c0.0111,-0.3722 0.1661,-0.7178 0.4367,-0.9731 0.2598,-0.2449 0.5987,-0.3799 0.9543,-0.3801l5.9837 0.1726zm34.8345 5.667c0.747,0.0002 1.3717,0.6073 1.3932,1.3537l0.0324 1.1363c0.0215,0.768 -0.5855,1.4106 -1.3535,1.4326l-5.9836 0.1702c-0.3551,0 -0.6945,-0.1352 -0.9548,-0.3806 -0.2704,-0.2559 -0.4251,-0.6014 -0.4357,-0.9734l-0.0325 -1.1363c-0.0216,-0.7679 0.5857,-1.4105 1.3532,-1.4325l5.9813 -0.17zm16.1134 45.1139c0.012,0 0.0237,-0.0042 0.0325,-0.0125 0.0108,-0.0096 0.0167,-0.0233 0.0164,-0.038 -0.0298,-1.1044 0.0816,-5.783 2.7719,-19.6201 0.9359,-4.8121 3.1076,-8.262 6.4547,-10.2537 2.1751,-1.294 4.8233,-1.9503 7.8709,-1.9503 2.5664,0 4.6994,0.4804 5.4975,0.6871 0.0039,0.001 0.008,0.0015 0.0122,0.0015 0.0113,0 0.0223,-0.0039 0.0314,-0.0112 0.012,-0.0101 0.0186,-0.0255 0.0176,-0.0412l-0.6832 -9.998c-0.0017,-0.0257 -0.0232,-0.0456 -0.049,-0.0456 -0.0008,0 -0.0017,0 -0.0027,0 -0.0402,0.0027 -0.0683,0.0044 -0.097,0.0044l-7.54 0.0001c-1.8905,0 -3.4284,-1.5379 -3.4284,-3.4285l0 -4.6445c0,-0.0257 -0.0196,-0.047 -0.045,-0.0487 0,0 -16.1295,-1.2906 -16.1308,-1.2906 -0.0083,0 -0.0164,0.0022 -0.0235,0.0061 -4.1673,2.301 -8.8769,3.5173 -13.6204,3.5173 -0.4611,0 -0.9291,-0.0117 -1.3907,-0.035 -1.3875,-0.0695 -3.1671,-0.2657 -4.6245,-1.1728 -1.0875,-0.6771 -2.3154,-2.0889 -2.1964,-3.8393 0.001,-0.0134 -0.0037,-0.0269 -0.0127,-0.0367 -0.0093,-0.0101 -0.0223,-0.0157 -0.036,-0.0157l-3.6 0c-0.0135,0 -0.0262,0.0056 -0.0358,0.0154l-0.2887 -0.0157c-19.0449,-1.038 -29.5315,-6.6689 -29.6353,-6.7258l-0.0669 -0.0428 -0.0191 -0.036c-0.1423,-0.2138 -3.4529,-5.4483 -0.5534,-24.2101 1.2085,-7.8217 6.6729,-13.4164 15.802,-16.1787 5.4823,-1.6588 10.764,-1.8379 12.7805,-1.8379 0.4831,0 0.74,0.0106 0.7424,0.0106l0.3838 0.0159 -0.1759 0.3411c-3.4264,6.6384 0.5099,43.9031 0.9698,48.1304 0.0029,0.025 0.0237,0.0438 0.049,0.0438l1.4197 0.0001c0.0134,0 0.0267,-0.0059 0.036,-0.0159 0.0093,-0.0101 0.0139,-0.0238 0.0127,-0.0372 -3.3124,-38.0626 -0.1061,-48.2531 0.9555,-50.4699 0.0071,-0.0152 0.0061,-0.0333 -0.0032,-0.0474 -0.0088,-0.014 -0.0242,-0.0226 -0.0412,-0.0226l-0.0004 0c-9.0222,0.1477 -24.9158,1.2006 -29.9921,6.5948 -7.629,8.1058 -7.7169,42.5519 -7.7169,44.0141 0,4.632 8.7802,13.135 9.7816,14.0896 0.0085,0.008 0.0198,0.0127 0.0316,0.0132 4.6264,0.188 9.8969,5.96 15.6654,17.1555 4.0162,7.7933 6.9566,15.8269 7.2786,16.7173 0.0061,0.0168 0.0213,0.0291 0.0391,0.0318 0,0 33.3539,4.7323 33.3564,4.7323z"/>
  <path id="path190" class="fil3" d="M103.863 61.9152c0.0083,0 0.0166,-0.0022 0.0244,-0.0064 0.014,-0.0083 0.0233,-0.023 0.0243,-0.0394 0.0002,-0.0032 -0.0005,-0.0164 -0.001,-0.0198l0.2894 -1.9584c0.002,-0.0135 -0.0019,-0.0272 -0.0105,-0.038 -0.0086,-0.0105 -0.0213,-0.0171 -0.035,-0.0181 -0.0739,-0.0049 -0.1322,-0.0085 -0.1903,-0.0135 -0.1611,-0.0134 -0.3208,-0.0293 -0.4797,-0.0482 -0.1638,-0.0191 -0.3262,-0.0414 -0.4871,-0.0659 -0.2395,-0.0367 -0.4817,-0.0798 -0.7207,-0.1285 -0.1284,-0.026 -0.2557,-0.0542 -0.3871,-0.0845 -0.1609,-0.0367 -0.3164,-0.0747 -0.47,-0.1149 -0.5666,-0.1479 -1.152,-0.3358 -1.7394,-0.5576 -0.0057,-0.0023 -0.0116,-0.0034 -0.0172,-0.0034 -0.0166,0 -0.0323,0.0085 -0.0416,0.0232 -0.0123,0.0199 -0.0091,0.0456 0.008,0.0615 0.5281,0.4979 0.9503,1.0804 1.2204,1.6851 0.0053,0.0118 0.0152,0.0211 0.0271,0.0257 0.4252,0.1636 0.8324,0.3284 1.2108,0.49 0.13,0.0556 0.2595,0.1129 0.3891,0.1704l0.0656 0.0292c0.4405,0.1954 0.8454,0.3837 1.2377,0.5757l0.0607 0.0306c0.0069,0.0034 0.0147,0.0052 0.0221,0.0052z"/>
  <path id="path194" class="fil1" d="M97.9268 57.7514c0.0159,0 0.0316,-0.0081 0.0409,-0.0223 0.9056,-1.3832 1.5369,-2.9747 1.8263,-4.6022 0.0247,-0.1389 0.0468,-0.2783 0.0667,-0.4181 0.0306,-0.2154 0.0538,-0.4114 0.0713,-0.5997 0.0012,-0.0159 -0.0052,-0.0316 -0.0174,-0.0419 -1.1182,-0.9386 -2.3298,-1.7803 -3.6018,-2.5018l-0.0422 -0.0237c-0.1464,-0.0832 -0.2818,-0.1599 -0.4185,-0.2336 -0.0816,-0.0438 -0.1638,-0.0862 -0.2461,-0.1283l-0.0624 -0.0324c-0.0074,-0.0037 -0.015,-0.0056 -0.0226,-0.0056 -0.0172,0 -0.0335,0.0091 -0.0426,0.0247 -0.5388,0.947 -0.6671,2.1187 -0.7215,3.1399l-0.0213 0.4193c-0.0666,1.3798 -0.1356,2.8055 -0.8698,4.0006 -0.0095,0.0144 -0.0171,0.0428 -0.0098,0.0585 0.0074,0.0154 0.0159,0.036 0.0333,0.0377 1.1572,0.1029 2.6598,0.3013 4.0171,0.9242 0.0064,0.0032 0.0135,0.0047 0.0204,0.0047z"/>
  <path id="path198" class="fil3" d="M108.654 59.8869c0.0144,0 0.0281,-0.0064 0.0374,-0.0174l0.4758 -0.5645c0.0106,-0.0127 0.014,-0.0298 0.0093,-0.0458l-0.0362 -0.117c-0.0039,-0.0132 -0.0132,-0.024 -0.0257,-0.0299 -0.0066,-0.0032 -0.014,-0.0049 -0.021,-0.0049 -0.0061,0 -0.0125,0.0013 -0.0184,0.0037 -0.2508,0.1011 -0.4881,0.1871 -0.7254,0.2622 -0.015,0.0047 -0.0267,0.0162 -0.0316,0.0309 -0.0052,0.0147 -0.0027,0.0309 0.0062,0.0436l0.2894 0.418c0.0086,0.0125 0.0228,0.0203 0.0377,0.0211 0.001,0 0.0017,0 0.0025,0z"/>
  <path id="path202" class="fil1" d="M106.521 56.9758c0.1685,0 0.3374,-0.0046 0.5059,-0.0139 1.138,-0.063 2.0088,-0.3625 2.5877,-0.8895 0.491,-0.4471 0.7685,-1.184 0.6752,-1.7915 -0.026,-0.1637 -0.0765,-0.3155 -0.1502,-0.4519 -0.0085,-0.0159 -0.025,-0.0257 -0.0428,-0.0257 -0.0019,0 -0.0037,0.0003 -0.0056,0.0005 -0.1372,0.0154 -0.2748,0.027 -0.4122,0.0382l-0.0869 0.0074c-0.024,0.0019 -0.0428,0.0208 -0.0448,0.0445l-0.0433 0.5099c-0.001,0.0115 0.0019,0.0228 0.0085,0.0323l-0.0651 0.5574c-0.1393,0.0511 -0.2975,0.0952 -0.47,0.1317 -0.0117,0.0025 -0.022,0.0089 -0.0288,0.0184 -0.3316,0.0779 -0.6941,0.1174 -1.0761,0.1174 -0.4403,0 -0.9215,-0.0461 -1.5136,-0.1453 -1.8817,-0.3154 -3.7429,-0.8348 -5.532,-1.544 -0.0056,-0.0024 -0.0117,-0.0037 -0.0179,-0.0037 -0.0071,0 -0.0139,0.0017 -0.0203,0.0047 -0.0122,0.0054 -0.0215,0.0157 -0.026,0.0284 -0.1148,0.331 -0.0928,0.7326 0.0581,1.0483 0.2267,0.4749 0.6786,0.8784 1.4215,1.2698 1.3141,0.6913 2.7937,1.0566 4.2787,1.0566z"/>
  <path id="path206" class="fil1" d="M107.262 62.1776c0.0189,-0.0017 0.0353,-0.0139 0.0416,-0.0318l0.0247 -0.0667c0.278,-0.7924 0.4318,-1.6265 0.457,-2.4801 0.0005,-0.0153 -0.0066,-0.0299 -0.0181,-0.0395 -0.0091,-0.0071 -0.0201,-0.011 -0.0308,-0.011 -0.0039,0 -0.0081,0.0005 -0.0117,0.0014 -0.1874,0.0461 -0.3745,0.089 -0.5559,0.1227 -0.6909,0.129 -1.4118,0.1944 -2.142,0.1944 -0.0911,0 -0.1813,-0.0024 -0.2714,-0.0049l-0.0015 0.0001c-0.0247,0 -0.0576,0.0174 -0.061,0.0414l-0.0996 0.6757c-0.002,0.0134 0.0016,0.0272 0.0102,0.0377l1.3319 1.6571c0.0094,0.0116 0.0236,0.0184 0.0383,0.0184 0.0014,0 1.1879,-0.106 1.2883,-0.1149z"/>
  <path id="path210" class="fil2" d="M110.255 61.2441c0.025,-0.0027 0.044,-0.0237 0.044,-0.0487l0 -2.3497c0,-0.022 -0.0149,-0.0414 -0.0362,-0.0473 -0.0042,-0.0012 -0.0085,-0.0017 -0.013,-0.0017 -0.0168,0 -0.033,0.0088 -0.0418,0.024 0,0 -0.0196,0.0343 -0.0199,0.0343l-0.4339 0.5145c-0.0108,0.0127 -0.0142,0.0302 -0.0093,0.0461 0.1785,0.5752 0.332,1.1774 0.4569,1.7896 0.0049,0.023 0.0253,0.0391 0.048,0.0391 0.0018,0 0.0034,-0.0002 0.0052,-0.0002z"/>
  <path id="path214" class="fil1" d="M84.8122 52.3211c0.0105,0 0.0208,-0.0034 0.0294,-0.01 0.012,-0.0088 0.019,-0.0228 0.0195,-0.0377 0.0377,-1.568 -0.1851,-3.1098 -0.6624,-4.5824 -0.1289,-0.3976 -0.2802,-0.8017 -0.4269,-1.1925 -0.262,-0.6987 -0.5331,-1.4211 -0.6989,-2.1717 -0.3082,-1.3985 -0.1493,-2.6754 0.4479,-3.5949 0.0568,-0.0879 0.13,-0.1842 0.2233,-0.2946 0.0101,-0.0118 0.0138,-0.0275 0.0106,-0.0424 -0.0034,-0.0149 -0.0138,-0.0274 -0.0279,-0.0338l-2.789 -1.2629c-0.0064,-0.0029 -0.0132,-0.0044 -0.0201,-0.0044 -0.0071,0 -0.0138,0.0015 -0.0201,0.0042 -0.0127,0.0059 -0.0225,0.0169 -0.0269,0.0301 -0.4442,1.4274 -0.8454,2.8816 -1.1916,4.3221 -0.0409,0.1697 -0.0806,0.3396 -0.12,0.5095l-0.0473 0.2016c-0.0449,0.1902 -0.0894,0.3808 -0.1315,0.5717 -0.021,0.0956 -0.0407,0.1913 -0.0604,0.2871l-0.0407 0.1962c-0.2444,1.1492 -0.4634,2.3306 -0.6507,3.5114 -0.0032,0.0191 0.0054,0.038 0.0216,0.0487l5.0809 3.3307c0.1134,0.0194 0.2057,0.0329 0.298,0.0478 0.2486,0.0401 0.5079,0.0955 0.7707,0.1646 0.0042,0.0012 0.0083,0.0016 0.0125,0.0016z"/>
  <path id="path218" class="fil13" d="M78.6455 43.5295c0.1477,0 0.3098,-0.0066 0.4817,-0.0196 0.0213,-0.0014 0.0392,-0.0166 0.0438,-0.0375 0.3698,-1.5508 0.7962,-3.0987 1.2668,-4.6004 0.0492,-0.157 0.0987,-0.314 0.1491,-0.4702l0.0837 -0.2667c0.0307,-0.0974 0.061,-0.1949 0.0928,-0.2917 0.0059,-0.0115 0.0103,-0.0303 0.0066,-0.0423 -0.4258,-1.3099 -0.6244,-2.7109 -0.5745,-4.0517 0.0241,-0.6443 0.1102,-1.5949 0.5807,-2.4065 0.1809,-0.3122 0.4214,-0.5872 0.7145,-0.8174 0.0103,-0.0081 0.0169,-0.0201 0.0181,-0.033 0.0018,-0.013 -0.0019,-0.026 -0.0102,-0.0363 -0.6936,-0.8612 -1.1794,-1.9047 -1.4054,-3.0177 -0.0047,-0.0228 -0.0248,-0.0392 -0.048,-0.0392 -0.2047,-0.0218 -0.4085,-0.0328 -0.6059,-0.0328 -0.9638,0 -1.8085,0.2551 -2.4417,0.7376 -1.5279,1.1645 -1.6834,3.3909 -1.7091,5.3865l-0.0638 4.9416c-0.0211,1.6231 0.0566,3.4377 1.2536,4.4249 0.5485,0.4525 1.2572,0.6724 2.1672,0.6724z"/>
  <path id="path222" class="fil6" d="M107.864 54.7698c0.4109,0 0.7697,-0.0441 1.0968,-0.1346 0.0196,-0.0057 0.0338,-0.0228 0.0356,-0.0431l0.0551 -0.6458c0.0012,-0.014 -0.0039,-0.0282 -0.0138,-0.0382 -0.0093,-0.0096 -0.022,-0.0149 -0.0352,-0.0149 -0.0008,0 -0.0015,0 -0.0025,0 -0.3465,0.0193 -0.6891,0.0288 -1.0182,0.0288 -1.7538,0 -3.4857,-0.2483 -5.1475,-0.7378 -0.3558,-0.105 -0.7594,-0.2241 -1.1187,-0.2241 -0.2157,0 -0.3964,0.0429 -0.5517,0.1303 -0.0167,0.0093 -0.0263,0.0272 -0.0248,0.0463 0.0012,0.0188 0.0134,0.0352 0.0311,0.0421 1.7108,0.6654 3.4838,1.1546 5.2695,1.4537 0.56,0.0937 1.0126,0.1373 1.4243,0.1373z"/>
  <path id="path226" class="fil13" d="M75.7131 57.9702c0.0108,0 0.0213,-0.0037 0.0298,-0.0103l7.2864 -5.6495c0.0125,-0.0098 0.0194,-0.0247 0.0189,-0.0407 -0.0008,-0.0157 -0.0088,-0.0303 -0.0223,-0.0389l-4.9355 -3.2357c0.0269,-0.1771 0.0551,-0.3541 0.0835,-0.5309 0.1707,-1.0576 0.3722,-2.1391 0.5985,-3.2141 0.0032,-0.0143 -0.0005,-0.0294 -0.0098,-0.0407 -0.009,-0.0115 -0.023,-0.0184 -0.0376,-0.0184l-0.0429 -0.0003c-0.1133,0 -0.2268,0.0027 -0.3399,0.0091 -1.2095,0.0669 -2.2547,0.5336 -2.8676,1.2803 -0.962,1.1718 -0.8709,2.9124 -0.71,4.4518 0.2334,2.2338 0.5361,4.588 0.9,6.9967 0.0027,0.0171 0.0139,0.0316 0.0303,0.0379 0.0057,0.0025 0.012,0.0037 0.0182,0.0037z"/>
  <path id="path230" class="fil0" d="M83.2742 70.1185c0.4427,0 0.7993,0.3438 0.8115,0.7828l0.0326 1.136c0.0127,0.444 -0.3384,0.8158 -0.7824,0.8285l-5.9669 0.1697c-0.2077,0 -0.3985,-0.0762 -0.5505,-0.2201 -0.157,-0.1477 -0.2464,-0.3475 -0.2523,-0.5625l-0.0323 -1.1365c-0.0127,-0.444 0.3379,-0.8154 0.7822,-0.8284 0,0 5.9468,-0.1698 5.9495,-0.1702 0.003,0.0004 0.0057,0.0007 0.0086,0.0007m0.0813 3.4325c0.8218,-0.0236 1.4718,-0.7112 1.4487,-1.5332l-0.0326 -1.1363c-0.023,-0.7989 -0.692,-1.449 -1.4916,-1.449l-5.9835 0.1705c-0.8218,0.0232 -1.4715,0.7109 -1.4485,1.533l0.0325 1.1363c0.0113,0.3979 0.1771,0.7679 0.4665,1.0417 0.2787,0.2627 0.6421,0.4073 1.0236,0.4073 0.0005,0 5.9848,-0.1702 5.9848,-0.1702m0.0001 -0.0001l0 0 0 0z"/>
  <path id="path234" class="fil11" d="M99.6472 35.7057c-1.6493,0 -3.2989,0.4863 -4.6438,1.3693 -0.1797,0.1183 -0.3553,0.2442 -0.5219,0.3747 0.0106,-0.2106 0.0339,-0.4273 0.0703,-0.6627 0.1061,-0.6805 0.3115,-1.3006 0.6112,-1.843 0.6184,-1.1193 1.63,-1.9316 2.7751,-2.2285 0.3063,-0.0796 0.6247,-0.1197 0.9462,-0.1197 0.9548,0 1.867,0.3523 2.5023,0.967 0.5532,0.5351 0.8995,1.2957 0.9499,2.0867 0.011,0.1712 0.0078,0.3431 -0.0101,0.511 -0.1298,-0.046 -0.3012,-0.1053 -0.477,-0.1548 -0.7047,-0.1989 -1.4455,-0.3 -2.2022,-0.3m10.6384 3.8949c0.3683,0 0.7322,0.095 1.052,0.275 0.3546,0.1996 0.6742,0.5123 0.9247,0.9044 0.1962,0.3073 0.3426,0.646 0.4354,1.0064l0.0191 0.0869c0.0181,0.0774 0.0303,0.132 0.0409,0.1869 0.0024,0.0125 0.0096,0.0238 0.0203,0.0311 0.0463,0.0319 0.0776,0.0698 0.0928,0.1132 0.0755,0.212 0.0667,0.4581 -0.0252,0.693 -0.0377,0.0965 -0.0867,0.1871 -0.1452,0.2689 -0.0896,0.1247 -0.2037,0.2388 -0.3497,0.3489 -0.0965,0.073 -0.2033,0.1423 -0.3272,0.2124 -0.2319,0.131 -0.4875,0.2459 -0.7594,0.3414 -0.1614,0.0565 -0.3267,0.1053 -0.4905,0.1442 -0.3869,0.0919 -0.7797,0.1386 -1.1681,0.1386 -0.0171,0 -0.0345,-0.0012 -0.0514,-0.0024l-0.0482 -0.0027c-0.1798,-0.0037 -0.3654,-0.0181 -0.5537,-0.0428 -0.0791,-0.1685 -0.1526,-0.3458 -0.2182,-0.5272 -0.1819,-0.5045 -0.2978,-1.0224 -0.3446,-1.5399 -0.059,-0.6548 -0.0027,-1.5585 0.6015,-2.1428 0.3291,-0.3181 0.7889,-0.4934 1.2946,-0.4934m-11.1271 0.7694c0.2217,0 0.4416,0.024 0.6537,0.0715 0.9303,0.2083 1.7864,0.8487 2.3489,1.757l0.0298 0.048c0.0385,0.0614 0.077,0.1227 0.1113,0.1871 0.0592,0.1109 0.1189,0.2385 0.1829,0.3901 0.2181,0.5211 0.3539,1.1044 0.4026,1.7333 0.0152,0.1969 0.0223,0.3703 0.022,0.53 -0.1766,0.0827 -0.3389,0.1532 -0.4954,0.2152 -0.7313,0.2887 -1.5078,0.4825 -2.3081,0.5758 -0.1702,0.0198 -0.3411,0.037 -0.5123,0.0477 -0.2018,0.0123 -0.3979,0.0184 -0.586,0.0184 -0.5219,0 -1.0469,-0.0438 -1.5601,-0.1303 -0.1805,-0.0303 -0.373,-0.0697 -0.5885,-0.121 -0.0847,-0.1983 -0.1582,-0.3824 -0.2241,-0.5629 -0.1444,-0.3965 -0.2424,-0.7523 -0.2989,-1.0878 -0.1663,-0.9786 0.0043,-1.8817 0.4802,-2.5431 0.5012,-0.6965 1.3988,-1.129 2.3421,-1.129m8.4644 5.0605c0.7888,0 1.5482,0.3421 2.0311,0.9151 0.7432,0.8814 0.801,2.2552 0.1342,3.1956 -0.4773,0.6734 -1.3094,1.0917 -2.1715,1.0917 -0.3102,0 -0.609,-0.0539 -0.8881,-0.1597 -0.0613,-0.0232 -0.1097,-0.069 -0.1367,-0.1288 -0.0267,-0.0595 -0.0286,-0.1261 -0.0054,-0.1871 0.0356,-0.0945 0.1278,-0.1577 0.2292,-0.1577 0.0297,0 0.059,0.0051 0.0872,0.0157 0.2185,0.0832 0.456,0.1256 0.705,0.1256 0.7014,0 1.4005,-0.3465 1.7809,-0.8828 0.5328,-0.7521 0.4848,-1.8927 -0.1092,-2.5968 -0.3899,-0.4623 -1.0117,-0.7383 -1.6638,-0.7383 -0.3115,0 -0.6152,0.0666 -0.8775,0.1922 -0.0333,0.0162 -0.0687,0.0242 -0.1057,0.0242 -0.0936,0 -0.1803,-0.0546 -0.2207,-0.1391 -0.0284,-0.059 -0.0321,-0.1257 -0.0103,-0.1874 0.0215,-0.0617 0.0661,-0.1112 0.1252,-0.1393 0.3316,-0.1592 0.7107,-0.2432 1.0961,-0.2432m-2.5879 13.9442c0.7038,0 1.3917,-0.062 2.0438,-0.1834 0.1271,-0.0237 0.2523,-0.0529 0.3777,-0.082l0.0323 -0.0076c0.1467,-0.0343 0.2914,-0.0722 0.4349,-0.1129 0.0013,-0.0002 0.026,-0.008 0.0272,-0.0085 0.013,-0.0049 0.0257,-0.0098 0.0372,-0.0125 0.001,0 0.0125,-0.0008 0.0169,-0.0019l0.0282 -0.0079c0.3093,-0.0913 0.619,-0.2005 0.9218,-0.3247 0.1537,-0.0635 0.3058,-0.1295 0.4552,-0.2003 0.3041,-0.144 0.5956,-0.3003 0.8649,-0.4644 0.0148,-0.0088 0.0238,-0.0247 0.0238,-0.0418l0 -0.3355c0,-1.8333 1.4362,-3.3354 3.2699,-3.4192 0.0191,-0.0009 0.0358,-0.0127 0.0429,-0.0303l0.0176 -0.0423c0.0157,-0.0372 0.0306,-0.0723 0.0433,-0.108 0.8189,-2.2601 0.4357,-4.7915 0.0973,-7.0246l-1.7625 -11.6255c-0.0024,-0.0164 -0.0129,-0.0304 -0.0281,-0.0372 -0.973,-0.4463 -2.0483,-0.6821 -3.1094,-0.6821 -0.2683,0 -0.539,0.015 -0.8047,0.0446 -0.1153,0.013 -0.2199,0.0316 -0.3193,0.0529 -0.1839,0.0399 -0.3416,0.0947 -0.4687,0.1636 -0.0411,-0.1653 -0.0627,-0.3377 -0.0644,-0.5128 -0.0061,-0.5593 0.1834,-1.1122 0.5331,-1.5567 0.5165,-0.6563 1.3491,-1.091 2.3448,-1.2242 0.0162,-0.0019 0.0303,-0.0122 0.0375,-0.0272 0.0071,-0.0147 0.0064,-0.0321 -0.002,-0.0463 -0.7665,-1.2879 -1.5663,-2.5138 -2.3776,-3.6437 -0.008,-0.0112 -0.0205,-0.0186 -0.0345,-0.0201 -0.0014,-0.0002 -0.0034,-0.0002 -0.0051,-0.0002 -0.012,0 -0.0237,0.0043 -0.0328,0.0125 -1.2838,1.1561 -2.9639,2.1249 -5.1368,2.9621 -3.7882,1.4593 -7.7718,2.1994 -11.8393,2.1994 -0.205,0 -0.4102,-0.0057 -0.6154,-0.0111 0,0 -0.1078,-0.0029 -0.1082,-0.0029 -0.0167,0 -0.0319,0.0083 -0.0409,0.022 -0.0093,0.0142 -0.0108,0.0321 -0.0037,0.0475 0.5344,1.1747 0.7601,2.4677 0.6529,3.7397 -0.1183,1.4042 -0.6324,2.7464 -1.486,3.8814 -0.0123,0.0164 -0.0132,0.0387 -0.002,0.0561 0.1225,0.1881 0.2273,0.3889 0.3113,0.5968 0.0078,0.0184 0.0257,0.0306 0.0455,0.0306 0.0005,0 0.061,-0.0019 0.0906,-0.0019 0.9783,0 1.903,0.4807 2.4131,1.2545 0.239,0.363 0.4058,0.8013 0.5094,1.3396 0.0042,0.0227 0.0236,0.0391 0.0465,0.0396 0.6649,0.0206 1.3121,0.3358 1.7309,0.8436 0.1545,0.1876 0.2867,0.4154 0.3928,0.6766 0.0074,0.0186 0.0255,0.0307 0.0453,0.0307 0.2687,0.0009 0.5197,0.0396 0.7455,0.1143 0.9135,0.3024 1.5869,1.1683 1.6371,2.106 0.0247,0.4653 -0.1147,0.9477 -0.3918,1.3582 -0.0079,0.0112 -0.0103,0.025 -0.0074,0.0381 0.0032,0.0135 0.0117,0.0248 0.0235,0.0316 1.154,0.6639 2.2584,1.4248 3.2825,2.2608 0.1577,0.1288 0.3132,0.26 0.4675,0.3928 -0.0135,0.1996 -0.0319,0.3987 -0.0551,0.5973 -0.0147,0.1239 -0.0299,0.2476 -0.048,0.371 -0.0208,0.1403 -0.0445,0.2807 -0.07,0.4205 -0.0042,0.0242 0.01,0.048 0.0335,0.0553 0.0051,0.0017 0.0098,0.0024 0.0149,0.0024 0.0186,0 0.0361,-0.0105 0.0444,-0.0284 0.0641,-0.1376 0.1364,-0.2512 0.2209,-0.3467 0.0947,-0.107 0.1968,-0.1925 0.3119,-0.2613 0.2361,-0.1415 0.5045,-0.2103 0.8212,-0.2103 0.4329,0 0.8727,0.1298 1.2609,0.2444 1.6207,0.4775 3.3075,0.7197 5.0134,0.7197 0.384,0 0.7736,-0.0125 1.1576,-0.0375 0.1163,-0.0075 0.2321,-0.0173 0.3482,-0.0272 0.6183,-0.0526 1.2264,-0.1354 1.8065,-0.2461 0.0152,-0.0027 0.0306,-0.0041 0.0458,-0.0041 0.1173,0 0.2185,0.0837 0.2405,0.1991 0.0122,0.0641 -0.0015,0.1293 -0.038,0.1834 -0.037,0.0541 -0.0925,0.0906 -0.1568,0.1028 -0.2294,0.0438 -0.4596,0.0831 -0.6905,0.1178 -0.0149,0.0023 -0.0279,0.0111 -0.0356,0.0241 -0.0073,0.0132 -0.0083,0.0288 -0.0027,0.0428 0.3875,0.9545 -0.0681,2.0531 -0.7179,2.6448 -0.6646,0.6054 -1.6371,0.9472 -2.8899,1.0165 -0.1783,0.0098 -0.3564,0.0147 -0.5344,0.0147 -1.5636,0 -3.1218,-0.385 -4.5057,-1.1132 -0.529,-0.2784 -1.2742,-0.7359 -1.6356,-1.4921 -0.118,-0.2474 -0.18,-0.5334 -0.1795,-0.8275 0,-0.0247 -0.0184,-0.0455 -0.0431,-0.0487 -0.0023,-0.0003 -0.0039,-0.0003 -0.0059,-0.0003 -0.0223,0 -0.0422,0.0152 -0.0478,0.0372 -0.3225,1.3075 -0.8662,2.5978 -1.5717,3.7319 -0.0073,0.0117 -0.0093,0.0264 -0.0051,0.0396 0.0042,0.0138 0.0137,0.0247 0.0262,0.0306 1.0652,0.4925 2.1381,0.8741 3.1889,1.1341 0.241,0.0598 0.5035,0.1165 0.8015,0.1736 0.5821,0.1114 1.1666,0.1856 1.7375,0.2201 0.1631,0.0098 0.327,0.0172 0.492,0.0208 0.0874,0.002 0.1753,0.003 0.2635,0.003m-0.0001 0l0 0 0 0z"/>
  <path class="fil7" d="M75.5506 86.6341l-1.0844 7.4407 -1.1591 -0.1702 -0.5152 -2.0782c-1.0589,1.3332 -2.4753,1.8703 -4.2526,1.6117 -1.9798,-0.287 -3.3529,-1.2575 -4.1084,-2.9043 -0.7591,-1.6504 -0.9933,-3.4655 -0.7027,-5.449 0.3048,-2.0938 1.1081,-3.7895 2.4099,-5.0836 1.3019,-1.2941 2.9353,-1.7994 4.8966,-1.516 1.461,0.2163 2.6041,0.8167 3.4258,1.8013 0.8217,0.9882 1.2654,2.1293 1.3277,3.4306l-2.3381 0.0754c-0.1681,-1.8413 -1.0563,-2.877 -2.6717,-3.1108 -1.0304,-0.1488 -1.9296,0.1467 -2.7013,0.89 -0.7754,0.7432 -1.2871,1.9852 -1.5422,3.7257 -0.5351,3.6762 0.351,5.6789 2.6509,6.0156 0.8978,0.1311 1.6836,-0.0718 2.3572,-0.6049 0.6773,-0.5332 1.0886,-1.3077 1.2374,-2.3232l-3.0064 -0.4358 0.3083 -2.1123 5.4683 0.7973z"/>
  <path class="fil7" d="M82.757 95.6095c-1.9319,-0.2836 -3.3307,-1.2246 -4.1962,-2.834 -0.8655,-1.6058 -1.1441,-3.472 -0.8322,-5.6064 0.3082,-2.1159 1.1373,-3.8045 2.4909,-5.062 1.3499,-1.2576 2.9649,-1.7517 4.838,-1.479 1.8914,0.2766 3.2826,1.2065 4.1738,2.7901 0.8875,1.5872 1.1771,3.446 0.8653,5.5877 -0.3259,2.2447 -1.1585,3.9737 -2.5012,5.1908 -1.3428,1.217 -2.9544,1.6855 -4.8384,1.4128zm0.3304 -2.1087c0.9457,0.1382 1.801,-0.1349 2.5693,-0.8231 0.7647,-0.6843 1.3014,-2.0551 1.599,-4.1084 0.2445,-1.6708 0.1635,-3.0196 -0.2391,-4.047 -0.4028,-1.0273 -1.1708,-1.6225 -2.3079,-1.789 -2.2447,-0.326 -3.6293,1.3179 -4.1573,4.9351 -0.2551,1.7553 -0.163,3.1262 0.2763,4.1166 0.4393,0.9903 1.1925,1.5598 2.2597,1.7158z"/>
  <path class="fil7" d="M96.6415 82.6458l-2.5522 9.9784 -1.1113 -0.1631 0.4546 -10.2831 3.2089 0.4678zm-2.0641 11.8362l-0.3861 2.6642 -2.6532 -0.3862 0.3862 -2.6643 2.6531 0.3863z"/>
  <path class="fil14 str0" d="M132.286 69.1734c20.7038,-0.9078 39.9616,-2.0784 53.2611,-4.3326 12.3748,0.8342 30.765,-1.8721 38.6638,2.3563 -1.011,2.1765 1.7229,7.9673 1.1742,8.5129 -1.1443,5.0738 -23.2023,9.7235 -41.6025,10.1246 -2.2099,-4.3815 -26.3479,-8.178 -51.1933,-11.9556 -3.8196,-2.7771 -3.0037,-4.0477 -0.3033,-4.7056z"/>
 </g>
</svg>
