<?xml version="1.0" encoding="UTF-8"?>
<!DOCTYPE svg PUBLIC "-//W3C//DTD SVG 1.1//EN" "http://www.w3.org/Graphics/SVG/1.1/DTD/svg11.dtd">
<!-- Creator: CorelDRAW -->
<svg xmlns="http://www.w3.org/2000/svg" xml:space="preserve" width="420mm" height="385mm" style="shape-rendering:geometricPrecision; text-rendering:geometricPrecision; image-rendering:optimizeQuality; fill-rule:evenodd; clip-rule:evenodd"
viewBox="0 0 420 385">
 <defs>
  <style type="text/css">
   <![CDATA[
    .str2 {stroke:#1F1A17;stroke-width:2.8222}
    .str1 {stroke:white;stroke-width:5.6444;stroke-linejoin:bevel}
    .str0 {stroke:#1F1A17;stroke-width:8.4667}
    .fil5 {fill:#1F1A17}
    .fil6 {fill:white}
    .fil0 {fill:#0078AD}
    .fil1 {fill:#008CBA}
    .fil2 {fill:#009EC7}
    .fil3 {fill:#00B5D9}
    .fil4 {fill:#6EC9E0}
   ]]>
  </style>
 </defs>
 <g id="Capa_x0020_1">
  <metadata id="CorelCorpID_0Corel-Layer"/>
  <g id="_96254288">
   <path id="_97617416" class="fil0 str0" d="M216.611 12.4336c100.174,0 181.412,81.2372 181.412,181.412 0,100.174 -81.2372,181.411 -181.412,181.411 -100.174,0 -181.412,-81.2372 -181.412,-181.411 0,-100.174 81.2377,-181.412 181.412,-181.412z"/>
   <path id="_97617152" class="fil1" d="M216.611 41.5876c84.0756,0 152.257,68.1819 152.257,152.258 0,84.0756 -68.1819,152.257 -152.257,152.257 -84.0752,0 -152.258,-68.1818 -152.258,-152.257 0,-84.0756 68.1823,-152.258 152.258,-152.258z"/>
   <path id="_96274312" class="fil2" d="M216.611 67.5315c69.7496,0 126.314,56.564 126.314,126.314 0,69.7496 -56.5641,126.314 -126.314,126.314 -69.7492,0 -126.314,-56.564 -126.314,-126.314 0,-69.7496 56.5644,-126.314 126.314,-126.314z"/>
   <path id="_96274600" class="fil3" d="M216.611 94.5c54.8578,0 99.3452,44.4873 99.3452,99.3451 0,54.8578 -44.4874,99.3451 -99.3452,99.3451 -54.8575,0 -99.3451,-44.4873 -99.3451,-99.3451 0,-54.8578 44.4876,-99.3451 99.3451,-99.3451z"/>
   <path id="_96254696" class="fil4" d="M216.611 117.031c42.4163,0 76.8142,34.3978 76.8142,76.8141 0,42.4163 -34.3979,76.8141 -76.8142,76.8141 -42.416,0 -76.8141,-34.3978 -76.8141,-76.8141 0,-42.4163 34.3981,-76.8141 76.8141,-76.8141z"/>
   <g>
    <path id="_96254864" class="fil5 str1" d="M9.3804 173.821l94.8489 -31.8152c89.9065,-22.1054 100.122,73.6919 32.4951,97.0049l-67.6705 20.6224 -0.6684 -30.0649c66.6668,-13.8268 74.0586,-45.3422 44.5254,-53.9372 -17.5452,-0.6906 -35.8575,3.8719 -54.6612,13.7558l0.362 74.2089 -50.3173 17.3757 1.086 -107.15z"/>
    <path id="_96254432" class="fil5 str1" d="M60.7793 138.734c54.4764,-47.5835 106.378,-82.2978 150.228,-76.7428 47.995,5.1298 77.3384,-1.9604 107.957,-23.8623l4.3918 0.5661c-15.642,20.9319 -27.4209,35.1179 -96.4206,45.3778l-0.9109 112.04 -31.0565 9.6457 -1.9954 -120.834c-50.814,4.8953 -91.1707,24.0904 -131.288,55.9813l-0.905 -2.172z"/>
    <path id="_96254624" class="fil6 str2" d="M150.377 258.708c53.6243,39.6291 102.999,39.5315 145.522,-24.6156 4.7909,-5.8729 7.7538,-5.7409 6.6969,7.6019 -20.0792,94.5884 -106.017,93.3549 -154.391,21.5387 -8.2552,-11.7408 -7.5312,-13.2488 2.172,-4.525z"/>
    <path id="_96255056" class="fil6 str2" d="M289.227 218.336c-6.0066,7.3162 -5.242,9.391 2.2933,6.2246 26.5384,-11.9524 22.8872,0.3761 23.0964,25.8811 0.2729,8.026 2.0747,7.0976 5.4055,-2.7847 2.8094,-14.9903 5.2017,-26.9599 -2.4571,-37.675 -14.2243,-1.9928 -22.0044,2.7553 -28.3381,8.354z"/>
    <path id="_96254816" class="fil5 str1" d="M332.688 175.647l79.9115 -26.7697 -0.8327 -57.329 -79.3033 23.6016 0.0632 15.049 43.941 -11.6457 0.0208 14.8121 -21.1527 6.6528c-70.3503,22.1873 -73.8506,-20.383 -31.5072,-35.8641l88.2225 -26.8294 0.6925 -35.2905 -97.2786 31.7843c-104.001,36.7818 -100.855,147.784 17.223,101.829z"/>
   </g>
  </g>
 </g>
</svg>
