<?xml version="1.0" encoding="UTF-8"?>
<!DOCTYPE svg PUBLIC "-//W3C//DTD SVG 1.1//EN" "http://www.w3.org/Graphics/SVG/1.1/DTD/svg11.dtd">
<!-- Creator: CorelDRAW -->
<svg xmlns="http://www.w3.org/2000/svg" xml:space="preserve" width="120mm" height="120mm" style="shape-rendering:geometricPrecision; text-rendering:geometricPrecision; image-rendering:optimizeQuality; fill-rule:evenodd; clip-rule:evenodd"
viewBox="0 0 120 120">
 <defs>
  <style type="text/css">
   <![CDATA[
    .fil0 {fill:black}
    .fil1 {fill:white}
   ]]>
  </style>
 </defs>
 <g id="Capa_x0020_1">
  <metadata id="CorelCorpID_0Corel-Layer"/>
  <g id="_100654648">
   <path id="_100654128" class="fil0" d="M16.0206 110.12c-2.032,-0.8128 -2.7686,-1.778 -3.3528,-3.8862 -0.0508,-3.8354 -0.0762,-7.6454 -0.1016,-11.4554 -2.286,-2.54 -3.9624,-4.953 -5.1308,-8.0772 -0.1778,-1.0414 -0.3556,-1.4224 -0.7874,-3.8354 0,-1.6002 0,-3.2004 0,-4.7752 0.6604,-3.8608 1.8796,-7.0358 4.2418,-10.1854 -0.0508,-0.1016 -0.1016,-0.1778 -0.1524,-0.254 -1.016,-0.0254 -2.032,-0.0508 -3.048,-0.0762 -1.7526,-0.3302 -2.1336,-1.2954 -2.7178,-2.8194 -0.3048,-2.3622 -0.9906,-4.7752 -1.4478,-7.112 0,-2.0066 0.2794,-2.8702 2.2352,-3.6068 3.81,-0.0508 7.62,-0.0762 11.43,-0.1016 0.0762,-0.1016 0.1524,-0.1778 0.2286,-0.254 0.7874,-1.8796 1.5748,-3.7592 2.3622,-5.6134 0.1524,-0.1778 0.6604,-1.4478 0.8382,-1.6256 1.2192,-2.286 2.413,-4.445 3.9878,-6.5532 1.3462,-1.3462 2.667,-2.921 4.5212,-3.556 1.1938,-1.1938 4.0132,-1.9812 5.6896,-2.4638 1.0922,-0.6604 2.5654,-0.8636 3.81,-1.0922 1.397,-0.6858 3.556,-0.9144 5.1308,-1.0922 3.81,-0.7366 7.5438,-0.9906 11.43,-1.27 6.9342,0 14.0208,-0.2286 20.8534,1.27 3.5814,0.3302 7.0358,1.5748 10.4648,2.6162 0.4572,0.4572 2.032,0.8636 2.6162,1.1176 2.8194,1.5748 2.8194,1.5748 3.1242,1.6764 0.5842,0.508 1.1938,1.0414 1.8034,1.5748 2.4638,2.8194 4.1656,5.7912 5.7404,9.0678 0.5334,0.5334 0.9144,1.778 1.1176,2.54 0.7112,1.1176 0.889,2.5908 1.7018,3.6576 11.4554,0.1016 11.4554,0.1016 11.9126,0.1778 1.3716,0.9398 1.778,1.5494 1.778,3.2766 -0.635,2.3622 -1.1684,5.0038 -1.524,7.4422 -1.0668,3.2512 -2.8956,2.7432 -6.096,2.8702 0,0.1016 0,0.2032 0,0.3302 1.7526,1.5748 2.9718,4.5466 3.7592,6.7056 0.2032,0.9906 0.4064,2.0066 0.635,3.0226 0.0254,1.27 0.0508,2.54 0.1016,3.8354 -0.1524,2.4384 -0.6604,4.6736 -1.4478,6.9596 -1.1938,2.413 -2.5908,4.4196 -4.4958,6.3246 -0.0762,0.254 -0.0762,0.254 -0.1524,11.6078 -0.508,1.9304 -1.524,2.921 -3.3528,3.5814 -4.0386,0 -8.0772,0 -12.1158,0 -1.2446,-0.381 -1.9812,-0.9144 -2.7432,-1.9558 -0.2794,-0.6604 -0.381,-1.0668 -0.508,-1.8034 -0.1524,-4.5974 -0.1524,-4.5974 -0.2286,-4.8006 -0.1778,-0.0762 -0.1778,-0.0762 -56.3626,-0.0508 -0.0762,0.0762 -0.1524,0.1778 -0.2286,0.2794 -0.0254,1.9558 0,3.937 -0.3302,5.8674 -0.254,0.2794 -0.254,0.2794 -0.762,1.1176 -0.7366,0.635 -1.3462,0.9906 -2.2352,1.3462 -4.064,0 -8.128,0.0254 -12.192,0.0508z"/>
   <path id="_100653936" class="fil1" d="M26.7648 89.9773c-1.5494,-0.4572 -2.7686,-1.0668 -4.1656,-1.8542 -0.0254,-0.0762 -0.0508,-0.127 -0.0508,-0.1778 -0.7112,-0.2794 -1.2954,-1.2192 -1.7526,-1.778 -1.6256,-2.8702 -1.778,-5.842 -0.3556,-8.8138 0.1778,-0.1778 0.3556,-0.635 0.6096,-0.8382 0.5842,-0.9398 1.524,-1.6002 2.3622,-2.3368 1.524,-0.762 2.5908,-0.9906 4.2672,-1.1938 1.9304,0.127 2.9972,0.3556 4.699,1.1938 0.5588,0.4572 1.1176,0.9144 1.7018,1.3716 0.4318,0.6096 0.4318,0.6096 0.6858,0.8382 1.8034,3.2258 2.2098,6.223 0.3556,9.5758 -0.4318,0.5588 -0.8636,1.1176 -1.2954,1.6764 -1.5494,1.1938 -2.8956,1.8542 -4.7752,2.286 -0.762,0 -1.524,0.0254 -2.286,0.0508z"/>
   <path id="_100653720" class="fil1" d="M90.8744 89.9773c-0.7112,-0.2286 -1.4224,-0.4318 -2.1336,-0.635 -4.0132,-2.0066 -5.4102,-5.0038 -5.1308,-9.4742 0.4064,-1.5748 0.9144,-2.5908 1.8796,-3.9116 2.6416,-2.5146 4.826,-3.2512 8.5344,-2.794 0.0762,0.0508 0.1524,0.1016 0.2286,0.1778 1.651,0.3302 2.8702,1.2954 4.0894,2.4384 0.3556,0.5588 0.7366,1.1176 1.1176,1.6764 1.5748,3.6576 1.2446,6.9342 -1.4478,10.0076 -2.3114,2.0066 -4.1656,2.4384 -7.1374,2.5146z"/>
   <path id="_100655008" class="fil1" d="M25.1646 58.5575c-0.4318,-0.8636 1.0414,-3.175 1.3208,-4.191 0.1524,-0.2286 0.3302,-0.9144 0.5588,-1.2192 1.3208,-2.9718 2.6416,-5.6896 4.6736,-8.255 7.0866,-4.8006 16.383,-5.2832 24.6634,-5.9436 2.3368,0 4.699,0 7.0612,0 2.7432,0.2286 5.5118,0.4572 8.2804,0.6858 0.6096,0.1778 2.2098,0.3302 5.842,1.016 2.6416,0.6858 3.4798,1.016 4.7498,1.3462 0.9652,0.3556 1.9304,0.7366 2.8956,1.1176 0.2286,0.2286 1.4986,0.9144 1.9812,1.0922 1.0414,0.9144 1.0414,0.9144 1.7526,1.7018 1.27,1.9304 2.7432,4.3434 3.4798,6.5532 1.1176,1.4478 1.27,3.937 2.286,5.4864 0,0.1778 0,0.3556 0,0.5588 -23.1902,0 -46.3804,0.0254 -69.5452,0.0508z"/>
  </g>
 </g>
</svg>
