<?xml version="1.0" encoding="UTF-8"?>
<!DOCTYPE svg PUBLIC "-//W3C//DTD SVG 1.1//EN" "http://www.w3.org/Graphics/SVG/1.1/DTD/svg11.dtd">
<!-- Creator: CorelDRAW -->
<svg xmlns="http://www.w3.org/2000/svg" xml:space="preserve" width="120mm" height="120mm" style="shape-rendering:geometricPrecision; text-rendering:geometricPrecision; image-rendering:optimizeQuality; fill-rule:evenodd; clip-rule:evenodd"
viewBox="0 0 120 120">
 <defs>
  <style type="text/css">
   <![CDATA[
    .fil0 {fill:black}
    .fil1 {fill:white}
   ]]>
  </style>
 </defs>
 <g id="Capa_x0020_1">
  <metadata id="CorelCorpID_0Corel-Layer"/>
  <g id="_100653984">
   <path id="_100705696" class="fil0" d="M99.8274 112.231c-4.953,-0.7112 -8.5852,-4.0894 -9.8044,-8.9916 -0.127,-0.0762 -0.2286,-0.1524 -0.3302,-0.2032 -0.7112,0.7112 -1.1176,1.27 -2.1844,1.27 -1.7018,-0.508 -1.778,-2.286 -2.3622,-3.7338 -0.508,0.1524 -1.016,0.3302 -1.4986,0.508 -10.033,0.0254 -20.066,0.0508 -30.0736,0.1016 -0.4572,0.4572 -0.4572,1.5748 -0.5588,2.2098 -0.1524,0.2032 -0.1524,0.2032 -0.6604,1.7526 -0.889,1.6256 -2.0574,2.8956 -3.4036,4.1402 -4.0894,2.667 -8.4074,2.8956 -12.7508,0.6858 -1.7526,-1.2192 -2.9972,-2.667 -4.1656,-4.4704 -0.5842,-1.397 -0.9398,-2.6924 -1.1938,-4.1402 -0.4572,-0.4572 -2.0066,-0.508 -2.6924,-0.6096 -0.3302,-0.1778 -0.6604,-0.2032 -0.889,-0.508 -1.5748,-0.4318 -2.54,-2.2606 -3.3528,-3.556 -0.635,-2.413 -0.8636,-6.1722 0.254,-8.4328 0.8636,-3.3782 2.3622,-6.1722 3.9116,-9.271 0.9652,-1.524 1.0922,-1.9304 1.1938,-2.032 0.3302,-0.0762 0.3302,-0.0762 26.5176,-0.0762 0.1524,0.0254 0.3048,0.0508 0.4572,0.1016 -0.1778,0.762 -0.3556,1.524 -0.508,2.3114 0,0.5588 0,1.1176 0,1.6764 0.4572,1.4986 1.1938,5.4356 3.175,5.7658 0.127,-1.1176 0.3048,-5.842 0.4826,-7.2136 0.2286,-5.1562 0.7366,-10.3632 0.8382,-15.5194 -0.1016,-1.1176 -0.4572,-1.3716 -1.4224,-1.8542 -2.7686,-0.2286 -5.5118,-0.6604 -8.2804,-0.8382 -2.3114,-0.4318 -3.4544,-1.1176 -4.7752,-3.175 -0.6096,-2.5146 0.0254,-4.5212 0.4318,-6.9596 1.1684,-4.9022 2.1844,-9.9822 3.0988,-14.9606 0.7112,-1.8288 1.0414,-4.3434 1.4478,-6.35 1.9304,-3.6576 4.6228,-4.7244 8.636,-3.683 0.2794,0.2286 0.2794,0.2286 1.1176,0.6604 2.032,2.54 2.54,2.8448 2.7178,6.223 1.7018,1.8288 3.429,3.2512 5.5372,4.6228 3.0734,1.5494 6.223,2.921 9.5504,3.7846 4.2672,0.0254 8.5344,0.0508 12.8016,0.1016 2.54,0.508 4.2164,2.1844 4.5212,4.7752 0,3.2766 0.5588,5.6642 -1.9304,8.0518 -0.508,0.2794 -1.016,0.5842 -1.524,0.889 -1.6764,0.1778 -3.3528,0.2032 -5.0292,0.2286 0,5.334 2.0828,10.6934 5.6896,14.605 0.7366,0.6604 0.7366,0.6604 2.54,1.9304 0.8636,1.1176 1.8288,2.1336 2.4638,3.4036 0.4064,1.2446 0.7112,2.3368 0.8382,3.6576 -0.0254,0.8382 -0.0508,1.7018 -0.0762,2.5654 -0.1778,0.762 -0.1778,0.762 -0.127,1.1176 1.016,0.0508 2.032,0.1016 3.048,0.1778 3.5814,0.762 6.2992,2.2606 8.763,5.0038 0.5588,0.8636 1.1176,1.7526 1.7018,2.6416 0.5842,1.7526 2.8956,6.3246 0.1778,7.2136 -0.2794,0.8636 0.2032,2.6162 0.2286,3.556 -0.2794,2.1082 -0.7874,3.8608 -1.8034,5.715 -0.5842,0.6858 -1.1684,1.397 -1.7526,2.1082 -1.3716,1.0922 -2.5908,1.8542 -4.2164,2.54 -1.016,0.1778 -1.016,0.1778 -1.4732,0.3556 -1.1176,0.0254 -2.2098,0.0762 -3.302,0.127z"/>
   <path id="_100705552" class="fil1" d="M100.92 108.675c-4.0132,-0.4572 -6.7564,-2.6924 -7.5946,-6.6802 0,-0.8382 -0.3302,-2.286 0.6604,-2.6416 0,-0.0508 0,-0.1016 0,-0.1524 0.762,-0.4064 0.762,-0.4064 1.1684,-0.508 0,-0.0762 0,-0.127 0,-0.1778 1.0668,-0.4318 2.1336,-0.8382 3.2258,-1.2446 1.4478,-0.3302 1.4478,-0.3302 1.8542,-0.508 2.6162,-0.254 4.6736,-0.3302 7.2898,-0.0254 0,0.0508 0,0.1016 0,0.1778 0.762,0.254 1.1938,2.6162 1.2954,3.302 0,4.9784 -3.0988,7.9248 -7.8994,8.4582z"/>
   <path id="_100705720" class="fil1" d="M41.2296 107.99c-1.1938,-0.2032 -1.1938,-0.2032 -2.2098,-0.508 0,-0.0508 0,-0.1016 0,-0.1524 -2.3876,-1.0414 -4.5212,-3.4544 -4.5212,-6.1468 5.0038,0 10.033,0 15.0622,0 0.5842,0.8636 -0.6604,2.8702 -1.1176,3.6322 -1.1176,1.524 -2.5146,2.2606 -4.2164,2.9464 -1.2954,0.1778 -1.2954,0.1778 -2.9972,0.2286z"/>
   <path id="_100705936" class="fil1" d="M69.7538 88.8634c-0.1016,-0.0254 -0.1778,-0.0508 -0.254,-0.0762 0.7112,-8.9154 2.0066,-17.8562 2.7432,-26.7716 0.3302,-1.9558 0.4064,-3.429 -0.5334,-5.2578 -0.0762,-0.0254 -0.127,-0.0508 -0.1778,-0.0762 -0.254,-0.8128 -1.2192,-0.9652 -1.4224,-1.6002 -2.9464,-1.1938 -6.0452,-2.2606 -9.0424,-3.4036 -0.9652,-0.4572 -1.3716,-0.5842 -1.6764,-1.6002 0.254,-1.9812 0.6858,-3.9624 1.1684,-5.9182 0.0254,-0.0762 0.0762,-0.1524 0.127,-0.2286 0.1524,0.0508 0.3048,0.127 0.4826,0.2032 3.2766,2.413 6.6802,3.937 10.541,5.2324 1.0414,0.2032 2.0828,0.4318 3.1242,0.6604 1.1176,0.1016 1.1176,0.1016 1.3716,0.2032 0.0254,0.1016 0.0508,0.2286 0.1016,0.3556 -0.0254,12.7254 -0.0254,25.4508 -0.0254,38.2016 -2.1844,0.0254 -4.3688,0.0508 -6.5278,0.0762z"/>
   <path id="_100653888" class="fil0" d="M28.2756 73.3694c-1.778,-1.778 -3.9878,-5.969 -2.5908,-8.509 0.4826,-0.3556 0.4826,-0.3556 1.0414,-0.6096 9.652,0.0254 19.304,0.0508 28.956,0.0762 0.6858,0.4826 0.9398,0.6604 1.27,1.4224 -0.0254,2.4892 -0.0254,4.9784 -0.0254,7.4676 -0.0508,0.0254 -0.1016,0.0508 -0.127,0.1016 -9.525,0 -19.0246,0.0254 -28.5242,0.0508z"/>
   <path id="_100653816" class="fil0" d="M10.2416 60.9996c-1.8034,-0.635 -2.8956,-1.3462 -3.937,-3.0226 -0.1524,-0.5588 -0.3048,-1.0922 -0.4318,-1.6256 0,-6.9088 0,-13.7922 0,-20.6756 0.4064,-1.8796 0.9652,-2.6416 2.413,-3.8608 0.4318,-0.1524 0.4318,-0.1524 0.7112,-0.4064 0.4318,-0.127 0.8636,-0.2286 1.2954,-0.3302 8.7884,0 17.5768,0 26.3652,0 2.6162,0.6096 3.683,1.9812 4.445,4.4196 0,7.0104 0,14.0208 0,21.0312 -0.5842,2.54 -2.0066,3.5814 -4.3688,4.4196 -8.8392,0 -17.6784,0.0254 -26.4922,0.0508z"/>
   <path id="_100654056" class="fil0" d="M61.8036 24.0172c-1.4732,-0.3302 -2.667,-0.6858 -4.0386,-1.2954 -1.016,-0.762 -1.016,-0.762 -1.3716,-0.9144 -0.1016,-0.2286 -0.7112,-0.762 -1.7526,-2.2352 -1.2192,-2.3622 -1.27,-4.5974 -0.7874,-7.1628 2.1844,-4.8514 5.9436,-6.6802 11.0744,-5.715 0.5842,0.254 1.1938,0.508 1.8034,0.762 1.7272,1.2954 3.048,2.667 3.9116,4.6736 0.127,0.6096 0.2794,1.2192 0.4318,1.8542 0,3.9624 -0.9398,6.3754 -4.2418,8.7884 -1.2446,0.508 -1.2446,0.508 -1.6002,0.762 -1.143,0.2286 -2.2606,0.4064 -3.429,0.4826z"/>
  </g>
 </g>
</svg>
