<?xml version="1.0" encoding="UTF-8"?>
<!DOCTYPE svg PUBLIC "-//W3C//DTD SVG 1.1//EN" "http://www.w3.org/Graphics/SVG/1.1/DTD/svg11.dtd">
<!-- Creator: CorelDRAW -->
<svg xmlns="http://www.w3.org/2000/svg" xml:space="preserve" width="120mm" height="120mm" style="shape-rendering:geometricPrecision; text-rendering:geometricPrecision; image-rendering:optimizeQuality; fill-rule:evenodd; clip-rule:evenodd"
viewBox="0 0 120 120">
 <defs>
  <style type="text/css">
   <![CDATA[
    .fil0 {fill:black}
   ]]>
  </style>
 </defs>
 <g id="Capa_x0020_1">
  <metadata id="CorelCorpID_0Corel-Layer"/>
  <g id="_218604120">
   <path id="_218604360" class="fil0" d="M13.4164 114.605c-3.0988,-1.3208 -2.6162,-3.2258 -2.921,-6.35 -0.635,-17.2974 -2.3876,-34.5948 -3.048,-51.8922 -0.1778,-2.2606 -0.3556,-4.5212 -0.508,-6.7818 -0.1778,-4.7498 -0.635,-9.4996 -0.762,-14.2494 0.0762,-0.0508 0.1778,-0.0762 0.2794,-0.1016 21.2598,0 42.5196,0 63.8048,0 0.2794,0.2794 0.1016,2.54 0.1016,3.0226 -0.1524,1.8796 -0.3048,3.7846 -0.4318,5.6896 -0.1016,0.0254 -0.2032,0.0508 -0.2794,0.1016 -4.3942,0.0254 -8.763,0.0508 -13.1318,0.0762 -1.0922,0.1778 -1.0922,0.1778 -2.9718,0.3302 -0.381,0.1778 -0.381,0.1778 -2.8194,0.6858 -1.2192,0.4826 -2.413,0.9652 -3.6068,1.4478 -4.9022,2.4638 -8.4836,5.5626 -11.6332,10.033 -1.8796,3.2258 -3.5814,6.5786 -3.9878,10.3378 -0.508,1.5748 -0.4064,3.556 -0.4318,5.207 0.0508,0.5334 0.1016,1.0668 0.1778,1.6256 1.0414,2.9718 2.8956,6.1976 6.1722,7.0866 0,0.6096 -0.4064,1.1938 -0.7112,1.7018 -0.3048,0.762 -0.6096,1.524 -0.889,2.3114 -0.1778,1.4478 -0.3556,2.7432 -0.3556,4.2164 0.127,0.8636 0.2794,1.7526 0.4318,2.6416 0.1778,0.2286 0.1778,0.2286 0.6858,1.778 0.3302,0.5842 0.8382,1.1938 0.8382,1.905 -3.429,1.524 -5.6388,4.1148 -6.2738,7.8486 -0.1016,2.8956 0.2794,5.1562 1.1938,7.9502 0.254,0.3048 0.9652,1.7526 1.8796,3.2004 -0.0762,0.0254 -0.127,0.0762 -0.1778,0.127 -6.8834,0 -13.7668,0.0254 -20.6248,0.0508z"/>
   <path id="_218604336" class="fil0" d="M46.4364 114.605c-1.0922,-0.3048 -1.0922,-0.3048 -1.778,-0.381 -0.381,-0.2286 -0.381,-0.2286 -1.3462,-0.5842 -1.4478,-0.8636 -1.4478,-0.8636 -1.6002,-0.889 0,-0.0762 0,-0.127 0,-0.1778 -1.016,-0.3302 -2.1082,-1.9558 -2.6924,-2.794 -1.2954,-2.6162 -2.7432,-7.5184 1.397,-8.3312 23.876,0 47.752,0 71.6534,0 1.1684,0.2286 1.6256,0.7874 2.3876,1.6764 1.143,4.8514 -1.8034,9.017 -6.223,10.8458 -0.4064,0.4064 -1.6764,0.4572 -2.2606,0.5842 -19.8628,0 -39.7002,0.0254 -59.5376,0.0508z"/>
   <path id="_218604096" class="fil0" d="M48.9764 94.8949c-2.8448,-0.3556 -4.699,-1.3208 -6.223,-3.81 -0.8636,-2.032 -0.7874,-4.064 0.0762,-6.096 1.2954,-2.0828 2.7178,-2.7686 4.9784,-3.4544 1.1684,-0.0762 55.7022,-0.0762 56.896,0 0.4064,0.1778 1.27,0.3556 2.1336,0.7112 3.4544,2.3114 4.572,6.0706 2.3876,9.6774 -1.5494,2.0066 -3.302,2.54 -5.715,2.921 -18.1864,0 -36.3728,0.0254 -54.5338,0.0508z"/>
   <path id="_218604240" class="fil0" d="M40.442 74.9051c-1.778,-0.7874 -2.1844,-1.0668 -2.8448,-2.9718 0.1016,-3.048 0.6096,-5.8928 1.7526,-8.7122 1.397,-2.921 3.4544,-6.0198 6.1468,-7.9248 2.413,-2.667 6.8326,-3.7846 10.2362,-4.4958 13.6652,0 27.3304,0 40.9956,0 0.9398,0.1778 4.8768,0.7874 5.4356,1.6256 5.5118,2.159 9.779,7.1628 11.6332,12.7254 0.635,2.6162 1.397,5.3594 0.6604,8.0264 -0.8636,0.9398 -1.1938,1.3462 -2.3876,1.6764 -23.876,0 -47.752,0.0254 -71.628,0.0508z"/>
   <path id="_218603952" class="fil0" d="M4.882 28.6009c-0.6858,-0.1524 -1.3208,-0.4064 -1.905,-0.8382 -0.1778,-0.254 -0.3048,-0.5588 -0.6096,-0.6604 -0.5842,-2.1082 -0.635,-3.4798 1.4224,-4.7752 0.3556,-0.1016 0.7112,-0.2032 1.0668,-0.3048 10.541,-0.0508 21.082,-0.1016 31.623,-0.1524 0.4064,-0.127 1.9304,-2.7432 2.1336,-3.048 0.0762,-0.254 2.1082,-3.3274 2.3622,-3.6068 1.8542,-3.2004 4.3434,-6.2484 6.096,-9.525 0.254,-0.2286 1.905,-2.8194 2.286,-3.2258 0.5588,-0.3556 0.5588,-0.3556 1.3716,-0.6858 4.9022,0 9.8298,0 14.7574,0 3.0226,0.9906 3.5306,4.826 0.508,6.2738 -0.3556,0.1016 -0.6858,0.2032 -1.016,0.3302 -3.9116,0.0254 -7.8232,0.0508 -11.7094,0.1016 -2.2098,3.5814 -5.08,6.985 -6.9596,10.7442 -0.5588,0.4318 -1.651,2.1082 -1.5494,2.7178 8.9662,0.0254 17.9324,0.0508 26.924,0.0762 2.8702,0.4572 3.8608,3.4798 1.9558,5.7404 -0.6858,0.4572 -1.0922,0.6096 -1.8796,0.7874 -22.3012,0 -44.6024,0.0254 -66.8782,0.0508z"/>
  </g>
 </g>
</svg>
