<?xml version="1.0" encoding="UTF-8"?>
<!DOCTYPE svg PUBLIC "-//W3C//DTD SVG 1.1//EN" "http://www.w3.org/Graphics/SVG/1.1/DTD/svg11.dtd">
<!-- Creator: CorelDRAW -->
<svg xmlns="http://www.w3.org/2000/svg" xml:space="preserve" width="120mm" height="120mm" style="shape-rendering:geometricPrecision; text-rendering:geometricPrecision; image-rendering:optimizeQuality; fill-rule:evenodd; clip-rule:evenodd"
viewBox="0 0 120 120">
 <defs>
  <style type="text/css">
   <![CDATA[
    .fil0 {fill:black}
    .fil1 {fill:white}
   ]]>
  </style>
 </defs>
 <g id="Capa_x0020_1">
  <metadata id="CorelCorpID_0Corel-Layer"/>
  <g id="_218855512">
   <path id="_218604384" class="fil0" d="M50.2142 114.056c-1.4986,-0.2794 -2.921,-0.7366 -4.2926,-1.3716 -0.4064,-0.2794 -2.6924,-1.5748 -2.8956,-2.3622 -2.5146,-1.6764 -3.2004,-6.096 -3.2004,-8.8138 0.1778,-1.2192 0.4318,-2.4384 0.9398,-3.556 -0.0254,-0.127 -0.0508,-0.254 -0.0508,-0.381 -1.9304,-0.0254 -3.8608,-0.0508 -5.7658,-0.0762 -1.524,-0.3302 -1.9304,-0.508 -2.7178,-0.6858 -2.667,-1.4986 -4.191,-2.7686 -5.588,-5.5626 -1.1684,-3.2004 -0.9906,-5.4864 0.1524,-8.6614 0.254,-0.2794 0.254,-0.2794 1.1938,-1.8542 2.286,-2.413 4.2164,-3.3274 7.493,-3.9116 0.0254,-0.1524 0.0762,-0.3048 0.127,-0.4318 -3.5814,-13.9954 -7.62,-27.8638 -11.2776,-41.8338 -0.0762,-0.635 -0.254,-0.9652 -0.762,-3.0734 -0.9906,-3.429 -2.2352,-7.1374 -2.8956,-10.668 -0.3302,-0.4318 -0.3302,-0.4318 -0.8128,-0.8128 -4.6736,-0.0508 -9.3472,-0.1016 -14.0208,-0.127 -1.651,-0.9144 -2.3368,-1.7018 -2.3368,-3.6576 0.4826,-1.7526 1.2446,-2.5146 2.9972,-2.8956 4.3942,0 8.8138,0 13.2334,0 2.3114,0.3302 3.5306,0.9398 5.3594,2.3876 1.651,1.905 2.3368,4.1148 2.794,6.604 1.1684,3.6322 2.1336,7.4422 3.0734,11.1252 0.0508,0.1016 0.127,0.2032 0.2032,0.3048 19.6342,0.1524 19.6342,0.1524 79.1718,0.3302 0.762,0.2286 1.5494,0.4572 2.3368,0.6858 2.0828,1.3716 3.4036,2.794 3.7084,5.3594 0,2.7178 -1.0668,5.3086 -1.4224,7.9756 -0.7112,2.5908 -1.4732,5.4102 -1.8796,8.0772 -0.5588,2.413 -1.3716,4.9022 -1.6764,7.3406 -0.6604,2.4892 -1.4732,5.1562 -1.778,7.6962 -0.889,1.9304 -0.5842,4.5466 -1.6256,6.35 -0.6096,3.429 -3.9116,5.3086 -7.0612,5.8928 -21.8948,0.0254 -43.7896,0.0508 -65.659,0.0762 -2.4638,1.0922 -3.2512,2.921 -2.3368,5.4864 1.0668,1.3462 1.8034,1.6764 3.4798,1.8796 22.352,0.0508 44.7294,0.1016 67.1068,0.1524 2.159,0.7366 2.7686,2.8194 1.9304,4.8514 -0.254,0.3048 -0.508,0.6096 -0.762,0.9144 -1.27,0.6604 -0.9906,0.6604 -0.4318,1.9812 0.1524,0.762 0.3302,1.524 0.508,2.286 0,0.9144 0,1.8288 0,2.7432 -0.1778,0.762 -0.3556,1.524 -0.508,2.3114 -1.3462,3.8608 -4.3434,6.2992 -8.1026,7.62 -1.7526,0.2286 -4.6736,0.6858 -6.2484,-0.254 -2.2098,-0.2286 -4.4704,-2.3622 -5.842,-3.9624 -0.9652,-1.5748 -1.7018,-2.8194 -2.159,-4.6228 -0.1524,-1.651 -0.1524,-3.2766 0,-4.9276 0.2286,-0.762 0.4572,-1.4986 0.6858,-2.2352 -0.0508,-0.0508 -0.1016,-0.1016 -0.127,-0.1524 -6.8072,0 -13.589,0 -20.3708,0.0254 0,0.1524 0,0.3302 0,0.508 0.5334,1.0668 0.7112,2.286 0.9398,3.4544 0,2.54 -0.5588,4.7244 -1.7018,6.9342 -0.6096,0.7366 -1.1938,1.4986 -1.778,2.2606 -2.286,1.905 -4.1402,2.7432 -6.985,3.2258 -0.7874,0 -1.5748,0.0254 -2.3622,0.0508z"/>
   <path id="_218543216" class="fil1" d="M50.5444 107.452c-2.667,-1.0922 -3.8608,-2.2352 -4.0132,-5.1816 0.4826,-3.8862 3.429,-5.4356 7.112,-4.2672 2.3622,1.7526 3.175,3.5052 2.3622,6.5024 -0.254,0.2794 -0.254,0.2794 -0.6858,1.1176 -0.6096,0.4826 -0.6858,0.6604 -1.0922,1.016 -0.6858,0.3302 -1.3462,0.508 -1.778,0.762 -0.635,0 -1.27,0.0254 -1.905,0.0508z"/>
   <path id="_218543144" class="fil1" d="M92.3782 107.452c-2.7432,-1.1176 -4.0132,-2.5146 -4.0132,-5.6134 0.5334,-3.0734 3.1242,-4.9022 6.3246,-4.1656 0.2286,0.1524 0.2286,0.1524 0.7874,0.3302 1.27,0.8636 1.9812,1.5494 2.54,3.0734 0.4318,3.3274 -0.762,5.1816 -3.8608,6.3246 -0.6096,0 -1.1938,0.0254 -1.778,0.0508z"/>
   <path id="_218543120" class="fil1" d="M44.042 76.8958c-0.7112,-0.1524 -1.1938,-0.4318 -1.6764,-1.016 -1.1176,-3.4544 -2.1082,-7.2136 -2.8702,-10.7696 -0.1524,-0.4572 -1.016,-2.5654 -0.5588,-3.0226 3.7846,0 7.5946,0 11.4046,0.0254 0.0762,0.0762 0.1778,0.1524 0.2794,0.2286 0.635,4.7752 1.27,9.5504 1.905,14.3256 -0.127,0.0508 -0.254,0.1016 -0.3556,0.1778 -2.7178,0 -5.4356,0.0254 -8.128,0.0508z"/>
   <path id="_218543384" class="fil1" d="M59.4344 76.8958c-0.0762,-0.0762 -0.1524,-0.1524 -0.2032,-0.2286 -0.5842,-4.7498 -1.4224,-9.5504 -1.8542,-14.3256 0.0762,-0.0762 0.1524,-0.1524 0.2286,-0.2286 3.6576,-0.0254 7.3152,-0.0254 10.9982,-0.0254 0.2794,0.1016 0.2794,0.1016 0.4572,0.2794 -0.0254,4.7498 -0.0254,9.525 -0.0254,14.3002 -0.127,0.0508 -0.254,0.1016 -0.3556,0.1778 -3.0988,0 -6.1722,0.0254 -9.2456,0.0508z"/>
   <path id="_218543000" class="fil1" d="M75.9698 76.8958c-0.1016,-0.1016 -0.2032,-0.1778 -0.3048,-0.254 0,-4.7752 0,-9.525 0,-14.2748 0.1016,-0.1016 0.2286,-0.2032 0.3556,-0.2794 3.6576,0 7.3152,0 10.9982,0.0254 0.0762,0.0508 0.1524,0.1016 0.2286,0.1524 -0.4064,4.8006 -1.143,9.7028 -1.8542,14.478 -0.0762,0.0254 -0.1524,0.0508 -0.2032,0.1016 -3.0734,0 -6.1468,0.0254 -9.2202,0.0508z"/>
   <path id="_218543288" class="fil1" d="M92.4798 76.8958c-0.1016,-0.0762 -0.2032,-0.127 -0.2794,-0.1778 -0.0508,-1.8034 0.4318,-3.9116 0.635,-5.715 0.8128,-2.667 0.5334,-5.8166 1.1684,-8.509 0.1016,-0.1524 0.2032,-0.2794 0.3048,-0.4064 3.429,0 6.858,0 10.287,0.0254 0.1016,0.1016 0.1016,0.1016 0.1016,0.889 -1.1176,2.4384 -0.3556,5.8674 -1.9558,8.0264 -0.2286,1.6764 -0.635,3.7592 -1.3462,5.2832 -0.2286,0.127 -0.4318,0.2794 -0.635,0.4318 -0.6604,0.1016 -0.6604,0.1016 -8.2804,0.1524z"/>
   <path id="_218543072" class="fil1" d="M37.184 55.5344c-0.9398,-0.4572 -1.016,-3.2258 -1.4986,-4.2164 -0.3556,-2.5654 -1.4478,-5.1308 -1.9558,-7.6708 -0.381,-0.7874 -0.8382,-2.2606 -0.8382,-3.1242 4.8768,0 9.7536,0 14.6558,0 0.4064,0.6604 0.3556,1.4224 0.4064,2.2098 0.6604,4.0132 1.0668,8.1026 1.7018,12.1158 -0.0254,0.2032 -0.0254,0.4064 -0.0254,0.6096 -4.1656,0.0254 -8.3058,0.0508 -12.446,0.0762z"/>
   <path id="_217495536" class="fil1" d="M56.5642 55.5344c-0.1016,-0.3556 -0.2032,-0.6858 -0.3048,-1.016 -0.5334,-4.6228 -1.1938,-9.3472 -1.8034,-13.97 10.922,-0.0508 10.922,-0.0508 14.4272,0.0508 0.0508,0.0762 0.1016,0.1778 0.1778,0.2794 0,4.7498 0,9.4996 0,14.2494 -0.0508,0.0762 -0.0762,0.1778 -0.1016,0.2794 -0.3556,0.0762 -0.3556,0.0762 -12.3952,0.127z"/>
   <path id="_218855752" class="fil1" d="M76.046 55.5344c-0.127,-0.1016 -0.254,-0.2032 -0.381,-0.2794 -0.0254,-4.8006 -0.0254,-9.5758 -0.0254,-14.351 0.1524,-0.2286 0.1524,-0.2286 0.3302,-0.3302 4.6228,0.0254 9.2456,0.0508 13.8684,0.1016 0.0762,0.0254 0.1778,0.0508 0.2794,0.1016 0,0.2032 0,0.4064 0.0254,0.635 -0.6858,5.2324 -0.8636,5.842 -1.3716,10.3124 -0.2794,1.1684 -0.127,2.7432 -0.7366,3.7592 -4.0132,0 -8.001,0.0254 -11.9888,0.0508z"/>
   <path id="_218855392" class="fil1" d="M95.4262 55.5344c-0.1524,-0.0254 -0.2794,-0.0508 -0.4064,-0.0762 -0.0254,-0.127 -0.0508,-0.254 -0.0508,-0.381 0.6096,-4.6736 1.2192,-9.3472 1.8542,-14.0208 0.0508,-0.1016 0.127,-0.2032 0.2032,-0.2794 4.1656,-0.0254 8.3566,-0.0254 12.5476,-0.0254 0.2032,0.8382 -0.254,1.9304 -0.4572,2.7686 -0.4318,2.9718 -1.4224,5.9436 -1.9558,8.89 -0.4318,0.889 -0.3302,2.159 -0.7874,2.9718 -0.127,0.0254 -0.254,0.0508 -0.3556,0.1016 -3.5306,0 -7.0612,0.0254 -10.5918,0.0508z"/>
  </g>
 </g>
</svg>
