<?xml version="1.0" encoding="UTF-8"?>
<!DOCTYPE svg PUBLIC "-//W3C//DTD SVG 1.1//EN" "http://www.w3.org/Graphics/SVG/1.1/DTD/svg11.dtd">
<!-- Creator: CorelDRAW -->
<svg xmlns="http://www.w3.org/2000/svg" xml:space="preserve" width="120mm" height="120mm" style="shape-rendering:geometricPrecision; text-rendering:geometricPrecision; image-rendering:optimizeQuality; fill-rule:evenodd; clip-rule:evenodd"
viewBox="0 0 120 120">
 <defs>
  <style type="text/css">
   <![CDATA[
    .fil0 {fill:black}
    .fil1 {fill:white}
   ]]>
  </style>
 </defs>
 <g id="Capa_x0020_1">
  <metadata id="CorelCorpID_0Corel-Layer"/>
  <g id="_216390128">
   <path id="_216389744" class="fil0" d="M56.8065 116.532c-1.1938,-0.2286 -2.4384,-0.3302 -3.6576,-0.381 -2.6924,-1.4732 -2.286,-2.9972 -2.5908,-6.1468 -0.4318,-2.159 -1.27,-3.9624 -2.5908,-5.715 -1.397,-1.4986 -1.397,-1.4986 -1.5748,-1.5494 0,-0.0762 0,-0.127 0,-0.1778 -0.508,-0.3556 -1.016,-0.7112 -1.4986,-1.0414 -1.905,-0.9652 -3.302,-1.4224 -5.3594,-1.7272 -1.3208,0 -2.6162,0.0762 -3.9116,0.254 -0.9906,0.3556 -1.9558,0.7112 -2.921,1.0668 -0.762,0.4064 -0.762,0.4064 -2.286,1.4224 -1.9558,1.8034 -2.5654,2.6162 -5.2578,1.8796 -1.9304,-1.6256 -1.9304,-1.6256 -2.1336,-1.6764 0,-0.0762 0,-0.127 0,-0.1778 -1.9558,-1.397 -3.9878,-3.6576 -5.5372,-5.461 -0.0254,-0.0762 -0.0508,-0.1524 -0.0508,-0.2032 -1.7272,-1.0922 -2.4892,-3.1496 -1.9812,-5.0546 0.4826,-0.4064 0.6096,-1.2446 1.2954,-1.4732 0.0762,-0.2286 1.2446,-1.651 1.7272,-2.3622 1.1938,-2.6162 2.032,-4.9784 1.7018,-7.9756 -0.1778,-0.508 -0.1778,-0.508 -0.3556,-1.778 -1.7018,-4.9276 -4.826,-7.5438 -9.7536,-8.9408 -2.6924,-0.1524 -4.4704,-0.1016 -5.9944,-2.4892 -0.1524,-2.286 -0.1524,-2.286 -0.3302,-3.6322 0,-2.1336 0,-4.2418 0,-6.35 0.3048,-2.159 -0.127,-4.572 2.032,-5.7658 2.3368,-0.381 4.191,-0.5588 5.8166,-0.889 0.254,-0.1778 1.27,-0.508 2.9464,-1.3462 0.508,-0.3556 2.3622,-1.397 2.5146,-2.0066 2.0828,-1.5748 2.9972,-4.826 3.4544,-7.3406 0,-2.8956 -0.4064,-4.8768 -1.7018,-7.4676 -0.508,-0.7112 -0.9906,-1.4224 -1.4732,-2.1082 -1.9812,-1.0668 -2.159,-3.4036 -1.1938,-5.207 2.9718,-3.3528 6.0452,-6.731 9.6774,-9.3218 1.016,-0.2794 1.8034,-0.254 2.8194,0.0254 0.6858,0.5842 1.3716,1.1684 2.0828,1.778 0.6604,1.3462 4.4196,2.3368 5.7658,2.6924 1.4224,0.1524 1.4224,0.1524 3.556,0.1524 3.2258,-0.3048 6.0706,-1.7272 8.1788,-4.2926 0.7112,0 2.3622,-4.1148 2.6924,-5.1308 0.2032,-2.8194 -0.1778,-5.4864 2.8448,-6.5786 3.3528,-0.2032 6.7056,-0.3556 10.0584,-0.254 1.9304,0.2794 3.2766,0 4.7752,1.3208 0.2286,0.3302 0.4572,0.6604 0.6858,1.016 0.1524,1.5748 0.3302,3.1496 0.508,4.7498 0.4572,1.6764 1.905,5.5118 3.683,6.2738 0.0508,0.0762 0.1016,0.1524 0.1524,0.254 2.286,1.651 4.064,2.54 6.8072,2.9972 0.8382,0 1.6764,0 2.54,0 3.175,-0.3048 5.5626,-1.6764 7.8994,-3.7084 0.0762,-0.0254 0.1524,-0.0508 0.2286,-0.0508 0,-0.0762 0,-0.127 0,-0.1778 1.6256,-1.1176 2.7686,-1.3208 4.5212,-0.2794 3.175,2.8194 7.239,6.0706 9.2964,9.8552 0.0508,1.1684 0.0762,1.8796 -0.4318,2.9718 -0.5334,0.508 -1.0668,1.0414 -1.5748,1.5748 -2.3114,3.2004 -3.4798,6.9342 -2.5654,10.8458 0.889,2.7686 1.9558,5.0038 4.2164,6.7564 0.2794,0.5842 1.9304,1.3208 2.54,1.6764 1.524,0.5842 1.524,0.5842 3.048,1.016 1.7018,0.1016 3.1242,0.2032 4.7244,0.889 0,0.0508 0,0.1016 0,0.1778 1.8288,0.9144 1.4478,3.6576 1.651,5.4102 0,1.8796 0,3.7592 0,5.6642 -0.1778,1.524 -0.1778,1.524 -0.3302,4.064 -0.7112,1.3208 -1.397,2.032 -2.921,2.3368 -2.1082,0 -4.191,0.3302 -6.1468,1.1176 -0.7874,0.4318 -2.9718,1.397 -3.2512,2.2352 -0.381,0 -1.2954,1.143 -1.4478,1.524 -0.0508,0 -0.1016,0 -0.1524,0 -0.3048,0.4572 -0.6096,0.9398 -0.9144,1.4224 -1.7526,3.5306 -2.1082,6.858 -0.8382,10.668 0.2794,0.5588 0.5588,1.1176 0.8382,1.7018 0.889,1.4224 2.0574,2.5654 3.0988,3.8354 0.127,0.4572 0.254,0.9398 0.381,1.4224 -0.1524,0.8636 -0.4826,2.4384 -1.3208,2.8448 -1.4478,1.6764 -1.4478,1.6764 -1.4986,1.8796 -0.0762,0 -0.127,0 -0.1778,0 -1.6002,1.8034 -2.2352,2.3622 -2.286,2.54 -0.3048,0.1524 -1.9558,1.6256 -2.1082,1.8796 -2.0066,1.6764 -2.0066,1.6764 -3.048,2.3876 -0.889,0.1778 -1.7526,0.254 -2.6416,0 -0.8128,-0.5588 -1.3208,-1.0668 -1.524,-1.1176 0,-0.0762 0,-0.127 0,-0.1778 -0.254,-0.1524 -0.7366,-0.4064 -0.8382,-0.7112 -3.4798,-2.3876 -6.9342,-3.0988 -11.176,-2.3876 -1.905,0.7112 -1.905,0.7112 -3.2512,1.3716 0,0.3302 -1.8542,1.2954 -2.2352,1.905 -1.7526,1.4986 -2.6162,3.7084 -3.3782,5.842 -0.1778,2.2352 0.0508,4.318 -1.5494,5.9182 -0.3556,0.2032 -0.6858,0.4064 -1.016,0.635 -2.2098,0.1524 -2.2098,0.1524 -3.3782,0.3302 -2.2098,0 -4.4196,0.0254 -6.604,0.0508z"/>
   <path id="_216390176" class="fil1" d="M59.2449 92.6555c-6.6548,-0.2032 -12.6492,-2.54 -18.161,-6.1976 -1.2192,-0.9906 -3.7592,-2.6924 -4.6736,-4.1656 -0.1778,-0.0508 -0.1778,-0.0508 -0.2794,-0.2794 -2.6416,-2.9972 -4.5466,-6.1722 -6.223,-9.7536 -0.1778,-0.7874 -0.508,-1.524 -1.1938,-3.6576 -0.3302,-1.3462 -0.8382,-4.572 -1.016,-5.2324 -0.0508,-3.7592 -0.2032,-7.493 0.9398,-11.0998 0.5334,-3.7338 2.667,-7.6454 4.7498,-10.7188 2.54,-3.2004 2.7432,-3.302 3.175,-3.8862 0.254,-0.2032 0.9144,-0.7874 1.0668,-1.0922 0.9652,-0.8382 1.9558,-1.651 2.9464,-2.4638 2.8702,-1.8796 5.7658,-3.81 9.1186,-4.7498 1.9304,-1.1176 4.5466,-0.9398 6.604,-1.5494 1.9304,-0.1524 3.8862,-0.1524 5.842,-0.1524 1.397,0.1524 2.794,0.3302 4.2164,0.508 6.9342,1.651 12.065,4.4958 17.3228,9.525 0.5842,0.9652 1.7018,1.9812 2.4384,2.8448 0.5842,0.889 1.1938,1.778 1.8034,2.667 0.8382,1.6002 0.8382,1.6002 1.0668,1.8288 1.3208,3.0226 2.4638,5.842 3.1496,9.0678 0.1778,1.8796 0.1778,1.8796 0.4318,3.048 0.0762,3.175 0.0762,3.175 0,5.969 -0.6604,4.8768 -1.9304,9.144 -4.3688,13.4112 -0.1524,-0.0254 -0.3048,-0.0254 -0.4572,-0.0254 -4.572,-4.572 -9.144,-9.144 -13.716,-13.716 -0.254,-0.7112 0.2286,-1.4224 0.508,-2.0828 0.1524,-0.889 0.3302,-1.27 0.6604,-3.2004 0.1016,-1.1176 0.1016,-1.1176 0.1016,-4.3942 -0.1778,-1.4986 -0.4826,-2.921 -0.7874,-4.3434 -0.4826,-1.1176 -0.4826,-1.1176 -0.6604,-1.8542 -0.254,-0.3048 -1.016,-1.9558 -1.778,-3.2766 -2.6416,-3.175 -5.715,-6.3754 -9.906,-7.5946 -0.2286,-0.1524 -0.2286,-0.1524 -2.6924,-0.8382 -2.0066,-0.2032 -13.462,-1.3208 -10.4394,3.7338 2.7432,2.8194 5.4864,5.6388 8.255,8.4582 0.635,0.508 0.635,0.508 1.3208,1.2954 0.0762,0.254 0.0762,0.254 0,3.3274 -0.3302,1.6256 -0.127,4.2926 -1.651,5.207 -2.2098,0.381 -5.4102,1.3208 -7.62,0.6858 -3.1496,-3.2512 -6.6294,-6.35 -9.7282,-9.652 -1.143,-0.381 -1.4478,-0.4318 -2.5908,0.0254 -1.524,1.7018 -1.4478,4.6736 -1.524,6.8326 0.1016,1.1176 0.2032,2.2606 0.3302,3.4036 0.1778,0.381 0.1778,0.381 0.6858,2.5654 0.889,1.143 0.8128,3.175 2.032,4.0894 0.5334,1.3716 1.7272,2.4638 2.6924,3.556 1.524,1.3716 1.524,1.3716 1.6002,1.5494 2.1082,1.4224 3.9878,2.5146 6.3246,3.429 1.016,0.254 2.032,0.508 3.0734,0.7874 0.9144,0.0762 5.461,0.0762 6.4008,0 1.5494,-0.3556 2.9972,-0.8382 4.4958,-1.2954 0.127,0.0762 0.254,0.1524 0.4064,0.2286 4.6228,4.6228 9.2456,9.2456 13.8684,13.8684 0,0.1016 0,0.2032 0,0.3048 -1.4224,0.9906 -3.2258,2.032 -4.9022,2.5654 -0.2032,0.1524 -0.9144,0.3302 -1.27,0.5588 -2.5908,0.7366 -5.1562,1.3716 -7.8232,1.8034 -1.397,0.0254 -2.794,0.0762 -4.1656,0.127z"/>
  </g>
 </g>
</svg>
