<?xml version="1.0" encoding="UTF-8"?>
<!DOCTYPE svg PUBLIC "-//W3C//DTD SVG 1.1//EN" "http://www.w3.org/Graphics/SVG/1.1/DTD/svg11.dtd">
<!-- Creator: CorelDRAW -->
<svg xmlns="http://www.w3.org/2000/svg" xml:space="preserve" width="165mm" height="150mm" style="shape-rendering:geometricPrecision; text-rendering:geometricPrecision; image-rendering:optimizeQuality; fill-rule:evenodd; clip-rule:evenodd"
viewBox="0 0 165 150">
 <defs>
  <style type="text/css">
   <![CDATA[
    .fil6 {fill:#007CC3}
    .fil7 {fill:#00923F}
    .fil8 {fill:#0093DD}
    .fil1 {fill:#0A0B0C}
    .fil18 {fill:#1F1A17}
    .fil15 {fill:#3F4446}
    .fil4 {fill:#605D5C}
    .fil12 {fill:#75C5F0}
    .fil3 {fill:#AAA9A9}
    .fil11 {fill:#DA251D}
    .fil5 {fill:#DEDEDD}
    .fil16 {fill:#E77817}
    .fil9 {fill:#F5C491}
    .fil20 {fill:#FFF500}
    .fil0 {fill:black}
    .fil2 {fill:white}
    .fil19 {fill:#C4AD0F}
    .fil13 {fill:#DE0082}
    .fil14 {fill:#F54029}
    .fil10 {fill:#F5E617}
    .fil17 {fill:#FAE017}
    .fil21 {fill:white;fill-rule:nonzero}
   ]]>
  </style>
 </defs>
 <g id="Capa_x0020_1">
  <metadata id="CorelCorpID_0Corel-Layer"/>
  <g id="_216016088">
   <path id="_215615944" class="fil0" d="M55.3794 146.1c0.1167,-0.0584 0.2334,-0.1167 0.3501,-0.1751 1.6486,-0.1604 3.3263,-0.1167 4.7268,-1.0212 2.3488,-0.8899 4.2162,-2.4509 6.0106,-4.1724 1.2255,-1.3276 1.9111,-2.9615 2.6843,-4.5809 1.7215,-0.0146 3.443,-0.0292 5.1499,-0.0437 0.3209,0.6565 0.3647,1.5464 0.8899,2.0716 6.4483,0.0729 6.4483,0.0729 16.3541,0.0583 0.8169,-0.5398 0.6856,-1.1233 0.8024,-2.0862 2.1153,-0.0875 4.2453,-0.248 6.3607,-0.0437 1.9111,0.2917 3.7931,0.7148 4.4642,2.7281 0.7878,0.7878 1.313,1.7798 1.8965,2.7135 1.0796,1.2838 2.4801,2.3634 3.9244,3.2095 5.0769,2.2467 10.0809,1.0067 14.2679,-2.3779 1.4588,-1.4589 2.6114,-2.9908 3.3846,-4.9457 2.874,-1.6631 5.8209,-3.2824 8.7241,-4.8726 1.1817,-0.0438 2.4217,-0.0438 3.5305,-0.496 1.2254,-0.9337 2.2904,-1.9987 3.2679,-3.1804 0.7002,-0.5981 1.3859,-1.1963 2.0716,-1.7798 0.5252,-0.569 0.9337,-1.1088 1.1817,-1.8528 0.1896,-2.0279 0.4522,-4.0703 0.5252,-6.1127 -0.1167,-0.1022 -0.248,-0.2043 -0.3793,-0.2918 -0.3939,0 -0.7878,0 -1.1817,0.0146 0.0729,-2.4801 0.7878,-4.8873 1.4151,-7.2798 0.2918,-1.4443 0.5106,-2.6844 0.5398,-4.1433 -0.5982,-2.9907 -2.626,-5.5729 -4.2308,-8.0676 -1.0941,-2.13 -1.8236,-4.5663 -2.5239,-6.8567 -1.6193,-4.3329 -3.4137,-8.622 -4.4787,-13.13 -0.9191,-1.6923 -1.0796,-3.5596 -1.5902,-5.3832 -0.1897,-0.3648 -0.3939,-0.7295 -0.5981,-1.0942 -0.2481,-0.8316 -0.5106,-1.6631 -0.7732,-2.4801 -0.8462,-2.3634 -1.7215,-4.435 -3.691,-6.0544 -1.8966,-1.313 -3.7202,-1.5755 -5.9668,-1.6339 -6.7109,0.7732 -6.7109,0.7732 -13.2759,1.4589 -4.9164,1.065 -10.1684,0.1896 -14.9097,2.1299 -1.313,0.7295 -2.1592,1.4152 -2.5531,2.8886 -0.3209,0.1605 -0.4085,0.7295 -0.496,1.065 -0.7294,5.8647 -0.248,11.9191 0.0438,17.813 0.0875,5.7188 0.175,11.4376 0.248,17.1564 -8.3157,0.0146 -16.6459,0.0438 -24.9761,0.073 -0.9774,-1.9549 -1.8528,-3.9682 -2.7427,-5.9523 -0.5252,-0.9045 -0.992,-1.8674 -1.8674,-2.4947 -3.4429,-0.0437 -6.9005,-0.0875 -10.358,-0.1313 -2.2175,-7.061 -2.2175,-7.061 -2.2175,-7.236 2.057,-1.9695 4.5079,-3.2387 7.0172,-4.5517 1.4005,-1.4006 3.4576,-1.8236 5.0332,-2.9762 0.1896,-0.2334 0.3793,-0.4522 0.5543,-0.671 3.0053,-1.6194 5.6021,-3.9828 8.6366,-5.5 0.0146,-0.0438 0.0292,-0.073 0.0438,-0.1021 3.3262,-2.378 6.7546,-4.8289 10.4164,-6.6525 1.7652,-1.3276 3.5888,-2.6114 5.427,-3.8369 10.8103,-6.6671 10.8103,-6.6671 11.496,-7.1485 0.9921,-0.8608 2.5093,-1.1525 3.3117,-2.1592 2.2175,-1.1087 4.114,-2.6551 6.1127,-4.114 0.6711,-0.4377 0.6711,-0.4377 2.2029,-1.2401 1.882,-1.6047 4.1432,-2.5676 6.2003,-3.8952 0.2334,-0.2042 0.4668,-0.3939 0.7002,-0.5835 2.7719,-1.4589 5.5146,-3.2096 7.9801,-5.1499 0.744,-0.4085 1.4881,-0.817 2.13,-1.3567 5.5583,-3.5889 11.1458,-7.134 16.5729,-10.9271 1.5026,-0.9191 3.1074,-1.7506 4.5371,-2.7718 1.4735,-0.9046 1.4735,-0.9046 2.4071,-1.4152 0.1022,1.138 0.2043,2.2905 0.3064,3.443 0,0.7586 0.1313,1.7798 -0.0729,2.5093 -1.4297,0.4085 -2.6552,1.3567 -3.4722,2.5822 -0.3793,1.0066 -0.3793,1.0066 -0.6565,1.5902 -0.5252,0.0292 -1.065,0.0583 -1.6047,0.1021 -0.6565,0.1605 -0.9775,0.7878 -1.2984,1.3422 -0.0146,1.8965 -0.1751,3.8806 0.1604,5.7626 0.3939,0.6127 0.3939,0.6127 0.8754,1.1962 2.2466,1.9695 4.3037,2.8157 4.7705,5.8064 0.3355,0.6711 1.5902,1.6048 1.1379,2.3634 -0.2042,0.1605 -0.4085,0.3209 -0.6127,0.496 -1.1088,1.313 -3.1074,1.7652 -3.8369,3.37 -1.1233,0.8899 -0.8899,3.2096 -0.6419,4.435 0.248,0.8899 0.7441,1.5902 1.313,2.2905 3.3117,2.7572 7.8926,2.232 10.4602,-1.1963 1.0212,-1.8382 2.3196,-5.8793 -1.0066,-5.8793 -1.1234,0.4376 -1.2109,1.0504 -1.4297,2.1445 -0.6857,2.0862 -2.3196,2.7719 -4.1287,1.4735 -0.9774,-1.7944 0.7003,-2.874 1.9404,-4.0119 1.1087,-1.2547 1.6485,-2.1592 0.4376,-3.5013 0.4377,-0.7587 1.2547,-1.1963 1.5173,-2.1154 0.0145,-0.3939 0.0291,-0.7878 0.0437,-1.1671 2.0425,-1.5318 4.0265,-3.2387 5.6897,-5.179 0.1604,-0.3502 0.3209,-0.7003 0.4814,-1.0359 0.0875,-1.7214 0.4814,-3.7493 0.0146,-5.4416 -0.7732,-1.1087 -1.8382,-1.0796 -3.0928,-1.2109 -0.0876,-0.0875 -0.1751,-0.175 -0.2626,-0.2626 -0.9775,-1.6777 -1.6486,-3.2533 -3.6181,-3.793 0.3939,-2.5531 0.3064,-5.1645 0.6419,-7.7175 0.073,-0.3356 0.1459,-0.7149 0.321,-1.0067 0.6419,-0.1313 1.2692,-0.3501 1.8819,-0.5835 2.6698,-1.4005 3.8661,-3.3117 4.4642,-6.2003 0.0146,-0.496 0.0292,-0.992 0.0292,-1.4734 -0.1897,-1.5756 -0.5106,-2.6552 -1.4005,-3.9974 -1.1817,-1.4443 -2.4655,-2.2466 -4.1578,-3.0199 -1.7945,-0.2771 -3.5159,-0.423 -5.2958,0 -1.2546,0.4523 -2.1008,0.9191 -3.1803,1.7069 -0.3939,0.4523 -0.8024,0.9045 -1.2109,1.3714 -3.4722,2.378 -7.4987,3.8223 -11.248,5.7188 -0.7148,0.4085 -1.4443,0.817 -2.1737,1.2255 -0.0438,0.0437 -0.0876,0.0875 -0.1313,0.1459 -11.7294,5.5437 -23.2838,11.4959 -34.8527,17.4044 -6.4045,3.122 -6.4045,3.122 -9.9642,4.7851 -2.057,1.3714 -4.6392,1.7799 -6.6525,3.2388 -0.0729,0.0875 -0.1605,0.175 -0.248,0.2626 -2.0424,0.671 -3.8806,1.8673 -5.7334,2.9469 -2.4801,1.1379 -5.0185,2.2029 -7.3965,3.5597 -3.8077,1.5318 -7.382,3.5888 -11.0438,5.4416 -0.3355,0.2188 -0.671,0.4523 -1.0066,0.6857 -1.8528,0.8607 -3.8806,1.2546 -5.4708,2.5676 -0.5252,0.1897 -1.0504,0.3793 -1.5902,0.5836 -1.6047,0.9045 -3.2533,2.1737 -5.0331,2.6697 -1.3422,0.7878 -2.7135,1.5173 -4.1578,2.1008 -2.0862,1.0358 -4.187,2.0716 -6.2878,3.1074 -2.7573,-0.0583 -5.4854,-0.496 -8.2135,-0.8315 -0.3356,0 -0.6711,0 -1.0066,0.0145 -1.4006,1.1963 -1.6048,3.9828 -1.8966,5.6897 -0.1605,1.2838 -0.3209,2.5676 -0.4814,3.8514 -0.1021,0.1313 -0.1021,0.1313 -0.4814,1.2547 -0.4231,2.3925 -0.3648,4.8581 -0.7878,7.2506 -0.1897,0.5544 -0.3794,1.1234 -0.5836,1.6923 -0.9045,6.7984 -2.6114,13.5093 -3.618,20.2931 -1.1525,0.0875 -2.947,-0.1459 -3.6764,0.9628 -0.321,1.2984 -0.6857,2.5968 -1.1671,3.8369 -0.1897,0.8753 -0.1897,0.8753 -1.065,3.8514 -5.1061,3.3117 -6.6817,10.2997 -6.7984,15.9748 0.248,0.1896 0.5836,0.2188 0.8899,0.2918 1.0358,-0.0146 2.0716,-0.0146 3.0929,-0.0146 0.0437,0.0875 0.1459,1.8382 0.3355,3.1512 0.2334,1.0941 0.5836,2.1883 0.9775,3.2387 0.4376,0.8024 0.8753,1.6047 1.3129,2.4217 0.4815,0.5982 0.9629,1.1963 1.4298,1.809 2.553,2.5531 5.3103,4.012 8.8408,4.8581 1.2546,0.1751 2.4947,0.2918 3.7639,0.2918 2.5822,-0.4231 5.3687,-0.8024 7.6008,-2.2905 0.1604,-0.2042 0.3063,-0.3939 0.4522,-0.5835 1.8382,-1.1379 3.1658,-2.8011 4.2891,-4.6101 0.8462,-1.5756 0.8462,-1.5756 1.0942,-1.9257 0.8461,-0.5981 2.1445,-0.3647 3.122,-0.3793 1.2838,2.1445 2.5093,4.8289 4.6684,6.2732 0.7732,1.3422 2.3051,1.7798 3.6618,2.3488 2.3196,0.6565 4.5517,1.1087 6.9443,1.2838z"/>
   <path id="_215615056" class="fil1" d="M55.3356 145.327c2.5677,-0.4814 4.9602,-1.0796 7.2361,-2.3634 1.0358,-0.6711 1.9549,-1.4735 2.9032,-2.2613 0.8899,-1.24 1.7214,-2.5968 2.6259,-3.8222 0.817,-2.3634 1.2547,-4.5663 1.313,-7.0756 -0.2042,-2.3342 -0.7294,-4.3475 -1.6631,-6.5358 -1.065,-1.065 -1.9403,-2.4509 -2.8302,-3.6472 -0.6419,-0.6565 -1.1525,-1.3859 -2.0862,-1.5902 -0.0146,-0.0438 -0.0292,-0.0875 -0.0438,-0.1313 -3.6472,-1.7944 -7.0026,-2.5822 -11.0583,-2.0132 -2.2029,0.4668 -3.9244,1.2692 -5.8064,2.4363 -1.2692,0.992 -2.2612,1.9549 -3.2533,3.2241 -0.8315,1.2401 -1.5026,2.4947 -2.0424,3.8806 -0.744,2.6406 -0.9337,5.0624 -0.5398,7.7905 0.2626,1.1817 0.5836,2.3342 0.9775,3.4721 0.744,1.2692 1.5172,2.4509 2.4363,3.6035 0.5544,0.5397 1.1087,1.0941 1.6485,1.6485 1.3568,0.9628 1.3568,0.9628 2.1884,1.4589 2.1737,1.065 4.2599,1.5172 6.6379,1.8527 0.4522,0.0146 0.9045,0.0438 1.3567,0.073z"/>
   <path id="_215614672" class="fil1" d="M23.4882 145.327c0.6565,-0.1313 1.2984,-0.248 1.9403,-0.3647 3.7786,-1.065 6.6526,-2.7281 9.1618,-5.7918 0.3356,-0.5106 0.6565,-1.0066 0.9775,-1.5026 0.6711,-1.4152 1.1817,-2.7865 1.561,-4.3037 0.0875,-0.6857 0.175,-1.3714 0.248,-2.0425 0,-2.2175 -0.3501,-4.187 -0.9775,-6.3023 -0.3063,-0.7149 -0.6127,-1.4297 -0.9336,-2.13 -0.8024,-0.6711 -1.0942,-2.1737 -2.0425,-2.5676 -1.8236,-2.9178 -5.6313,-3.691 -8.6657,-4.6831 -4.4788,-0.2626 -8.3448,0.642 -11.9045,3.4284 -1.0796,1.0358 -1.0796,1.0358 -1.6048,1.6048 -1.2984,1.7652 -2.1883,3.4284 -2.8594,5.5292 -0.3939,1.8673 -0.5398,3.5013 -0.5398,5.4124 0.2043,1.7944 0.2043,1.7944 0.3939,2.874 0.4815,2.1737 1.9112,4.2599 3.2825,5.9522 1.1671,1.1671 2.3634,2.0717 3.7785,2.9616 0.5982,0.248 1.1817,0.5106 1.7653,0.7732 2.1153,0.7294 4.1869,1.0358 6.419,1.1525z"/>
   <path id="_216379616" class="fil1" d="M115.631 145.181c0.1897,-0.0729 0.1897,-0.0729 1.6048,-0.2772 1.8382,-0.6711 4.2891,-1.2546 5.5291,-2.9032 1.8091,-1.2984 2.8303,-3.4283 3.443,-5.5291 0.321,-0.321 0.3647,-0.817 0.4377,-1.2547 0,-1.6923 -0.0292,-3.3992 -0.2918,-5.0769 -0.3939,-1.2838 -0.9337,-2.5238 -1.561,-3.7055 -0.744,-1.065 -1.7361,-2.0862 -2.6989,-2.9761 -2.1884,-1.5465 -4.508,-2.0717 -7.134,-2.4218 -1.7215,0.1459 -3.2679,0.4231 -4.9018,0.9775 -1.4151,0.6856 -2.626,1.488 -3.8515,2.4655 -1.3275,1.4443 -2.3196,3.0782 -3.049,4.8872 -0.5252,2.1154 -0.569,4.2454 -0.2335,6.3753 0.4961,1.9695 1.3276,3.5305 2.5239,5.1791 1.3276,1.2838 2.5968,2.2904 4.2599,3.122 1.4443,0.496 2.7865,0.8315 4.3183,1.065 0.5398,0.0145 1.0796,0.0437 1.6048,0.0729z"/>
   <path id="_216379448" class="fil0" d="M115.573 139.827c1.5464,-0.4377 2.6843,-0.992 3.9243,-2.0278 0.8462,-1.0213 1.2109,-1.8674 1.561,-3.122 0.4085,-3.3992 -1.0066,-6.6963 -4.3037,-8.0531 -1.8381,-0.5106 -3.3991,-0.2626 -5.1498,0.4815 -0.3501,0.2042 -0.7003,0.4084 -1.065,0.6127 -0.4522,0.4522 -0.9045,0.9045 -1.3567,1.3713 -1.313,2.9907 -1.6632,5.7918 0.3939,8.4761 1.8673,1.634 3.5742,2.0571 5.996,2.2613z"/>
   <path id="_216379208" class="fil2" d="M115.675 139.156c0.2042,-0.3355 1.5172,-0.6857 1.9403,-0.8461 0.9191,-0.4669 1.4297,-0.8024 1.9403,-1.6923 2.3342,-2.3342 0.992,-6.1419 -1.0066,-8.1989 -1.8966,-1.0359 -3.3409,-1.6632 -5.5438,-1.1526 -3.1512,1.2255 -4.5225,4.1433 -4.114,7.4112 0.1313,0.3793 0.2626,0.7586 0.3939,1.1525 1.4005,2.5238 3.6326,3.1949 6.3899,3.3262z"/>
   <path id="_215402872" class="fil0" d="M54.8542 138.616c3.2679,-0.7002 5.7334,-1.9111 7.2069,-5.0331 0.1313,-0.4668 0.2626,-0.9337 0.3939,-1.3859 0.2772,-2.3197 -0.1897,-4.1724 -1.0504,-6.317 -0.4523,-0.6127 -0.5982,-0.7294 -0.8899,-1.1671 -0.6274,-0.496 -0.6274,-0.496 -1.1526,-0.992 -3.7639,-1.4735 -7.3965,-1.8236 -10.5331,1.0503 -0.8607,1.0213 -1.5172,2.1738 -1.8819,3.4722 -0.4377,2.378 -0.2189,4.5371 1.0358,6.6379 1.7506,2.3342 3.9827,3.4284 6.8713,3.7347z"/>
   <path id="_215403712" class="fil0" d="M22.7588 138.616c2.3196,-0.5397 5.3395,-1.1379 6.4191,-3.5305 1.561,-1.2108 1.488,-2.9031 1.488,-4.7413 -0.2626,-2.1592 -0.8461,-4.8873 -2.7135,-6.244 -0.8024,-0.4377 -1.6048,-0.8754 -2.4217,-1.313 -1.3276,-0.3648 -2.5385,-0.4377 -3.8952,-0.4377 -2.6844,0.4231 -5.0478,1.7944 -6.3462,4.2599 -0.5981,1.6194 -1.561,3.9536 -0.6711,5.5876 0.2626,0.8899 0.9775,3.3408 1.9112,3.6472 0.5543,1.9257 4.6976,2.4801 6.2294,2.7718z"/>
   <path id="_215404216" class="fil0" d="M114.843 138.178c1.882,-0.3647 3.0783,-1.0212 4.2162,-2.6114 0.7732,-1.809 0.8024,-3.5013 -0.1897,-5.2666 -1.0358,-1.0504 -1.0358,-1.0504 -1.5902,-1.5464 -2.232,-0.7003 -3.866,-0.8899 -5.8501,0.496 -2.1299,2.1883 -2.2612,5.1207 -0.248,7.4403 1.1963,0.817 2.1883,1.3276 3.6618,1.4881z"/>
   <path id="_215437656" class="fil2" d="M55.7733 137.887c1.3568,-0.817 3.1949,-0.7586 4.2599,-2.0424 0.1313,-0.248 0.2626,-0.4961 0.3939,-0.7295 1.0942,-1.5902 1.6486,-3.0636 1.6486,-5.0185 -0.0584,-0.4669 -0.1313,-0.9191 -0.2043,-1.3714 -0.2772,-0.9774 -0.7002,-1.7944 -1.1525,-2.6989 -1.0504,-1.2838 -2.3926,-2.057 -3.9098,-2.6552 -3.4576,-0.8899 -6.5212,0.321 -8.5928,3.2533 -1.0212,1.8236 -1.2547,3.5013 -0.8753,5.5292 0.2042,0.5252 0.3939,1.0504 0.5835,1.5756 0.6127,0.9628 1.2109,1.7652 2.0279,2.5822 1.6193,0.9045 1.6193,0.9045 2.1007,1.1088 1.2401,0.3501 2.451,0.423 3.7202,0.4668z"/>
   <path id="_215438784" class="fil2" d="M23.6779 137.887c1.1379,-0.569 2.553,-0.8899 3.5888,-1.5756 1.7945,-1.8965 2.7573,-3.6618 2.7573,-6.317 -0.5106,-2.3779 -1.4297,-4.2453 -3.3116,-5.7917 -2.3342,-1.4735 -4.7268,-1.6194 -7.3236,-0.6273 -1.6048,1.1525 -3.122,1.8673 -3.6472,3.7931 -1.2838,0.3793 -0.3939,5.2519 -0.0584,6.171 0.2918,0.5544 0.5836,1.1234 0.8753,1.6923 0.1459,0.1167 0.3939,0.4377 0.9629,0.9483 1.9403,1.2109 3.9098,1.5756 6.1565,1.7069z"/>
   <path id="_215287088" class="fil3" d="M115.237 137.638c2.6406,-1.1963 4.5663,-2.7281 3.7202,-5.7918 -0.2189,-0.5106 -0.4377,-1.0066 -0.6711,-1.5026 -0.8024,-0.4815 -1.4881,-1.1817 -2.3051,-1.6777 -1.8527,-0.5252 -3.7931,0.3209 -5.0039,1.7214 -0.569,1.0358 -0.7149,1.7945 -0.7149,2.9762 0.496,2.6551 2.2905,4.0994 4.9748,4.2745z"/>
   <path id="_216101784" class="fil4" d="M91.4575 137.493c0.3064,-1.8674 0.1751,-3.8806 0.1751,-5.7772 -0.0875,-1.3713 -0.0875,-1.3713 -0.1751,-1.7506 -5.3686,0 -10.7519,0 -16.1352,0 0,2.4655 -0.0729,4.9748 0.0438,7.4403 5.3687,0.0291 10.7373,0.0583 16.0914,0.0875z"/>
   <path id="_216101616" class="fil0" d="M54.9417 137.113c0.6711,-0.4085 3.0637,-0.4085 3.2679,-1.1671 2.3196,-1.7215 3.2387,-3.9536 2.947,-6.8568 -0.8024,-1.7652 -1.4152,-3.8806 -3.4284,-4.4933 -0.3647,-1.5027 -5.5875,-0.4377 -6.4045,-0.1459 -0.2042,0.1751 -0.3939,0.3355 -0.5544,0.569 -2.6989,1.2254 -2.9323,4.9893 -2.3634,7.5132 0.3939,1.0504 0.3939,1.0504 0.6128,1.4881 0.5835,0.7002 1.0795,1.3567 1.7652,1.9403 1.3714,0.6127 2.6698,0.9628 4.1578,1.1525z"/>
   <path id="_216101760" class="fil0" d="M22.9047 137.113c0.0438,-0.0292 0.0729,-0.0584 0.1021,-0.0875 1.1817,-0.2772 3.6034,-0.5252 4.1578,-1.8236 1.1671,-0.8316 1.561,-2.4072 1.9403,-3.7348 0,-1.1671 0,-2.2758 -0.3939,-3.3846 -0.5106,-0.9191 -1.1525,-1.7944 -1.7506,-2.6697 -2.4072,-1.6923 -4.931,-2.0425 -7.63,-0.7733 -2.8448,1.8674 -3.7347,4.5518 -3.1074,7.8488 0.4085,1.1525 1.2546,2.2175 2.13,3.0637 1.4589,1.1087 2.7864,1.3859 4.5517,1.561z"/>
   <path id="_216102072" class="fil5" d="M102.253 136.471c-0.0584,-0.9191 -0.2626,-2.4218 -0.3793,-3.8806 -2.1008,0.0583 -2.1008,0.0583 -2.626,0.0145 -0.4961,-0.3939 -0.5398,-1.736 -0.2189,-2.1591 0.0438,-0.2918 0.0438,-0.2918 0.0146,-0.3939 -1.1963,-0.2918 -2.4801,-0.1459 -3.6472,-0.5544 -2.6114,-2.874 -2.6114,-2.874 -3.1803,-3.5742 -0.1897,-1.5902 -0.073,-3.2242 -0.2626,-4.8143 -6.6088,-0.1459 -13.2321,0 -19.8408,0.1458 0.7002,2.6552 1.5318,5.2228 1.5318,7.9801 -0.1021,0.3647 -0.1751,0.5982 -0.4085,0.8754 -0.992,0.0437 -1.9841,0.0875 -2.9761,0.1458 -0.1313,1.7361 -0.3939,3.5014 -0.8316,5.1937 1.6777,0 3.3555,0 5.0186,0 -0.0292,-1.9112 -0.1897,-3.8515 0.2626,-5.7334 0.3793,-0.6274 1.3276,-0.5107 1.9695,-0.569 4.5371,-0.1751 9.0888,-0.1897 13.6113,0.1459 0.6274,0.0729 1.2401,0.175 1.8236,0.4085 0.0584,0.1167 0.0584,0.1167 0.1605,2.1008 0.0146,1.2108 0.0146,2.4217 0.0146,3.6472 2.0862,0 4.187,0 6.2732,0.1167 0.7732,0.1313 1.5318,0.2626 2.2904,0.3939 0.6274,0.1896 1.0213,0.3939 1.4006,0.5106z"/>
   <path id="_216101808" class="fil3" d="M55.7733 136.471c0.9629,-0.3647 2.3926,-0.7149 2.9907,-1.6048 1.8674,-1.3276 1.9111,-4.5371 1.7069,-6.5795 -0.1459,-0.5836 -0.2772,-1.2693 -0.9483,-1.4006 -0.8024,-2.6697 -4.6976,-2.6989 -6.8567,-2.1591 -1.1671,0.4085 -1.9841,0.817 -2.7573,1.8236 -0.5836,0.3501 -1.0066,1.7069 -1.2547,2.2613 0,0.5543 0,1.1087 0,1.6777 0.1751,1.5026 0.4961,2.5676 1.2693,3.866 1.736,1.6777 3.5159,1.9403 5.8501,2.1154z"/>
   <path id="_216102120" class="fil3" d="M23.6779 136.471c1.1671,-0.5398 2.5968,-0.6711 3.2387,-1.8528 1.7798,-1.2692 1.9695,-4.1578 1.561,-6.1273 -0.8607,-1.9257 -1.7506,-3.0491 -3.7639,-3.7639 -0.496,-0.1021 -0.992,-0.2043 -1.5027,-0.2918 -0.5981,-0.0146 -1.2108,-0.0292 -1.8236,-0.0438 -0.4084,0.1313 -0.8169,0.2626 -1.24,0.3939 -1.6777,0.89 -2.7427,1.9987 -3.3992,3.7931 -0.4377,1.9112 -0.2772,3.8661 0.9191,5.5146 0.1751,0.1751 0.3501,0.3647 0.5252,0.5544 1.8965,1.5318 3.0636,1.7069 5.4854,1.8236z"/>
   <path id="_216102192" class="fil2" d="M127.2 136.282c2.2321,-1.0941 4.3621,-2.2029 6.4483,-3.5305 0.0438,-0.0583 0.0729,-0.1021 0.1021,-0.1459 -0.2626,-0.1021 -0.2626,-0.1021 -0.992,-0.1896 -1.7799,0 -3.5889,0.0438 -5.3687,0.1167 -0.0292,1.2546 -0.1605,2.5093 -0.2918,3.7493 0.0438,0 0.073,0 0.1021,0z"/>
   <path id="_216101496" class="fil2" d="M39.7694 135.45c-0.3064,-1.7215 -0.6274,-3.443 -0.817,-5.1937 -0.2772,-0.0291 -0.5544,-0.0437 -0.8316,-0.0583 -0.0437,1.7798 -0.3793,3.4721 -0.7586,5.2082 0.8024,0.0146 1.6048,0.0292 2.4072,0.0438z"/>
   <path id="_216101856" class="fil0" d="M117.761 133.116c0.6565,-1.5465 -1.4735,-3.1366 -2.8448,-3.1366 -0.0876,0.1167 -0.0876,0.1167 -0.0876,0.2917 1.2838,0.2772 1.9987,0.7003 2.5677,1.8528 0.0583,0.3064 0.1167,0.6127 0.1604,0.9191 0.073,0.0146 0.1459,0.0438 0.2043,0.073z"/>
   <path id="_216101544" class="fil5" d="M100.999 131.949c0.321,-0.0291 0.6419,-0.0583 0.9629,-0.0875 0.0583,-0.6127 0.1167,-1.2109 0.1751,-1.809 0.8023,-3.443 2.7572,-5.7042 5.6896,-7.5862 2.553,-1.3422 5.1353,-2.057 8.0384,-2.057 1.7069,0.3793 1.7069,0.3793 3.1658,0.7732 1.0212,0.3355 2.7281,0.6857 3.2533,1.7361 1.3714,0.5398 1.7798,2.2175 2.9324,2.9907 0.7002,1.4151 1.4005,2.7281 1.8236,4.2453 0.1021,0.5544 0.2042,1.1088 0.3063,1.6631 0.7732,0.0146 1.5319,0.0292 2.2905,0.0438 -0.0146,-0.6127 -0.0438,-1.2109 -0.073,-1.809 -0.4376,-3.7493 -1.6631,-6.74 -4.4204,-9.3368 -2.378,-1.7799 -4.6246,-2.6406 -7.5716,-3.1366 -2.2904,-0.1751 -4.6392,-0.2626 -6.9005,0.248 -3.2241,0.992 -5.7917,2.1008 -7.9071,4.7997 -0.8316,0.2772 -1.2401,1.5464 -1.5464,2.2758 -0.7732,2.2905 -0.7732,2.2905 -1.1671,3.691 -0.2043,0.9337 -0.5836,1.9549 -0.5836,2.9178 0.2042,0.5252 1.0504,0.4231 1.5318,0.4376z"/>
   <path id="_216102744" class="fil5" d="M138.04 131.861c0.0584,-0.0729 0.0584,-0.0729 0.6274,-0.3939 0.9628,-1.7069 2.5822,-2.7719 4.0994,-3.9536 0.9483,-0.9774 1.634,-1.7798 2.0716,-3.0928 0.1459,-1.6048 0.2772,-3.2095 0.4085,-4.8143 -3.2971,0.1021 -6.8421,0.1459 -10.0663,0.9483 -0.2334,0.1021 -0.4668,0.2042 -0.7002,0.3063 -1.0504,3.4868 -1.1526,7.4112 -1.4443,11 1.6777,0 3.3408,0 5.0039,0z"/>
   <path id="_216102816" class="fil6" d="M132.306 131.861c0.2918,-3.6326 0.5106,-7.4257 1.5319,-10.9416 0.423,-0.8024 0.423,-0.8024 0.5981,-0.992 1.4151,-0.2043 1.4151,-0.2043 9.0742,-0.9921 0.817,-3.9973 2.451,-7.9947 1.7653,-12.1233 -0.3939,-1.2254 -0.7003,-2.2175 -1.5318,-3.1803 -0.6857,-1.2693 -1.386,-2.5385 -2.0862,-3.7931 -0.3939,-0.4231 -0.3939,-0.4231 -0.4961,-0.4669 -2.2466,-5.8647 -4.2453,-11.8023 -6.0689,-17.8129 -0.073,-0.0584 -0.1459,-0.1167 -0.2188,-0.1605 -1.0358,-1.4881 -0.7587,-3.5305 -1.4881,-5.1499 -0.0438,-0.0291 -0.1021,-0.0437 -0.1605,-0.0583 -0.744,-3.5451 -1.7652,-7.2215 -3.8222,-10.2414 -0.3794,-0.3793 -0.7003,-0.6273 -1.138,-0.8899 -0.6273,-0.9483 -2.3634,-1.2254 -3.3554,-1.5464 -1.9695,-0.1897 -4.0557,0.0584 -6.0252,0.2042 -5.3833,0.5398 -10.7519,1.4152 -16.1352,1.9404 -2.4947,0.4814 -5.0623,0.5106 -7.5424,1.0649 -0.7441,0.5398 -1.5756,1.065 -2.2467,1.6632 -0.5544,0.8461 -0.8316,1.7798 -1.1234,2.7427 0,18.1339 0.5836,36.2824 0.9337,54.4163 0.0438,0 0.0876,0.0145 0.1313,0.0291 1.0212,1.2109 2.0571,2.5531 3.2825,3.5743 0.9629,-0.0146 1.9257,-0.0146 2.874,-0.0146 0.2772,-0.8316 0.5398,-1.6631 0.8024,-2.4801 1.1379,-2.6843 2.5968,-4.9018 4.8143,-6.813 3.1074,-2.3342 6.3461,-3.2825 10.2268,-3.2825 0.7002,0.0584 1.4005,0.1313 2.0862,0.2043 2.9615,0.5398 5.5583,1.5756 8.1989,2.9761 0.8461,0.8607 1.6777,1.7361 2.5093,2.6114 0.6273,1.1963 1.1817,2.4072 1.6777,3.6764 0.2042,0.7732 0.3939,1.5464 0.5835,2.3342 0.1605,1.1525 0.3064,2.305 0.4523,3.4575 0.6419,0.0146 1.2692,0.0292 1.8965,0.0438z"/>
   <path id="_216102408" class="fil0" d="M58.9828 130.49c0.5252,-0.321 0.248,-1.2401 -0.3647,-1.2401 -0.1313,0.3501 -0.0146,1.1234 0.3647,1.2401z"/>
   <path id="_216102432" class="fil0" d="M26.8437 130.49c0.423,-0.2043 0.1459,-1.2839 -0.3064,-1.2839 -0.1751,0.3648 -0.1167,1.1088 0.3064,1.2839z"/>
   <path id="_216102888" class="fil5" d="M72.6963 129.425c0.0146,-0.7878 0.0292,-1.561 0.0292,-2.3342 -0.2334,-2.0571 -0.8462,-3.939 -1.4589,-5.9231 -0.7002,-1.065 -1.1963,-2.2758 -1.8965,-3.3554 -1.386,-1.386 -2.6698,-2.9324 -4.3621,-4.0265 -0.1313,-0.0438 -0.2626,-0.0876 -0.3939,-0.1167 -0.0438,-0.2481 -0.1459,-0.321 -0.3501,-0.4961 -2.3342,-1.1671 -4.931,-1.7944 -7.4695,-2.3925 -1.0212,0 -2.0424,0 -3.0636,0 -3.7931,0.3355 -7.1632,1.2692 -10.2268,3.5596 -1.8528,1.561 -3.3992,3.2534 -4.8873,5.1791 -0.2626,0 -0.3647,-0.2043 -0.5981,-0.248 -0.0292,-0.1313 -0.321,-0.4669 -1.809,-2.7719 -0.248,-0.248 -0.4231,-0.5106 -0.7586,-0.6419 -0.2918,-1.1817 -1.9549,-1.9695 -2.874,-2.5531 -1.5027,-0.8315 -3.0929,-1.8673 -4.7706,-2.305 0,-0.0438 0,-0.0729 0,-0.1021 -1.9841,-0.6565 -4.0994,-0.6711 -6.171,-0.7003 -3.2679,0.2043 -6.2441,1.065 -9.1472,2.626 -1.1817,0.8607 -2.4072,1.7361 -3.5159,2.6843 -0.2772,0.3648 -0.5544,0.4523 -0.9191,0.7295 -0.3502,0.4085 -0.3502,0.4085 -0.9483,1.3422 -0.8607,1.6923 -0.8607,1.6923 -2.6114,5.3395 -0.4377,2.1883 -0.7732,4.2745 -0.9045,6.5066 1.1233,0 2.2467,0 3.3554,0 0.321,-1.7944 0.817,-3.5889 1.3422,-5.3395 0.3355,-0.9191 0.7294,-2.4364 1.6923,-2.9178 0.7878,-1.5756 2.4801,-2.7427 3.8514,-3.7639 0.8024,-0.4523 0.8024,-0.4523 1.2109,-0.6127 0,-0.3648 2.5093,-1.1817 2.8011,-1.2984 0.6419,-0.1022 1.2692,-0.2043 1.8965,-0.2918 3.2971,-0.2043 6.3461,0.0729 9.5265,1.065 0.5981,0.2626 1.1963,0.5252 1.7798,0.8024 1.5027,0.9628 2.6114,1.809 3.5159,3.4137 1.0504,0.5252 1.5756,2.1592 2.0279,3.1658 0.3501,0.9337 0.6711,2.0133 1.1233,2.9178 0.1897,0.9628 0.1897,0.9628 0.4085,2.8594 1.313,-0.0876 1.0066,-0.7149 1.0066,-1.9403 0.1168,-0.321 0.1168,-0.321 0.2918,-0.5836 0.7003,-2.7573 2.2759,-6.4337 4.7852,-8.0238 0.5835,-1.313 2.2466,-1.8674 3.4429,-2.4655 1.6777,-0.569 3.3409,-1.1088 5.0623,-1.5027 3.0053,0 5.6313,0.2626 8.4616,1.3568 1.3275,0.6856 2.4946,1.4151 3.6909,2.3196 0.3064,0.9483 1.634,1.3276 2.0425,2.2904 0.4814,0.3648 0.6856,0.7441 1.0066,1.2547 0.817,1.7069 0.817,1.7069 1.6048,3.6034 0.2334,1.2255 0.4814,2.4509 0.6419,3.691 0.8461,0 1.6923,0 2.5384,0z"/>
   <path id="_216102792" class="fil0" d="M58.7786 129.089c0.6273,-1.5901 -3.2533,-3.8806 -4.0995,-2.8302 0.0146,0.0584 0.0146,0.1167 0.0146,0.1751 0.817,0.3355 1.7215,0.3209 2.5093,0.8024 0.4522,0.6419 0.9045,1.4443 1.5756,1.8527z"/>
   <path id="_216102480" class="fil0" d="M26.5957 129.089c0.7732,-1.2838 -2.8011,-3.7785 -4.0995,-3.0344 0,0.0437 0,0.0875 0,0.1313 0.8316,0.5835 1.9257,0.5543 2.6698,1.2984 0.3501,0.4522 0.8753,1.4005 1.4297,1.6047z"/>
   <path id="_216102912" class="fil4" d="M79.4947 120.73c0.1313,-0.0437 0.2626,-0.0729 0.3939,-0.1021 0,-0.0875 0,-0.175 -0.0146,-0.248 -1.24,-1.7361 -2.6406,-3.1512 -4.1578,-4.6392 -1.561,0 -3.122,0.0146 -4.683,0.0291 0.8899,1.5902 2.6406,3.0053 3.9827,4.2454 0.2481,0.1605 0.4815,0.3209 0.7149,0.4814 1.2546,0.073 2.5093,0.1459 3.7639,0.2334z"/>
   <path id="_216102768" class="fil4" d="M73.5133 120.628c0.5835,-0.0729 0.5835,-0.0729 0.7003,-0.1459 0,-0.4522 -0.6711,-1.0795 -1.0504,-1.313 -0.9629,-1.0066 -1.9404,-2.0716 -2.7865,-3.1803 -0.5252,-0.2189 -1.2984,-0.4085 -1.8382,-0.1459 0,0.0438 0,0.0875 0,0.1459 0.496,0.4231 0.8899,0.992 1.2838,1.5026 0.2043,0.1022 0.2043,0.1022 0.4669,0.3647 0.4376,0.9046 0.8315,2.1738 1.7214,2.7427 0.5107,0 1.0067,0.0146 1.5027,0.0292z"/>
   <path id="_216102984" class="fil4" d="M85.7679 120.482c0,-0.5543 -0.3647,-0.8315 -0.7732,-1.1525 -1.0358,-1.1379 -1.9695,-2.2758 -3.2387,-3.6326 -1.6632,0 -3.3409,-0.0292 -5.004,0.0584 0.6857,1.1671 1.7361,2.0132 2.7719,2.874 0.5398,0.5835 1.1817,1.0795 1.4297,1.8527 1.6048,0 3.2095,0 4.8143,0z"/>
   <path id="_216102264" class="fil4" d="M90.5384 120.438c0.2189,-0.0584 0.4231,-0.1022 0.6274,-0.1459 0,-0.2918 -0.2335,-0.4231 -0.4377,-0.5836 -1.1088,-1.4005 -2.2467,-2.9907 -3.7202,-4.0265 -1.2838,-0.0583 -2.5968,-0.1751 -3.8806,-0.1313 -0.0292,0.0146 -0.0583,0.0292 -0.1021,0.0584 0.1313,0.9482 1.4443,2.1153 2.057,2.8448 0.6128,0.6127 1.2255,1.2255 1.8382,1.8528 1.2109,0.0437 2.4218,0.0875 3.618,0.1313z"/>
   <path id="_216103056" class="fil4" d="M91.8952 119.899c-0.0584,-1.4151 -0.1167,-2.8302 -0.1751,-4.2454 -1.2692,0 -2.5238,-0.0729 -3.7639,0.1605 0.0584,0.1313 0.1897,0.1751 0.321,0.2334 1.0066,1.2255 2.2029,3.0637 3.618,3.8515z"/>
   <path id="_216103104" class="fil0" d="M99.5835 119.067c2.7427,-3.2825 6.9151,-5.6313 11.1167,-6.4045 0.1896,-0.2772 0.7003,-0.3793 1.0066,-0.4814 4.5663,-0.8462 9.4244,-0.6273 14.049,-0.6273 1.6924,0.6711 4.1141,0.7148 5.8356,0.1896 0.1605,-0.0875 0.3063,-0.175 0.4522,-0.248 1.5756,-4.2891 3.3263,-8.5344 5.0623,-12.7506 0,-3.2825 -2.057,-6.1127 -2.6259,-9.2931 -2.4218,-5.996 -4.3183,-12.1671 -6.2295,-18.3381 -0.6273,-1.6777 -1.9111,-5.9231 -4.4787,-4.2891 -8.87,0.8315 -17.7254,1.9111 -26.5809,2.9177 -0.5543,0.5544 -1.2254,0.9483 -1.6631,1.6048 -0.4668,6.244 0.3064,12.5172 0.6273,18.7466 0.7878,5.8793 0.1897,11.817 0.8316,17.6963 0.0146,3.1949 0,6.4045 0.3355,9.5848 0.0876,0.4377 0.2043,1.2838 0.5398,1.6194 0.5836,0.0146 1.1525,0.0437 1.7215,0.0729z"/>
   <path id="_216103200" class="fil7" d="M38.5585 118.483c0.4522,-1.3714 2.1737,-2.6844 3.1366,-3.6764 4.7851,-3.5889 10.0954,-5.4125 16.1206,-4.6684 1.6048,0.3501 3.691,0.744 5.0332,1.7069 1.7944,0.5543 3.1657,1.8236 4.5809,3.0053 4.2891,0.0583 4.2891,0.0583 24.3195,0.0437 -0.0438,-2.9615 -0.0875,-5.9085 -0.1459,-8.8554 -26.2598,-0.1021 -52.5781,-0.4668 -78.8379,0.1167 -0.2335,0.3064 -0.2772,0.7295 -0.4815,1.065 -0.6273,1.9695 -1.4443,3.9098 -1.6339,5.9668 1.2984,-0.5106 2.5238,-1.3276 3.7201,-2.0424 0.5982,-0.2772 1.1963,-0.5398 1.7799,-0.8024 2.8594,-0.9191 5.4854,-0.992 8.4469,-0.6857 1.5026,0.2626 3.0199,0.5252 4.4788,0.9775 3.122,1.5026 5.8209,3.1803 8.0822,5.8355 0.4814,0.6857 0.4814,0.6857 1.1962,1.9403 0.073,0.0146 0.1459,0.0438 0.2043,0.073z"/>
   <path id="_216099240" class="fil8" d="M99.3939 118.44c0.2626,-0.2334 1.2984,-1.4151 1.9403,-2.0716 1.6485,-1.2984 3.2387,-2.2029 5.2228,-2.9178 5.4416,-1.561 5.4416,-1.561 6.9442,-2.0424 3.3701,-0.3356 6.7109,-0.3939 10.0955,-0.3939 6.813,0.3939 6.813,0.3939 7.4695,0.3939 0.6419,-0.5252 0.9045,-1.3568 1.2692,-2.0862 1.2546,-3.691 3.1366,-7.2215 4.1578,-10.9708 -9.366,0.2188 -18.7466,0.5981 -28.1126,0.8462 -0.8462,0.1167 -1.6923,0.2334 -2.5531,0.3501 -1.313,-0.1605 -1.4297,1.7361 -1.6777,2.6989 1.6777,0.0438 0.8608,0.9045 0.8608,2.1737 -0.1168,0.1897 -0.2335,0.3939 -0.3502,0.5982 -1.0066,0.8607 -2.6406,1.2838 -3.7785,0.4377 -0.1896,-0.2918 -0.3939,-0.8462 -0.8315,-1.6048 -0.3064,-0.9191 0.4814,-1.1817 1.2838,-1.2692 0.2188,-1.0213 0.423,-2.0425 0.6273,-3.0637 -2.5239,0.0729 -2.5239,0.0729 -4.6684,0.2042 0,6.2149 0.423,12.4297 0.8024,18.63 0.2771,0.0583 0.2771,0.0583 1.2984,0.0875z"/>
   <path id="_216099696" class="fil0" d="M135.18 117.418c1.561,-0.8316 2.1446,-2.4363 0.3939,-3.4867 -0.8024,-0.1897 -1.4297,-0.1022 -2.0716,0.3939 -0.1313,0.2334 -0.2626,0.4668 -0.4085,0.7148 0,0.321 -0.0146,0.6419 -0.0292,0.9629 0.3502,0.9774 1.0796,1.313 2.1154,1.4151z"/>
   <path id="_216099648" class="fil2" d="M134.976 116.791c0.6857,-0.5544 0.8899,-0.2626 0.9628,-1.138 -0.2626,-1.1962 -1.2254,-1.488 -2.1153,-0.5981 -0.4377,0.8899 0.2626,1.5464 1.1525,1.7361z"/>
   <path id="_216099480" class="fil0" d="M141.497 115.712c0.0437,-0.073 0.0437,-0.073 0.4231,-0.1751 2.3779,-2.0132 2.2904,-6.5795 0.1167,-8.7533 -1.2255,-0.3501 -1.6777,-0.0291 -2.451,0.9337 -1.0649,2.378 -1.3713,6.1565 1.065,7.7759 0.5982,0.1896 0.5982,0.1896 0.8462,0.2188z"/>
   <path id="_216099312" class="fil2" d="M141.599 114.982c0.0729,-0.2043 0.569,-0.8754 0.9483,-1.5756 0.6127,-1.8236 0.3939,-4.1724 -0.5398,-5.8356 -2.1883,-1.561 -2.4947,3.3992 -2.5239,4.4496 0.2043,1.4151 0.496,2.7427 2.1154,2.9616z"/>
   <path id="_216099744" class="fil9" d="M103.187 105.499c0.073,-0.817 0.073,-0.817 0.1605,-1.0504 0.321,0.0438 0.817,0.2918 1.1234,0.0876 0,-0.3939 -0.3793,-0.6419 -0.3793,-1.0796 0.248,-0.1751 0.4084,-0.2334 0.7002,-0.2918 0,-0.1021 -0.0146,-0.2042 -0.0292,-0.3064 -0.248,-0.1021 -0.248,-0.1021 -0.9045,-0.2042 -0.7002,-0.7003 0.4523,-2.13 0.7587,-2.9324 0,-0.8753 -0.1022,-0.8753 -0.9337,-1.3275 -0.7295,0 -0.6565,0.0291 -1.0942,0.6565 -0.496,1.2546 -0.5835,2.6405 -0.9045,3.9389 -0.5106,0.1459 -1.1963,0.2918 -1.1963,0.9191 0.3064,0.1022 0.3064,0.1022 0.8899,0.1459 0.0292,0.2189 -0.0583,0.7003 -0.0583,1.1817 0.5689,0.0438 0.5981,0.073 0.8899,-0.3939 0.0729,-0.0146 0.1313,-0.0146 0.1897,-0.0146 0.2626,0.3793 0.3501,0.5836 0.7877,0.6711z"/>
   <path id="_216099792" class="fil10" d="M20.4684 105.456c11.0145,-0.0438 22.0145,-0.073 33.0144,-0.1022 -0.2188,-3.3992 -2.0862,-6.8129 -3.1803,-9.9641 -0.3793,-1.313 -0.3793,-1.313 -0.6711,-2.5677 -1.6048,-3.6763 -2.4655,-7.6153 -3.5013,-11.4814 -0.6419,-1.7944 -1.2984,-3.5742 -1.9549,-5.3541 -0.7149,-2.5092 -1.3422,-5.1644 -2.3342,-7.5861 -0.4669,-0.7587 -1.2109,-0.642 -2.0716,-0.7003 -0.4085,-0.1021 -0.8316,-0.2043 -1.2547,-0.2918 -4.7705,-0.5106 -9.6286,-1.3567 -14.4429,-1.3567 -0.6419,0.0875 -0.6419,0.0875 -0.744,0.1604 -1.7799,9.687 -3.8369,19.374 -5.2082,29.1339 -1.138,3.1366 -1.313,6.7254 -1.7361,10.0079 1.3713,0.0292 2.7281,0.0584 4.0849,0.1022z"/>
   <path id="_216099216" class="fil4" d="M65.6353 105.353c-0.5835,-2.1883 -1.8673,-4.2891 -2.8886,-6.2877 -0.3063,-0.5107 -0.6127,-1.0942 -1.0358,-1.5173 -1.2108,-0.0438 -1.2108,-0.0438 -9.8766,-0.0583 0.569,2.6697 1.8674,5.1498 2.4363,7.8196 3.7931,0.0146 7.5862,0.0291 11.3647,0.0437z"/>
   <path id="_216099192" class="fil0" d="M29.1195 102.348c0.1897,-0.1313 0.3793,-0.2626 0.569,-0.3793 0.6565,-1.8528 0.8899,-5.2665 -0.2918,-6.988 -2.6406,-0.1021 -5.3103,-0.2918 -7.9509,-0.2918 -1.3713,0.248 -1.4881,1.1233 -1.6339,2.4363 -0.0146,1.4297 -0.0292,2.8594 -0.0438,4.2892 0.1167,0.4084 0.3501,0.6273 0.7003,0.8461 2.6259,0.0584 2.6259,0.0584 8.6511,0.0875z"/>
   <path id="_216099432" class="fil11" d="M29.032 101.662c0.0729,-0.1897 0.0729,-0.1897 0.1751,-0.8316 0.0875,-1.7361 0.0875,-3.5013 -0.1022,-5.2228 -2.8448,-0.0146 -5.6896,-0.0146 -8.5344,-0.0146 -0.3502,1.809 -0.2626,4.2016 0,6.0252 2.8302,0.0146 5.6458,0.0292 8.4615,0.0438z"/>
   <path id="_216099504" class="fil12" d="M100.167 99.0365c0.8607,-0.1459 1.7214,-0.2043 2.4509,-0.6711 0,-1.7798 -2.9761,-0.4377 -3.2825,-1.7069 -0.3793,-0.1897 -0.4377,-0.5398 -0.5544,-0.9191 -0.4814,-4.6101 -0.4814,-9.3223 -0.7878,-13.9469 -1.2838,-1.4735 -0.9774,-4.4496 -0.6711,-6.244 0.3648,-1.0504 0.7878,-2.0425 1.3422,-2.9907 0.6419,-0.7295 0.6419,-0.7295 2.4509,-2.5093 -1.561,0 -2.8885,-0.1021 -4.2745,0.7294 -1.1671,1.2401 -0.7732,3.3409 -0.6273,4.8727 0.1896,7.7904 0.6273,15.5954 1.0358,23.3859 0.9775,0 1.9549,0 2.9178,0z"/>
   <path id="_216100536" class="fil2" d="M105.9 98.9344c1.0358,-1.7215 -2.5677,-3.1804 -3.0345,-2.2467 0.0292,0.4522 0.0438,0.5543 0.3064,0.9045 2.3633,1.2109 2.3633,1.2109 2.7281,1.3422z"/>
   <path id="_216100200" class="fil12" d="M107.214 98.7447c9.6723,-1.1963 19.5927,-0.6273 29.3235,-1.1088 -0.0438,-0.2188 -0.0875,-0.4376 -0.1313,-0.6564 -0.0292,-0.0146 -0.073,-0.0292 -0.1167,-0.0292 -0.4085,-1.8236 -1.0067,-3.4138 -1.7215,-5.1499 -0.9191,-3.7055 -2.8886,-7.1047 -3.691,-10.8541 -0.1313,-0.3063 -0.2626,-0.6127 -0.3939,-0.9191 -0.3793,-1.2692 -2.7135,-8.2718 -3.5013,-10.4601 -0.2334,-0.6274 -0.5544,-1.2109 -0.8899,-1.7799 -1.4881,-0.7148 -3.618,-0.2918 -5.2082,-0.1459 -1.7507,0.2189 -3.5013,0.4523 -5.252,0.6857 -0.0875,0.0292 -0.1896,0.0584 -0.2918,0.1021 -1.7506,0.1751 -3.7639,0.1022 -5.4562,0.4669 0.1459,0.2918 1.4005,0.4814 1.809,0.7002 0.6857,0.1897 1.3714,0.3793 2.0425,0.5836 3.3408,-0.6273 6.8567,-1.561 10.2559,-0.7878 0.744,0.3501 1.1088,0.5106 1.4443,1.2546 1.065,3.1075 2.305,6.1711 3.0053,9.3806 0.7878,1.561 1.2692,3.2096 1.5902,4.9311 0.0729,0.1167 0.1459,0.2334 0.2188,0.3647 0.3793,1.3713 0.817,2.626 1.9841,6.7692 0.3939,1.0212 0.3939,1.0212 0.6419,1.5026 0,1.4589 -0.2334,2.1738 -1.7361,2.699 -7.6591,0.2626 -15.3182,0.5398 -22.992,0.8169 -0.6856,0.1459 -0.7002,0.4815 -1.0066,1.1088 -0.0729,0.0146 -0.1459,0.0292 -0.2188,0.0438 -0.073,0.1604 -0.1459,0.3209 -0.2334,0.4814 0.175,0 0.3501,0 0.5252,0z"/>
   <path id="_216100512" class="fil2" d="M106.834 97.6797c1.0503,-0.8461 -1.313,-2.378 -1.8091,-2.6697 -1.8382,-0.5544 -1.1379,0.9628 -0.1604,1.7069 0.6127,0.3209 1.313,0.7732 1.9695,0.9628z"/>
   <path id="_216100296" class="fil2" d="M102.253 96.7023c1.2692,-1.1671 2.1591,-2.6844 3.5742,-3.6764 0.2918,-0.1459 0.5836,-0.2918 0.8754,-0.4377 0,-0.0438 0,-0.0875 0,-0.1313 -0.8608,-0.3939 -2.6552,-1.4589 -3.5889,-1.4589 -0.1313,0.2043 -0.2626,0.4085 -0.4085,0.6128 -1.6485,1.1671 -2.9032,-0.7003 -1.7361,-2.1738 0,-1.2108 -1.1962,-2.6405 -2.0132,-3.4138 0,2.9616 0.248,6.0252 0.3647,8.9868 0.5106,1.8236 1.1525,1.6485 2.9324,1.6923z"/>
   <path id="_216100440" class="fil2" d="M110.467 96.4688c0.1604,-0.0729 0.3063,-0.1313 0.4522,-0.1896 0,-0.0438 0,-0.0875 0,-0.1167 -0.1459,0 -0.3063,0 -0.4668,0 -0.1313,0.1459 -0.1313,0.1459 -0.1751,0.3063 0.073,0 0.1313,0 0.1897,0z"/>
   <path id="_216100152" class="fil2" d="M108.483 96.4688c0.3355,-1.0212 -1.3422,-2.9031 -2.4072,-2.9031 -0.3063,0.1459 -0.9774,0.3793 -1.0649,0.7586 0.0291,0.0438 0.0583,0.0875 0.0875,0.1459 1.1233,0.9337 1.9111,1.8236 3.3846,1.9986z"/>
   <path id="_216100368" class="fil13" d="M112.859 96.4105c1.1671,-0.0875 2.3342,-0.1605 3.5014,-0.1897 -0.0876,-0.4376 -0.4377,-0.8315 -0.6565,-1.2108 -0.2626,-1.4881 -3.2534,0.175 -3.8223,0.423 -0.0438,0.6711 0.3939,0.9337 0.9774,0.9775z"/>
   <path id="_216100488" class="fil13" d="M109.737 96.4105c0.3939,-0.8899 0.8316,-0.8608 1.6632,-0.4814 -0.3356,-1.386 -0.89,-2.3926 -2.1446,-3.0929 -0.8462,-0.248 -1.6923,-0.2042 -2.4509,0.2626 0.5398,0.5252 1.0795,1.0504 1.6047,1.5902 0.2918,0.6127 0.5398,1.634 1.3276,1.7215z"/>
   <path id="_216099960" class="fil2" d="M119.614 96.1187c0.6856,-0.0875 1.488,-0.0438 1.8819,-0.6711 0.1897,-0.6419 0.3793,-1.2692 0.5544,-1.8965 -1.1379,-0.0584 -0.5252,0.2772 -0.7878,1.065 -1.0504,0 -3.6764,-0.3648 -2.7719,1.4588 0.3793,0.0146 0.7586,0.0292 1.1234,0.0438z"/>
   <path id="_216100080" class="fil2" d="M124.72 95.9728c0.1897,-0.0875 0.3794,-0.1605 0.5544,-0.2334 0.1751,-0.744 -1.0358,-1.4735 -1.4589,-1.9695 -0.8023,0 -0.9336,1.6631 -0.992,2.2029 0.6419,0 1.2692,0 1.8965,0z"/>
   <path id="_216100920" class="fil1" d="M122.284 95.9728c0.1751,-0.9628 0.1751,-0.9628 0.3793,-1.6047 0.2626,-0.4669 0.2626,-0.4669 0.3064,-0.6711 -0.4669,0 -0.9629,1.2254 -1.0942,1.5464 0,0.1605 0,0.3209 0,0.496 0.1751,0.1605 0.1751,0.1605 0.4085,0.2334z"/>
   <path id="_216100704" class="fil1" d="M127.448 95.8269c0.5397,-0.5398 1.1671,-1.0066 1.7652,-1.488 0.496,-0.5982 0.496,-0.5982 0.6711,-0.7295 0.7586,0.1167 1.0796,1.3276 1.1087,1.9841 1.2401,0 0.1459,-1.6339 -0.1167,-2.0278 -0.5981,-0.5982 -3.5159,-3.691 -4.2745,-1.9841 0.0146,0.1167 0.0292,0.248 0.0438,0.3793 0.8315,0.0875 2.9177,0.1313 2.9177,1.3422 -0.6273,0.5106 -1.2546,1.0212 -1.8965,1.5464 -1.0358,0.4522 -1.7361,-0.3356 -2.4363,-1.0358 -0.2772,0 -0.5398,-0.0292 -0.7733,0.0875 0,0.0292 0,0.0584 0,0.1021 0.6711,0.6419 1.1671,1.0067 1.561,1.7945 0.4815,0 0.9629,0.0145 1.4298,0.0291z"/>
   <path id="_216101280" class="fil13" d="M117.615 95.7832c0.3793,-0.7441 0.3793,-0.7441 0.4377,-0.9775 -0.1022,0.0292 -0.1022,0.0292 -0.5107,0.4231 -0.6856,0.0438 -0.9628,0.0292 -1.2984,-0.5836 0,-1.0649 0.9337,-0.5397 1.6048,-0.6127 -0.3355,-1.0504 -0.8753,-1.9841 -1.4151,-2.9469 -0.2918,-0.3356 -0.4085,-0.5252 -0.8316,-0.5836 -0.992,0.6565 0.4523,4.1432 0.7878,4.8143 0.4085,0.248 0.7441,0.4085 1.2255,0.4669z"/>
   <path id="_216101016" class="fil2" d="M130.162 95.7394c0.7586,-0.2626 0.6273,-0.496 0.2626,-1.1087 -0.3793,-0.2335 -0.817,-0.569 -0.9629,0.0729 -0.3793,0.2772 -0.8899,0.569 -1.0504,1.0358 0.5836,0 1.1671,0 1.7507,0z"/>
   <path id="_216100968" class="fil2" d="M132.058 95.01c0.2772,-1.2255 0.0438,-2.5093 -0.5981,-3.6035 -0.4377,-1.9695 -0.9629,-3.9098 -1.561,-5.8355 -1.0358,-2.8448 -2.0716,-5.6751 -3.1074,-8.5053 -0.7149,-2.3342 -1.1234,-5.1498 -2.7427,-7.0902 -0.073,-0.0583 -0.1459,-0.1167 -0.2189,-0.175 -3.297,0 -6.492,0.5106 -9.7599,1.0358 0.248,1.5318 2.9178,1.1525 3.939,1.1379 1.8819,-0.248 4.2891,-1.2838 5.3249,0.8024 0.4523,1.4297 1.0504,2.8156 1.561,4.2308 0.1751,0.7002 0.4814,1.4734 0.4231,2.2029 -0.1021,-0.0146 -0.2043,-0.0146 -0.321,-0.0146 -0.2334,-0.3647 -0.3209,-0.6857 -0.4376,-1.1088 -0.9045,-1.809 -0.9483,-3.9244 -2.0133,-5.675 -0.1021,-0.0876 -0.2042,-0.1751 -0.3064,-0.248 -1.9694,-0.1459 -4.1432,0.0146 -6.0835,0.3939 -0.1021,0.0437 -0.2188,0.0875 -0.3355,0.1313 0.2334,1.9549 1.9986,2.1008 3.049,3.5013 0.0876,0.2188 0.1605,0.4376 0.2334,0.6711 0,0.9337 -0.1896,1.9695 0,2.874 0.1605,0.2917 0.321,0.5835 0.4669,0.8899 0.1459,0.1021 0.1459,0.1021 1.2109,0.3939 0.9628,0.4814 0.9045,2.0278 -0.1459,2.378 -0.3939,0 -0.8024,0.0146 -1.2109,0.0291 -0.5544,1.8091 -0.9191,3.9536 -2.13,5.4708 -0.4376,0.2918 -0.7294,0.569 -1.0649,0.9629 1.6047,0.5252 3.3846,-0.1167 5.0185,0.2188 0.1605,0.2043 0.2042,0.4523 0.2626,0.7003 0.248,0.1167 0.7732,0.2042 0.9337,0.2772 0.4668,0.9483 2.4071,-0.7149 3.3408,-0.1605 0.4377,0.0292 0.8754,0.0584 1.313,0.0875 2.699,0.4815 4.1432,1.2985 4.8143,4.0266 0.0584,0 0.1022,0 0.1459,0z"/>
   <path id="_216101040" class="fil2" d="M111.736 95.01c0.8899,-1.6486 3.7785,0.248 3.1658,-2.4801 -0.569,0.1604 -1.4443,0.5397 -2.5385,0.9336 -1.2546,0.0584 -1.2546,0.0584 -1.4151,0.1022 0,0.4668 0.4523,0.9628 0.5981,1.4443 0.073,0 0.1313,0 0.1897,0z"/>
   <path id="_216101424" class="fil2" d="M117.28 94.9078c0.1751,-0.3939 0.1751,-0.3939 0.1897,-0.5835 -0.0438,-0.0438 -0.0875,-0.0875 -0.1313,-0.1313 -0.9045,0.0729 -0.9045,0.6127 -0.0584,0.7148z"/>
   <path id="_216101064" class="fil2" d="M127.302 94.6598c0.5106,-0.423 1.0212,-0.8315 1.5318,-1.24 0.1167,-0.7295 -0.9191,-0.8754 -1.4881,-0.8754 -1.24,0.3064 -1.9403,1.6194 -0.4376,2.0863 0.1313,0 0.2626,0.0145 0.3939,0.0291z"/>
   <path id="_216101112" class="fil2" d="M120.883 94.1346c-0.0292,-1.2254 -0.0584,-2.4363 -0.1021,-3.6472 -0.9775,0 -1.1234,1.1525 -1.2401,1.882 0,-0.6565 -0.0146,-1.2984 -0.0292,-1.9403 -0.3355,0 -0.6711,0 -1.0212,0 0,1.2108 0,2.4217 0,3.6472 0.3356,0.0146 0.6565,0.0292 0.9775,0.0583 0.0146,-0.5835 0.0291,-1.1671 0.0291,-1.736 0.1751,0.9191 0.3502,1.6193 1.386,1.736z"/>
   <path id="_216101448" class="fil9" d="M125.843 93.2593c0.0146,-0.0292 0.0292,-0.0584 0.0292,-0.0875 -0.2918,-0.2626 -0.2918,-0.2626 -0.4377,-0.4815 0.0292,-0.0437 0.0292,-0.0437 0.7732,-0.1459 -0.1751,-0.2042 -0.4377,-0.2625 -0.4377,-0.5543 0.1459,-0.0876 0.248,-0.0876 0.2918,-0.2772 -0.1896,-0.0438 -0.3064,-0.0146 -0.4814,0.0583 -0.0438,-0.0291 -0.0875,-0.0583 -0.1459,-0.0875 0,-0.1605 0,-0.3064 -0.0146,-0.4522 -0.1167,0.0583 -0.2334,0.1313 -0.3501,0.2042 -0.1605,-0.1167 -0.3939,-0.2042 -0.4669,-0.1897 -0.175,0.4815 -0.3209,0.5252 -0.8315,0.569 -1.1234,-0.1896 -1.1234,-0.1896 -2.4072,-0.496 0,0.5252 0,1.065 -0.0146,1.6048 1.4881,0.1313 2.9907,0.2917 4.4934,0.3355z"/>
   <path id="_216010040" class="fil2" d="M118.111 93.2009c-0.0146,-0.9045 -0.0292,-1.809 -0.0583,-2.7135 -0.4523,0 -0.9046,0 -1.3568,0 0,0.0292 0,0.0584 0,0.0876 0.0438,0 0.0729,0 0.1021,0 1.1963,2.4801 1.1963,2.4801 1.313,2.6259z"/>
   <path id="_216010064" class="fil13" d="M111.926 93.0551c1.1817,-0.2335 2.203,-0.2335 2.7573,-1.3568 0.0146,-0.2042 0.0146,-0.3939 0.0146,-0.5836 -1.2254,0.2189 -2.3342,0.9046 -3.5013,1.3276 -0.6273,0.1021 -0.6273,0.1021 -0.9774,0.2189 -0.0146,0.0291 -0.0292,0.0583 -0.0438,0.1021 0.569,0.1459 1.1671,0.2334 1.7506,0.2918z"/>
   <path id="_216010160" class="fil9" d="M110.525 92.0922c0.0146,-0.0292 0.0292,-0.0584 0.0438,-0.0729 0.9629,-0.2481 2.5676,-0.2481 3.2387,-1.0504 2.7865,-1.1671 4.0849,-4.0557 5.004,-6.7547 0.0291,-0.3939 0.0437,-1.1233 0.2772,-1.4443 0.1021,0 0.1896,0 0.2771,0 0.8024,0.3939 2.1008,-0.1458 1.4881,-1.1671 -0.5106,-0.3647 -0.9045,-0.4668 -1.4589,-0.0583 -0.0437,0 -0.1021,0 -0.1605,0 -0.1604,-0.2043 -0.175,-0.4377 -0.2042,-0.6857 -1.4005,-0.1313 -3.1658,-0.5981 -4.4058,0.2918 0.5689,0.2042 1.1087,0.2772 0.6711,0.9337 -0.5544,0.3647 -1.0796,0.6419 -1.4881,0.0146 0,-0.2043 0,-0.4085 -0.0146,-0.5982 -1.2109,0.3793 -2.4217,0.7149 -3.6618,0.9775 -0.8169,0.0729 -1.6485,0.1604 -2.4801,0.248 -1.6777,0 -1.6777,0 -3.7931,-0.1167 0,1.0358 0.1313,2.1591 -0.248,3.1366 -0.5835,0 -0.8024,-1.4443 -0.992,-1.8966 -0.0292,-0.0146 -0.073,-0.0292 -0.1167,-0.0292 -0.0438,0.817 -0.1021,1.634 -0.1605,2.4655 -0.2334,1.2693 -0.4085,2.1592 -0.3064,3.3701 -0.0583,0.0583 -0.0583,0.0583 -0.6856,0.2626 -0.9629,0.6856 -0.0438,1.984 0.9482,1.3275 0.1313,-0.248 0.321,-0.9336 0.4523,-1.0358 0.7586,0.2335 1.3859,0.6711 2.0716,1.065 1.9257,0.6128 3.691,0.7732 5.7042,0.817z"/>
   <path id="_216010304" class="fil0" d="M101.626 90.9251c0.1751,-0.248 0.5107,-0.6273 0.5107,-0.9483 -0.4523,0 -0.7295,0.5544 -0.8024,0.9483 0.1021,0 0.2042,0 0.2917,0z"/>
   <path id="_216010328" class="fil0" d="M34.9113 90.823c0.9628,-0.321 1.9257,-0.6419 2.874,-0.9483 0.5252,-0.2918 1.1087,-0.496 1.4005,-1.0504 1.6777,-0.7294 2.5239,-3.1949 3.0053,-4.8143 0.321,-1.9549 -0.3793,-4.3621 -1.0212,-6.2294 -0.2626,-0.5106 -0.4085,-0.9775 -0.9775,-1.1671 -0.8024,-1.6048 -3.4867,-2.3197 -5.0769,-2.7865 -1.9986,0.0438 -4.8726,0.0875 -6.4482,1.5026 -0.073,0.1313 -0.1459,0.2626 -0.2335,0.4085 -1.5026,0.4085 -2.7281,3.4284 -2.9323,4.8581 -0.0292,0.4523 -0.0584,0.9045 -0.0875,1.3568 0.0875,2.8302 0.8023,5.0477 3.0198,6.9442 0.4815,0.2918 0.9629,0.5836 1.4443,0.8754 1.6632,0.6711 3.2533,0.9337 5.0332,1.0504z"/>
   <path id="_216010232" class="fil11" d="M34.955 90.1373c1.1672,-0.5398 2.4218,-0.9629 3.5889,-1.5027 3.0928,-2.8594 3.9098,-6.4774 2.0862,-10.3288 -2.6843,-3.939 -7.0902,-4.9311 -11.2042,-2.451 -1.6777,1.2401 -2.6698,2.626 -3.2387,4.6393 -0.1751,1.2254 -0.2043,2.4071 0.0437,3.618 0.7149,2.1592 1.9549,4.1286 4.0411,5.1645 0.5398,0.1896 1.0796,0.3939 1.6194,0.5981 1.0212,0.1459 2.0278,0.2188 3.0636,0.2626z"/>
   <path id="_216010472" class="fil0" d="M112.465 90.0498c0.6711,-0.4815 1.3714,-1.1671 1.1234,-2.0717 -0.2772,-0.175 -0.4231,0.073 -0.5982,0.2481 -0.7002,0.1167 -2.3196,-0.0292 -2.8302,0.4814 -0.1751,1.1087 1.561,1.313 2.305,1.3422z"/>
   <path id="_216009752" class="fil2" d="M112.276 89.6996c0.3939,-0.5398 0.9045,-0.4814 1.065,-1.1671 -0.8316,0.0292 -1.882,0.1021 -2.5531,0.6273 0.0146,0.073 0.0146,0.1459 0.0146,0.2189 0.496,0.1605 0.9483,0.2626 1.4735,0.3209z"/>
   <path id="_216009968" class="fil0" d="M107.899 88.9264c0.7295,-0.4085 0.9483,-0.5981 0.9483,-1.4297 -0.4231,-0.8607 -1.3422,-1.6048 -2.2321,-0.8753 -0.2626,0.4814 -0.3063,0.8607 -0.3355,1.4005 0.3939,0.7149 0.8315,0.817 1.6193,0.9045z"/>
   <path id="_216009824" class="fil14" d="M49.3104 88.7368c5.4854,-3.6472 11.0584,-7.2653 16.6167,-10.7812 0.2043,-0.0875 2.7573,-1.8965 5.6313,-3.8514 4.7997,-3.0928 9.6724,-6.1127 14.5305,-9.1326 1.2692,-1.0358 2.6405,-1.9987 4.1432,-2.6698 5.5583,-3.618 11.1021,-7.236 16.6458,-10.8395 3.122,-1.24 5.4708,-3.9681 8.3886,-5.6167 0.6711,-0.2917 1.2692,-0.5252 1.8236,-0.992 1.5902,-1.0066 3.1804,-2.0133 4.7705,-3.0199 2.2175,-1.8236 4.8435,-3.37 7.3674,-4.7413 3.2533,-2.203 6.5066,-4.4059 9.8912,-6.3899 0.4231,-0.4961 0.9775,-0.8462 1.4881,-1.2401 2.7573,-1.6923 2.7573,-1.6923 5.5145,-3.2825 0.6419,-0.4522 1.7215,-0.8899 1.634,-1.7944 -0.3939,-0.7149 -0.3939,-0.7149 -1.6486,-2.6552 -0.0583,-0.0146 -0.1167,-0.0291 -0.1896,-0.0291 -2.305,1.2108 -4.4204,2.7864 -6.7838,3.8952 -1.6048,0.9191 -3.7785,1.8527 -5.0186,3.2533 -3.1949,1.8236 -6.171,4.1286 -9.5119,5.6458 -3.7493,2.5239 -7.6445,4.8289 -11.5981,7.0319 -3.8806,2.3196 -7.805,4.6684 -11.6419,7.0609 -0.248,0.2626 -0.248,0.2626 -0.8461,0.7295 -3.7493,2.3196 -7.6008,4.5225 -11.423,6.7108 -1.2693,0.569 -2.3926,1.2401 -3.4868,2.1008 -2.9615,1.7945 -5.923,3.6035 -8.8992,5.4125 -3.4137,1.9257 -6.6816,4.1286 -10.0662,6.1273 -1.6923,0.8461 -3.6035,1.6485 -5.0186,2.9177 -4.0849,2.0425 -7.9655,4.6831 -11.8023,7.1486 -0.89,0.3939 -2.9178,1.0504 -2.9178,2.2612 0.1021,0.1167 0.1021,0.1167 0.4814,1.1963 0.3939,1.4005 0.7878,2.8157 1.1671,4.2308 0.3939,1.0358 0.3939,1.0358 0.5544,1.2838 0.0729,0 0.1459,0.0146 0.2042,0.0292z"/>
   <path id="_216009944" class="fil15" d="M101.378 88.5325c0.7003,-1.7798 0.4085,-3.8368 0.7149,-5.7042 0.0583,-0.0584 0.1021,-0.1167 0.1459,-0.1605 0.5398,0.1313 0.8607,1.3568 1.065,1.7799 0.2626,-0.3939 0.0583,-1.4443 0.0437,-1.9112 -1.5902,-0.2042 -3.1803,-0.4085 -4.7851,-0.6127 0.0875,2.057 0.8753,5.5292 2.8156,6.6087z"/>
   <path id="_216010928" class="fil2" d="M108.235 88.2991c0.4814,-0.9774 0.0292,-1.5902 -1.0358,-1.5902 -0.1897,0.1021 -0.1897,0.1021 -0.248,0.2189 1.1962,0.0583 1.2254,0.3063 1.2838,1.3713z"/>
   <path id="_216010568" class="fil2" d="M107.607 87.7156c0,-0.073 0,-0.1459 0,-0.2043 -0.0584,0 -0.1168,0 -0.1897,0 0.0875,0.1605 0.0875,0.1605 0.1897,0.2043z"/>
   <path id="_216011144" class="fil0" d="M34.5174 87.3654c1.2692,-0.4522 2.2175,-0.8024 3.1366,-1.7798 1.7944,-0.5106 0.9045,-4.3913 0.744,-5.5584 -1.7506,-2.7281 -4.8289,-3.7493 -7.5424,-1.7214 -1.5464,1.4588 -1.9987,2.8302 -1.9987,4.931 0.1313,0.5689 0.3502,1.1087 0.6128,1.6339 1.2254,1.882 2.8885,2.3342 5.0477,2.4947z"/>
   <path id="_216011216" class="fil0" d="M112.655 87.132c0.7003,-0.7003 -0.1897,-1.5318 -0.992,-1.1379 0.0145,0.0875 0.0145,0.175 0.0145,0.2772 0.2189,0 0.4377,0 0.6419,0 0.2189,0.2188 -0.0145,0.7148 0.3356,0.8607z"/>
   <path id="_216010976" class="fil16" d="M34.5174 86.6943c1.6631,-0.8753 2.9323,-1.4297 3.5888,-3.2679 0.0584,-0.3063 0.1022,-0.6127 0.1459,-0.9191 0,-1.6339 -0.817,-3.1074 -2.1591,-3.9973 -1.8674,-0.8753 -3.4722,-0.7586 -5.1499,0.496 -0.8461,0.7732 -1.24,1.6486 -1.5026,2.7573 0,3.2533 1.9111,4.8289 5.0769,4.931z"/>
   <path id="_216010640" class="fil0" d="M105.813 85.9065c0.2918,-0.1604 0.569,-0.3209 0.8462,-0.4814 0,-0.5252 0.0875,-0.8753 -0.5106,-0.9483 -0.8024,0.2189 -1.3276,1.0067 -0.3356,1.4297z"/>
   <path id="_216010784" class="fil0" d="M114.989 85.571c0.4377,-0.496 1.2401,-1.3714 0.8024,-2.1154 -0.8316,-0.5835 -1.8674,-0.5398 -2.4801,0.321 -0.0584,0.9045 0.1021,1.3713 0.9483,1.7215 0.248,0.0145 0.496,0.0437 0.7294,0.0729z"/>
   <path id="_216011192" class="fil2" d="M106.105 85.4689c0.1751,-0.4523 0.1751,-0.4523 0.1605,-0.5106 -0.1897,0.0146 -0.3939,0.0437 -0.5982,0.0729 0,0.1167 0,0.2334 0,0.3647 0.1459,0.0146 0.2918,0.0438 0.4377,0.073z"/>
   <path id="_216010808" class="fil2" d="M115.339 84.8416c0.4523,-0.6857 0.1167,-1.1963 -0.5252,-1.5319 -0.4522,0 -0.5252,-0.0146 -0.8607,0.2626 1.1087,0.0584 1.1671,0.2043 1.3859,1.2693z"/>
   <path id="_216010832" class="fil2" d="M114.654 84.4039c0.0145,-0.0875 0.0291,-0.1751 0.0291,-0.2626 -0.0437,0 -0.0875,0 -0.1313,0 0,0.0583 0,0.1167 -0.0146,0.1896 0.0438,0.0146 0.0876,0.0438 0.1168,0.073z"/>
   <path id="_216010544" class="fil17" d="M108.716 82.4052c1.0212,-0.5106 2.5239,-0.6127 3.6472,-0.8315 1.1088,-0.5252 2.2175,-1.0504 3.3117,-1.5756 0.9191,-0.5398 3.7785,-1.9841 2.8448,-3.5451 -0.3647,-0.3647 -1.1379,-1.2692 -1.7361,-1.2692 -0.1021,0.1021 -0.5106,1.0504 -0.7148,1.4005 -0.6565,0.7732 -1.2838,1.5902 -2.0279,2.2758 -0.744,0.3793 -1.4297,0.89 -2.2029,1.1817 -1.1817,0.1605 -2.4509,-0.0146 -3.5742,0.3502 -0.1022,0.0729 -0.2043,0.1459 -0.3064,0.2334 -2.8157,0.5544 -5.5146,0.8024 -8.374,0.8753 3.0053,0.569 6.0835,0.7732 9.1326,0.9045z"/>
   <path id="_216011432" class="fil0" d="M120.635 82.3615c-0.073,-0.5107 -0.2043,-0.9629 -0.8024,-0.5982 -0.073,0.1021 -0.2626,0.2772 -0.2188,0.4085 0.4668,0 0.6273,-0.0292 1.0212,0.1897z"/>
   <path id="_216011528" class="fil0" d="M126.223 82.2593c0.496,-0.496 -0.1751,-1.736 -0.7732,-1.8965 0.0292,0.6419 0.0729,1.6631 0.7732,1.8965z"/>
   <path id="_216011552" class="fil2" d="M114.8 82.1134c0.3939,-0.8023 -0.5397,-0.5543 -0.6273,-0.0875 0.2189,0.0292 0.4231,0.0584 0.6273,0.0875z"/>
   <path id="_216011576" class="fil17" d="M100.065 81.1506c1.065,-0.1459 2.1884,-0.1459 3.2679,-0.1751 1.809,-0.1896 3.5889,-0.6127 5.3395,-1.0504 0,-0.1605 0,-0.3209 -0.0145,-0.4814 -0.5982,-1.9403 -1.3714,-4.2016 -2.7427,-5.7188 -0.6274,-1.5027 -2.2467,-1.9112 -3.7056,-2.2905 -0.6857,-0.0875 -2.1154,-0.3939 -2.2904,0.5252 -0.1751,0.0584 -0.3502,0.1167 -0.5252,0.1897 0,0.0437 0,0.0875 0,0.1459 0.9774,0.1896 1.9986,0.248 2.9615,0.4522 0.8024,0.4815 2.3488,1.5173 1.4297,2.6114 -1.5902,0.817 -3.2241,-0.3647 -4.931,-0.3647 -1.0358,0.2626 -1.0796,1.3276 -1.1234,2.2613 1.1234,0 2.6114,-0.1751 2.6114,1.3567 -0.4522,1.0212 -1.5902,0.7295 -2.553,0.5836 0.2042,0.8753 0.3355,1.7069 1.313,1.9257 0.3209,0 0.6419,0.0146 0.9628,0.0292z"/>
   <path id="_216011600" class="fil2" d="M46.772 80.7567c3.0636,-1.7069 6.1273,-3.5305 9.0305,-5.5146 -3.6472,-1.2546 -7.4841,-1.8382 -11.2626,-2.5384 -0.0584,-0.073 -0.1167,-0.1313 -0.1751,-0.1897 -0.0437,0 -0.0875,0 -0.1313,0 -0.0583,0.1605 -0.0583,0.1605 -0.0583,0.8024 0.5981,2.2904 1.3859,4.6246 2.1445,6.8859 0.1022,0.1751 0.2043,0.3501 0.2918,0.5252 0.0584,0 0.1167,0.0146 0.1605,0.0292z"/>
   <path id="_216011816" class="fil15" d="M118.841 80.4211c-0.0291,-0.5981 -0.2042,-1.1233 -0.3793,-1.6923 -0.6273,0 -1.7798,1.0067 -2.1591,1.5465 0.8461,0.0437 1.6923,0.0875 2.5384,0.1458z"/>
   <path id="_216011936" class="fil2" d="M110.817 79.8376c-0.9775,-2.6552 -1.7215,-5.5438 -3.6764,-7.6591 -1.6048,-1.4881 -3.3846,-1.8091 -5.4854,-1.8091 -0.2334,0.0876 -0.496,0.2481 -0.5689,0.5107 2.0132,0.0583 3.2679,0.5106 4.7267,1.9694 0.321,0.4669 0.6419,0.9483 0.9483,1.4298 0.8024,1.809 1.5756,3.6472 2.5093,5.3832 0.4814,0.2043 1.0212,0.1605 1.5464,0.1751z"/>
   <path id="_216011456" class="fil17" d="M111.59 79.5458c0.8462,-0.8461 2.3634,-0.7002 2.9469,-1.8674 -0.5689,-2.2466 -1.4442,-4.1286 -2.7718,-5.996 -0.3647,-0.3501 -0.7295,-0.6856 -1.0942,-1.0212 -1.1233,-0.7002 -2.0132,-1.0212 -3.2971,-1.313 -0.8461,-0.0146 -1.6923,-0.0146 -2.5384,0.0438 -0.5252,0.1167 -1.065,0.2334 -1.6048,0.3501 0.744,0.1897 1.4735,0.3793 2.2029,0.5836 0.8608,0.3501 1.4006,0.9337 2.1008,1.5318 0.9337,1.0212 1.5756,2.13 2.2321,3.3408 0.2626,0.642 0.5252,1.2839 0.7732,1.9404 0.1751,0.744 0.3064,1.6631 0.7295,2.305 0.1167,0.0292 0.2188,0.0583 0.3209,0.1021z"/>
   <path id="_216011336" class="fil2" d="M99.4376 78.9623c0.2772,-0.2772 0.3647,-0.3648 0.4815,-0.7295 -0.2626,-0.5252 -1.8382,-0.7294 -2.2467,-0.3209 0.1167,1.0649 0.7586,0.9045 1.7652,1.0504z"/>
   <path id="_216011312" class="fil2" d="M115.048 77.0074c0.0729,-0.1459 0.0729,-0.1459 0.8607,-0.9337 1.2109,-2.7427 -2.8011,-5.6897 -5.0331,-6.2878 -0.1605,0 -0.321,0 -0.4961,0 1.0942,0.992 1.0942,0.992 1.6048,1.5172 1.3422,1.7653 2.378,3.4868 2.8594,5.7043 0.073,0 0.1459,0 0.2043,0z"/>
   <path id="_216012488" class="fil2" d="M103.129 75.4609c1.0942,-1.6047 -0.7003,-2.2758 -1.9695,-2.5676 -1.4443,0 -2.6114,0.2188 -2.9907,1.7798 0.8316,-0.1313 1.5026,-0.1458 2.3342,0.073 0.8462,0.2918 1.7361,0.6273 2.626,0.7148z"/>
   <path id="_216012104" class="fil2" d="M56.7362 74.6731c1.3129,-3.7055 2.6114,-7.4402 4.2599,-10.9999 0.2042,-1.4297 1.1525,-2.6552 1.4297,-4.0703 -0.2188,0.0584 -0.4377,0.1167 -0.6565,0.1751 -2.6552,1.3275 -5.4708,2.6405 -7.878,4.362 -1.24,0.5836 -2.5238,0.8462 -3.5888,1.7215 -3.1074,1.5464 -3.1074,1.5464 -7.1923,3.691 0,0.7878 0.1167,1.4151 0.6419,2.0278 1.2692,0.744 2.8302,0.6857 4.2454,1.0212 0.248,0.1313 0.496,0.2626 0.744,0.3939 2.6989,0.3793 5.2811,1.4006 7.9947,1.6777z"/>
   <path id="_216012056" class="fil2" d="M57.8157 74.0896c5.2958,-3.2241 5.2958,-3.2241 8.7533,-5.2666 1.2401,-0.8899 2.5385,-1.7214 3.8369,-2.5238 5.6458,-3.2096 5.6458,-3.2096 11.2771,-6.5212 1.2693,-0.8754 1.2693,-0.8754 1.4589,-1.065 -6.6087,0.1313 -12.3421,0.3355 -19.5928,0.5252 -0.5689,0.1313 -1.1671,1.9695 -1.3859,2.4509 -1.2255,3.3846 -2.1446,6.9151 -3.7056,10.1684 -0.248,0.744 -0.496,1.4881 -0.744,2.2321 0.0438,0 0.0729,0 0.1021,0z"/>
   <path id="_216012128" class="fil14" d="M42.9351 68.896c2.2467,-1.6194 4.9311,-2.7135 7.4403,-3.8661 0.8754,-0.5397 1.7507,-1.0649 2.626,-1.5901 7.2215,-3.764 14.6618,-7.134 21.7811,-11.1021 1.1817,-0.5982 2.3634,-1.1963 3.5451,-1.7945 0.496,-0.4084 1.1379,-0.7148 1.7069,-1.0212 5.4416,-2.4363 10.3289,-5.9522 15.931,-8.0822 1.3859,-1.2109 3.3116,-1.9403 4.9456,-2.7281 3.6764,-1.6193 7.2798,-3.4575 10.8687,-5.2811 0.5981,-0.3648 1.24,-0.7003 1.7652,-1.1671 3.6326,-1.5902 6.9589,-3.7785 10.4602,-5.6313 0.7878,-0.3356 1.5756,-0.6711 2.3634,-0.9921 5.4854,-2.9761 10.9562,-6.1564 16.7042,-8.622 0,-0.0875 -0.0146,-0.175 -0.0292,-0.248 -0.3793,-0.7294 -1.5318,-3.4283 -2.6406,-3.4283 -7.2944,3.7493 -14.7639,7.3235 -22.1312,10.9416 -3.6035,1.8236 -7.2215,3.6618 -10.8395,5.5 -1.5318,0.4814 -2.9761,1.2546 -4.4204,1.9403 -3.0199,1.5901 -3.0199,1.5901 -6.1857,3.3408 -2.4217,0.8024 -4.4496,2.3488 -6.7984,3.3117 -5.4999,3.0928 -11.423,5.3832 -16.923,8.4615 -2.1008,0.7732 -2.1008,0.7732 -3.0199,1.1671 -4.3474,2.3634 -8.7095,4.9018 -13.232,6.9005 -0.1022,0.0292 -0.2189,0.0584 -0.3356,0.1021 -2.6114,1.6631 -5.6167,2.6114 -8.2864,4.187 -3.5597,1.4151 -6.7692,3.6472 -10.256,5.252 -0.6419,0.2334 -3.8076,1.2984 -3.8076,1.8382 2.553,0.5252 5.2227,0.2918 7.7612,0.9774 0.5544,0.2334 0.6857,1.0796 0.9045,1.6048 0.0438,0 0.073,0.0146 0.1021,0.0292z"/>
   <path id="_216012368" class="fil18" d="M152.191 62.9146c0.8607,-0.4669 1.8674,-0.4231 2.7281,-0.8462 1.8382,-1.4735 3.0928,-3.9536 2.305,-6.3315 -0.423,-0.2918 -0.8315,-0.5982 -1.3421,-0.2918 -0.6128,0.8753 -0.7295,2.13 -1.1671,3.1074 -1.0067,1.1671 -3.1512,1.1088 -4.435,0.5106 -0.89,-0.6127 -1.1526,-1.5902 -0.9191,-2.6406 0.992,-1.1671 2.232,-2.0862 3.1074,-3.3554 0.2772,-0.8461 0.1605,-1.3568 -0.4085,-1.9987 -0.9045,0 -2.305,1.3714 -2.7281,2.0862 -2.2467,1.4443 -4.3767,3.6618 -3.3409,6.5358 0.8024,1.4443 1.6048,2.0133 3.1366,2.7136 1.0358,0.2334 1.9841,0.4814 3.0637,0.5106z"/>
   <path id="_216012176" class="fil2" d="M66.7587 58.5817c5.7042,-0.4377 11.4668,-0.4523 17.1856,-0.569 2.4072,-4.362 4.683,-8.8262 7.0756,-13.2029 -0.4669,0 -1.4006,0.6711 -1.8382,0.9045 -1.4735,0.9046 -2.9761,1.8528 -4.5226,2.5823 -0.4522,0.1459 -0.919,0.2917 -1.3859,0.4522 -0.2772,0.1897 -0.569,0.3793 -0.8607,0.569 -3.2096,1.6048 -3.2096,1.6048 -8.0676,3.939 -1.3714,0.7294 -2.6698,1.6485 -4.1287,2.2321 -1.561,0.8753 -4.7268,2.4801 -5.6021,2.9761 0.1459,0.0437 0.1459,0.0437 2.1446,0.1167z"/>
   <path id="_216012344" class="fil2" d="M85.0385 57.6626c3.4137,-2.1008 6.8713,-4.2016 10.3143,-6.244 1.2254,-0.8899 2.5092,-1.7215 3.793,-2.5385 3.2096,-1.6485 6.3899,-3.4721 9.512,-5.3103 0.3647,-0.2334 0.6419,-0.5252 0.9336,-0.8462 -5.9084,0.5398 -11.8461,1.0067 -17.7108,1.9258 -1.488,2.2758 -2.6843,4.7997 -3.939,7.2068 -0.744,2.0571 -2.1299,3.8223 -3.049,5.8064 0.0583,0 0.1021,0 0.1459,0z"/>
   <path id="_216012656" class="fil2" d="M152.191 50.1785c1.1087,-0.6565 2.057,-1.3567 1.3422,-2.6551 -1.0213,-0.9191 -2.8157,-1.7215 -3.7056,-0.2189 0,0.5982 -0.1459,1.2984 0.2042,1.8236 0.3648,0.2626 0.7295,0.5398 1.0796,0.817 0.3647,0.0729 0.7295,0.1459 1.0796,0.2334z"/>
   <path id="_216012584" class="fil19" d="M154.087 46.8231c0.0876,-0.1021 0.1751,-0.1897 0.248,-0.2772 1.9404,-1.5464 4.756,-3.3262 5.573,-5.8063 0.1896,-3.0199 0.1896,-3.0199 0.1896,-4.0995 -0.3355,-1.2546 -1.5172,-1.1817 -2.6551,-1.24 -0.0438,1.2546 -0.2772,2.3196 -0.8608,3.4283 -1.6631,2.4218 -4.1578,3.0929 -6.8713,2.1738 -0.2626,-0.1459 -0.5252,-0.2918 -0.7878,-0.4377 -1.8674,-1.4005 -2.5239,-2.9761 -2.8011,-5.1936 -0.6856,-0.2043 -1.5464,-0.1751 -1.9695,0.4522 -0.0145,1.8382 -0.0291,3.6764 -0.0437,5.5292 1.4151,2.0132 3.3262,4.0265 5.3687,5.3833 0.0583,-0.0146 0.1167,-0.0292 0.1604,-0.0438 0.8608,-1.2546 2.4072,-1.1088 3.6472,-0.5544 0.2043,0.2043 0.5107,0.6128 0.8024,0.6857z"/>
   <path id="_216012728" class="fil2" d="M93.1207 43.9053c0.1313,-0.2334 0.8023,-0.2334 1.0358,-0.2772 2.7135,-0.1021 2.7135,-0.1021 3.6472,-0.1896 0.1167,-0.0584 0.2334,-0.1021 0.3355,-0.1459 4.3183,-0.4668 8.6366,-0.9191 12.9403,-1.3713 2.4947,-4.0412 5.7772,-7.5571 8.053,-11.7295 -3.2679,1.2401 -6.4336,3.1658 -9.4681,4.9019 -2.5676,0.9337 -4.7268,2.6552 -7.1485,3.866 -0.321,0.0876 -0.6419,0.1897 -0.9629,0.2918 -2.6114,1.7944 -5.748,2.8886 -8.4615,4.5371 0.0146,0.0292 0.0292,0.073 0.0292,0.1167z"/>
   <path id="_216012272" class="fil2" d="M112.611 41.0313c2.3051,-1.7652 5.004,-3.1366 7.5133,-4.5954 0.5252,-0.2626 1.0504,-0.5107 1.561,-0.7587 2.8886,-1.6923 5.3687,-4.0994 8.5344,-5.3103 1.2401,-0.7003 2.4801,-1.4005 3.7202,-2.1008 0.2918,-0.2334 0.6419,-0.4522 0.8315,-0.7732 -4.7267,0.7732 -9.4973,1.4005 -14.2532,1.9987 -2.7573,2.7573 -4.1724,6.4774 -6.5212,9.5411 -0.3793,0.3501 -1.5027,1.5172 -1.386,1.9986z"/>
   <path id="_216013496" class="fil20" d="M152.774 40.8417c2.2613,-1.2401 3.9244,-2.3051 3.9244,-5.0769 -0.3209,-1.8382 -1.1233,-4.0411 -3.1949,-4.4496 -0.1313,1.2254 -0.3647,2.2758 0.817,2.9177 0.4084,1.6194 0.7002,2.947 -0.8316,4.0995 -1.7215,0.7149 -2.9178,0.7294 -4.0557,-0.817 -0.6127,-1.3713 -0.817,-3.5596 0.9337,-4.1432 0.1896,-0.6419 0.2918,-1.5464 0.0875,-2.1883 -0.9337,0.4814 -1.7652,1.0941 -2.6114,1.7215 -0.496,1.2984 -0.817,2.3488 -0.817,3.7493 0.2772,1.561 0.9046,2.5384 2.2759,3.37 1.1525,0.4814 2.2321,0.7003 3.4721,0.817z"/>
   <path id="_216012824" class="fil2" d="M152.191 38.1573c1.3422,-0.5981 1.8382,-1.1817 1.8382,-2.7281 -0.4669,-1.7215 -2.7719,-1.9257 -3.9828,-0.8899 -0.5689,0.8316 -0.4814,1.5756 -0.2042,2.5239 0.817,0.7878 1.24,0.9191 2.3488,1.0941z"/>
   <path id="_216013472" class="fil20" d="M152.629 33.3576c0.7294,-4.8726 1.0358,-9.7891 1.4151,-14.6909 -1.1525,0 -2.3051,0 -3.4576,0 0.0875,4.8435 0.3356,9.7015 0.6857,14.545 0.4522,0.0438 0.9045,0.0876 1.3568,0.1459z"/>
   <path id="_216013040" class="fil2" d="M123.072 28.5433c0.1021,-0.0875 0.1021,-0.0875 0.496,-0.1751 3.5743,-0.3355 7.1631,-0.7732 10.6936,-1.3713 0.7732,-0.1751 1.7507,-0.3064 2.4072,-0.8024 2.1154,-2.4071 3.8806,-5.252 5.6021,-7.9363 -0.1021,0 -0.4523,0.2626 -1.2109,0.6711 -1.7652,0.7294 -3.5451,1.5026 -5.2665,2.3342 -0.569,0.4377 -0.569,0.4377 -0.7587,0.6711 -3.122,1.0795 -5.7334,3.1949 -8.6949,4.6246 -1.1379,0.4377 -2.7281,0.9337 -3.6326,1.7507 0,0.0438 0,0.0875 0,0.1459 0.1313,0.0292 0.248,0.0583 0.3647,0.0875z"/>
   <path id="_216013208" class="fil2" d="M138.04 25.6255c2.3634,-1.6631 4.8727,-3.3408 7.5133,-4.5225 0.1021,-0.9045 -1.4006,-2.6406 -1.8966,-3.3846 -0.0437,0 -0.0875,0 -0.1313,0 -2.0132,2.3926 -3.7201,5.1353 -5.5,7.7029 -0.0145,0.0584 -0.0437,0.1313 -0.0729,0.2042 0.0292,0 0.0584,0 0.0875,0z"/>
   <path id="_216013400" class="fil11" d="M148.748 24.5022c0.4377,-0.2918 0.8608,-0.5835 1.2838,-0.8753 0,-0.6565 0,-1.2984 0,-1.9403 -1.7944,-1.065 -3.4867,-2.1154 -4.683,-3.8369 -0.5835,-1.0504 -0.8461,-1.8674 -1.0504,-3.0345 0,-1.2254 0.1313,-2.3634 0.4377,-3.5596 -1.0212,0.1604 -2.3926,0.9191 -3.1512,1.5901 0,0.0438 0,0.1022 0,0.1605 2.0133,3.5451 3.9974,7.1631 6.2149,10.5915 0.3355,0.2626 0.5397,0.7732 0.9482,0.9045z"/>
   <path id="_216013304" class="fil19" d="M154.627 21.2489c0.1167,-0.0875 0.1167,-0.0875 1.065,-0.4668 2.1446,-1.1672 3.4576,-2.378 4.3621,-4.6976 0.0875,-0.3939 0.175,-0.7878 0.248,-1.1671 0,-0.5107 0,-1.0213 0,-1.5173 -0.248,-1.5026 -0.817,-2.626 -1.6486,-3.8806 -2.5822,-2.2759 -5.0769,-3.1804 -8.4761,-2.2613 -1.9986,0.8462 -3.37,2.0716 -4.6246,3.8223 -0.1167,0.3501 -0.248,0.7003 -0.3793,1.0504 -0.3648,2.1883 -0.2626,3.691 0.8169,5.6459 0.9629,1.313 2.2759,2.874 3.9974,3.0782 -0.0438,-2.0133 -0.0438,-2.0133 -0.1021,-2.3634 -1.3568,-1.1525 -2.2175,-2.0862 -2.5677,-3.8806 0,-2.0862 0.8754,-3.37 2.5385,-4.5809 2.4655,-1.2255 4.8289,-1.3568 6.7984,0.7878 0.8169,1.1963 1.4005,2.0862 1.313,3.6034 -0.1897,0.8608 -0.5398,1.561 -1.0504,2.2613 -1.386,1.5464 -2.4947,2.3926 -2.4072,4.5225 0.0438,0.0146 0.0875,0.0292 0.1167,0.0438z"/>
   <path id="_216013232" class="fil2" d="M154.671 18.1269c1.313,-0.9191 2.3634,-1.8236 2.6114,-3.5013 0,-1.313 -0.2334,-2.1592 -1.0504,-3.195 -1.7944,-1.7944 -4.4058,-1.9549 -6.5942,-0.744 -0.992,0.9045 -1.3859,1.7215 -1.5901,3.0491 0.0146,0.423 0.0291,0.8461 0.0437,1.2838 0.1605,1.24 1.0504,2.2467 2.1592,2.7427 0.3793,0.0729 0.7586,0.1604 1.1233,0.248 1.0212,0.0146 2.0424,0.0292 3.0637,0.0437 0.0875,0.0146 0.1604,0.0438 0.2334,0.073z"/>
  </g>
  <path class="fil21" d="M114.338 105.02l0 5.2401 -0.82 0 -0.5611 -1.3811c-0.5971,1.0249 -1.5195,1.54 -2.77,1.54 -1.3965,0 -2.4394,-0.533 -3.1286,-1.5938 -0.6868,-1.0609 -1.0327,-2.2882 -1.0327,-3.6847 0,-1.476 0.3844,-2.7264 1.1531,-3.7488 0.7687,-1.025 1.8423,-1.5374 3.2235,-1.5374 1.0326,0 1.8808,0.2998 2.547,0.8994 0.6636,0.597 1.0839,1.3401 1.2607,2.2318l-1.6067 0.2844c-0.2998,-1.2504 -1.0198,-1.8756 -2.1549,-1.8756 -0.7252,0 -1.3171,0.2946 -1.7757,0.8865 -0.4587,0.5894 -0.6868,1.499 -0.6868,2.7239 0,2.588 0.8123,3.882 2.4317,3.882 0.6304,0 1.1531,-0.2178 1.5657,-0.6534 0.4125,-0.4357 0.62,-1.0122 0.62,-1.7271l-2.1165 0 0 -1.4862 3.8513 0z"/>
  <path class="fil21" d="M120.208 110.419c-1.3606,0 -2.4214,-0.5125 -3.1799,-1.5323 -0.7584,-1.0224 -1.1351,-2.2831 -1.1351,-3.7847 0,-1.4913 0.4023,-2.7392 1.2069,-3.7411 0.8071,-1.0044 1.8705,-1.5066 3.1901,-1.5066 1.3325,0 2.3831,0.5022 3.1569,1.5066 0.7738,1.0019 1.1608,2.2575 1.1608,3.7642 0,1.581 -0.4023,2.8596 -1.2044,3.8333 -0.8046,0.9737 -1.8679,1.4606 -3.1953,1.4606zm0.0154 -1.4888c0.6662,0 1.2274,-0.2742 1.6886,-0.8251 0.4613,-0.5509 0.6919,-1.5476 0.6919,-2.9954 0,-1.1761 -0.1922,-2.0986 -0.5714,-2.7648 -0.3793,-0.6688 -0.9712,-1.0019 -1.7707,-1.0019 -1.5835,0 -2.3727,1.2735 -2.3727,3.8205 0,1.2351 0.1998,2.1729 0.6047,2.811 0.4023,0.638 0.9788,0.9557 1.7296,0.9557z"/>
  <path class="fil21" d="M128.48 100.013l-0.7585 7.1388 -0.779 0 -0.7226 -7.1388 2.2601 0zm-0.2332 8.3713l0 1.8757 -1.868 0 0 -1.8757 1.868 0z"/>
 </g>
</svg>
