<?xml version="1.0" encoding="UTF-8"?>
<!DOCTYPE svg PUBLIC "-//W3C//DTD SVG 1.1//EN" "http://www.w3.org/Graphics/SVG/1.1/DTD/svg11.dtd">
<!-- Creator: CorelDRAW -->
<svg xmlns="http://www.w3.org/2000/svg" xml:space="preserve" width="120mm" height="120mm" style="shape-rendering:geometricPrecision; text-rendering:geometricPrecision; image-rendering:optimizeQuality; fill-rule:evenodd; clip-rule:evenodd"
viewBox="0 0 120 120">
 <defs>
  <style type="text/css">
   <![CDATA[
    .fil0 {fill:black}
   ]]>
  </style>
 </defs>
 <g id="Capa_x0020_1">
  <metadata id="CorelCorpID_0Corel-Layer"/>
  <g id="_220363208">
   <path id="_220363232" class="fil0" d="M26.2087 116.341c-0.9398,-0.3302 -2.0828,-0.5842 -3.048,-0.8128 -1.1684,-0.5842 -3.81,-1.778 -4.318,-2.9972 -2.1844,-1.4478 -3.048,-5.08 -3.429,-7.4676 -0.0508,-11.5316 -0.0762,-23.0632 -0.1016,-34.5694 -0.2286,-0.4572 -3.048,-0.3302 -3.6068,-0.3556 -0.8128,-0.254 -1.6002,-0.508 -2.3876,-0.762 -0.2794,-0.254 -0.2794,-0.254 -1.6764,-1.016 -1.6002,-1.3462 -3.0988,-2.921 -3.6576,-4.9784 -1.0922,-1.4478 -0.5588,-4.7752 -0.2794,-6.477 2.667,-6.6802 9.525,-10.668 14.1732,-15.9766 7.2644,-7.1628 10.5664,-10.541 11.5062,-11.3792 2.5146,-2.7432 5.4102,-5.2578 7.9248,-8.001 5.3848,-4.953 10.5156,-10.3886 15.6972,-15.5702 1.1938,-0.9652 2.3368,-1.5494 3.7846,-2.159 0.7366,-0.0508 0.7366,-0.0508 2.0066,-0.3048 2.4384,0 4.2418,0.2286 6.4008,1.4478 0.5842,0.4318 1.1684,0.889 1.778,1.3462 15.3924,15.4178 30.8102,30.8356 46.228,46.2534 0.2794,0.3302 0.5588,0.6604 0.8636,1.016 2.0828,3.048 2.4384,5.7658 1.7526,9.3726 -0.2286,0.3556 -0.2286,0.3556 -0.762,1.8542 -0.5588,0.7366 -1.1176,1.4732 -1.6764,2.2352 -1.5494,1.4224 -2.8702,2.2352 -4.826,2.8448 -0.4826,0.4826 -3.4036,0.381 -4.191,0.4318 -0.0508,0.0508 -0.1016,0.1016 -0.127,0.1778 -0.0508,11.4554 -0.0762,22.9362 -0.1016,34.417 -0.2286,1.7526 -0.7366,3.2766 -1.3462,4.9276 -0.254,0.2286 -1.016,1.5494 -1.8796,2.6162 -0.1778,0.0762 -0.1778,0.0762 -1.1684,1.1176 -0.254,0.127 -0.6604,0.2794 -0.762,0.5842 -1.1938,0.6858 -2.3876,1.27 -3.683,1.778 -1.27,0.1778 -1.27,0.1778 -1.9304,0.3556 -6.7056,0 -13.4112,0 -20.0914,0 -1.27,-0.381 -1.8288,-0.9906 -2.4892,-2.1082 -0.0762,-0.381 -0.0762,-0.381 -0.1778,-28.4988 -0.635,-2.54 -2.286,-4.318 -4.953,-4.699 -3.937,0 -7.8486,0 -11.7602,0 -2.7686,0.4064 -4.2418,2.0828 -4.953,4.699 -0.0254,9.3218 -0.0508,18.669 -0.0762,28.0162 -0.3048,1.397 -1.3462,2.159 -2.5908,2.5908 -6.7056,0 -13.3858,0.0254 -20.066,0.0508z"/>
  </g>
 </g>
</svg>
