<?xml version="1.0" encoding="UTF-8"?>
<!DOCTYPE svg PUBLIC "-//W3C//DTD SVG 1.1//EN" "http://www.w3.org/Graphics/SVG/1.1/DTD/svg11.dtd">
<!-- Creator: CorelDRAW -->
<svg xmlns="http://www.w3.org/2000/svg" xml:space="preserve" width="225mm" height="125mm" style="shape-rendering:geometricPrecision; text-rendering:geometricPrecision; image-rendering:optimizeQuality; fill-rule:evenodd; clip-rule:evenodd"
viewBox="0 0 225 125">
 <defs>
  <style type="text/css">
   <![CDATA[
    .fil9 {fill:#007CC3}
    .fil24 {fill:#00923F}
    .fil5 {fill:#0093DD}
    .fil1 {fill:#1F1A17}
    .fil20 {fill:#4D4948}
    .fil4 {fill:#72706F}
    .fil6 {fill:#75C5F0}
    .fil3 {fill:#969594}
    .fil11 {fill:#BB825B}
    .fil23 {fill:#C2C1C1}
    .fil8 {fill:#DA251D}
    .fil19 {fill:#DEDEDD}
    .fil17 {fill:#EF9BA0}
    .fil22 {fill:#F5C491}
    .fil7 {fill:#FFF500}
    .fil12 {fill:white}
    .fil0 {fill:black}
    .fil14 {fill:#FFCC99}
    .fil25 {fill:#FFCCFF}
    .fil2 {fill:white}
    .fil13 {fill:#00AB59}
    .fil10 {fill:#6600A1}
    .fil16 {fill:#9C8CC9}
    .fil15 {fill:#A8ADB0}
    .fil21 {fill:#BA1FB5}
    .fil18 {fill:#F7D917}
    .fil26 {fill:white;fill-rule:nonzero}
   ]]>
  </style>
 </defs>
 <g id="Capa_x0020_1">
  <metadata id="CorelCorpID_0Corel-Layer"/>
  <g id="_215173752">
   <path id="_215403472" class="fil0" d="M51.1587 122.759c2.3657,-0.2999 4.0984,-0.7497 6.2475,-1.7826 3.6485,-2.2491 6.1142,-5.731 7.5136,-9.8293 5.0313,0.1666 6.9305,1.2328 6.4474,-4.4316 21.8411,0 43.6989,0.4332 65.54,0.9996 0.1166,2.8988 1.1495,2.5656 3.8818,3.0821 0.8663,0.05 3.8817,-0.0666 4.5148,0.3499 3.1987,8.2299 7.0305,11.312 16.26,11.312 7.497,-1.3161 10.4958,-4.898 13.278,-11.1121 2.5323,-0.2666 5.2812,1.2328 6.6473,-1.6494 3.282,0 6.6306,0.4665 9.9459,0.5332 1.8659,0.1666 2.9322,1.3161 4.7148,1.7326 5.3311,0.5664 10.7623,0.9329 16.1101,0.3832 5.8809,-1.0829 6.0642,-7.347 5.6477,-12.5116 -0.5664,-1.6993 -1.1162,-1.6827 -2.8822,-1.7826 0.3499,-4.7148 1.5327,-9.3129 2.2158,-13.9943 0.5831,-6.4974 0.3332,-14.1776 -2.2824,-20.2085 -0.6997,-1.1329 -1.3161,-1.566 -2.5823,-2.1991 -8.963,-3.2653 -20.5416,-2.0991 -29.2714,1.3828 -0.5498,-0.1833 -0.783,-7.0305 -0.8497,-7.9634 -0.5331,-4.3983 1.4494,-1.5827 3.4653,-0.6998 2.2991,0.4499 4.3149,0.1333 4.9646,-2.349 0,-9.2462 -2.2824,-18.5591 -3.0987,-27.7721 -0.6164,-3.132 -5.5644,-3.8817 -6.7306,-1.0495 -0.0167,0.4831 -0.0333,0.9662 -0.0666,1.4494 -1.4994,0.1666 -4.265,0.8163 -5.6811,0.2166 -0.3998,-1.0163 -1.4327,-2.7489 -1.4327,-3.8152 2.0991,-2.0991 1.1162,-7.1304 0.0833,-9.4128 0,-1.4161 2.0325,-2.549 1.9159,-4.4482 -3.4986,-0.0333 -6.1642,0.6331 -9.2296,2.3157 -0.05,0 -1.2328,-0.8663 -1.4494,-0.9496 -3.8818,-0.8663 -7.8635,-1.4827 -11.7619,-2.2824 -19.9419,-3.1487 -40.3669,-1.9658 -60.4754,-1.8326 -2.3491,0.1 -4.6981,0.2166 -7.0638,0.3332 -13.178,0.8997 -26.3726,2.3158 -39.5339,3.4486 -9.6128,1.0829 -20.5417,1.6993 -29.5714,5.5145 -1.9158,1.3161 -1.6659,2.5989 -2.2657,4.798 -0.833,2.3491 -8.4299,-2.499 -8.6132,-0.1666 0.4332,2.0492 2.8989,2.5656 3.0488,4.165 -0.4998,3.7151 0.683,6.0475 3.3153,8.4799 -0.3832,5.1146 -0.5498,10.2625 -0.8163,15.3937 -0.7497,9.796 0.1999,19.1922 0.4498,28.9882 -0.7997,3.2154 -2.1658,3.8651 -1.3328,7.547 0.9829,2.7322 3.3986,3.282 4.165,5.731 0.05,0.4998 0.1166,0.9996 0.1832,1.4993 -6.7805,0 -8.863,-1.6826 -6.0642,7.0472 2.5323,5.7643 4.3483,5.8476 10.2958,5.4144 2.0659,0 1.4495,2.4157 3.382,2.9988 5.8476,0.05 5.048,-1.4327 5.5311,3.7985 0.4165,2.1325 6.4973,1.0829 7.6969,1.7659 2.9154,7.8635 7.1637,11.4287 15.5936,11.562z"/>
   <path id="_215173512" class="fil1" d="M50.7089 121.876c3.4486,-0.4165 5.1146,-1.5493 8.0634,-3.1654 0,-0.2998 1.1662,-0.9162 1.3328,-1.3161 1.2495,-1.2495 3.7485,-4.7147 3.5652,-6.5973 -2.4823,-1.8659 -1.6327,-4.9147 -2.3157,-7.8635 -2.9488,-7.9967 -15.1772,-9.746 -20.7416,-3.2487 -5.9476,8.6132 -4.7814,17.2097 5.2146,21.4913 1.6326,0.4831 3.182,0.6331 4.8813,0.6997z"/>
   <path id="_215439072" class="fil1" d="M160.897 121.593c6.4974,-0.6497 10.3458,-4.7147 12.7948,-10.3458 0,-0.4498 -1.7492,-1.2495 -1.9991,-2.3824 0,-9.696 -4.4482,-13.2279 -14.2942,-13.2279 -8.38,1.0329 -13.3113,10.679 -9.9793,18.2926 3.3986,5.4144 7.1138,7.5802 13.4778,7.6635z"/>
   <path id="_215439480" class="fil0" d="M50.8255 115.046c12.7115,-2.2991 4.5315,-20.4251 -5.2312,-12.0618 -4.3316,5.5811 -1.6493,11.4787 5.2312,12.0618z"/>
   <path id="_215616088" class="fil0" d="M160.947 114.712c11.1455,-2.0159 5.9143,-18.4092 -4.5814,-12.7948 -5.4812,3.965 -3.4986,11.6452 2.9654,12.7615 0.5331,0 1.0662,0.0166 1.616,0.0333z"/>
   <path id="_216379736" class="fil2" d="M50.7089 114.662c11.9285,-2.2324 4.0983,-18.9756 -4.798,-11.3454 -4.3483,5.0646 -1.2162,10.4957 4.798,11.3454z"/>
   <path id="_216017336" class="fil2" d="M160.564 114.379c8.5966,-1.6327 8.2634,-13.1447 -0.8996,-13.1447 -8.1967,1.4827 -7.8801,12.7782 0.8996,13.1447z"/>
   <path id="_216017480" class="fil0" d="M51.1087 114.046c6.1975,-1.3162 7.6636,-9.013 1.5994,-11.7619 -9.4128,-2.2158 -11.6453,11.4287 -1.5994,11.7619z"/>
   <path id="_216016784" class="fil0" d="M160.947 113.829c9.3629,-2.4157 5.6144,-15.0106 -3.5819,-11.412 -5.5477,3.915 -3.3319,11.2621 3.5819,11.412z"/>
   <path id="_216014000" class="fil3" d="M51.1587 113.596c6.564,-1.5661 6.564,-11.1955 -0.833,-11.1955 -7.6302,1.1662 -6.9805,10.9622 0.833,11.1955z"/>
   <path id="_216378800" class="fil3" d="M160.498 113.38c8.6465,-1.616 5.9976,-13.4446 -2.1325,-10.9122 -1.2495,0.5997 -2.1158,1.2828 -2.8321,2.4656 -2.0492,4.3649 0.1999,8.0801 4.9646,8.4466z"/>
   <path id="_215615992" class="fil4" d="M209.145 111.664c5.9642,-0.5664 7.9301,-2.5323 7.9301,-8.6631 -0.0666,-0.9996 0.0167,-2.9488 -0.4665,-3.9151 -0.2999,-0.0167 -3.132,0.4331 -7.297,0.883 -4.2483,0.1332 -7.9468,-0.0334 -12.1617,-0.6164 -1.1162,0 -2.0159,-0.0667 -2.6323,0.9829 -0.6664,3.3486 -2.8322,9.4461 1.5827,10.629 4.3316,0.2499 8.6965,0.6164 13.0447,0.6997z"/>
   <path id="_215616016" class="fil5" d="M177.557 110.547c0.7664,-0.0833 1.8326,-0.05 2.5157,-0.4332 1.2162,-15.3937 -6.8472,-24.54 -22.0744,-24.54 -5.9975,0.6664 -13.128,3.7318 -16.8098,8.6132 -1.6493,2.4157 -6.3974,14.4275 -1.9492,15.6103 1.8492,0.1333 3.9317,0.5331 5.781,0.2499 0.633,-0.8996 1.0662,-4.3649 1.4161,-5.6644 3.3486,-8.863 11.0621,-11.4953 20.1251,-7.9134 0.7997,0.4331 4.0484,2.499 4.215,3.7485 1.7992,0 2.0824,8.5298 2.0824,9.2795 0.883,1.1829 3.482,1.0163 4.6981,1.0496z"/>
   <path id="_216017384" class="fil5" d="M67.3188 110.497c0.6831,-0.0666 2.7656,0.0333 2.9821,-0.733 0.7664,-10.7456 -3.2486,-20.6583 -14.7606,-22.9573 -1.5994,-1.0663 -5.3812,-0.8164 -7.0971,-0.7331 -12.2451,2.2658 -18.6924,6.9305 -19.9086,19.642 -0.1,5.1979 0.8163,4.3816 6.414,4.5149 0.2833,-0.0167 0.5831,-0.0334 0.883,-0.0667 2.499,-11.1454 8.2966,-18.8756 21.1581,-13.3612 5.2978,2.8988 5.8809,6.7972 6.0808,12.7948 1.2995,0.783 2.7656,0.783 4.2483,0.8996z"/>
   <path id="_213812584" class="fil6" d="M192.934 109.265c0.3499,-0.7164 0.0833,-3.3153 0.0833,-4.215 0.4498,-6.3474 1.3994,-6.8638 7.5303,-5.8642 1.9992,0.1332 4.0983,0.2498 6.0809,0.0999 1.3161,-3.0654 1.2994,-6.6806 0.8829,-9.9293 -0.3665,0 -1.1662,1.3161 -1.4994,1.6993 -7.4803,6.3308 -15.0272,-10.479 -7.4969,-15.6436 3.9484,-1.8493 -5.5311,-3.6319 -6.614,-3.7652 -0.883,-0.2332 -1.7659,-0.4831 -2.6656,-0.733 -10.3291,-1.2828 -24.1235,5.1313 -30.1544,13.7444 13.0447,0.933 21.0914,7.6136 22.1743,20.9415 0.0334,1.0163 0.0667,2.0492 0.1167,3.0821 3.8484,0.1832 7.7135,0.4498 11.5619,0.5831z"/>
   <path id="_213812512" class="fil2" d="M136.791 106.766c0.2499,-0.2499 0.1333,-0.883 0.1333,-1.2495 -21.8578,-0.6331 -43.7656,-1.0162 -65.6234,-1.1662 0.0667,1.5494 0.2999,1.1662 1.7993,1.2828 21.2247,0.5165 42.4661,0.7164 63.6908,1.1329z"/>
   <path id="_215615800" class="fil5" d="M136.907 104.883c1.3494,-5.3145 2.1658,-10.9622 6.9638,-14.3775 0,-0.4664 -2.0991,-0.4831 -2.6656,-0.3165 -2.299,1.716 -4.3648,5.9976 -7.1304,6.5473 -3.2487,0 -6.514,0.0667 -9.7627,0.0667 -3.3986,-0.4832 -4.9813,-5.9643 -8.2133,-7.1138 -16.46,0.0667 -32.92,-0.2999 -49.3799,-0.4498 -3.0155,-0.1 -3.0155,-0.1 -3.1987,-0.05 0,0.05 0,0.1 0,0.1666 4.8147,3.2154 7.0138,9.0297 7.6635,14.4941 21.9078,0.2999 43.7989,0.933 65.7233,1.0329z"/>
   <path id="_215402992" class="fil2" d="M27.8349 104.716c1.2495,-2.5156 -4.5315,-1.3994 -5.8643,-1.1995 0,1.7993 5.1146,1.1995 5.8643,1.1995z"/>
   <path id="_216015704" class="fil5" d="M28.0514 102.934c0.1,-0.1666 0.1,-0.1666 0.933,-3.4486 1.8326,-4.6314 3.6652,-7.5636 7.7635,-10.3624 0,-0.5331 -18.4092,-0.4165 -21.1414,-0.3166 0,3.5486 3.9817,0.3832 5.3312,1.8826 1.4161,2.9655 1.2661,6.1642 1.4327,9.4128 0.2832,1.816 0.3832,1.5994 -1.3328,2.0326 0,1.2661 6.0642,0.7996 7.0138,0.7996z"/>
   <path id="_379147672" class="fil4" d="M15.9564 102.218c1.9159,-0.2 3.8317,-0.5498 5.731,-0.883 -0.1166,-2.2324 0.3998,-8.3466 -1.3828,-10.1292 -3.9651,-0.0167 -7.9468,-0.15 -11.9118,-0.2166 0,5.2812 1.666,10.8622 7.5636,11.2288z"/>
   <path id="_379147816" class="fil6" d="M208.545 99.3353c0.6998,-0.0666 1.3995,-0.1499 2.0992,-0.2332 0.3498,-8.2467 -0.733,-16.4767 -0.733,-24.7067 0.1665,-2.1324 0.1999,-5.1146 1.8992,-6.6473 1.0329,-0.2499 2.2157,0.1167 3.1154,-0.1332 0,-8.5466 -16.8099,-6.9472 -22.1577,-6.1309 -3.2487,0.7164 -6.464,1.616 -9.6627,2.549 -0.6164,0.2999 -0.4832,4.4981 -0.4498,5.8143 4.4648,0.05 8.6298,0.2665 12.8947,1.6826 10.0459,4.3316 15.9769,16.5266 12.1284,27.5222 0,0.3998 0.5498,0.2665 0.8663,0.2832z"/>
   <path id="_216017216" class="fil3" d="M212.043 99.0021c1.4994,-0.2166 2.0492,-0.2999 1.8992,-1.9659 -2.4823,0 -2.3657,-0.4998 -2.5656,1.9659 0.2166,0 0.4332,0 0.6664,0z"/>
   <path id="_379148248" class="fil0" d="M205.479 98.1025c1.6827,-0.9663 1.5161,-2.9988 0.8663,-4.5815 -3.232,-2.8822 -5.2312,4.3482 -0.8663,4.5815z"/>
   <path id="_379147552" class="fil7" d="M205.313 97.4361c1.3162,-0.7164 1.1662,-2.1991 0.6997,-3.432 -1.9159,-2.299 -4.3815,2.9488 -0.6997,3.432z"/>
   <path id="_379149712" class="fil3" d="M214.093 96.3365c0.3998,-0.1999 0.5498,-2.7156 0.5831,-3.3653 -0.05,-0.05 -2.9821,-0.7497 -3.1654,-0.4831 0,3.8317 -0.9996,3.7818 2.5823,3.8484z"/>
   <path id="_379149808" class="fil2" d="M133.675 95.8367c1.9159,-0.5164 2.7322,-2.5656 4.3149,-3.7651 4.4149,-4.265 3.4486,-3.8318 3.4486,-10.5124 0.3165,-4.7148 -1.716,-5.048 -5.1479,-8.4799 -0.5831,-0.6497 -1.1829,-1.2995 -1.8659,-1.8159 -3.0821,-0.4998 -7.1305,-0.0667 -10.2958,-0.0667 -0.883,0.2499 -1.3995,0.8997 -1.9326,1.5994 -1.566,1.516 -4.7647,3.9484 -5.3645,5.7476 0,2.1658 -0.9496,8.0801 0.2499,10.4791 1.9992,2.2824 4.4149,4.5315 6.6973,6.5474 3.0987,0.5664 6.7473,0.2165 9.896,0.2665z"/>
   <path id="_379149616" class="fil8" d="M126.245 95.0537c2.6156,-0.2166 8.9963,1.1495 10.0459,-2.549 1.1995,-0.4498 4.2149,-3.8317 4.4149,-4.9979 0,-2.6823 0.8996,-8.4466 -1.2995,-10.1959 -3.2154,-3.232 -3.2154,-3.232 -5.2479,-5.1979 -2.2991,-0.4498 -8.23,-0.9496 -10.4957,0.2666 -1.8326,1.9159 -3.8485,3.7818 -5.7144,5.731 -0.7497,1.516 -0.7163,9.063 -0.1666,10.3958 2.5657,2.6655 4.6148,6.414 8.4633,6.5473z"/>
   <path id="_214887216" class="fil3" d="M214.926 92.1715c1.0329,-5.4977 1.0329,-5.4977 1.0329,-5.8143 -0.1333,-0.0999 -3.8818,-0.4998 -4.5981,-0.4331 0,4.2149 -1.033,6.1142 3.5652,6.2474z"/>
   <path id="_215173896" class="fil2" d="M203.38 91.8383c1.6993,-1.0162 2.449,-0.8163 3.4153,-2.7488 0.0499,-0.2 0.5664,-1.6827 0.2165,-1.5661 -6.2641,11.4454 -17.143,-9.0463 -6.0475,-11.5619 0,-1.8659 -3.5652,1.0662 -4.165,1.9325 -2.8988,5.1646 0.2166,13.6611 6.5807,13.9443z"/>
   <path id="_215173824" class="fil7" d="M203.38 90.6721c1.9159,-1.6326 2.9821,-1.516 3.4153,-4.4481 -0.2666,-3.6319 -2.8156,-7.1971 -5.3812,-9.6628 -7.7968,0 -5.4478,13.861 1.9659,14.1109z"/>
   <path id="_215173248" class="fil9" d="M143.904 89.6726c0.6997,-0.1167 2.1991,-0.2999 2.399,-1.1329 -1.0329,0 -4.5482,-0.783 -4.1817,1.0829 0.5831,0.0166 1.1829,0.0333 1.7827,0.05z"/>
   <path id="_216284776" class="fil9" d="M115.799 89.3394c0.0167,-0.4165 0.0333,-0.8497 0.05,-1.2829 -18.3426,-0.4498 -36.7517,-0.0833 -55.0943,-0.6997 -0.3665,0.3665 1.9992,1.3661 2.399,1.4494 4.215,0.3332 8.5466,0.0334 12.7782,0.2166 13.2779,0.0167 26.5892,0.0833 39.8671,0.3166z"/>
   <path id="_379149592" class="fil9" d="M36.9478 88.3897c0.6164,-0.0666 4.165,-0.633 3.7985,-1.1828 -8.1467,-0.8497 -16.8931,-0.4498 -25.1231,-0.2333 -0.6831,0.0667 -0.4665,0.3332 -0.3332,0.9663 7.2137,0.1833 14.4441,0.3999 21.6578,0.4498z"/>
   <path id="_215173560" class="fil6" d="M147.236 87.6067c2.7656,-0.1666 5.4145,-1.6826 8.0967,-2.3657 3.332,-0.4665 7.0139,-5.1479 9.5961,-7.4803 -0.0499,-0.0333 -0.0999,-0.0833 -0.1499,-0.1333 -7.6636,-0.1999 -15.3271,-0.3998 -22.9907,-0.6164 0.0334,0.3166 0.4332,0.7331 0.5831,1.0496 -0.0499,1.9326 -0.0499,1.9326 0,9.4628 1.6161,0.0167 3.2321,0.05 4.8647,0.0833z"/>
   <path id="_215173344" class="fil6" d="M111.801 87.3402c1.1329,-0.3666 2.8489,-0.15 4.065,-0.1666 0.3666,-1.4661 -1.0828,-9.5128 0.6498,-9.996 0.1832,-0.2165 0.2999,-0.3332 0.2999,-0.633 -34.6526,-0.6664 -69.3219,-1.4161 -103.974,-1.9493 -0.5665,1.1496 1.566,11.2788 2.0491,11.5953 8.8798,0.0833 17.7761,0.4998 26.6559,0.4998 2.3657,-0.3165 4.6314,-1.0995 6.9971,-1.4494 4.4982,-0.0833 7.9634,1.1496 12.2784,1.616 16.9931,0.0333 34.0361,0.15 50.9792,0.4832z"/>
   <path id="_215177664" class="fil8" d="M13.8406 85.9407c-0.5665,-2.8655 -1.0996,-5.7809 -1.616,-8.6631 -2.1658,0.4331 -1.2662,8.3299 1.616,8.6631z"/>
   <path id="_216015584" class="fil3" d="M215.759 85.6075c0.833,-0.1999 0.6164,-4.6148 0.633,-5.2811 -1.7992,0 -3.5652,-0.05 -5.3478,-0.2666 0,1.566 0.1,3.1487 0.1999,4.7147 0.2499,1.0163 3.6486,0.8164 4.5149,0.833z"/>
   <path id="_379149112" class="fil3" d="M215.709 79.61c1.566,-0.4498 0.4998,-4.4316 0.3499,-5.781 -1.6161,-0.1833 -3.382,-0.2999 -5.0147,-0.2999 -0.6331,0.3166 -0.1666,4.5981 -0.0999,5.6144 0.6664,0.6664 3.8817,0.4665 4.7647,0.4665z"/>
   <path id="_379149064" class="fil9" d="M163.73 76.8944c0.5165,-0.0166 2.9988,-0.1832 3.1654,-0.7164 -6.0642,-0.4331 -12.1284,-0.4831 -18.2259,-0.5331 -8.2633,-0.2832 -8.2633,-0.2832 -8.3799,-0.2499 0,0.8663 1.1661,1.1829 1.8325,1.2495 7.1971,0 14.4109,0.1666 21.6079,0.2499z"/>
   <path id="_379149688" class="fil9" d="M117.082 75.9448c0.6331,-0.1833 1.2162,-0.2666 1.3495,-0.9496 -8.963,-0.6164 -27.2723,1.2162 -33.1699,-0.7497 -24.1901,-0.3332 -48.397,-1.2328 -72.5871,-1.4161 0,0.4498 -0.05,0.7664 0.3831,0.9829 1.5661,0.1 1.5661,0.1 9.113,0.3332 31.6371,0.2999 63.2743,1.2495 94.9114,1.7993z"/>
   <path id="_216284056" class="fil5" d="M168.061 75.5116c0.933,-0.4664 1.716,-0.9829 3.5152,-1.8825 9.4962,-4.1483 10.3958,-0.7497 10.3958,-11.0289 -0.0833,-1.7159 -0.1666,-8.8797 -1.1828,-9.896 -1.6494,0 -3.5319,0.4165 -2.549,-2.0491 0.5997,-0.1166 1.8826,-0.1666 2.399,-0.4665 -0.6497,-7.7135 -2.8155,-15.1272 -5.2645,-22.4409 -0.6997,-1.0495 -2.1158,0.8497 -2.5157,-0.8496 0,-2.2325 1.7493,-0.7664 0.833,-2.8988 -2.399,-4.5149 -4.9979,-8.9464 -7.5802,-13.3446 -1.6993,-2.1658 -4.9647,-1.9659 -7.4803,-2.3157 -23.6237,-4.4982 -48.447,-3.5653 -72.3706,-2.6157 -18.076,1.2662 -36.102,3.2154 -54.0947,5.2812 -4.2482,0.6164 -14.1442,1.2828 -16.5766,5.3479 -0.9995,3.182 -1.5826,6.4973 -1.8825,9.8293 -2.1158,15.0605 -2.4324,30.6042 -1.0829,45.7647 34.5026,1.0829 69.0386,1.9159 103.558,2.3657 4.798,0.4332 3.6318,-1.6326 7.297,-4.065 0.3832,-0.05 0.3832,-0.05 10.7623,-0.05 2.5157,0.4499 3.2654,3.9484 5.7144,4.6148 9.3295,0.2499 18.809,0.0167 28.1052,0.6997z"/>
   <path id="_216284464" class="fil3" d="M214.809 73.0626c2.3323,-0.0999 0.683,-2.5656 0.2998,-4.4648 -3.0487,-1.3994 -3.9317,1.6826 -4.2316,4.0817 1.3162,0.2832 2.5823,0.3332 3.9318,0.3831z"/>
   <path id="_216284344" class="fil0" d="M173.442 69.3975c2.1825,-1.0829 1.4828,-19.8087 1.4828,-20.1752 -0.1833,-7.3636 -0.9496,-14.3441 -2.8988,-21.4579 -1.5494,-4.5815 -3.2987,-10.0126 -6.3141,-13.8444 -1.3328,-0.9163 -4.1983,-0.2665 -5.7144,-0.1999 -9.0297,0.1 -18.076,0.6164 -27.089,0.6164 -0.5664,0.0833 -1.3828,0.0333 -1.6993,0.5664 -0.05,0.4998 0,7.5636 0.0167,53.6282 14.0609,0.1833 28.1552,0.5332 42.2161,0.8664z"/>
   <path id="_216284368" class="fil10" d="M172.726 68.5145c1.466,-2.9488 1.2994,-6.4141 1.2994,-9.6461 -1.2828,0 -2.6489,1.0163 -3.5152,-0.5498 -0.783,0 -5.5644,3.1987 -5.7976,4.1483 1.9991,2.499 -1.1163,2.6323 -1.5661,3.9818 -0.7497,1.2328 -1.8326,0.6164 -2.0825,1.9492 4.8814,0.0833 4.8814,0.0833 11.662,0.1166z"/>
   <path id="_216284392" class="fil11" d="M159.448 68.3979c2.0659,-0.7664 0.8497,-1.2828 -0.3498,-2.2325 -4.4982,-4.4981 -3.5986,-0.0333 -1.2329,1.8326 0.5332,0.2832 0.983,0.3665 1.5827,0.3999z"/>
   <path id="_216284080" class="fil0" d="M128.677 68.3979c0,-17.7595 0.783,-35.8355 -0.1333,-53.5616 -9.7793,0 -19.5753,0.4998 -29.3547,0.6331 -0.0666,12.0617 -0.1499,24.1235 -0.2332,36.2019 -0.7664,3.8485 0.9662,9.5628 -0.2333,13.1614 0,0.9995 0,2.0158 0.0167,3.0321 9.9293,0.4997 19.9919,0.2832 29.9378,0.5331z"/>
   <path id="_216284680" class="fil10" d="M156.999 68.2313c-0.2665,-1.616 -3.6985,-4.4149 0.0333,-4.9813 0.1167,-0.9163 0.3166,-1.4661 1.1163,-1.9992 1.9658,-0.9163 -3.332,-3.8651 -4.6648,-5.0813 -2.9322,-2.9321 -4.9147,-6.3308 -8.7298,-8.0134 -1.1995,-0.6331 -4.6648,-4.4315 -5.0313,-3.5486 -2.449,1.0496 -5.1812,6.5807 -6.3641,8.7965 -2.1824,4.6148 -1.3661,9.1296 -1.3661,14.1276 0.0833,0.0499 0.0833,0.0499 1.7993,0.1666 0.9996,0.0166 11.0788,0.4164 11.0288,0.1666 -0.0833,-0.1666 -2.5489,-5.7477 -1.1661,-4.3649 3.132,5.3145 1.1661,4.3982 8.4632,4.698 1.616,0 3.2487,0.0167 4.8813,0.0334z"/>
   <path id="_216284488" class="fil0" d="M95.0909 67.8981c0.8496,-17.3097 0.5831,-34.9025 0.8496,-52.2288 -0.0166,-0.0167 -0.0333,-0.0333 -0.0666,-0.0666 -2.449,0.0833 -25.8229,0.1332 -26.406,1.0162 0,16.6099 -0.4664,33.2198 -0.2832,49.8298 0.1166,0.5331 0.1166,0.4498 0.6331,0.5831 8.4132,0.5331 16.8598,0.5497 25.2731,0.8663z"/>
   <path id="_216284584" class="fil12" d="M127.678 67.5149c0.4332,-6.2974 0.1999,-12.7282 0.1999,-19.0256 -0.4664,0 -0.8496,0.2499 -1.2661,0.4498 -0.2832,0.2166 -4.2983,10.4291 -3.1821,12.1118 2.4824,2.1991 1.5494,1.8159 -0.4331,4.5481 0,2.4323 3.232,1.8992 4.6814,1.9159z"/>
   <path id="_216284608" class="fil13" d="M123.013 67.3983c-0.1332,-1.0163 -2.249,-3.8151 -3.3486,-3.9151 -0.9829,0.933 -2.0158,1.7326 -3.1654,2.499 -0.2999,0.1666 -2.6156,0.8996 -1.3661,1.2162 2.6156,0.1499 5.2479,0.1832 7.8801,0.1999z"/>
   <path id="_216284656" class="fil14" d="M111.301 67.2817c9.2963,-1.5161 15.5271,-13.328 5.4645,-18.7924 -3.8151,-1.666 -2.1325,-2.3491 -6.1808,-0.1166 -3.0488,1.4327 -7.5303,4.065 -10.8956,4.5315 0,4.5648 -0.2832,9.3462 0.05,13.8943 0.1832,0.0667 0.1832,0.0667 1.566,0.1833 3.8818,0.0999 5.9976,0.2166 9.9959,0.2999z"/>
   <path id="_216285088" class="fil0" d="M66.3692 67.0651c0.0333,-0.0167 0.0666,-0.0333 0.1166,-0.05 0.0833,-18.9423 0.1999,-29.2215 0.2499,-50.2462 -0.2832,-0.0167 -0.5664,-0.0334 -0.8663,-0.05 -12.6948,0.4831 -25.423,0.8663 -38.1178,1.2328 -1.9992,3.7485 -1.6327,9.6461 -2.0992,13.8277 -0.5831,11.512 0.2999,23.124 2.1658,34.4693 12.8448,0.3832 25.7062,0.3332 38.551,0.8164z"/>
   <path id="_216284920" class="fil11" d="M162.447 66.8485c0.8163,-1.4328 -0.7663,-2.2158 -1.7326,-2.9488 -0.933,-1.2662 -1.0662,-2.1991 -2.7822,-1.9159 -0.7331,2.9488 2.2824,4.3316 4.5148,4.8647z"/>
   <path id="_216284800" class="fil15" d="M94.2579 66.7819c0.5997,-1.1996 0.1832,-10.1126 -0.0167,-10.0793 -0.8996,0.4832 -4.6314,1.0329 -4.6148,1.0996 2.1158,0.3498 2.3657,-0.4165 0.833,2.1158 -0.7497,1.0829 -2.8655,2.5156 -3.1154,3.5485 1.8326,1.3662 -0.8496,1.6993 -1.0329,3.2654 2.6489,0.0166 5.2978,0.0333 7.9468,0.05z"/>
   <path id="_216284824" class="fil16" d="M83.9787 66.6153c0,-0.6165 -1.5327,-1.9826 -2.2491,-2.0825 -0.8996,0.6497 -2.2157,1.0495 -2.8655,1.9159 1.6993,0.1499 3.4153,0.1499 5.1146,0.1666z"/>
   <path id="_216284944" class="fil17" d="M76.0986 66.6153c6.1308,-1.2995 10.6457,-6.3808 7.4136,-12.495 -1.5827,-2.1991 -3.6318,-4.0816 -4.4981,-6.6972 -1.3495,-1.3495 -3.7652,1.6493 -5.4145,-0.2833 -1.8326,-3.282 -1.6993,-1.3494 -1.2328,1.0829 -0.783,-0.0333 -1.5827,-0.0666 -2.3824,-0.0999 -0.05,3.1654 -1.0329,9.2795 -0.0167,11.8452 4.5982,0 9.0797,-1.8493 10.1626,-6.5807 0.733,-1.9659 0.2166,0.3165 0.2832,1.0829 3.2154,3.9651 -6.1308,2.7156 -5.4478,7.5636 2.1491,0.1333 3.4986,-1.3828 2.549,1.8659 -0.8663,1.2995 -0.2832,-1.0163 -0.2832,-1.5827 -2.7323,0.5831 -4.5482,0.2666 -7.2471,-0.0333 -0.05,1.2495 -0.0833,2.499 -0.0666,3.7485 0.3998,0.5997 5.1645,0.5497 6.1808,0.5831z"/>
   <path id="_216284848" class="fil16" d="M85.1449 66.3987c2.2658,-2.5823 3.0654,-1.5161 -0.4998,-4.0984 -0.683,0 -1.7826,1.2662 -2.1491,1.766 0.1333,0.5498 2.0658,2.1491 2.6489,2.3324z"/>
   <path id="_216285064" class="fil18" d="M63.537 66.1821c0.4332,-0.0833 0.5331,-0.05 0.4332,-0.4998 -2.6656,-3.4486 -6.3308,-10.2791 -2.0992,-13.911 0.7664,-0.4332 3.3987,-1.2662 3.9817,-1.8493 0,-0.5164 0.2833,-4.3149 -0.2165,-4.2149 -2.8322,1.8826 -6.7306,5.3978 -6.564,9.0796 0.4165,2.7989 0.5831,4.7481 -0.7664,7.3137 0,1.4994 3.5652,3.9984 5.2312,4.0817z"/>
   <path id="_216284896" class="fil19" d="M59.2721 66.1155c0,-0.2833 -2.3824,-1.6327 -2.9821,-1.6327 -3.5319,2.6156 0.2499,1.616 2.9821,1.6327z"/>
   <path id="_216285112" class="fil14" d="M52.4415 66.1155c8.0967,-2.0159 8.6965,-17.9594 -0.2332,-17.9594 -0.3832,0.1333 -0.7664,0.2666 -1.1495,0.3998 -1.0496,-2.3823 -7.9301,-4.5648 -8.4799,-1.5993 -0.3832,0.7663 -0.3999,-0.5165 -0.4998,-0.7997 -1.2495,0.2166 -0.9996,2.1158 -1.6327,0.6164 -0.9829,0 -0.4831,2.1492 -1.2495,0.883 -0.833,0 -0.3498,0.9496 -1.4994,0.9496 -1.6826,1.8326 -3.8484,2.599 -4.6148,5.1146 0,2.2657 0.9497,9.3462 1.9659,10.0293 2.499,0.2998 3.0821,-0.3832 3.6985,1.8325 4.5148,0.2999 9.1629,0.3666 13.6944,0.5332z"/>
   <path id="_216285184" class="fil2" d="M60.3716 65.7823c0,-1.1496 -3.5985,-3.9318 -3.282,-1.6993 1.0663,0.7497 2.0825,1.2161 3.282,1.6993z"/>
   <path id="_216284968" class="fil17" d="M65.6029 65.7323c0.3998,-0.8164 0.2665,-5.6977 -0.0833,-6.6973 -0.2499,-0.2499 -2.549,-3.0987 -3.0988,-3.0987 -1.1662,2.4823 -0.733,-2.1658 1.9326,-1.0329 -0.2166,0.4331 -1.3662,0.1332 -1.2662,0.6997 1.2328,1.6493 2.6156,5.1979 2.7655,0.9662 0,-5.1812 1.5827,-7.247 -3.3819,-4.6314 -3.9317,3.0821 -1.1829,12.0784 3.1321,13.7944z"/>
   <path id="_216284872" class="fil19" d="M37.9474 65.5657c-0.1999,-1.566 -4.7814,-1.3994 -6.3641,-1.3495 -0.0499,0.5165 -0.0499,0.5165 -0.0333,1.1829 1.1162,0.0833 1.1162,0.0833 6.3974,0.1666z"/>
   <path id="_216284992" class="fil19" d="M30.8337 65.3491c0,-2.6489 0.5497,-1.7993 3.1987,-1.7659 -0.0167,-0.1 -0.3999,-3.8818 -1.0663,-3.8818 -4.5815,2.4657 -6.414,-4.8147 -0.683,-4.5815 -0.1833,-2.2824 -0.6498,-4.6314 -1.0829,-6.8638 -0.4165,-1.5328 -5.0646,-0.7664 -3.1987,-2.0992 2.9821,-0.5831 2.7322,0.7997 1.4827,-2.9321 -0.1666,-1.1995 -0.4332,-1.5161 0.7497,-1.5161 0.3998,1.0329 0.3332,2.3491 0.8163,3.332 0.3999,0.1333 0.5831,-2.9988 1.1829,-3.6652 2.0825,0 -2.0492,5.4811 0.5997,4.165 0.5332,-0.1 1.6327,-0.1666 1.4661,0.6997 -2.1824,1.2162 -2.2324,0.783 -2.1658,3.4153 0.0667,0.4498 0.5665,2.9321 0.8997,2.8322 1.3494,-2.2991 3.8651,-2.549 2.8988,-5.2479 0,-0.7164 1.666,2.1824 1.4994,0.2832 -0.2999,-0.8163 -0.883,-3.0154 0.3498,-1.1995 0.783,2.4657 1.1162,-0.4665 1.1995,-1.2995 0.2166,-0.6497 0.3166,2.1991 1.3828,1.1329 0.2999,-2.0325 0.6664,-2.8988 0.6664,-0.3498 1.7993,0 0.8497,-2.699 2.0492,-2.2991 -0.1,0.5664 -0.2666,1.1329 -0.2666,1.6993 1.9326,-0.1 3.7485,-0.1666 5.681,0.1499 0,-2.8988 -1.7492,-2.6156 -3.6651,-2.7155 -1.5161,-1.5161 2.249,-0.783 1.5327,-1.9326 -0.4165,-0.4165 -4.0317,-4.748 -1.5827,-3.2153 0.5664,0.5164 2.5823,3.7151 2.2491,1.7826 -1.2329,-2.8988 -0.1,-4.948 0.833,-0.6498 0.2832,2.9488 0.733,1.2828 2.7488,0.4832 1.9826,0 -2.0824,2.4157 -2.0824,3.4153 0.4331,1.5493 0.9662,3.9317 2.4156,4.898 1.3995,0 5.8477,1.6993 5.8643,1.6326 -1.3827,-3.7318 -1.2661,-3.2986 -5.3145,-3.2986 -0.1166,-1.3995 2.1325,-1.2662 2.9655,-1.3328 0,-0.05 -3.6152,-5.6144 -0.933,-4.1317 0.6664,0.883 0.6831,2.2991 1.4161,3.0321 0.2499,-1.0162 -0.3165,-3.6651 0.4498,-4.2316 1.9826,0.3832 -0.1666,4.8814 0.9163,4.8814 1.7327,-2.0825 2.9988,-0.2166 1.1162,0.5664 -1.8492,1.2328 0.7331,5.3478 1.2995,6.614 0.3832,1.2328 2.2991,-2.4324 2.9322,-3.1154 1.3327,-1.1995 3.8651,-2.4657 4.3648,-4.1317 0,-8.3966 0,-16.8098 0,-25.2231 -0.0166,-0.2832 0.05,-0.7663 -0.1832,-0.9162 -12.5116,0.2332 -25.0398,0.7163 -37.5348,1.1162 -0.0499,0.0333 -0.0999,0.0666 -0.1499,0.1166 -2.6989,15.6103 -2.2158,30.6375 0.2832,46.2478 0.2832,0.0667 0.2832,0.0667 2.3991,0.1z"/>
   <path id="_216285208" class="fil11" d="M163.996 65.0159c2.8988,-1.5993 -6.1975,-8.2466 -3.5652,-2.4323 0.9996,1.4327 1.8326,2.3323 3.5652,2.4323z"/>
   <path id="_216285016" class="fil13" d="M122.58 64.8993c2.449,-2.3324 1.8159,-2.399 -0.7664,-4.0317 -0.6997,-0.1 -1.2328,1.2495 -1.5993,1.7993 0,0.1332 1.9825,2.1491 2.3657,2.2324z"/>
   <path id="_216285040" class="fil0" d="M44.778 63.3999c7.3637,-0.8663 10.9289,-5.1479 7.8968,-12.7282 -0.3832,-0.0833 0.1832,2.4157 0.4664,2.8989 1.3995,10.7623 -13.9276,12.3616 -17.3262,3.282 0,-0.6998 1.4827,-0.933 1.3161,-1.6327 -2.5823,0 -3.5819,5.8809 -1.9159,2.549 0.7164,-0.1 1.2828,1.9158 1.7826,1.9158 1.2995,1.6327 2.399,2.8822 4.4982,3.5153 1.0829,0.1499 2.1824,0.1666 3.282,0.1999z"/>
   <path id="_216285136" class="fil0" d="M109.352 63.0167c1.5827,-0.3332 2.8322,-0.7663 4.1983,-1.6326 2.6156,-2.1825 3.8151,-4.4982 4.7314,-7.8635 0,-2.9655 -1.8326,3.5652 -2.0325,4.015 -3.5818,5.5811 -10.1125,6.4807 -14.8439,1.7493 -0.983,-1.3494 0.5331,-0.9496 0.5331,-2.1325 -1.6494,0.15 -2.8822,3.9484 -1.3828,4.315 0,-0.2999 -0.1666,-1.6994 0.0666,-1.766 2.8989,2.1991 5.0647,3.232 8.7298,3.3153z"/>
   <path id="_216285160" class="fil16" d="M86.7609 62.7335c2.8489,-2.2991 6.1475,-4.5815 0.0167,-4.5815 -0.4832,0.3166 -1.4994,4.2983 -0.0167,4.5815z"/>
   <path id="_216277576" class="fil2" d="M74.5326 62.3503c0.0499,-0.7996 -0.1333,-1.6493 -0.1333,-2.4823 -1.3328,0 -6.4807,0.5498 -3.432,2.2158 1.1496,0.2499 2.3824,0.2499 3.5653,0.2665z"/>
   <path id="_216277144" class="fil20" d="M164.113 61.9505c0.9496,-1.9159 6.1475,-3.1654 6.1475,-5.1812 -0.1166,-0.4332 -0.1166,-0.4332 -0.3499,-2.1658 -2.8655,0 -6.1308,3.3153 -7.8134,5.2312 0.0833,0.5831 1.4494,2.0325 2.0158,2.1158z"/>
   <path id="_216277456" class="fil14" d="M31.6167 59.7847c2.1158,-0.6497 1.3994,-1.8326 1.0829,-3.7485 -4.0151,-2.3324 -5.0313,3.5819 -1.0829,3.7485z"/>
   <path id="_216277696" class="fil21" d="M158.782 59.6181c1.716,-3.7318 1.1329,-5.3312 -2.0991,-8.08 -1.3661,-1.666 -1.2995,4.1149 -1.4161,5.2312 0.833,0.833 2.4157,2.6322 3.5152,2.8488z"/>
   <path id="_216277120" class="fil10" d="M161.497 59.4015c2.2657,-2.5656 4.9646,-4.4815 8.2466,-5.5977 0.6998,-2.0991 -2.9654,-4.3816 -4.0816,-5.3145 -1.1329,-1.0996 -3.1654,-3.6652 -4.7148,-1.8493 0,4.2983 0.3166,8.5966 -1.1162,12.7115 0.6831,-0.0999 0.9996,-0.1166 1.666,0.05z"/>
   <path id="_216277720" class="fil11" d="M172.16 58.8517c1.1662,-0.9662 0.933,-8.7631 -1.3494,-6.4807 -0.3999,1.3662 -0.3332,6.0143 1.3494,6.4807z"/>
   <path id="_216277840" class="fil2" d="M85.5281 58.6851c0.3498,-0.5164 0.7497,-3.3819 0.7497,-4.3149 -1.3328,-0.2832 -1.3328,-0.2832 -1.7493,-0.2998 0.1499,0.683 0.9663,4.6147 0.9996,4.6147z"/>
   <path id="_216277744" class="fil19" d="M122.413 58.5685c0,-0.8163 1.1162,-3.2486 1.3661,-4.1649 1.2328,-5.4645 2.0325,-3.8818 -2.1158,-6.3308 -1.2662,-2.5323 2.5656,-0.05 2.9321,-0.1333 0,-1.8159 -1.7659,-3.9317 -0.0833,-5.3978 1.5494,0 0.883,3.6818 1.2162,4.5981 0.4498,0.15 2.2824,-6.0308 2.3157,-7.5802 -0.2499,-6.6806 -0.1332,-13.4279 -0.1666,-20.1085 -0.0999,-3.4319 -0.0999,-3.4319 -0.1666,-3.8318 -9.1296,0 -18.4091,0.1333 -27.5221,0.7497 -0.1666,8.33 -0.2999,16.6599 -0.3332,24.9899 0.9663,0 3.965,-7.0305 2.0658,-8.38 -2.349,-0.783 -0.8996,-2.6989 1.0829,-0.7163 0.6331,0.1999 -0.4831,-3.9484 0.4831,-5.048 1.2162,0 0.8164,3.7152 0.8164,4.3149 1.3994,-0.3498 0.4831,-3.5319 2.3823,-3.5319 1.2662,0.7164 -1.4494,3.7485 -1.5993,4.6981 0.783,0.0167 3.4653,-0.2332 3.2653,1.1829 -1.2828,0.3165 -3.5319,-0.3499 -4.3482,0.6164 -0.9496,2.3657 -2.1491,4.8813 -2.5323,7.4136 4.3316,-0.8829 9.1463,-1.566 11.7619,3.0155 2.6989,0 6.8639,-7.4303 8.0967,-9.6294 3.282,0 -1.1162,7.6635 -1.666,8.4465 -0.6664,0.7164 -4.4982,3.1154 -4.4982,3.1821 4.8647,2.9821 7.8802,5.4644 7.1804,11.6452 0.0167,0 0.0334,0 0.0667,0z"/>
   <path id="_216277336" class="fil11" d="M173.992 58.2353c0.3999,-0.3998 0.1999,-5.1479 0.1999,-5.7976 -0.2499,-0.0167 -0.2499,-0.0167 -1.0495,0.1666 0.0833,1.1828 -0.1,5.4478 0.8496,5.631z"/>
   <path id="_216277552" class="fil16" d="M88.4769 57.8522c0.8996,-0.7497 1.7493,-2.5657 1.7493,-3.6985 -3.4153,0.2998 -3.0988,0.1499 -3.432,3.4985 0.8997,0.1666 0.8997,0.1666 1.6827,0.2z"/>
   <path id="_216277600" class="fil2" d="M78.9308 57.5689c1.4161,-0.4664 2.1658,-1.2328 1.4161,-2.6322 -0.3166,0 -2.0992,2.4656 -1.4161,2.6322z"/>
   <path id="_216277192" class="fil22" d="M91.6922 56.9025c3.9818,-0.3831 2.9822,-3.4319 2.9488,-6.6139 -2.4989,0.783 -3.965,0.5997 -6.4973,0.7163 -1.3328,3.7985 -0.1,2.599 3.0487,2.1825 -0.3665,2.4157 -2.2657,3.6152 0.4998,3.7151z"/>
   <path id="_216277816" class="fil2" d="M154.667 56.0695c0.7497,-1.2494 1.0663,-4.3149 0.05,-5.5644 -0.883,-0.5664 -5.7476,-1.2495 -6.1808,-0.8163 1.0329,1.2995 4.165,5.8976 6.1308,6.3807z"/>
   <path id="_216277384" class="fil0" d="M43.212 55.02c1.2161,-0.7997 -0.1,-3.6985 -0.8497,-2.1825 0,0.8497 -0.1166,1.8659 0.8497,2.1825z"/>
   <path id="_216277768" class="fil0" d="M106.353 54.9533c1.1495,-0.5664 -0.2999,-4.0983 -1.0163,-2.0158 0,0.9329 -0.0333,1.8326 1.0163,2.0158z"/>
   <path id="_216277216" class="fil0" d="M71.1506 54.4036c0.2832,-0.5165 0.2499,-0.8664 0.2499,-1.4661 -0.9829,-2.7989 -2.1491,1.0995 -0.2499,1.4661z"/>
   <path id="_216277624" class="fil2" d="M160.114 54.3536c0.0167,-0.05 0.7497,-7.1138 -0.3665,-6.9805 -4.1983,2.0991 -2.9988,4.2316 0.3665,6.9805z"/>
   <path id="_216277648" class="fil19" d="M131.959 54.0204c1.9492,-3.9151 4.5148,-6.6806 7.2471,-9.8793 1.0995,-2.499 -1.5161,-0.983 -2.8822,-2.3491 -1.4328,-2.1491 -1.0496,-4.8647 1.7659,-5.4144 0.2499,-0.3832 -0.5497,-4.0817 -0.9162,-4.3483 -1.8493,-0.2332 -3.8818,-0.2665 -4.6815,-2.1824 -0.3165,-4.9147 5.0813,-1.0329 6.8306,-2.0825 4.4482,-4.065 11.0955,-15.0772 18.3758,-9.4628 1.7993,3.232 -1.1995,5.0479 -3.8817,6.414 0.1333,2.0659 0.7497,1.3328 2.8155,0.9496 1.0496,-0.2499 12.9614,-2.5156 8.18,1.5827 -0.7164,0.3166 -4.165,1.0496 -3.8318,1.4994 6.4807,3.3153 6.5307,8.6465 2.9988,14.7607 -0.3665,0.4331 -1.2661,1.2162 -1.2661,1.7993 2.6156,1.9658 5.0979,4.0816 7.5136,6.2807 1.3494,-0.0999 2.6322,0.2 3.965,0.1 0,-11.9118 -1.8326,-23.5904 -7.3137,-34.2694 -0.5664,-0.9663 -1.1162,-2.2324 -1.9158,-3.0321 -5.5478,0.0333 -11.1289,0.1499 -16.6766,0.2832 -15.8269,0.5998 -15.8269,0.5998 -16.1768,0.6664 -0.0499,3.9817 -0.3165,38.6843 -0.1499,38.6843z"/>
   <path id="_216277168" class="fil23" d="M188.22 53.7372c2.349,-1.0496 1.2661,-5.8976 1.1328,-7.8468 -0.7497,-7.2138 -1.6659,-14.4275 -2.7655,-21.6079 -0.3832,-1.6827 -3.7651,-2.3491 -4.7481,-1.0329 0,9.2629 1.2828,18.6091 2.5157,27.772 0.633,2.3824 1.4994,2.6489 3.8651,2.7156z"/>
   <path id="_216277240" class="fil22" d="M86.4277 53.6872c0.5498,-0.3665 0.7164,-2.1825 0.7497,-2.9155 -3.1654,-1.2328 -5.6644,-3.7152 -6.0642,-7.1971 -0.0833,-0.05 -0.5997,0.0167 -0.6497,-0.0333 1.1328,-1.566 2.299,0.3998 2.2491,0.3832 -2.6989,-2.3157 0.4664,3.7984 0.8663,4.3316 0.5997,0.683 4.4648,3.3486 3.5985,1.0162 -0.4831,-0.7663 -3.2153,-1.1995 -1.3161,-2.2824 0.9663,0 1.8825,1.766 1.7659,0.2332 -0.0999,-0.3831 -1.3328,-4.2316 -0.0333,-4.2316 0.9996,1.2828 0.3332,6.0143 1.4661,2.5823 0.733,-2.9321 2.0325,-2.6323 1.2661,-0.1666 -1.4494,2.9655 -1.7159,2.399 1.0329,2.5823 3.2987,0.6997 -2.5989,1.516 -2.7822,1.616 -1.4327,2.1491 4.9647,0.5664 5.8143,0.2666 1.1829,-0.983 0.5998,-10.6124 0.4499,-13.1947 -0.2166,-1.2161 -0.3666,-0.0833 -0.7164,0.1999 -1.5327,-2.6322 -1.4161,2.0159 -1.7326,-0.9329 -1.4328,-0.8163 -1.1829,1.5827 -1.5494,-0.1833 -0.883,-1.3328 -1.1662,1.3162 -1.7993,-0.0999 -3.8151,-0.2166 -5.8643,1.6993 -6.9805,5.2978 -1.0995,1.0996 -2.8988,0.5831 -3.5985,2.7989 0,2.0658 4.5648,3.0987 1.0995,3.3486 -0.4331,2.2324 3.7818,5.7477 5.6977,6.4307 0.6664,0.05 0.6664,0.05 1.1662,0.15z"/>
   <path id="_216277792" class="fil0" d="M47.277 53.6205c0.8496,-1.0162 -0.5165,-3.4152 -1.1162,-2.1991 0,0.9996 0,1.9826 1.1162,2.1991z"/>
   <path id="_216277360" class="fil0" d="M110.685 53.5206c0.5331,-0.7997 0.0167,-2.7156 -1.1828,-2.4157 -0.4498,1.1162 0.0166,2.2158 1.1828,2.4157z"/>
   <path id="_216277288" class="fil0" d="M75.0323 53.2374c0.5998,-0.3999 0.2833,-1.6327 0.0334,-2.1325 -1.3495,-1.566 -1.5827,1.7493 -0.0334,2.1325z"/>
   <path id="_216277408" class="fil8" d="M100.189 52.2378c2.9321,-0.9663 5.8476,-2.2491 8.6132,-3.6319 1.7826,-1.4161 -5.3645,-7.2804 -8.5632,-4.6648 -0.3999,0.7997 -0.9163,8.1801 -0.05,8.2967z"/>
   <path id="_216277312" class="fil2" d="M179.99 52.0712c1.2162,-0.1166 2.4323,-0.2499 3.6652,-0.3832 -0.1666,-1.5494 -4.7814,-1.1329 -4.7814,0.3332 0.3665,0.0167 0.733,0.0333 1.1162,0.05z"/>
   <path id="_216277864" class="fil2" d="M155.9 50.2886c2.3657,-1.5661 0.2999,-1.3328 -1.2495,-0.8497 -0.15,0.6331 0.8163,0.8163 1.2495,0.8497z"/>
   <path id="_216277264" class="fil2" d="M181.939 50.122c0.8496,-0.0833 1.3994,0.1166 1.4827,-0.6664 -0.883,-7.2971 -1.8492,-14.5941 -2.6322,-21.9078 -5.4978,-0.05 -4.6815,-0.9829 -2.8156,4.5315 1.5494,5.8143 2.8156,11.5286 3.6152,17.4929 0.05,0.3165 0.05,0.4998 0.3499,0.5498z"/>
   <path id="_216277432" class="fil11" d="M153.284 48.9558c7.4136,-1.5161 13.861,-7.4303 11.6952,-15.527 -0.8496,-1.9826 -3.6652,-4.5982 -5.8643,-4.5982 -3.8151,0.8497 -7.7468,0.9663 -11.5786,1.666 -2.3324,0.7997 -6.6306,1.8992 -6.8805,4.5148 -1.0996,4.2816 -2.2991,0.4998 -4.165,3.1488 -1.1495,3.6651 1.0163,3.4985 3.7485,3.2153 0.2332,5.8643 8.4465,7.5136 13.0447,7.5803z"/>
   <path id="_216277672" class="fil24" d="M109.918 47.9562c2.3157,-1.1829 4.6148,-1.9659 1.516,-4.1817 -0.8163,-1.9158 -8.2633,-3.1154 -8.7631,-1.0662 3.2654,0.5998 5.6144,2.0825 6.9472,5.2146 0.0999,0 0.1999,0.0166 0.2999,0.0333z"/>
   <path id="_216277480" class="fil18" d="M71.5338 47.6896c0.8829,-0.2166 -1.3995,-4.948 0.9329,-2.9654 2.7656,3.282 2.3158,2.249 7.0805,1.6826 0,-2.4157 -7.9135,-2.9321 -9.5128,-2.6822 0,1.2828 0,2.5656 0,3.8484 0.4998,0.0333 0.9996,0.0666 1.4994,0.1166z"/>
   <path id="_216277504" class="fil2" d="M127.511 47.4564c0.6831,-0.3832 0.4832,-2.1825 0.2333,-2.1825 -0.2166,0.5332 -0.983,2.0659 -0.2333,2.1825z"/>
   <path id="_216277528" class="fil8" d="M114.85 45.957c4.165,-0.8663 6.4974,-5.0979 6.8306,-9.0963 -0.15,0 -3.1654,4.3316 -3.7485,4.9813 -1.3162,1.3328 -2.6489,2.6156 -4.0984,3.8151 -0.0833,0.5498 0.5165,0.2999 1.0163,0.2999z"/>
   <path id="_379148992" class="fil19" d="M77.7646 43.9578c0.9662,-1.7326 1.616,-2.499 3.3486,-3.3153 0,-1.2495 -2.7989,-6.4474 -3.1987,-6.8472 -1.0329,0 -4.848,0.8663 -3.6318,-0.7497 2.7155,-1.5494 3.2153,0.3332 0.683,-3.5153 -0.5997,-1.9325 0.1833,-2.2324 1.2162,-0.6164 1.0829,2.9988 1.3161,2.6823 0.9496,-0.3498 0,-3.0155 1.0995,-1.5994 1.2162,0.5497 0,2.8822 -0.4332,3.1321 1.1495,1.5494 0.933,-0.2832 1.666,0.2832 1.1162,1.1829 -3.2653,2.5489 0.3166,4.798 1.0829,7.6802 0.3998,-0.1 1.8826,-2.549 2.399,-3.0821 2.0159,-1.5827 4.8147,-0.4165 4.898,-2.7989 0.5332,0.0667 0.6664,2.3824 1.7327,1.3162 0.1666,-2.2991 0.683,-1.1662 0.733,0.2998 1.0829,0.3832 2.0325,-2.9321 1.8826,-1.0329 -0.4332,1.7327 0.5331,1.9326 0.6164,-0.2166 0.9829,-0.4831 0.1832,1.5328 0.883,1.5328 0.3498,-0.9663 0.4331,-18.7091 0.1999,-18.9423 -3.8318,0.0666 -24.4068,0 -24.8566,0.9163 -0.0999,8.4132 -0.2166,16.8264 -0.2166,25.2397 0.1666,0.1666 4.5315,0.3665 5.1813,0.4498 2.2824,0.6664 2.3157,0.7164 2.6156,0.7497z"/>
   <path id="_379149016" class="fil2" d="M99.9722 43.408c1.1162,-0.5497 1.9659,-0.7663 0.3832,-1.2161 -0.4165,0 -0.6831,1.1162 -0.3832,1.2161z"/>
   <path id="_379148728" class="fil0" d="M92.4753 42.5251c0.5997,-0.6831 0.8663,-1.8326 0.3665,-2.649 -1.2995,-0.6497 -1.5827,2.499 -0.3665,2.649z"/>
   <path id="_379148752" class="fil0" d="M88.0937 42.0752c0.6331,-0.633 0.8996,-1.466 0.6331,-2.4156 -1.0329,-1.033 -2.0492,2.2157 -0.6331,2.4156z"/>
   <path id="_379148344" class="fil0" d="M154 40.8591c1.7827,-0.6165 3.5486,0.1832 4.4482,-1.616 1.1829,0.0833 4.0817,-1.0163 4.1983,-2.3824 -0.6664,-1.7826 -1.1828,-3.9651 -3.4152,-2.9322 -0.0833,0 -2.6323,-2.1991 -2.1658,-1.0162 3.282,0.8163 -1.0496,5.3645 -4.065,3.6152 -0.2666,-0.6331 -2.9155,0.9829 -1.9493,1.9492 4.4316,1.666 -1.7326,2.0158 -3.6485,1.3494 -0.833,-0.5164 -1.7326,-1.0495 -1.9492,-2.0824 3.4653,-1.9159 -0.683,-0.983 -1.6326,1.0495 -0.3832,2.6989 0.4331,-1.2161 1.5826,0.4165 2.3491,2.3491 5.7144,1.3328 8.5965,1.6494z"/>
   <path id="_379148368" class="fil23" d="M154.067 40.5259c1.4661,-1.2662 0.9496,-2.7656 1.9492,-0.7497 1.6493,1.9159 1.8826,-1.8826 1.9159,-2.4824 1.1495,0 -0.2499,2.2325 2.4323,1.2329 0,-0.5998 -1.4827,-1.6827 -0.6664,-1.816 2.549,2.4824 3.3153,-0.2498 0.6498,-1.6493 0.1666,-0.5164 1.2495,0.3166 1.1328,-0.1832 -1.9325,-2.3491 -3.7984,1.9492 -5.9809,2.6655 -0.3165,0 -5.2145,-1.0995 -4.2482,0.6664 0.6497,0.2999 1.1328,0.3499 1.8492,0.3832 0,1.1496 -0.2332,1.8326 0.9663,1.9326z"/>
   <path id="_379148440" class="fil2" d="M139.173 36.5775c0.6998,-0.7497 0.7664,-1.4494 0.8997,-2.449 -0.4998,0.1166 -0.9496,0.3498 -1.4161,0.5831 0,0.4998 0.0166,1.8659 0.5164,1.8659z"/>
   <path id="_379149472" class="fil0" d="M151.235 34.1285c0.4831,-0.2333 0.2832,-1.4494 0.1833,-1.8659 -1.0996,-1.9159 -1.9326,1.6993 -0.1833,1.8659z"/>
   <path id="_379149784" class="fil25" d="M138.623 33.7953c4.9313,-2.2491 9.796,-4.7148 14.794,-6.8139 0,-0.9663 0.0832,-2.2325 -1.1829,-1.6494 -1.1162,0.1833 -2.449,0.8664 -3.4486,1.2662 -3.6152,1.716 -7.4303,3.8318 -10.4124,6.514 -0.0334,0.4498 -0.1833,0.6164 0.2499,0.6831z"/>
   <path id="_216017288" class="fil0" d="M154.9 33.0289c0.8496,-1.0162 -0.3665,-3.2653 -0.7997,-1.7493 0.0333,0.7997 -0.0666,1.4994 0.7997,1.7493z"/>
   <path id="_215173680" class="fil10" d="M138.457 31.7961c0.0499,-0.0833 1.7992,-1.0329 7.1137,-4.2483 3.1654,-1.616 6.564,-2.7655 9.6794,-4.3982 5.2479,-3.8484 0.8664,-6.0975 -3.5818,-5.2146 -5.5478,2.0326 -8.18,7.8635 -13.0947,10.9456 -1.6827,0 -3.7818,-2.1991 -5.3645,-0.3499 -1.1162,2.449 3.6818,2.9655 5.2479,3.2654z"/>
   <path id="_215173704" class="fil6" d="M12.3911 29.5803c0.4832,-0.8163 0.8664,-4.165 0.6498,-5.0313 -2.9488,-1.566 -3.6652,-3.0987 -3.6652,0.4165 0.3665,1.7993 1.1495,3.9151 3.0154,4.6148z"/>
   <path id="_215173872" class="fil10" d="M151.668 29.4637c1.6326,-0.1666 13.1113,-1.2828 13.7277,-3.7651 -3.3153,-0.8497 -6.9472,0.0833 -10.2292,0.7996 -1.7326,0.5665 -3.0321,1.8493 -4.9979,2.499 -1.4828,0.7331 1.0162,0.4665 1.4994,0.4665z"/>
   <path id="_215173152" class="fil2" d="M174.275 26.9647c1.1496,-0.0666 7.2638,0.4332 6.5141,-1.4494 -1.4828,0 -7.1638,-0.1499 -7.3137,1.0662 0.1332,0.4332 0.3665,0.3666 0.7996,0.3832z"/>
   <path id="_215173776" class="fil5" d="M13.1742 23.5828c0.2165,-1.1496 0.5164,-2.2991 0.5831,-3.4653 -4.3983,-0.8996 -6.2308,-1.3495 -6.5807,-1.3661 0,1.2328 4.4982,4.6648 5.9976,4.8314z"/>
   <path id="_215173608" class="fil6" d="M172.893 20.534c0.9329,-1.2162 1.8326,-8.4799 -0.0334,-8.4799 -1.1995,0.7664 -2.449,1.5494 -3.7151,2.2324 0,0.8164 3.3153,6.0309 3.7485,6.2475z"/>
   <path id="_215173320" class="fil5" d="M168.944 13.6368c1.1328,-0.6164 6.2474,-3.7818 5.7976,-5.631 -2.5656,0.0999 -5.8476,0.8663 -7.9801,2.3323 0,0.1833 1.3328,3.1654 2.1825,3.2987z"/>
   <path id="_214687136" class="fil26" d="M126.997 83.2781l0 4.2714 -0.6684 0 -0.4574 -1.1258c-0.4867,0.8355 -1.2386,1.2553 -2.2579,1.2553 -1.1384,0 -1.9885,-0.4345 -2.5504,-1.2992 -0.5597,-0.8647 -0.8417,-1.8652 -0.8417,-3.0036 0,-1.2031 0.3133,-2.2224 0.9399,-3.0557 0.6266,-0.8355 1.5018,-1.2533 2.6276,-1.2533 0.8418,0 1.5331,0.2444 2.0762,0.7332 0.541,0.4866 0.8835,1.0924 1.0277,1.8192l-1.3097 0.2319c-0.2444,-1.0193 -0.8313,-1.529 -1.7566,-1.529 -0.5911,0 -1.0736,0.2402 -1.4475,0.7227 -0.3738,0.4804 -0.5597,1.2219 -0.5597,2.2203 0,2.1096 0.6621,3.1644 1.9822,3.1644 0.5138,0 0.9399,-0.1775 1.2762,-0.5326 0.3362,-0.3551 0.5054,-0.825 0.5054,-1.4078l-1.7253 0 0 -1.2114 3.1394 0z"/>
   <path id="_214687136" class="fil26" d="M131.782 87.679c-1.1091,0 -1.9738,-0.4177 -2.5921,-1.2491 -0.6182,-0.8334 -0.9253,-1.861 -0.9253,-3.085 0,-1.2156 0.3279,-2.2328 0.9838,-3.0495 0.6579,-0.8188 1.5248,-1.2282 2.6005,-1.2282 1.0861,0 1.9425,0.4094 2.5733,1.2282 0.6307,0.8167 0.9461,1.8401 0.9461,3.0683 0,1.2887 -0.3279,2.331 -0.9817,3.1247 -0.6558,0.7937 -1.5226,1.1906 -2.6046,1.1906zm0.0125 -1.2135c0.5431,0 1.0005,-0.2235 1.3765,-0.6726 0.376,-0.4491 0.564,-1.2616 0.564,-2.4417 0,-0.9587 -0.1567,-1.7107 -0.4658,-2.2537 -0.3091,-0.5452 -0.7916,-0.8167 -1.4433,-0.8167 -1.2908,0 -1.9342,1.0381 -1.9342,3.1142 0,1.0068 0.1629,1.7713 0.493,2.2914 0.3279,0.5201 0.7979,0.7791 1.4098,0.7791z"/>
   <path id="_214687136" class="fil26" d="M138.525 79.1967l-0.6183 5.8192 -0.635 0 -0.589 -5.8192 1.8423 0zm-0.1901 6.8239l0 1.5289 -1.5227 0 0 -1.5289 1.5227 0z"/>
  </g>
 </g>
</svg>
