<?xml version="1.0" encoding="UTF-8"?>
<!DOCTYPE svg PUBLIC "-//W3C//DTD SVG 1.1//EN" "http://www.w3.org/Graphics/SVG/1.1/DTD/svg11.dtd">
<!-- Creator: CorelDRAW -->
<svg xmlns="http://www.w3.org/2000/svg" xml:space="preserve" width="245mm" height="210mm" style="shape-rendering:geometricPrecision; text-rendering:geometricPrecision; image-rendering:optimizeQuality; fill-rule:evenodd; clip-rule:evenodd"
viewBox="0 0 245 210">
 <defs>
  <style type="text/css">
   <![CDATA[
    .fil11 {fill:#0093DD}
    .fil10 {fill:#0A0B0C}
    .fil1 {fill:#383431}
    .fil4 {fill:#605D5C}
    .fil5 {fill:#75C5F0}
    .fil6 {fill:#AAA9A9}
    .fil12 {fill:#DA251D}
    .fil13 {fill:#F7C5B4}
    .fil0 {fill:black}
    .fil8 {fill:white}
    .fil14 {fill:#008CCC}
    .fil7 {fill:#0091CC}
    .fil3 {fill:#00A6D6}
    .fil2 {fill:#8F8F8C}
    .fil9 {fill:#CF035C}
    .fil15 {fill:white;fill-rule:nonzero}
   ]]>
  </style>
 </defs>
 <g id="Capa_x0020_1">
  <metadata id="CorelCorpID_0Corel-Layer"/>
  <g id="_212715624">
   <path id="_211973096" class="fil0" d="M102.79 206.623c-3.7338,-0.381 -7.8994,-1.0668 -10.9728,-3.4036 -0.1524,-0.4826 -1.524,-1.6002 -2.1336,-1.7526 0,-0.0762 0,-0.127 0,-0.1778 -0.4064,-0.3048 -1.6256,-0.9906 -1.778,-1.4478 -1.0414,-0.635 -1.9812,-1.7526 -2.7432,-2.667 -0.9144,-1.5494 -2.3114,-2.921 -3.0226,-4.6482 -0.127,-0.1016 -0.127,-0.1016 -0.6604,-1.4986 -1.6256,-1.4224 -1.9812,-3.0988 -2.4384,-5.2324 -0.4826,-1.1684 -0.5334,-2.6162 -0.9144,-3.8608 -0.1778,-1.2954 -0.3556,-1.905 -0.4318,-2.7432 0,-2.7432 -0.1778,-5.6642 0.5842,-8.3312 0.4826,-3.6068 1.651,-6.985 2.667,-10.414 0.0508,-0.0254 0.1016,-0.0508 0.1524,-0.0762 1.4478,-3.6576 3.2258,-7.2898 6.1468,-9.9822 0.762,-0.5842 2.4638,-1.7526 2.7178,-2.794 -0.762,-0.762 -2.2606,-0.9652 -3.2258,-1.2192 -1.0668,-0.7112 -2.7432,-0.7366 -3.937,-1.27 -0.9398,0 -1.8542,0 -2.7686,0 -1.4224,0.4318 -4.7244,2.1082 -6.1468,1.27 -0.4318,-0.889 -0.762,-1.9812 -0.9906,-2.3622 -0.4826,0 -0.762,-0.0762 -1.0922,0.254 -2.4892,0.4826 -8.4074,3.1496 -10.8966,1.2954 -0.8382,-1.7018 -1.2446,-4.064 -1.6764,-5.8674 -0.8128,-0.8128 -0.5334,-2.6162 -1.27,-3.556 -1.1684,-3.7338 -3.1242,-7.3914 -3.9878,-11.176 -0.1524,-0.2032 -1.524,-5.334 -1.6002,-5.4102 -0.1524,-1.0922 -0.254,-3.302 -0.9906,-4.3434 -3.175,-0.5334 -4.2672,-5.969 -3.2258,-8.4582 0.1778,-0.0508 0.381,-0.3556 3.2512,-2.2098 3.4036,-2.8956 8.1788,-3.6576 12.1412,-5.4864 3.4798,-0.762 6.8072,-2.159 10.287,-2.9718 0.0762,-0.0762 0.1524,-0.127 0.2286,-0.1778 4.3434,-0.8636 8.509,-2.413 12.9032,-3.048 0.3048,-0.1524 1.4224,-0.3302 1.8034,-0.4826 1.6764,-0.1524 5.4356,-0.5588 6.35,1.4478 0.2286,1.3462 0.7112,2.6416 0.8636,3.9878 0.0254,0.5842 -0.0762,3.3782 0.508,3.9624 0.8382,3.1496 1.3716,4.7752 1.7018,6.2992 0.1016,0.1778 0.254,1.016 0.4064,1.2446 0.6604,2.5654 1.7526,5.1308 2.286,7.6962 0.1524,0.3302 0.3302,1.3716 0.8636,3.2512 0.4064,2.0574 0.5842,4.8514 1.397,6.8326 0.127,0.0508 0.254,0.1016 0.4064,0.1778 0.508,-0.2032 1.0668,-0.6858 1.3462,-1.143 0.8636,-0.3556 1.7272,-0.6858 2.6162,-1.016 1.4986,-0.3556 3.6322,-0.7874 4.9276,-1.7018 1.2954,-0.381 2.5908,-0.6096 3.9116,-0.8382 0.3302,-0.254 0.3302,-0.3048 0.381,-0.6858 -1.4224,-1.1684 -2.159,-2.1844 -2.8194,-3.9116 -0.5588,-0.7874 -0.7112,-0.8636 -1.6002,-1.2446 -0.3302,-0.381 -0.6604,-0.7366 -0.9652,-1.0922 -2.413,-0.4318 -1.8034,-0.6096 -1.4986,-2.4384 -0.2032,-0.889 -1.2192,-1.778 -1.778,-2.5146 -0.7366,-1.143 -1.4732,-2.286 -2.1844,-3.429 -0.9398,-1.8542 -2.2606,-3.7338 -2.8956,-5.7404 -0.1524,-0.2286 -0.6604,-2.0828 -0.8382,-2.3876 -1.0414,-3.683 -2.3114,-7.3152 -3.048,-11.0744 -0.2794,-0.5842 -0.1778,-1.3208 -0.508,-1.8796 -0.5588,-4.3688 -1.4224,-9.652 0,-13.97 0.1778,-0.1524 0.9398,-1.4986 1.016,-1.778 0.4572,-0.2286 1.1684,-0.889 1.3462,-1.3462 -0.254,-0.5334 -1.8288,-0.6858 -2.3368,-1.1938 -1.778,-0.762 -3.2258,-2.1844 -4.5466,-3.556 -1.4224,-1.1176 -2.54,-2.54 -3.6068,-3.9878 -0.5842,-1.8796 -1.651,-3.683 -2.286,-5.5372 -0.4826,-0.0762 -0.6858,-0.1778 -1.143,0.127 -1.3716,0.1016 -1.8288,-0.381 -2.9464,-1.1684 -0.889,-1.1684 -1.3208,-2.2606 -1.6002,-3.7338 -0.1524,-0.2032 -0.3302,-0.9906 -0.4826,-1.143 -0.508,-2.7178 -0.4572,-5.8928 -1.524,-8.4582 -0.381,-2.1082 -0.7366,-2.3876 0.5842,-3.8354 0.0508,-3.302 -0.1778,-6.985 1.7272,-9.8552 1.27,-2.54 3.8354,-4.2164 6.1214,-5.6896 3.1242,-0.9652 6.2484,-2.286 9.525,-2.5146 2.5654,0.0254 5.08,0.1524 7.62,0.4318 0.2794,0.1524 1.0922,0.3302 1.2954,0.4826 2.2098,0.8128 3.683,1.9558 5.461,3.4798 1.3208,1.6256 2.4892,3.3274 4.0132,4.7244 2.032,1.3462 3.3528,4.1148 3.2004,6.5532 -0.2032,0.4572 -0.4064,0.9144 -0.6096,1.397 0.4064,3.2512 2.8194,7.0104 0.762,10.1854 -0.254,0.2032 -0.254,0.2032 -1.016,1.143 0.0254,2.8448 0.0762,5.715 0.127,8.5852 0.508,0 0.9652,-0.5842 1.524,-0.762 1.524,-0.889 2.5908,-2.7432 3.683,-4.0894 0.6096,-0.889 1.0922,-1.8542 1.778,-2.6416 1.1176,-2.3114 2.5146,-4.445 3.7592,-6.6548 1.778,-2.6162 2.3368,-3.6322 2.5908,-3.9116 2.6416,-4.5212 2.8702,-4.7498 2.9718,-5.0292 0.2286,-0.2286 1.0922,-1.8796 1.3462,-2.159 0.5842,-1.397 1.1938,-2.6162 1.4478,-4.0894 0,-1.4224 0,-1.4224 -0.1778,-3.0734 -0.6604,-1.4224 -1.6256,-3.2004 -2.9464,-4.0894 -0.8128,-1.27 -4.191,-4.4958 -3.2258,-6.4516 1.2192,-0.6096 2.794,-0.4826 4.0132,0.0508 0.0762,0.1524 0.0762,0.1524 0.635,0.5842 0.127,0.1778 1.9812,3.683 2.9464,2.9972 0,-0.8382 -0.4064,-1.9304 -0.5842,-2.794 -0.1016,-3.2766 -0.5588,-7.0866 0.4318,-10.287 0.5334,-0.4318 0.5588,-0.508 1.27,-0.508 1.7018,1.6256 2.413,4.2164 2.794,6.4516 0.2032,0.4572 0.2032,0.4572 0.4572,1.4224 0.0508,0 0.1016,0 0.1778,0 0.7366,-1.4986 0.3048,-3.7084 1.143,-5.3848 0.3048,-1.27 0.7874,-2.0066 2.1336,-1.3462 1.3462,1.5748 1.2446,3.7084 1.4224,5.6896 0.0254,0.0508 0.0762,0.1016 0.127,0.1778 0.127,0 0.2794,0 0.4318,0 0.254,-0.3556 0.508,-0.8382 0.9144,-0.9652 0,-0.0762 0.0254,-0.1524 0.0508,-0.2032 1.1684,-0.8382 2.5654,-2.2352 3.9624,-0.8382 0.1016,2.0828 0.1016,2.0828 0.0254,3.683 -0.2794,0.7366 -0.6096,1.2954 -0.5334,2.0828 0.3302,0.1524 1.7018,-0.1016 2.1336,-0.1016 1.9558,1.2954 0,3.8608 -1.016,4.9784 -1.1684,0.762 -1.1684,0.762 -2.8702,1.6764 -0.127,0.9906 -0.0254,2.032 -0.1778,3.048 -0.254,0.5588 -0.508,1.143 -0.762,1.7272 -0.1778,0.0762 -0.6858,0.762 -2.1336,2.032 -0.5334,0.254 -1.0414,0.508 -1.5494,0.762 -0.635,0.1016 -1.0668,0.1016 -1.4732,0.635 -0.1016,0.3048 -1.6002,2.9718 -2.2098,4.3434 -1.016,1.016 -1.397,3.1242 -2.3622,4.2926 -0.8636,1.5748 -1.9558,3.1496 -2.6416,4.7752 -2.3114,3.8354 -4.1148,7.9502 -6.4262,11.7856 -0.6858,1.5748 -1.7526,3.429 -2.8448,4.7498 -0.6096,1.2192 -2.5654,2.6924 -2.5654,4.0894 0.9906,1.27 1.8796,1.9812 0.9144,3.429 -1.524,1.2192 -3.1242,2.5654 -4.7244,3.683 -0.4826,0.9906 -2.4638,1.4478 -3.2258,2.3114 -1.3208,0.508 -2.9718,1.016 -4.1148,1.8796 0,1.1176 1.5748,3.048 2.1336,3.8862 0.3302,0.6858 0.7874,1.2954 4.572,8.3058 0.8382,1.2446 1.6256,2.794 2.2352,4.1656 0.254,1.2954 0.254,1.2954 0.4318,1.6256 1.7018,1.3716 1.7018,1.3716 2.3368,1.7526 0.8636,0.2794 1.7272,0.5842 2.5908,0.762 1.1684,-0.3556 2.2352,-1.0668 3.4036,-1.4478 0.2286,-0.1778 0.8636,-0.3556 5.2324,-2.5654 1.1684,-0.8382 2.5146,-1.6002 3.7338,-2.3622 0.1778,-0.254 0.1778,-0.254 0.6858,-0.6604 0.7112,-1.8542 1.0668,-3.8608 1.5494,-5.7912 1.0414,-1.5748 1.0414,-1.5748 2.3876,-3.302 1.651,-1.143 3.5052,-1.4478 5.3594,-2.159 1.2954,0.0254 2.8194,0.4826 3.7846,-0.4826 0.9652,-2.921 2.6162,-5.461 4.4196,-7.9756 0.2286,-0.1016 0.5842,-0.6604 0.6604,-0.9398 1.9304,-2.3622 4.6482,-4.2164 7.1882,-5.8928 0.762,-0.6604 1.8288,-1.3462 2.3114,-2.3114 0.4826,-0.4064 0.9652,-0.7874 1.4478,-1.1684 0.8636,-0.4826 1.7018,-0.6858 2.667,-0.8636 0.635,0.635 1.8288,0.5588 2.6416,0.6604 1.1938,0.5842 2.413,1.1684 3.6322,1.778 1.5748,1.4478 3.2766,2.7432 3.9878,4.8768 1.3462,2.3876 2.9972,6.6802 1.4478,9.271 -0.1778,0.5588 -0.3556,1.1176 -0.5334,1.7018 -0.9652,0.6858 -1.9812,1.7272 -2.8448,2.5908 -0.4826,0.254 -0.9652,0.508 -1.4478,0.7874 -0.889,1.3462 -6.2738,1.9558 -6.2738,3.5052 0.3302,0.2794 1.3716,0.7112 1.4986,1.0922 2.6162,1.4224 4.9276,3.3274 7.2898,5.1308 0.0254,0.0508 0.0508,0.127 0.0762,0.2032 0.0508,0 0.127,0.0254 0.2032,0.0508 2.7432,2.4638 5.6896,4.7752 8.4074,7.2644 0.5334,0.381 1.5748,1.4732 2.2352,1.6256 0.3556,0.7112 2.6924,2.413 3.6576,3.048 0.889,0.8128 1.778,1.6256 2.6924,2.4638 0.1778,0.254 0.8128,1.016 1.1176,1.0922 0.889,1.0922 0.889,1.0922 5.2578,7.3914 0.381,1.0414 1.016,2.2606 1.0922,3.3274 -0.0508,0.508 -0.1016,1.016 -0.1524,1.524 0.127,0.0508 0.254,0.127 0.381,0.2032 3.8862,-0.3556 7.239,-0.508 11.0998,0 0.7874,0.5334 3.0734,0.8382 3.9624,1.016 0.1524,0.0508 4.6736,1.8542 4.9276,2.6416 1.4224,0.8382 6.858,4.953 5.842,7.0104 -0.2032,0.1016 -0.6604,0.6604 -2.3622,2.1082 -1.4224,0.5842 -2.6416,1.2446 -3.9624,1.9812 0.0508,0.1778 0.1016,0.3556 0.1778,0.5334 3.8608,1.6256 7.7978,5.3594 9.7536,9.0678 0.0508,0.3302 0.2286,0.5588 2.0066,6.1468 0.127,0.8128 0.254,1.6256 0.4064,2.4638 -0.0254,1.0922 -0.0508,2.2098 -0.0762,3.3274 -0.508,2.0828 -1.2192,4.064 -1.7018,6.1214 -0.6858,0.5588 -0.635,2.2098 -1.6256,2.6162 -0.508,0.7366 -1.016,1.4732 -1.4986,2.2098 -1.143,1.0414 -2.159,2.159 -3.1496,3.302 -2.6924,1.905 -2.6924,1.905 -3.2004,2.3622 -2.0066,1.0668 -4.0132,2.1336 -6.0198,3.2258 -1.9812,0.5588 -4.1148,0.5588 -6.1214,1.016 -5.6134,0.0762 -5.6134,0.0762 -6.5786,0 -1.524,-0.381 -3.0226,-1.0922 -4.572,-1.3716 -2.159,-0.6604 -4.445,-2.4638 -6.0706,-3.9878 -0.4064,-0.4572 -0.8128,-0.889 -1.1938,-1.3208 -0.9906,-1.3462 -2.0574,-2.7178 -2.5654,-4.318 -0.762,-1.016 -0.8382,-2.413 -2.5654,-1.8542 -0.5334,0.4572 -0.5334,0.4572 -1.143,1.2446 -1.6764,1.4224 -3.3274,2.8194 -5.1054,4.064 -0.3302,0.6604 -3.7338,1.651 -4.2418,1.8034 -0.1778,0.1524 -1.7272,0.6604 -2.032,0.8382 -2.9718,0.762 -5.7912,2.3622 -8.8138,2.9464 -2.6162,0.7874 -5.2324,1.7272 -7.8232,2.4638 -0.127,0.0762 -0.254,0.1524 -0.3556,0.254 -2.4892,0.7112 -4.7244,2.1336 -7.2644,2.6416 -1.016,0.3302 -1.016,0.3302 -1.2192,0.4826 -3.7338,1.0922 -11.6332,4.0894 -15.5194,1.6256 -1.8796,-0.4318 -4.4196,-2.286 -6.35,-1.4478 -0.4064,0.3048 -0.8128,0.6096 -1.2192,0.9144 -1.8288,0.5842 -2.2098,0.5334 -1.7018,2.5908 0,0.889 0,1.8034 0,2.7178 -0.381,1.7272 -0.7366,3.4544 -1.0922,5.207 -0.508,0.762 -0.7874,2.159 -1.016,3.048 -0.1778,0.2286 -0.508,1.27 -1.2192,2.7178 -2.4384,3.0226 -4.6228,5.5118 -8.001,7.4422 -1.2446,1.016 -2.921,1.8796 -4.3688,2.54 -0.5842,0.5842 -1.9558,0.6096 -2.6162,1.27 -0.9906,0.2794 -2.4384,0.5588 -3.3782,1.016 -2.3114,0.1778 -4.6482,0.254 -6.9596,0.3048zm-9.5504 -61.468c-1.6256,-0.762 -3.4036,-1.3716 -4.953,-2.2606 -0.0762,-0.8636 0.9144,-0.5588 1.4478,-0.9144 0.5588,-0.1778 1.1176,-0.3556 1.7018,-0.508 2.1336,-0.9906 4.699,-1.4224 6.7818,-2.4638 0.2032,-0.8382 -0.3302,-2.1082 0.127,-2.794 3.7846,-1.2954 4.5466,-1.4478 4.8514,-1.6256 0.6096,0.3302 0.8636,0.889 0.5588,1.524 -1.7272,0.8636 -1.905,2.2352 -2.8702,3.7338 -0.2032,0.1016 -0.762,0.635 -1.1938,0.8382 -1.7272,1.4224 -4.2672,3.9878 -6.4516,4.4704zm61.0362 16.764c-1.0922,-0.0508 -5.588,0.3302 -5.842,-1.524 -0.0762,-0.0254 -0.1524,-0.0508 -0.2032,-0.0762 -0.1016,-0.4572 -1.1176,-1.651 -1.524,-1.8542 -1.0922,-2.0066 -1.9812,-4.1656 -2.8956,-6.2738 -1.0668,-1.8542 -2.6924,-4.0894 -3.1242,-6.1976 -0.254,-0.4064 -0.254,-0.4064 -1.7018,-4.3942 -1.0668,-3.81 -2.286,-7.7724 -0.9906,-11.7094 0.0508,-0.0254 0.127,-0.0508 0.2032,-0.0508 0,-0.0762 0,-0.127 0,-0.1778 0.2032,-0.1016 0.4318,-0.1778 0.6604,-0.254 0,-0.0762 0,-0.127 0,-0.1778 1.7526,-1.0414 2.2352,-2.9718 2.2352,-4.9022 -0.2794,-1.4986 -1.4224,-2.5654 -2.1082,-3.81 -0.1778,-0.9906 0.4826,-0.8382 1.3208,-1.0668 1.778,-0.3048 4.7244,-1.3462 6.4516,-0.4826 0.2794,0.381 2.413,3.5814 2.7686,3.5814 0.127,0.1778 0.254,0.3556 0.4064,0.5334 2.3622,1.778 2.5908,4.9022 4.3942,7.1882 0.0508,0.0254 0.127,0.0508 0.2032,0.0762 1.6256,2.7686 3.1242,5.7404 4.953,8.382 0.1016,0.2794 0.6604,1.016 4.3434,7.366 0.7112,0.3556 2.667,4.064 2.9718,4.572 0.0508,0 0.1016,0 0.1778,0 1.0414,1.5748 0.9144,1.6256 2.794,1.8034 0.3302,0.381 1.778,2.3114 2.4892,2.4892 0.3556,0.2794 0.7112,0.5588 1.0668,0.8382 0.127,1.0414 -3.9878,2.032 -4.8768,2.2098 -2.3876,0.6858 -4.699,1.9304 -7.1374,2.413 -0.3556,0.1778 -1.3716,0.3556 -2.4638,0.6858 -1.2446,0.6604 -3.175,0.6858 -4.572,0.8128zm25.8318 -29.8958c-1.016,-0.762 -2.032,-1.5748 -2.7686,-2.6162 -0.3048,-0.2032 -0.9652,-0.7366 -1.0668,-1.0922 -1.1938,-0.4572 -2.794,-2.159 -3.6576,-2.9464 -1.2954,-1.4986 -2.413,-2.8194 -3.4036,-4.5212 -1.3716,-1.4986 -2.6162,-3.2512 -4.064,-4.699 -0.381,-0.9144 -1.2192,-1.7018 -1.5748,-2.7178 -0.3302,-0.1524 -2.3876,-3.429 -2.4892,-3.7592 -0.254,-0.2794 -1.0668,-1.7526 -1.27,-1.905 -1.2446,-1.7272 -2.4638,-3.1496 -4.2164,-4.318 -0.4572,-0.9398 -3.2004,-1.1684 -4.1656,-1.1176 -1.1684,0.2032 -2.3114,0.4064 -3.4544,0.6096 -0.2286,0.1778 -0.2286,0.1778 -2.2606,0.8382 -2.5654,0.635 -5.1308,1.4224 -7.5184,2.54 -0.3556,0 -0.6858,0 -1.016,0.0254 -1.1176,-0.5842 -2.032,-1.6002 -3.0988,-2.1336 -0.3048,-0.762 -0.5842,-1.4986 -0.8636,-2.2352 -0.4318,-0.254 -0.8382,-0.508 -1.2446,-0.7366 -0.6858,-1.3716 3.9116,-2.2098 4.5212,-2.4638 0.762,-0.5588 1.8288,-0.6604 2.4892,-1.3208 1.1684,-0.508 2.3368,-1.016 3.5052,-1.524 0.8382,-1.1938 3.81,-2.2098 5.1816,-2.4892 0.4318,-0.2286 0.889,-0.4572 1.3462,-0.6604 1.7272,-2.4892 2.1336,-2.413 4.1402,-1.1176 1.524,0.5588 2.9464,1.2954 4.3942,0.1778 1.016,-0.2794 2.6416,-0.6096 3.5052,-1.2446 0.2032,-0.2794 0.4064,-0.9144 0.7366,-1.016 0.0254,-0.3048 0.0254,-0.3048 0.1524,-0.5588 0.2032,-0.0254 0.4318,-0.0508 0.6604,-0.0508 0.762,0.9906 1.6002,2.286 2.6416,2.921 2.2098,2.032 4.445,4.064 6.6802,6.096 2.8194,1.9304 5.08,4.5466 7.2898,7.112 0.0254,0.1016 0.0762,0.2032 0.127,0.3302 0.3048,0 2.3368,3.0734 2.667,3.4036 1.143,1.651 2.9718,3.8354 3.7084,5.842 0.4826,0.4826 0.762,1.4732 1.016,2.1082 0.889,0.8128 0.9906,2.3876 1.6256,3.4036 0.3302,0.9906 0.3302,0.9906 0.508,1.8542 0.7874,0.9652 0.9398,2.1336 0.9906,3.3274 -0.1778,0 -0.3302,0 -0.4826,0 -2.1844,-1.651 -5.1308,2.6416 -5.8674,3.9878 -0.4064,0.4064 -0.9398,0.6858 -1.27,1.1176 0.1778,0.381 0.1778,0.7112 0.1778,1.1684 -0.127,0.0762 -0.127,0.0762 -1.3462,0 -0.3302,0.127 -0.6604,0.254 -0.9652,0.381z"/>
   <path id="_212715264" class="fil1" d="M103.552 205.353c-0.7112,-0.3556 -1.4732,-0.2286 -2.1082,-0.635 -3.6576,-0.4064 -7.9756,-1.4478 -10.6934,-4.1656 -2.2098,-1.3462 -3.81,-3.0734 -5.3594,-5.08 -0.7112,-1.1176 -2.1082,-2.6162 -2.4638,-3.937 0.1778,-0.254 0.1778,-0.254 0.4572,-0.381 2.2352,-0.2794 4.572,-1.0922 6.7818,-1.6002 0.4064,-0.4064 3.4798,-1.143 4.2418,-0.8382 0.0508,0.2032 0.0762,0.2794 0.2794,0.3302 0.5842,1.3462 1.8542,2.9464 3.2258,3.4798 0.3048,0.4572 1.1938,0.8128 1.7018,1.016 1.0414,0.9652 3.5306,1.7272 4.9276,1.8542 1.524,0.6096 5.4102,0.2032 6.9596,-0.762 0.2032,-0.0762 0.4064,-0.127 0.6096,-0.1778 1.5494,-0.9652 3.0226,-2.3368 4.4704,-3.4798 0.762,-0.8382 1.7272,-1.7018 2.159,-2.7686 1.3462,-1.8796 1.5748,-4.7244 1.6764,-6.985 1.3208,-0.2794 2.6416,-0.5588 3.9624,-0.8128 1.4986,-0.9398 3.4036,-0.9652 5.0038,-1.651 0.2794,0.7112 0.2794,0.7112 0.4572,1.524 0.5842,0.5842 0.7874,3.7846 0.3302,4.2418 -0.2286,1.6256 -0.8128,3.2258 -1.1938,4.7752 -0.381,0.508 -0.5588,1.2446 -0.762,1.8542 -0.5588,0.762 -1.4224,2.0066 -1.6764,2.8956 -1.3716,2.3114 -3.683,3.9624 -5.6896,5.6642 -0.1016,0.0254 -0.1778,0.0508 -0.254,0.0762 -0.254,0.5334 -3.0734,2.1844 -3.9116,2.4638 -1.8288,1.0414 -3.7846,1.8542 -5.7912,2.4638 -0.508,0.508 -2.159,0.5334 -2.921,0.5842 -1.4732,0 -2.9464,0.0254 -4.4196,0.0508z"/>
   <path id="_211541224" class="fil0" d="M105 201.619c-1.6002,-0.127 -2.4638,-0.3048 -4.064,-0.381 -0.6096,-0.3556 -1.4478,-0.5842 -2.1336,-0.7874 -0.1524,-0.3048 -0.7874,-0.5334 -1.1176,-0.6858 0,-0.4318 -0.8382,-0.3556 -0.8382,-0.9652 0.762,-0.1778 2.3368,0.7874 3.0988,1.1176 3.2004,0.5334 6.4262,0.508 9.6266,0.127 0.762,-0.254 0.762,-0.254 2.2098,-0.508 0.1524,0.1524 0.0762,0.3556 0,0.5842 -1.4732,0.2794 -2.8956,1.0668 -4.3688,1.4478 -0.8128,0 -1.6256,0.0254 -2.413,0.0508z"/>
   <path id="_211540960" class="fil0" d="M91.2078 196.387c-0.4826,-0.6604 -0.1524,-1.2446 0.2286,-1.8288 0.1778,0 0.3556,0 0.5588,0 0,0.7366 0.0762,1.6764 -0.7874,1.8288z"/>
   <path id="_211540984" class="fil0" d="M45.9958 196.209c-2.6162,-0.381 -4.3688,-0.9144 -6.477,-2.54 -0.0254,-0.0762 -0.0508,-0.127 -0.0508,-0.1778 -0.0762,0 -0.127,0 -0.1778,0 -0.254,-0.4064 -0.4826,-0.7874 -0.7112,-1.1684 -0.1778,-0.762 -0.1778,-0.762 -0.3556,-1.1176 0,-0.8636 -0.2032,-3.4544 0.9144,-3.81 0.0508,-0.1524 0.1016,-0.2794 0.1524,-0.4064 0.0508,0 0.1016,0 0.1778,0 0.635,-1.0668 2.1082,-2.2352 2.1082,-3.4036 -1.27,-0.6858 -2.2606,-2.1844 -1.3716,-3.5052 1.6764,-1.2954 3.6576,-1.524 5.6896,-1.8796 0.0762,-0.0762 0.1778,-0.127 0.2794,-0.1778 0,-0.6604 -0.3048,-1.2954 -0.5842,-1.8796 0,-0.4572 0,-0.9144 0,-1.3462 1.5494,-3.6322 5.8928,-3.2004 9.2964,-2.4384 0.9906,0.5334 1.9304,1.143 2.5908,2.1082 1.0668,0.5334 1.3462,3.937 0.635,4.826 -0.1524,0 -0.3048,0 -0.4572,0 0,-0.4826 0.0508,-0.762 0.2286,-1.2446 -0.8382,-3.5052 -2.286,-4.8768 -5.8928,-5.1816 -1.3208,0 -4.2418,-0.1524 -4.826,1.4224 -0.0762,0 -0.127,0.0254 -0.1778,0.0508 -1.0414,2.0828 0.6096,2.3876 1.1938,4.1656 -0.0762,0.0254 -0.127,0.0508 -0.1778,0.0762 -0.0254,0.0762 -0.0508,0.1778 -0.0762,0.2794 -2.2606,0.3556 -4.4704,0.7112 -6.6294,1.5748 -0.9398,1.1684 0.508,1.9558 1.1938,2.9464 0,0.889 0,1.8542 -0.9144,2.2352 -0.381,0.6858 -0.381,0.6858 -2.0828,2.8956 -0.254,1.143 -0.2286,2.0574 0,3.2004 0.889,1.397 1.905,2.032 3.3528,2.7432 2.6924,0.6096 5.207,0.8636 7.9756,0.8128 0,0.0508 0,0.1016 0,0.1778 -1.651,0.3302 -3.1242,0.6604 -4.826,0.762z"/>
   <path id="_214053728" class="fil0" d="M93.1382 196.209c0.0254,-0.0762 0.0508,-0.1524 0.0762,-0.2286 0.127,0.0254 0.127,0.0254 0.1778,0.2286 -0.1016,0 -0.1778,0 -0.254,0z"/>
   <path id="_214053968" class="fil0" d="M120.316 195.269c0,-0.4572 0.2032,-0.6858 0.5842,-0.8636 0.3048,-0.635 1.0414,-1.143 1.4986,-1.7526 2.0574,-2.0574 3.0988,-4.445 4.2164,-7.112 0.3302,-0.4572 0.4318,-0.9906 0.7874,-1.4732 0.0762,0 0.1524,0 0.2286,0 0,1.7526 -0.6096,2.8448 -1.016,4.3688 -0.2032,0.254 -0.5842,1.1938 -0.8636,1.27 -0.7366,2.2098 -3.2258,3.429 -4.4704,5.2578 -0.2794,0.1778 -0.6096,0.254 -0.9652,0.3048z"/>
   <path id="_214368512" class="fil0" d="M51.2282 195.193c-0.0508,-0.0508 -0.1016,-0.1016 -0.1524,-0.127 0.127,-0.1016 0.127,-0.1016 0.7366,-0.1524 0,-0.1016 0.0254,-0.2032 0.0508,-0.2794 0.7112,-0.1778 0.9652,-0.3302 1.8288,-0.4572 -0.2032,0.4064 -2.1336,0.9144 -2.4638,1.016z"/>
   <path id="_214368560" class="fil0" d="M89.0742 194.939c-0.0508,-0.0254 -0.1016,-0.0508 -0.1524,-0.0762 -0.0254,-0.2286 -0.0508,-0.4318 -0.0508,-0.635 0.3556,-0.4064 0.5334,-0.762 1.0922,-0.762 0.2286,0.4572 -0.254,1.0414 -0.4572,1.4224 -0.1524,0 -0.3048,0.0254 -0.4318,0.0508z"/>
   <path id="_214368488" class="fil2" d="M105.94 194.253c-0.889,-0.1524 -1.778,-0.3048 -2.6416,-0.4572 -1.905,-0.762 -3.8354,-1.524 -5.6388,-2.5146 -0.6858,-0.7874 -1.778,-1.9304 -1.778,-3.0226 0.4826,-0.7874 5.7404,-2.4892 6.1468,-1.27 0.3048,0.1016 1.3208,1.0414 1.4224,1.3462 0.6858,0.381 1.3716,0.762 2.0574,1.143 2.2352,0.2286 4.1148,0 6.1722,-1.016 0.5842,-0.4826 1.6764,-1.143 1.9558,-1.8288 0.0508,0 0.1016,0 0.1778,0 0.5588,-1.3208 0.5588,-1.3208 0.7112,-1.524 0,-0.7366 -0.1524,-1.9812 0.2794,-2.5654 1.2192,-0.127 2.3876,-0.4572 3.5814,-0.7874 0.7874,0.381 0.1524,3.3528 0.0254,3.9624 -0.3302,0.9144 -0.3302,0.9144 -0.9652,2.1844 -0.0762,0 -0.127,0 -0.1778,0 -0.4064,1.143 -3.1242,3.6576 -4.064,3.9116 0,0.0508 0,0.1016 0,0.1524 -0.3048,0.1524 -0.6096,0.3302 -0.889,0.508 -1.778,1.5748 -4.1148,1.651 -6.3754,1.778z"/>
   <path id="_214368320" class="fil0" d="M53.7682 194.101c0,-0.0762 0,-0.127 0,-0.1778 0.2032,0 0.4064,0 0.6096,0.0254 -0.1016,0.1016 -0.1016,0.1016 -0.6096,0.1524z"/>
   <path id="_214368440" class="fil3" d="M83.2322 190.291c-0.3302,-0.1524 -1.1684,-0.3048 -1.7018,-0.508 -1.4986,-2.2352 -1.9812,-6.096 -2.4892,-8.7376 -0.2032,-2.5146 -0.508,-4.826 -0.254,-7.366 0.3302,-1.1684 0.5842,-2.8702 0.9398,-4.064 0.7112,-1.7272 1.4224,-3.4544 2.159,-5.1562 0.0508,0 0.1016,0 0.1778,0 0.381,-1.6764 1.9812,-3.1242 2.9464,-4.4958 0.889,-0.5842 1.7018,-1.9558 2.5908,-2.7178 1.1938,-0.5842 2.032,-2.2606 3.3528,-2.6924 0,-0.4318 1.2954,-1.016 1.6764,-1.0922 0,-0.0762 0,-0.127 0,-0.1778 2.8702,-1.4224 5.5626,-2.3622 8.636,-3.2766 3.9624,-0.508 8.0518,-0.9144 12.0396,-0.9144 1.8542,0.3302 2.286,0.508 3.1242,0.6604 2.4638,1.0922 4.953,2.159 7.2898,3.5052 0.0254,0.0508 0.0508,0.127 0.0762,0.2032 0.5334,0.127 1.397,0.8636 1.6764,1.3462 0.6858,0.2794 1.2446,0.508 1.6764,1.1176 0.2032,0.127 0.3556,0.4064 0.5334,0.4826 0.127,0.4318 1.0668,2.1336 2.8448,6.1976 0.8382,2.8702 0.8382,2.8702 1.016,3.2004 0.5588,2.6162 2.9464,7.62 2.0574,10.287 -0.5334,0.3048 -0.9652,0.4064 -1.6002,0.508 -3.556,1.3716 -7.4676,2.7686 -11.2522,3.2258 -2.794,1.0414 -5.6134,1.6764 -8.5598,2.1082 -1.27,0.6858 -3.048,0.6858 -4.3942,1.27 -2.54,0.7112 -5.1054,1.1938 -7.4422,2.4638 -0.8636,0.1524 -1.9558,0.3302 -2.7178,0.762 -2.3876,0.6096 -4.7498,1.2192 -7.112,1.8542 -0.1778,0.0762 -0.3556,0.1524 -0.508,0.254 -2.159,0.5588 -4.572,1.5748 -6.7818,1.7526z"/>
   <path id="_214368368" class="fil4" d="M106.448 188.259c-0.7112,-0.2286 -3.7592,-1.4224 -3.2766,-2.413 2.0828,-1.1938 4.8768,-1.5748 7.1374,-2.3114 0.8382,-0.2032 1.6764,-0.4064 2.5146,-0.5842 0.4826,0.7366 0.254,1.5748 0.0762,2.3876 -1.5748,2.2098 -3.81,2.7178 -6.4516,2.921z"/>
   <path id="_214368416" class="fil0" d="M65.5538 187.827c-0.5842,-0.0254 -2.5146,-0.127 -2.8448,-0.6096 0.0508,-0.0762 0.1016,-0.127 0.1524,-0.1778 8.8646,-0.0254 8.8646,-0.0254 9.5504,0.0508 0.0762,0.0254 0.1524,0.0762 0.254,0.127 0.0254,0.127 0.0508,0.2794 0.0762,0.4318 -2.3368,0.254 -4.826,0.1524 -7.1882,0.1778z"/>
   <path id="_212709200" class="fil0" d="M64.1822 182.315c-0.6604,-0.0254 -1.8542,-0.0254 -2.3622,-0.4064 0.0254,-0.0762 0.0508,-0.127 0.0762,-0.1778 0.9398,-0.127 5.334,-0.3048 8.8138,-0.635 0.4826,-0.1524 3.1496,-0.6604 2.4638,0.5588 -2.9972,0.5588 -5.9436,0.6096 -8.9916,0.6604z"/>
   <path id="_212709032" class="fil5" d="M144.192 178.175c-2.667,-0.5334 -5.1308,-1.651 -7.6962,-2.5146 -1.0668,-0.1524 -1.3462,-0.127 -1.7526,-1.0414 -0.2032,-2.5654 -1.2446,-4.953 -1.524,-7.5438 -0.7874,-3.2512 -2.3114,-6.1976 -3.937,-9.0932 -1.27,-1.6256 -1.27,-1.6256 -1.3462,-1.8288 -0.1016,0 -0.1778,0 -0.254,0 -0.1524,-0.635 -1.0922,-1.1938 -1.4986,-1.8034 -0.381,-0.3556 -1.524,-1.6256 -2.1336,-1.8288 0,-0.0762 0,-0.127 0,-0.1778 -0.635,-0.127 -1.397,-0.7112 -1.9558,-1.0668 -0.508,-0.1524 -1.524,-0.762 -4.7244,-2.1082 -0.889,-0.254 -1.778,-0.508 -2.6416,-0.762 -3.7592,0 -7.493,0.2286 -11.2522,0.3302 -4.7498,0.8382 -8.9662,2.2606 -13.0048,4.953 -0.9906,0.8128 -1.9558,1.6256 -2.921,2.4638 0,0.0508 0,0.1016 0,0.1778 -0.762,0.4064 -1.4224,0.8128 -1.8542,1.6002 -0.0762,0 -0.127,0 -0.1778,0 -0.0254,0.0762 -3.429,4.8768 -4.064,4.6736 -0.0254,-0.1778 -0.0508,-0.3556 -0.0508,-0.508 1.3716,-3.0734 2.5908,-5.9436 4.445,-8.7884 0.8128,-0.9144 3.3274,-3.7592 4.3434,-4.0894 0,-0.5842 3.5052,-2.921 4.0894,-3.3274 1.9812,-1.1938 3.9624,-2.7178 5.8166,-4.1148 0.2032,-0.508 1.2954,-1.397 1.778,-1.6256 0.8128,-1.9558 1.3208,-3.0988 3.556,-3.2512 0.635,-0.2032 1.27,-0.4064 1.9304,-0.6096 4.0386,-0.3048 8.0264,-0.9398 12.0396,-1.524 1.6256,-0.4318 3.2766,-1.016 4.826,-1.6002 3.0734,-0.5588 6.1214,-1.1938 9.2202,-1.6002 0.635,-0.254 1.2954,-0.508 1.9558,-0.762 1.4224,0.0762 1.143,2.8448 1.2192,3.8608 0.2032,1.524 0.4318,3.048 0.6604,4.572 1.0668,3.8354 2.286,7.3914 4.1656,10.922 0.0254,0.1524 0.0762,0.3302 0.127,0.508 0.0508,0 0.1016,0 0.1778,0 0.1016,0.3302 1.4224,2.6416 2.3368,4.6736 0.1524,0.1524 0.1524,0.1524 1.7272,3.7846 0.508,0 1.2446,2.2098 2.032,2.4638 0.1016,0.4064 0.6096,0.9398 1.016,1.0922 0.1778,0.7874 1.2954,1.0668 1.524,1.778 0.8636,0.5588 1.7272,1.143 2.6162,1.7272 1.7526,0 3.5052,0 5.2578,0 3.5814,-0.5588 7.112,-1.397 10.668,-2.1082 1.27,-0.4826 2.7178,-0.508 3.9624,-0.9398 2.4384,-0.5334 4.953,-1.0922 7.2898,-1.9558 1.397,-0.8128 2.0574,-1.3208 2.286,-1.3716 0,-0.0762 0,-0.127 0,-0.1778 0.1524,-0.0762 0.3302,-0.127 0.508,-0.1778 0,-0.0508 0,-0.1016 0,-0.1524 0.7112,-0.4064 1.1684,-0.6858 1.6764,-1.3208 0.3302,-0.6604 0.7112,-1.7272 1.4732,-2.0574 0.1016,-0.4064 0.7112,-1.2446 1.0922,-1.3716 0.127,-0.5842 1.27,-2.3114 1.778,-2.4638 0.3302,-1.3462 1.2192,-2.7432 2.0066,-3.8608 1.4986,-4.6736 1.651,-5.4356 2.2606,-7.0612 0.8382,-4.9784 0.8382,-4.9784 1.016,-5.4864 0.3048,-3.7846 0.4826,-7.493 0,-11.2776 -0.1778,-0.3302 -0.1778,-0.3302 -1.4478,-4.9784 -0.4826,-1.3208 -1.0414,-2.5654 -1.7018,-3.81 -1.3208,-1.9304 -1.3208,-1.9304 -1.4732,-2.286 -0.0508,0 -0.1016,0 -0.1524,0 -0.1778,-0.3556 -0.3556,-0.6858 -0.508,-1.016 -0.0762,0 -0.127,0 -0.1778,0 -0.381,-0.7112 -1.0414,-1.4986 -1.27,-2.2098 -0.0762,0 -0.127,0 -0.1778,0 -0.2032,-0.3556 -0.4064,-0.7112 -0.6096,-1.0668 -0.2794,-0.3556 -3.5052,-4.9276 -4.0386,-5.1054 -0.0254,-0.127 -0.0508,-0.254 -0.0762,-0.3556 -0.1016,-0.0508 -0.2032,-0.1016 -0.2794,-0.1524 -0.6858,-0.8128 -2.54,-3.2258 -3.4544,-3.4798 -0.1016,-0.2286 -0.7112,-0.762 -1.9558,-2.2098 -0.0508,0 -0.1016,0 -0.1524,0 -0.9398,-1.1176 -1.143,-1.2446 -1.6002,-1.8796 -1.4986,-1.1176 -2.5908,-3.0988 -4.1148,-4.1148 -0.0254,-0.0762 -0.0508,-0.127 -0.0508,-0.1778 -0.127,-0.0254 -0.2286,-0.0508 -0.3302,-0.0762 -1.2446,-2.5146 -5.3086,-3.556 -6.8834,-6.0706 0,-1.2954 0.635,-1.1938 1.8034,-1.778 2.6162,-0.7366 5.2324,-2.032 7.9502,-2.032 1.9304,0.9398 4.4196,2.032 5.8166,3.7084 0.508,0.3302 1.0414,0.6604 1.5748,0.9906 0.635,0.5334 4.5212,3.3782 4.7244,3.9878 0.5842,0.2286 1.6002,0.889 1.778,1.4478 1.4224,0.7112 2.4384,2.413 3.81,2.9464 0,0.254 0.7112,0.635 0.9144,0.762 0,0.0508 0,0.1016 0,0.1778 0.4826,0.3556 2.794,1.9304 2.9718,2.4638 1.0414,0.254 1.6002,1.6002 2.54,1.8542 0,0.0508 0,0.1016 0,0.1778 0.2032,0.0508 0.2032,0.0508 1.27,0.9906 0.0762,0.1778 1.5494,1.3462 2.0574,1.8542 0.2286,0.381 1.3208,1.7272 1.7526,1.8542 2.0828,2.4892 3.9116,5.4356 5.3594,8.3312 0,1.016 -0.0508,1.7526 -0.3556,2.7178 -1.1684,0.2794 -2.2098,1.8288 -2.8194,2.7432 -0.3048,0.1016 -0.6096,0.6096 -0.7112,0.889 -1.651,2.0066 -2.4384,5.0546 -3.048,7.5438 -0.1778,1.3716 -0.3556,2.7432 -0.508,4.1402 -1.4478,4.3434 -1.4732,9.398 -1.778,13.8938 -0.508,3.3528 -1.651,6.9088 -2.8702,10.0584 -1.4224,2.2352 -2.3876,3.556 -2.413,3.7338 -0.0762,0 -0.127,0 -0.1778,0 -0.0508,0.127 -0.1016,0.2794 -0.1524,0.4318 -0.0762,0 -3.0734,2.9464 -3.1242,3.048 -0.5588,0.4064 -2.5908,1.4986 -2.794,2.1082 -2.667,1.5494 -6.0706,2.5908 -8.9916,3.5052 -2.2098,0.889 -4.445,1.8034 -6.7818,2.286 -3.048,0.9906 -6.858,1.8034 -9.652,3.4798 -4.2418,1.27 -8.5598,2.794 -12.8524,3.81 -1.6256,0.1524 -2.2098,0.3302 -4.9276,0.635z"/>
   <path id="_212709176" class="fil0" d="M127.098 173.527c-0.7366,-0.7366 -0.4318,-3.2004 -0.4826,-4.2418 -0.3302,-1.905 -1.0668,-3.6576 -1.6764,-5.5118 -0.7112,-1.5748 -0.7112,-1.5748 -0.6858,-1.651 0.6096,0 1.1176,0.6858 1.4732,1.0922 1.143,2.7686 3.5306,7.4168 1.3716,10.3124z"/>
   <path id="_212708936" class="fil0" d="M25.9298 172.765c-1.9304,-0.1016 -3.8608,-0.2032 -5.7658,-0.3048 -1.905,-0.5334 -3.9624,-0.3302 -5.9182,-0.635 0,-0.1016 0.0254,-0.2032 0.0508,-0.3048 1.27,-0.4064 3.175,0 4.5212,0.0762 3.429,0 6.858,0 10.3124,0 3.048,-0.3556 6.1976,-0.5842 9.271,-0.4572 0.2286,0.2286 0.0254,0.381 -0.0254,0.6858 -4.1402,0.4572 -8.3312,0.508 -12.446,0.9398z"/>
   <path id="_212709080" class="fil1" d="M213.636 171.825c-1.1176,-0.0254 -2.159,-0.254 -3.2512,-0.4064 -0.0254,-0.0762 -0.0508,-0.127 -0.0508,-0.1778 -1.0922,-0.2032 -2.159,-0.6604 -3.2258,-0.8636 -0.3048,-0.635 -1.8542,-0.508 -2.1082,-1.27 -1.143,-0.4064 -2.1844,-1.1684 -2.8702,-2.1336 -0.1778,-0.0508 -0.7112,-0.7112 -0.9398,-0.8128 -0.1524,-0.6604 -0.9398,-0.7366 -1.1938,-1.3716 -0.0762,0 -0.127,0 -0.1778,0 -0.6858,-1.1684 -2.2352,-3.175 -2.1336,-4.6736 0.2032,-0.0762 0.4064,-0.1524 0.6096,-0.2286 0,-0.0762 0,-0.127 0,-0.1778 1.778,-0.2032 1.8796,-0.3048 3.048,-0.4572 0.7874,-0.3556 1.5748,-0.6858 2.3876,-1.016 0.6604,-0.7112 1.5494,-1.4986 2.4384,-1.8796 0.254,0.0508 0.508,0.1016 0.762,0.1524 0.4826,0.889 1.3462,2.0828 2.286,2.54 0,0.0508 0,0.1016 0,0.1524 0.7874,0.4826 1.5748,0.9652 2.3876,1.4732 1.7018,0.7366 3.2258,1.3208 5.08,1.6256 1.5494,-0.3302 3.0988,-0.6604 4.6482,-0.9652 0,-0.0762 0,-0.127 0,-0.1778 1.2954,-0.127 4.2672,-2.5908 4.8768,-3.5814 0.889,-0.5588 1.6256,-2.2606 2.1082,-3.0988 0.1016,-0.381 0.2032,-0.762 0.3302,-1.1176 0.1524,-1.9304 0.9652,-4.6228 0.0762,-6.4262 -0.0762,-0.889 -0.2286,-2.9718 -1.0668,-3.3782 -0.5334,-0.6604 -1.0668,-1.3208 -1.5748,-1.9812 -0.2794,-0.1524 -0.7366,-0.381 -0.8382,-0.6858 -0.1524,-0.0508 -0.3048,-0.1016 -0.4318,-0.127 -0.2286,-0.4826 -1.5748,-0.9144 -2.159,-1.0922 -0.0254,-0.0762 -0.0508,-0.127 -0.0508,-0.1778 -0.6096,-0.1524 -1.143,-0.4572 -1.7018,-0.7366 -0.762,-0.0508 -1.4478,-0.254 -2.1844,-0.4572 0.4064,-1.4224 3.4544,-3.6576 4.572,-4.4704 0.3048,-0.4826 0.9144,-0.8382 1.4224,-1.0414 0.6096,-1.1176 2.0066,-1.3462 3.1496,-1.397 0.4572,0.2794 0.4572,0.2794 1.016,0.4826 0,0.0508 0,0.1016 0,0.1524 0.8636,0.3302 1.3208,0.8382 2.1082,1.27 0,0.0508 0,0.1016 0,0.1778 0.1016,0.0254 0.2032,0.0508 0.3302,0.0762 0.381,0.5588 1.5748,1.0414 1.778,1.7018 2.2606,1.7272 4.3942,4.5466 5.0546,7.366 0.0508,0.0254 0.127,0.0508 0.2032,0.0762 0.5334,2.032 0.6604,2.159 0.7874,2.8956 0.8382,1.7018 0.6858,4.6482 0.6858,6.604 -0.3302,1.3462 -0.3302,1.3462 -0.4318,2.1844 -0.254,0.4064 -0.3302,0.7874 -0.4064,1.27 -0.2794,0.127 -0.5334,1.143 -0.635,1.4478 -0.7112,0 -1.7526,3.5814 -2.7178,3.8862 -0.5842,0.8128 -1.4224,1.651 -1.8542,2.54 -0.0762,0 -0.127,0 -0.1778,0 -0.3302,1.016 -1.3462,1.7272 -2.159,2.3622 -0.0762,0.254 -0.254,0.3302 -0.4826,0.4064 -0.0254,0.0508 -0.0508,0.127 -0.0508,0.2032 -1.016,0.3048 -1.7018,1.143 -2.667,1.5748 -0.0254,0.0508 -0.0508,0.127 -0.0508,0.2032 -0.7366,0.0508 -1.8288,0.9398 -2.4892,1.2446 -0.0254,0.0508 -0.0508,0.127 -0.0508,0.2032 -0.254,0.0254 -0.508,0.0508 -0.762,0.1016 -1.905,1.0668 -4.064,1.4986 -6.1722,1.8796 -1.7018,0.0254 -3.4036,0.0762 -5.08,0.127z"/>
   <path id="_212708960" class="fil0" d="M138.452 170.809c0,-0.8382 0.0762,-1.0922 -0.6858,-1.524 -0.3302,-0.8636 0.0254,-1.6764 0.3302,-2.4638 0.127,-0.0254 0.2794,-0.0508 0.4318,-0.0762 -0.0508,0.762 -0.635,2.0574 0.3302,2.4638 0,0.5588 0.1778,1.3208 -0.4064,1.6002z"/>
   <path id="_212708984" class="fil0" d="M217.09 168.015c-0.3048,-0.0762 -0.6096,-0.1524 -0.9144,-0.2286 -1.7272,-0.0508 -6.1214,-0.5334 -6.9088,-2.413 0.0762,-0.0762 0.0762,-0.0762 0.635,-0.1016 0.0254,0.0508 0.0508,0.127 0.0762,0.2032 0.635,0 1.2192,0.4318 1.778,0.7112 2.3622,0.5842 6.5532,0.9652 8.7376,0.0762 0.4572,0 0.9398,0 1.4224,0 0.0254,0.0508 0.0762,0.127 0.127,0.2032 -0.3302,0.4064 -1.9558,0.9144 -2.4892,1.0414 0,0.0508 0,0.1016 0,0.1778 -0.8128,0.1778 -1.6256,0.254 -2.4638,0.3302z"/>
   <path id="_214159768" class="fil6" d="M154.2 165.145c-1.3716,-0.5842 -3.3274,-0.6096 -3.556,-2.286 0.9652,0 1.905,-0.0254 2.8702,0.1016 5.5118,-0.254 10.6172,-2.667 15.9258,-3.8862 0.254,-0.1778 0.8382,-0.3302 2.6924,-1.0922 1.778,-0.889 3.4544,-1.7018 5.4356,-2.032 1.5494,-0.9144 1.5494,-0.9144 1.9304,-1.0668 0.0762,-0.1778 2.2352,-2.032 2.4638,-2.1082 0.1778,-0.5334 1.27,-1.6002 1.6764,-1.9812 0.9652,-0.2032 2.032,-0.889 2.3622,-1.8034 3.0226,-3.0226 3.5052,-7.2898 5.1308,-11.1252 0.4572,-2.6416 0.6096,-5.08 0.6096,-7.7724 -0.127,-1.1938 -0.254,-2.3876 -0.3556,-3.556 -1.0668,-4.1148 -2.286,-8.255 -4.3942,-11.938 -0.127,-0.1778 -1.0922,-1.8542 -1.397,-1.9558 -0.9906,-1.8796 -2.2098,-3.2512 -3.556,-4.8768 -0.0254,-0.1016 -0.0508,-0.2032 -0.0762,-0.2794 -0.0762,-0.0254 -0.1524,-0.0508 -0.2032,-0.0762 -1.8288,-2.2352 -3.6576,-4.445 -5.461,-6.6548 -0.2286,-0.2286 -1.651,-1.27 -1.778,-1.7526 -1.143,-0.6096 -1.8796,-1.9812 -3.048,-2.6162 -0.0254,-0.0762 -0.0508,-0.1524 -0.0762,-0.2032 -2.2606,-2.159 -4.4958,-4.318 -6.731,-6.477 -0.254,-0.381 -1.6764,-2.4892 -1.6002,-3.0734 0.6604,0 0.8636,0.127 1.397,0.508 1.8542,1.5748 3.7084,3.1496 5.5626,4.7244 0.2032,0.4064 0.8128,0.8128 1.1938,1.0414 0.3048,1.0668 2.5654,2.413 3.175,3.4036 0.2032,0.127 1.4478,1.5494 2.1336,2.2098 0.1778,0.0762 0.254,0.2794 3.4544,3.6068 0.3556,0.2794 0.7112,0.5588 1.0922,0.8636 2.667,3.429 5.2832,6.8072 7.4422,10.5664 1.7018,2.032 2.9718,4.445 3.556,7.0358 0.0508,0.0762 0.1016,0.1524 0.1778,0.2286 0.4826,1.778 1.27,3.81 1.4224,5.6896 0,2.4638 0,4.9276 0,7.3914 -0.3556,3.302 -1.3462,6.5024 -2.1082,9.7282 -0.9144,2.921 -1.905,5.842 -3.81,8.2042 -1.5748,3.048 -3.9624,5.207 -6.604,7.3914 -1.5748,0.889 -3.5306,1.524 -5.3086,1.8796 -0.1016,0.0508 -0.2032,0.1016 -0.3048,0.1778 -3.0734,0.5842 -3.4798,0.762 -7.4168,1.6002 -0.3048,0.1778 -1.0668,0.3302 -1.4478,0.508 -4.191,0.8382 -8.1788,1.5494 -12.4714,1.7526z"/>
   <path id="_214159576" class="fil0" d="M4.7462 164.535c-0.0254,-0.1016 -0.0254,-0.2032 -0.0254,-0.2794 1.2446,-0.6096 3.1496,-0.762 4.4958,-1.0414 2.8702,-0.1524 4.064,-0.3302 11.0998,-0.6604 9.2964,0 9.2964,0 14.7574,-0.1016 0.4318,0.0508 0.6858,0.0762 0.762,0.5588 -0.508,0.1016 -1.016,0.2032 -1.524,0.3048 -3.302,0.1524 -3.302,0.1524 -21.1836,0.508 -5.6642,0.4064 -5.9182,0.508 -8.382,0.7112z"/>
   <path id="_214159408" class="fil0" d="M135.226 162.681c-0.8636,-1.2192 -1.0414,-2.8448 -1.5748,-4.2418 -0.4064,-0.3556 -1.6002,-2.5908 -1.6002,-3.0988 0.0508,-0.0254 0.1016,-0.0508 0.1524,-0.0762 1.8034,1.27 3.4798,5.1562 3.4798,7.2136 -0.2032,0.1524 -0.2032,0.1524 -0.4572,0.2032z"/>
   <path id="_214159624" class="fil0" d="M204.39 162.681c-0.508,-0.7112 -0.4064,-0.8636 -0.0762,-1.651 0.0762,0 0.1778,0 0.2794,0 0.4318,0.5334 0.4826,1.1684 -0.2032,1.651z"/>
   <path id="_214159600" class="fil0" d="M123.974 161.919c0,-0.0762 0,-0.1524 0,-0.254 0.0254,0 0.0508,0 0.0762,0 0,0.0762 0,0.1524 0,0.254 -0.0254,0 -0.0508,0 -0.0762,0z"/>
   <path id="_214159480" class="fil0" d="M230.044 161.665c-0.0508,-0.2794 -0.0508,-0.2794 0.0508,-0.5588 1.8034,-1.7526 3.6576,-4.0132 4.5212,-6.4262 0.508,-0.254 1.2446,-3.0988 1.397,-3.556 0.1524,-0.127 0.3302,-0.254 0.508,-0.3556 0.0508,0.0254 0.1016,0.0762 0.1778,0.127 0,0.4064 -0.0508,2.413 -0.5334,2.5654 -0.4572,2.286 -2.286,5.0038 -3.9624,6.5786 -0.4318,0.8636 -1.3208,1.3716 -2.159,1.6256z"/>
   <path id="_214382992" class="fil0" d="M123.618 161.233c0,-0.0508 0,-0.1016 0,-0.1524 0.0254,0 0.0508,0 0.1016,0 0,0.0508 0,0.1016 0,0.1524 -0.0254,0 -0.0508,0 -0.1016,0z"/>
   <path id="_214383208" class="fil0" d="M202.536 161.081c-0.0254,-0.2794 -0.2286,-1.4224 0.5334,-1.0414 0,0.4064 -0.0762,0.635 -0.2794,0.9906 -0.1016,0 -0.1778,0.0254 -0.254,0.0508z"/>
   <path id="_214383280" class="fil2" d="M216.76 160.979c-1.7018,-0.3048 -1.7018,-0.3048 -2.8702,-0.635 -2.2352,-1.0668 -6.4008,-2.2606 -6.4008,-5.461 0.3556,-0.7874 0.7112,-1.5748 1.0668,-2.3622 0.0508,0 0.1016,0 0.1524,0 0.3048,-1.1176 1.0668,-2.8448 2.0828,-3.3528 0.0508,0.0762 0.1016,0.1524 0.1524,0.2286 0.4318,3.0734 0.4064,3.7592 2.8702,5.6388 0.2286,0.4572 1.397,1.0414 1.8542,1.2446 2.9718,0.4318 4.8006,-0.0762 6.9596,-2.0828 0.3048,-0.4826 0.6096,-0.9652 0.9398,-1.4224 0.2794,-1.9812 -0.2032,-3.4798 -0.889,-5.3086 -0.762,-1.2192 -1.524,-2.413 -2.2606,-3.6068 -2.0066,-0.7874 -3.937,-0.4826 -6.1214,-0.4572 -1.0414,-0.508 2.1844,-3.3274 2.8956,-3.81 1.5494,-0.3048 2.8956,0.2794 4.3942,0.6096 0.7366,0.2794 1.2192,0.762 1.8542,1.0668 0,0.0508 0,0.1016 0,0.1524 1.1938,0.5842 2.4892,2.1082 3.2258,3.2258 0.0508,0 0.1016,0 0.1778,0 1.27,2.8448 1.2446,7.0866 -0.1016,9.9314 -0.635,1.143 -1.6002,2.1844 -2.6416,2.9972 -0.0254,0.0508 -0.0508,0.127 -0.0508,0.2032 -0.508,0 -1.5748,1.0922 -1.778,1.524 -0.2286,0.0508 -0.9398,0.6096 -1.778,1.0414 -1.2192,0.3048 -2.4638,0.4826 -3.7338,0.635z"/>
   <path id="_214383448" class="fil0" d="M123.288 160.649c-0.254,-0.254 -0.4826,-0.4826 -0.5334,-0.8382 -0.0762,0 -0.1524,0 -0.2286,0 0,-0.0508 0,-0.0762 0,-0.1016 0.127,0 0.2794,0.0254 0.4318,0.0508 0.2032,0.3048 0.4064,0.508 0.3302,0.889z"/>
   <path id="_214383160" class="fil7" d="M196.694 158.693c-0.1778,-0.0508 -0.3556,-0.1016 -0.508,-0.1524 0,-1.3716 0.8382,-3.0226 1.2954,-4.318 0.762,-2.794 0.762,-2.794 2.1336,-7.0358 0.4572,-4.8514 0.7366,-9.8552 1.524,-14.6558 0.3302,-1.27 0.3302,-1.27 0.508,-1.524 0.762,-4.4958 1.651,-9.4742 4.7752,-13.0048 0.2032,-0.0508 0.3048,-0.1778 0.4064,-0.381 1.4478,-0.8636 3.6068,-1.0922 5.2832,-1.397 2.5146,-0.0254 5.0292,-0.1524 7.5184,0.254 3.1496,0.9144 7.6708,1.143 9.8044,3.8862 1.6764,1.2446 5.588,3.9624 3.8354,6.4262 -1.5748,1.27 -3.683,2.0828 -5.6388,2.5908 -0.2794,0.2286 -0.2794,0.2286 -2.032,1.016 -0.5842,0.4572 -1.3462,1.0922 -1.9812,1.4732 0,0.0508 0,0.1016 0,0.1524 -1.7272,0.8636 -2.794,2.6162 -4.3688,3.6322 -1.1684,1.6256 -3.683,2.7432 -4.445,4.6736 -0.0508,0 -0.1016,0 -0.1524,0 -0.9652,1.4478 -2.159,2.7178 -3.0734,4.191 -0.889,1.905 -0.889,1.905 -1.2192,2.8448 -1.5748,2.7432 -3.0988,5.461 -5.1308,7.8232 -0.2032,0.1016 -0.4064,0.2032 -0.5842,0.3048 0,0.0508 0,0.1016 0,0.1524 -0.9398,0.5588 -1.8796,1.143 -2.794,1.7272 -1.6256,0.508 -3.4798,1.143 -5.1562,1.3208z"/>
   <path id="_214383304" class="fil4" d="M216.328 155.239c-1.0414,-0.381 -2.032,-0.9906 -2.921,-1.6764 -1.27,-1.6002 -1.3462,-2.8448 -1.2954,-4.8514 0.9652,-2.54 2.1082,-3.9116 4.8768,-4.445 0.5842,0.0762 1.1684,0.1524 1.7526,0.254 1.8542,0.9144 2.7432,2.6416 3.2258,4.5974 -0.0254,1.2192 -0.0508,2.4638 -0.0762,3.7084 -1.4478,1.8796 -3.302,2.3114 -5.5626,2.413z"/>
   <path id="_214607384" class="fil8" d="M175.18 155.061c-0.0508,-0.0254 -0.1016,-0.0508 -0.1524,-0.0762 0,-0.3048 0,-0.4826 0.2032,-0.6858 1.6002,-0.6858 3.7084,-1.8542 4.7498,-3.2512 0.1778,-0.0762 0.1778,-0.0762 3.3782,-3.9116 1.3462,-1.0922 1.9812,-2.8448 3.1242,-4.0894 0.2794,-0.6858 1.1176,-2.8448 1.8796,-2.8448 0.1778,1.8288 -1.2446,3.7846 -2.0574,5.3086 -2.032,2.7432 -4.1402,5.5372 -6.6802,7.7978 -0.1016,0.0254 -0.2032,0.0508 -0.2794,0.0762 -1.0414,1.1938 -2.6416,1.5748 -4.1656,1.6764z"/>
   <path id="_214607168" class="fil9" d="M172.996 154.121c-0.6096,-0.5588 -2.1844,-1.651 -1.8288,-2.5654 2.0066,-1.5494 4.4704,-3.1242 5.4864,-5.588 1.3716,-2.1844 1.3716,-2.1844 1.9558,-3.302 0.1778,0 0.3556,0 0.5588,0 0.381,0.6096 0.635,1.397 1.397,1.27 0,-1.0414 -0.381,-1.524 -0.8636,-2.413 0.127,-0.5588 0.508,-1.2192 1.1938,-1.143 0.4318,0.508 0.635,0.9906 1.2192,1.7526 0.0762,-0.0254 0.1524,-0.0508 0.2286,-0.0508 0,-1.0668 -0.635,-1.8542 -0.7112,-2.8448 1.0414,-1.5494 2.7686,-2.6416 4.318,-3.6322 1.4986,0 2.0066,1.8542 1.905,3.0734 -2.0066,4.5974 -5.3848,8.3058 -8.7376,12.0142 -1.5748,1.4478 -3.9878,3.1242 -6.1214,3.429z"/>
   <path id="_214607360" class="fil0" d="M18.4622 153.867c-1.3462,-0.127 -1.3462,-0.127 -2.286,-0.3048 -3.1496,-0.0508 -6.2738,-0.1016 -9.398,-0.1524 -0.3048,-0.1016 -0.635,-0.127 -0.8128,-0.4064 0.3048,-0.0508 0.6096,-0.0762 0.9144,-0.1016 12.6746,0 25.6032,0.4064 38.2524,-0.6096 1.2954,0 2.5908,0.0254 3.9116,0.0508 0,0.127 0,0.2794 0,0.4318 -4.2672,0.4318 -8.509,0.9144 -12.8016,1.0414 -5.9436,0 -11.8618,0.0254 -17.78,0.0508z"/>
   <path id="_214607120" class="fil10" d="M169.186 151.175c-0.2032,-0.1524 -0.381,-0.2794 -0.5588,-0.4064 -2.0066,-2.9464 -4.7498,-5.6388 -6.1468,-8.9662 -0.127,-0.1016 -0.889,-1.6002 -1.5748,-2.667 -0.0762,-0.254 -0.3302,-0.4826 -2.4384,-3.937 -0.3556,-1.0922 -1.3462,-2.4638 -1.8796,-3.5052 -1.143,-1.8034 -2.6416,-3.2004 -3.2258,-5.2578 -0.4064,-0.4064 -0.508,-1.4986 -0.6604,-2.0574 -0.8128,-1.3462 -3.2512,-2.4384 -2.3622,-4.2164 0,-0.3048 -0.0762,-0.3556 -0.254,-0.5334 -0.5334,0.1016 -0.7874,0.4064 -1.3462,0.4064 -0.1778,-0.2286 -0.1778,-0.2286 -0.6096,-1.6764 -2.1082,-1.7526 -6.1976,-0.2286 -8.6614,0.254 -2.8448,0.2032 -5.6896,0.6096 -8.5598,0.6604 -0.3302,0.0508 -0.635,0.1016 -0.9398,0.1778 -2.8448,1.2192 -6.477,2.2098 -9.5758,2.2098 -0.8382,-0.2032 -1.6764,-0.4064 -2.4892,-0.6096 -0.2794,-0.2286 -0.2794,-0.2286 -0.6604,-0.3556 -0.1778,-0.3048 -0.3556,-0.5842 -0.5334,-0.8636 -1.2954,-0.889 -2.1844,-1.8796 -2.3876,-3.4544 1.5494,-1.7018 4.4958,-2.4384 6.5786,-3.2004 5.8674,-1.4224 11.5824,-3.3274 17.4752,-4.5974 3.556,-1.016 8.636,-2.7686 12.3952,-1.5748 0.2032,0.1524 0.4318,0.3048 0.6604,0.4826 2.5654,3.302 4.5212,7.366 7.3152,10.4394 0.2286,0.127 0.4826,0.2794 0.7366,0.4318 2.5146,2.9972 3.81,6.8326 6.2484,9.906 1.143,1.8034 2.3114,3.6068 3.4798,5.4102 0.1778,0.5588 0.1778,0.5588 0.635,1.27 2.0066,1.6002 4.1656,3.4544 5.588,5.588 2.7432,1.2446 1.3208,3.0988 0.2032,5.1562 -1.6764,1.8288 -3.9624,4.6736 -6.4516,5.4864z"/>
   <path id="_214607336" class="fil8" d="M91.1062 146.755c-0.1778,-0.127 -0.8382,-0.2794 -1.1938,-0.4572 -1.9558,-0.4318 -3.9878,-1.2446 -5.8674,-1.905 0,-0.1016 0,-0.2032 0,-0.3048 1.016,-0.4318 1.8034,-0.6858 2.921,-0.6096 1.6764,0.7874 3.5052,1.397 5.1054,2.3114 0,0.635 -0.3556,0.889 -0.9652,0.9652z"/>
   <path id="_214607072" class="fil8" d="M74.9518 145.663c-0.5334,-0.5334 -0.5588,-0.6096 -0.5588,-1.4732 2.1082,-1.2954 4.7752,-1.8542 7.0104,-2.8956 4.191,-1.1938 6.1214,-1.8542 7.8486,-2.286 0.2286,-0.1778 0.9144,-0.3302 1.2954,-0.508 2.0574,-0.5588 4.572,-1.778 6.6802,-1.778 0.2032,0.3048 0.2032,0.3048 0.4572,1.2192 -0.0762,0.127 -0.1524,0.254 -0.2286,0.381 -2.7432,0.7112 -5.4102,1.905 -8.128,2.7178 -0.8128,0.5842 -2.3622,0.5588 -3.0734,1.27 -3.5052,1.016 -7.0866,2.0574 -10.541,3.2258 -0.254,0.0254 -0.508,0.0762 -0.762,0.127z"/>
   <path id="_214414312" class="fil11" d="M62.2518 145.079c-1.1938,-0.381 -1.7018,-5.3848 -1.9304,-6.223 -0.8128,-1.0668 -0.635,-3.1496 -1.6002,-4.1148 -0.381,-1.8796 -1.4732,-3.6068 -1.9558,-5.5118 -0.5588,-0.2794 -0.635,-2.4638 -1.27,-2.9464 -0.3048,-2.4638 -1.6764,-4.7752 -1.8542,-7.2898 -0.5842,-0.5842 -0.5588,-3.3528 -0.6096,-4.3942 0.6604,-1.27 2.032,-2.6416 3.4544,-3.0226 0.254,-0.5334 4.7244,-1.9558 5.5118,-2.032 0.8636,-0.635 2.1336,-0.4318 3.0226,-1.016 0.6858,-0.1778 2.794,-0.4572 3.3528,-1.016 1.8542,-0.2286 3.8608,-1.3462 5.715,-1.8796 0.7366,-0.5334 1.778,-0.6096 2.6416,-0.762 0.9398,-0.7874 3.175,-0.9652 4.318,-1.3462 0.381,-0.381 0.889,-0.1778 1.2446,-0.5334 0.7874,-0.2032 1.5748,-0.381 2.3876,-0.5588 0.381,-0.762 2.8956,-0.5588 3.6068,-1.27 2.286,-0.4572 4.1402,-1.3462 6.5024,-1.3462 0.6096,1.2192 1.016,2.8448 1.27,4.191 0.4064,0.8382 0.2286,1.9812 0.762,2.7686 0.254,1.9558 0.9398,3.5306 1.3716,5.4356 1.0414,3.3782 2.0828,6.7056 2.6924,10.16 0.508,0.7874 0.0254,1.9304 0.508,2.7686 0.0508,0.5842 0.1016,1.1176 0.4318,1.6256 0.2794,2.3114 0.381,4.5974 0.4064,6.9088 -0.7366,0.5588 -1.8288,0.4572 -2.4638,1.0922 -0.7112,0.0508 -2.159,0.254 -2.6924,0.6858 -0.4318,0.0254 -0.5842,0.0254 -0.889,0.3302 -0.8382,0.1778 -1.6764,0.3556 -2.4892,0.5334 -1.397,0.8382 -3.5052,0.635 -4.7498,1.5748 -2.1336,0.2794 -3.8862,1.27 -5.9944,1.5494 -0.635,0.4064 -1.3462,0.6096 -2.0828,0.6604 -2.6924,1.016 -5.6134,2.0574 -8.4836,2.5654 -0.3556,0.3556 -1.27,0.1016 -1.4732,0.4064 -1.778,0.508 -1.778,0.508 -2.4384,0.6096 -0.2794,0.2794 -0.6604,0.3048 -1.0414,0.381 -0.0254,0.0508 -0.0508,0.1016 -0.0762,0.1778 -0.889,0.1524 -2.2098,0.2794 -2.9972,0.7874 -0.7112,0 -1.4224,0.0254 -2.1082,0.0508z"/>
   <path id="_214414624" class="fil0" d="M7.6418 144.469c-1.524,-0.0762 -3.048,-0.1524 -4.572,-0.2032 -0.2286,-0.1524 -0.4572,-0.2794 -0.6604,-0.4064 0.7112,-0.127 1.4478,-0.254 2.1844,-0.3556 6.0198,-0.0508 12.065,-0.0762 18.1102,-0.1016 2.4892,-0.0762 5.3594,-0.4318 7.7978,0.127 0,0.1016 0,0.2286 0,0.3556 -0.9398,0.127 -1.8796,0.254 -2.794,0.381 -8.128,0.1524 -8.128,0.1524 -20.066,0.2032z"/>
   <path id="_214414648" class="fil0" d="M233.702 143.555c-0.127,-0.2794 -1.8542,-2.794 -2.2606,-2.9464 -0.889,-1.6002 -2.54,-2.9718 -3.9878,-4.0894 -0.8128,-0.5334 -2.5146,-1.1684 -2.794,-2.1336 0.0254,-0.0762 0.0508,-0.1524 0.1016,-0.2032 2.5146,0 7.6962,5.0292 8.1788,6.9596 0.5842,0.381 1.016,1.778 0.762,2.413z"/>
   <path id="_214414576" class="fil9" d="M177.568 141.599c-0.6858,-1.0668 -0.9652,-0.9398 -0.381,-1.9812 1.27,-1.4478 2.54,-2.921 3.7084,-4.4704 0.3556,-0.9652 1.016,-1.4986 1.6256,-0.4064 1.4986,0.4826 0.8382,-1.397 0.5588,-2.1336 0.1778,-1.1684 1.3208,-0.6096 1.9812,-0.127 0.635,0.9144 1.3716,0.9144 1.1684,-0.4064 -0.6096,-0.6096 -1.2954,-1.0414 -2.032,-1.4478 0,-0.1524 0,-0.2794 0,-0.4064 0.508,-1.1684 3.3782,-5.7912 5.1562,-3.6576 0.381,1.2446 0.508,2.1336 0.6858,2.7432 -0.1016,0.7112 -0.1778,1.4224 -0.254,2.1336 -0.1778,0.6858 -1.0668,3.7592 -2.032,3.7592 -1.4986,-1.8796 -3.3528,0.4826 -4.826,1.2192 -1.524,1.3716 -1.524,1.3716 -1.9558,1.905 -1.0668,0.5334 -0.9144,0.8636 -1.5494,1.7018 -0.4318,0.3556 -0.8382,0.7112 -1.2446,1.0668 -0.1016,0.4318 -0.2286,0.4572 -0.6096,0.508z"/>
   <path id="_214414480" class="fil0" d="M128.19 141.523c-0.0254,-0.3048 -0.0508,-0.5842 -0.0762,-0.8636 0.0508,0 0.1016,0.0254 0.1778,0.0508 0.0508,0.254 0.1016,0.5334 0.1524,0.8128 -0.1016,0 -0.1778,0 -0.254,0z"/>
   <path id="_214414504" class="fil10" d="M175.688 139.135c-0.4572,-0.3556 -0.8128,-0.8636 -1.143,-1.3462 -3.0226,-2.4892 -4.6736,-5.1816 -6.7056,-8.5598 -0.2286,-0.2286 -0.2286,-0.2286 -3.0988,-4.5974 -0.762,-1.3716 -1.4986,-2.7178 -2.2352,-4.064 -2.2098,-3.5052 -4.8768,-6.8326 -7.4168,-10.1092 -1.3462,-1.9304 -2.413,-4.4196 -4.9022,-4.9022 -3.8608,0 -4.8006,0.1016 -5.5118,0.0762 0,-0.1016 0,-0.2032 0,-0.2794 2.0828,-0.7366 4.0132,-1.4224 6.1976,-1.8288 1.3208,0 2.2606,0 3.5052,0.4318 0.7874,0.5588 1.5748,1.1176 2.3876,1.7018 2.4638,3.2258 4.699,6.5278 6.858,9.9822 0.3048,0.9398 1.7018,2.6416 2.4638,3.175 1.1684,1.524 2.3622,2.9972 3.429,4.5974 0.5588,0.6604 1.143,1.3208 1.7272,1.9812 1.8796,1.8034 1.8796,1.8034 1.9812,2.0066 1.9558,1.3462 3.683,3.1496 5.3086,4.8768 0.5842,0.4064 1.3208,0.8128 1.7018,1.397 -0.9906,2.0066 -2.5654,3.8862 -4.2418,5.3848 -0.1016,0.0254 -0.2032,0.0508 -0.3048,0.0762z"/>
   <path id="_214418136" class="fil0" d="M129.562 138.983c0,-0.0254 0,-0.0508 0,-0.1016 0.0508,0 0.1016,0 0.1524,0 0,0.0254 0,0.0508 0,0.1016 -0.0508,0 -0.1016,0 -0.1524,0z"/>
   <path id="_214418232" class="fil8" d="M189.582 138.475c-0.381,-0.4572 -1.3462,-1.8542 -0.635,-2.3114 0.2286,-0.8382 0.9652,-2.7178 1.6764,-3.175 0.0508,0.0254 0.1016,0.0762 0.1778,0.127 -0.0762,1.1176 -0.1016,4.6228 -1.2192,5.3594z"/>
   <path id="_214418472" class="fil0" d="M38.2742 135.579c-8.5852,-0.1778 -17.1958,-0.6604 -25.8064,-0.5588 -0.2286,-0.0508 -0.4572,-0.0762 -0.6858,-0.1016 -0.0254,-0.1016 -0.0254,-0.2032 -0.0254,-0.2794 12.1666,-0.8636 24.3586,0.2286 36.5252,-0.2032 0.4064,0.0508 0.8382,0.127 1.27,0.2032 0,0.1016 0,0.2286 0,0.3556 -0.254,0.127 -0.254,0.127 -3.1496,0.4572 -2.7178,0.0254 -5.4356,0.0762 -8.128,0.127z"/>
   <path id="_214418280" class="fil8" d="M105.584 135.071c0.0254,-0.1524 0.0508,-0.2794 0.1016,-0.4064 0.4064,0.127 0.4064,0.127 0.762,0.3556 -0.3048,0 -0.5842,0.0254 -0.8636,0.0508z"/>
   <path id="_214418112" class="fil8" d="M109.648 134.741c0.2794,-0.5588 0.889,-0.2794 1.3716,-0.508 -0.0762,0.127 -0.127,0.254 -0.1778,0.381 -0.4064,0.0254 -0.8128,0.0762 -1.1938,0.127z"/>
   <path id="_214418328" class="fil8" d="M111.68 134.411c0.0254,-0.1016 0.0508,-0.1778 0.1016,-0.254 0.381,0 0.9652,-0.254 1.0922,0.254 -0.4064,0 -0.8128,0 -1.1938,0z"/>
   <path id="_214418304" class="fil8" d="M113.89 134.055c-0.0254,-0.0508 -0.0508,-0.0762 -0.0762,-0.1016 0.2794,-0.1524 0.5588,-0.2794 0.8382,-0.4064 -0.0254,0.1016 -0.0508,0.2032 -0.0508,0.3302 -0.254,0.0508 -0.4826,0.1016 -0.7112,0.1778z"/>
   <path id="_214433128" class="fil8" d="M104.238 133.725c-0.0254,-0.254 -0.0508,-0.508 -0.0762,-0.762 -0.0762,-0.0254 -0.1524,-0.0508 -0.2032,-0.0762 0,-0.254 0,-0.508 0,-0.7366 0.0762,0.254 0.3556,0.2032 0.3556,0.3048 -0.1524,0 -0.1524,0 -0.1524,0.0762 0.0508,0 0.1016,0 0.1524,0 0.0508,0.3556 0.1016,0.7366 0.1778,1.1176 -0.1016,0.0254 -0.1778,0.0508 -0.254,0.0762z"/>
   <path id="_214432768" class="fil8" d="M117.522 133.725c-0.0508,-0.0762 -0.1016,-0.127 -0.127,-0.1778 0.2286,-0.2286 0.7366,-0.127 1.0922,-0.127 0,0.0762 0,0.1524 0,0.254 -0.3302,0 -0.6604,0.0254 -0.9652,0.0508z"/>
   <path id="_214432936" class="fil8" d="M118.97 133.293c0,-0.2794 0.6604,-0.1778 0.8382,-0.1524 0,0.0508 0,0.1016 0,0.1524 -0.2794,0 -0.5588,0 -0.8382,0z"/>
   <path id="_214433248" class="fil8" d="M120.418 132.963c0,-0.0254 0,-0.0508 0,-0.0762 0.0508,0 0.1016,0 0.1524,0 0,0.0254 0,0.0508 0,0.0762 -0.0508,0 -0.1016,0 -0.1524,0z"/>
   <path id="_214432960" class="fil8" d="M121.688 132.633c0,-0.1524 0,-0.3048 0,-0.4318 0.2032,-0.0254 0.4064,-0.0508 0.6096,-0.0508 0.2286,0.254 0.2286,0.254 0.3048,0.4826 -0.3048,0 -0.6096,0 -0.9144,0z"/>
   <path id="_214433056" class="fil8" d="M119.732 132.455c0,-0.0762 0,-0.1524 0,-0.254 0.0508,0 0.1016,0 0.1778,0 0,0.0762 0,0.1524 0,0.254 -0.0508,0 -0.1016,0 -0.1778,0z"/>
   <path id="_214432528" class="fil8" d="M120.824 132.277c0,-0.0254 0,-0.0508 0,-0.0762 0.0254,0 0.0508,0 0.1016,0 0,0.0254 0,0.0508 0,0.0762 -0.0254,0 -0.0508,0 -0.1016,0z"/>
   <path id="_214432816" class="fil8" d="M122.856 132.277c0.127,-0.3302 0.4318,-0.3302 0.7874,-0.2794 0.0254,0.0762 0.0508,0.1778 0.0762,0.2794 -0.3048,0 -0.5842,0 -0.8636,0z"/>
   <path id="_214432792" class="fil8" d="M124.304 131.947c0,-0.0762 0,-0.127 0,-0.1778 0.3048,0 0.3556,-0.0508 0.635,0.0762 -0.2286,0.0254 -0.4318,0.0508 -0.635,0.1016z"/>
   <path id="_214433464" class="fil8" d="M126.006 131.617c0,-0.0762 0.0254,-0.1524 0.0508,-0.2286 0.0508,0 0.1016,0.0254 0.1524,0.0508 -0.0508,0.127 -0.0508,0.127 -0.2032,0.1778z"/>
   <path id="_214433488" class="fil8" d="M127.022 131.617c-0.0254,-0.1016 -0.0508,-0.2032 -0.0508,-0.3048 0.1778,0 0.381,0 0.5842,0 0,0.0762 0,0.1524 0,0.2286 -0.1778,0.0254 -0.3556,0.0508 -0.5334,0.0762z"/>
   <path id="_214433296" class="fil8" d="M123.872 131.363c-0.0254,-0.1016 -0.0254,-0.2032 -0.0254,-0.3048 0.127,0 0.254,0 0.4064,0 -0.0254,0.0762 -0.0508,0.1524 -0.0762,0.2286 -0.1016,0.0254 -0.2032,0.0508 -0.3048,0.0762z"/>
   <path id="_214418568" class="fil8" d="M128.368 131.185c0.127,-0.2794 0.3556,-0.1778 0.6096,-0.2032 0.0254,0.0254 0.0508,0.0762 0.1016,0.127 -0.254,0.0254 -0.4826,0.0508 -0.7112,0.0762z"/>
   <path id="_214438624" class="fil8" d="M129.892 130.855c0,-0.0508 0,-0.0762 0,-0.1016 0.1778,-0.0508 0.381,-0.1016 0.5842,-0.1524 0,0.0762 0,0.1524 0,0.254 -0.2032,0 -0.4064,0 -0.5842,0z"/>
   <path id="_214438696" class="fil8" d="M103.908 130.677c0,-0.254 0,-0.508 0,-0.762 0.0254,0 0.0508,0 0.0762,0 0,0.254 0,0.508 0,0.762 -0.0254,0 -0.0508,0 -0.0762,0z"/>
   <path id="_214438672" class="fil8" d="M104.06 130.677c0,-0.1016 0,-0.2032 0,-0.3302 0.0254,0 0.0508,0 0.1016,0 0,0.1016 0,0.2032 0,0.3302 -0.0254,0 -0.0508,0 -0.1016,0z"/>
   <path id="_214438504" class="fil8" d="M130.654 130.499c0.0508,-0.1016 0.0508,-0.1016 0.5334,-0.2032 0.0254,0.0254 0.0508,0.0762 0.1016,0.127 -0.2286,0.0254 -0.4318,0.0508 -0.635,0.0762z"/>
   <path id="_214439080" class="fil8" d="M132 130.499c0.1778,-0.254 0.3048,-0.2794 0.6096,-0.3302 0,0.1016 0,0.2032 0,0.3302 -0.2032,0 -0.4064,0 -0.6096,0z"/>
   <path id="_214438936" class="fil8" d="M132.94 130.169c0,-0.0762 0,-0.1524 0,-0.254 0.127,0 0.2794,0 0.4318,0 0,0.0762 0,0.1524 0,0.254 -0.127,0 -0.2794,0 -0.4318,0z"/>
   <path id="_214438576" class="fil8" d="M135.048 129.483c0.0254,-0.1016 0.0508,-0.2032 0.0762,-0.2794 0.1016,0 0.2032,0 0.3048,0 0,0.0762 0,0.1524 0,0.2286 -0.127,0 -0.254,0.0254 -0.381,0.0508z"/>
   <path id="_214438480" class="fil8" d="M104.238 129.331c0,-0.2286 0,-0.4572 0,-0.6858 0.0508,0 0.1016,0.0254 0.1778,0.0508 -0.1016,0.635 -0.1016,0.635 -0.1778,0.635z"/>
   <path id="_214438408" class="fil8" d="M135.81 129.077c0.0254,-0.0508 0.0508,-0.1016 0.0762,-0.1524 0.0508,0 0.1016,0.0254 0.1524,0.0508 -0.0762,0.0254 -0.1524,0.0508 -0.2286,0.1016z"/>
   <path id="_214438744" class="fil8" d="M136.496 128.721c0.0508,-0.0762 0.127,-0.1524 0.2032,-0.2286 0.0254,0.0508 0.0508,0.1016 0.1016,0.1524 -0.1016,0.0254 -0.2032,0.0508 -0.3048,0.0762z"/>
   <path id="_214439248" class="fil8" d="M104.568 128.569c0,-0.1016 0,-0.1778 0,-0.254 0.0762,0 0.1524,0 0.254,0 -0.0762,0.1778 -0.0762,0.1778 -0.254,0.254z"/>
   <path id="_214439200" class="fil8" d="M136.928 128.391c0,-0.0762 0.0254,-0.1524 0.0508,-0.2286 0.1016,0.0508 0.2032,0.1016 0.3048,0.1524 -0.127,0.0254 -0.254,0.0508 -0.3556,0.0762z"/>
   <path id="_214439128" class="fil8" d="M137.436 128.391c0.0762,-0.3048 0.381,-0.5842 0.7112,-0.5334 0,0.0508 0.0254,0.127 0.0508,0.2032 -0.1016,0.0254 -0.2032,0.0508 -0.3048,0.0762 -0.0254,0.0762 -0.0508,0.1524 -0.0508,0.254 -0.1524,0 -0.2794,0 -0.4064,0z"/>
   <path id="_214439896" class="fil8" d="M105 128.137c-0.0254,-0.1778 -0.0508,-0.3556 -0.0762,-0.508 0.127,-0.0254 0.254,-0.0254 0.381,-0.0254 0.1016,-0.2032 -0.1524,0.381 -0.3048,0.5334z"/>
   <path id="_214440016" class="fil8" d="M106.016 127.045c0,-0.0254 0,-0.0508 0,-0.1016 0.127,0 0.2794,0 0.4318,0 0,0.0254 0,0.0508 0,0.1016 -0.127,0 -0.2794,0 -0.4318,0z"/>
   <path id="_214439536" class="fil8" d="M106.854 126.867c0,-0.1016 0,-0.1778 0,-0.254 0.3556,-0.0508 0.3556,-0.0508 0.6858,0.0254 -0.2286,0.0762 -0.4572,0.1524 -0.6858,0.2286z"/>
   <path id="_214439464" class="fil8" d="M138.858 126.689c0,-0.0508 0,-0.1016 0,-0.1524 0.0762,-0.0254 0.1778,-0.0508 0.2794,-0.0762 0,0.0508 0,0.127 0,0.2032 -0.1016,0 -0.2032,0 -0.2794,0.0254z"/>
   <path id="_214439728" class="fil8" d="M107.718 126.537c0,-0.127 0,-0.254 0,-0.3556 0.0762,0.0508 0.1524,0.1016 0.2286,0.1524 -0.0254,0.0508 -0.0508,0.127 -0.0762,0.2032 -0.0508,0 -0.1016,0 -0.1524,0z"/>
   <path id="_214439800" class="fil8" d="M108.734 126.537c-0.0254,-0.1016 -0.0508,-0.2032 -0.0508,-0.3048 0.0762,0 0.1524,0 0.2286,0 0,0.0762 0,0.1524 0,0.2286 -0.0762,0.0254 -0.127,0.0508 -0.1778,0.0762z"/>
   <path id="_214439392" class="fil8" d="M139.366 126.181c-0.0254,-0.1778 -0.0254,-0.3556 -0.0254,-0.5334 0.0508,-0.0254 0.127,-0.0508 0.2032,-0.0508 0,0.1778 0,0.381 0,0.5842 -0.0762,0 -0.127,0 -0.1778,0z"/>
   <path id="_214439920" class="fil8" d="M109.496 126.105c-0.0508,-0.1016 -0.0762,-0.1778 -0.1016,-0.254 0.127,0 0.254,0.0254 0.381,0.0508 -0.1016,0.1524 -0.1016,0.1524 -0.2794,0.2032z"/>
   <path id="_214439968" class="fil8" d="M110.156 125.851c0,-0.127 0,-0.2286 0,-0.3302 0.2794,-0.0254 0.5588,-0.0508 0.8636,-0.0762 0.0254,-0.1016 0.0508,-0.2032 0.0762,-0.2794 0.1778,0 0.381,0 0.5842,0 0,0.127 0.0254,0.254 0.0508,0.381 -0.5588,0.0508 -1.0414,0.127 -1.5748,0.3048z"/>
   <path id="_214439560" class="fil0" d="M227.682 125.343c-1.778,-0.762 -4.0132,-1.2192 -5.9436,-1.651 -3.6068,-0.4064 -7.2644,-0.762 -10.8966,-0.4318 -1.0922,0.2286 -2.4892,0.762 -3.6068,0.6604 0,-0.0762 0,-0.1524 0,-0.2286 4.6736,-2.4638 10.4394,-1.3208 15.4432,-0.6858 0.4572,0.127 5.969,1.0414 5.5626,2.286 -0.2032,0 -0.381,0.0254 -0.5588,0.0508z"/>
   <path id="_214439872" class="fil8" d="M113.128 125.013c-0.4318,-0.1016 -0.4318,-0.1016 -0.4318,-0.1778 0.2286,0 0.4572,0 0.6858,0 0.0254,-0.127 0.0508,-0.2286 0.0762,-0.3302 0.4318,-0.0508 0.4318,-0.0508 0.5842,0.0508 -0.0254,0.0508 -0.0508,0.127 -0.0762,0.2032 -0.2794,0.0762 -0.5588,0.1524 -0.8382,0.254z"/>
   <path id="_214440184" class="fil8" d="M114.398 124.911c0,-0.3556 -0.0762,-0.4572 0.127,-0.7874 0.1778,0 0.381,0 0.5842,0 -0.0254,0.0762 -0.0508,0.1524 -0.0762,0.2286 -0.127,0.0508 -0.254,0.1016 -0.3556,0.1524 -0.0508,0.2032 -0.0762,0.2794 -0.2794,0.4064z"/>
   <path id="_214440208" class="fil8" d="M117.878 123.997c-0.1524,-0.0762 -0.2794,-0.1524 -0.4064,-0.2032 0.254,0 0.508,0 0.7874,0 -0.127,0.0508 -0.254,0.127 -0.381,0.2032z"/>
   <path id="_214440280" class="fil8" d="M139.366 123.997c-0.0254,-0.1016 -0.0508,-0.1778 -0.0508,-0.254 0.0508,-0.0762 0.1016,-0.1524 0.1524,-0.2286 0.0254,0.1524 0.0508,0.3048 0.0762,0.4826 -0.0762,0 -0.127,0 -0.1778,0z"/>
   <path id="_214441312" class="fil8" d="M119.402 123.743c-0.2032,-0.0762 -0.381,-0.1524 -0.4318,-0.3556 0.4318,0 0.889,0 1.3462,0 0,0.0508 0,0.1016 0,0.1778 -0.3048,0.0508 -0.6096,0.1016 -0.9144,0.1778z"/>
   <path id="_214441336" class="fil8" d="M120.748 123.387c-0.0254,-0.127 -0.0508,-0.2286 -0.0762,-0.3302 0.381,0 0.762,0 1.1684,0 -0.0508,0.0762 -0.1016,0.1778 -0.127,0.2794 -0.3302,0 -0.6604,0.0254 -0.9652,0.0508z"/>
   <path id="_214441288" class="fil8" d="M139.112 123.311c-0.1524,-0.0508 -0.3048,-0.1016 -0.4318,-0.1524 -0.0254,-0.0762 -0.0508,-0.127 -0.0762,-0.1778 0.2032,0 0.4064,0 0.6096,0 -0.0508,0.1016 -0.0762,0.2032 -0.1016,0.3302z"/>
   <path id="_214441000" class="fil8" d="M123.796 123.133c-0.0254,-0.127 -0.0508,-0.254 -0.0762,-0.3556 0.2032,0 0.4064,0 0.6096,0 -0.0508,0.1016 -0.0762,0.2286 -0.1016,0.3556 -0.1524,0 -0.3048,0 -0.4318,0z"/>
   <path id="_214440472" class="fil8" d="M125.32 122.549c-0.0254,-0.0508 -0.0508,-0.0762 -0.0762,-0.1016 0.2794,-0.0762 0.381,-0.127 0.7112,-0.1016 0.0254,0.0508 0.0508,0.1016 0.0762,0.1524 -0.254,0 -0.4826,0.0254 -0.7112,0.0508z"/>
   <path id="_214441192" class="fil8" d="M138.782 122.549c-0.0762,-0.127 -0.0762,-0.127 0,-0.254 0,0.0762 0,0.1524 0,0.254z"/>
   <path id="_214440544" class="fil8" d="M126.768 122.219c-0.0254,-0.0762 -0.0508,-0.1524 -0.0508,-0.2286 0.0762,0 0.1524,0 0.2286,0 0,0.0508 0,0.1016 0,0.1524 -0.0762,0.0254 -0.127,0.0508 -0.1778,0.0762z"/>
   <path id="_214441048" class="fil8" d="M130.324 121.787c0,-0.0762 0,-0.1524 0,-0.254 0.0254,0 0.0508,0 0.0762,0 0,0.0762 0,0.1524 0,0.254 -0.0254,0 -0.0508,0 -0.0762,0z"/>
   <path id="_214440904" class="fil8" d="M129.206 121.533c-0.1016,-0.0762 -0.1778,-0.1524 -0.254,-0.2032 0.2032,-0.0254 0.4064,-0.0508 0.6096,-0.0508 -0.0762,0.1778 -0.1778,0.2032 -0.3556,0.254z"/>
   <path id="_214440688" class="fil8" d="M130.578 121.025c0,-0.0254 0,-0.0508 0,-0.0762 0.127,0 0.254,0 0.4064,0 0,0.0254 0,0.0508 0,0.0762 -0.127,0 -0.254,0 -0.4064,0z"/>
   <path id="_214440664" class="fil8" d="M133.448 120.847c-0.127,-0.0762 -0.254,-0.127 -0.381,-0.1778 0.8128,-0.0254 1.651,-0.0254 2.4892,-0.0254 -0.7112,0.0508 -1.4224,0.127 -2.1082,0.2032z"/>
   <path id="_214441168" class="fil8" d="M136.166 120.847c-0.4318,-0.1524 -0.4318,-0.1524 -0.4318,-0.254 0.254,0 0.508,0 0.762,0 -0.0254,0.0508 -0.0508,0.127 -0.0508,0.2032 -0.1016,0 -0.2032,0.0254 -0.2794,0.0508z"/>
   <path id="_214441072" class="fil12" d="M113.052 115.767c-0.6604,-0.4826 -1.778,-0.7112 -2.0066,-1.524 0,-0.635 0,-1.2446 0,-1.8542 -0.4064,-0.635 -1.0922,-1.4224 -1.6002,-1.9812 -0.381,-1.1684 -1.5494,-2.0066 -1.8034,-3.2258 -0.5842,-0.5334 -1.2446,-1.6002 -1.4224,-2.3368 -0.5334,-0.254 -0.508,-1.0414 -0.9398,-1.4224 -0.9144,-2.0574 -1.7526,-4.1402 -2.286,-6.2738 -0.0508,-0.0254 -0.1016,-0.0508 -0.1524,-0.0762 -0.508,-2.6162 -1.3208,-5.1562 -1.9558,-7.7216 -0.0508,-0.0254 -0.1016,-0.0508 -0.1524,-0.0762 -0.2032,-1.2954 -0.6858,-2.4892 -0.9652,-3.7338 -0.4826,-0.4826 -0.5842,-3.2766 -0.5842,-4.2164 -0.127,-0.6096 -0.2794,-1.1176 -0.2286,-1.7526 0.127,0.0254 0.254,0.0508 0.4064,0.0762 0.6604,1.6764 1.8542,3.0734 2.8702,4.5212 0.3556,1.0922 1.905,1.7526 2.413,2.7686 0.2286,0.1016 0.9398,0.9144 1.397,1.1938 0.7112,1.4224 2.5654,1.4732 3.429,0.3048 0.1524,-0.0254 0.3048,-0.0508 0.4572,-0.0508 0.5334,0.7366 1.8796,1.1684 2.2098,2.0574 0.6604,0.3302 1.27,0.8382 1.7018,1.4478 0.508,0.4064 1.1176,0.8636 1.4732,1.397 0.508,0.1524 1.397,1.2954 1.7526,1.8288 0.6096,0.4572 1.016,1.143 1.6764,1.4732 0.6858,1.1176 2.8702,3.175 4.0894,3.4798 0.9652,0.6604 0.9652,0.6604 1.2192,0.7112 0,0.508 1.1684,0.9144 1.6002,1.0668 1.0668,-0.0254 3.2258,0 4.2672,-0.635 0.9652,0 1.0668,0.1016 1.8796,0.8382 0.508,0.6858 0.7874,1.4732 1.27,2.159 0.9144,0.889 2.1336,1.6256 2.8194,2.6162 -0.5588,0.8382 -2.0828,0.635 -2.6924,1.4478 -0.9398,0.254 -2.2352,0.508 -2.9972,1.0922 -2.3622,0.3302 -4.572,1.4224 -6.858,1.8796 -0.9144,0.6858 -2.6162,0.5334 -3.5814,1.2446 -0.7874,0.2032 -0.9652,0.3556 -1.9304,0.5334 -1.3462,0.9906 -3.2258,1.2192 -4.3688,2.6924 -0.1524,0 -0.2794,0.0254 -0.4064,0.0508z"/>
   <path id="_214440928" class="fil0" d="M198.218 115.183c-0.7112,-0.7366 -1.143,-1.6764 -1.5748,-2.5908 -1.27,-1.9812 -1.524,-2.2098 -1.9558,-2.8448 -1.905,-2.0574 -2.0828,-2.3368 -2.2606,-2.413 -0.2286,-0.3302 -0.4318,-0.4318 -0.5334,-0.635 -0.2032,-0.1016 -2.1082,-2.1844 -2.2606,-2.2606 -1.8034,-1.9558 -4.7752,-5.4356 -5.08,-5.6642 -0.4572,-0.5334 -2.032,-1.9304 -2.286,-2.286 -1.6256,-1.2446 -3.0988,-2.8702 -4.4704,-4.3688 -0.762,-0.381 -3.0734,-2.8448 -3.0734,-3.9116 0.3048,0 2.5654,2.1082 2.8194,2.6162 0.6096,0.3048 1.1938,1.524 1.8288,1.7018 0.5588,0.5842 2.8956,3.1242 3.556,3.302 2.6924,2.54 5.588,5.4102 7.874,8.3312 1.524,1.5748 3.048,3.1496 4.572,4.7244 1.2192,1.6002 3.175,3.9624 3.3782,6.0706 -0.1524,0.1524 -0.3048,0.2032 -0.5334,0.2286z"/>
   <path id="_214447184" class="fil11" d="M50.898 113.659c-0.5842,-0.7112 -1.0668,-1.3716 -1.5748,-2.1844 -0.3556,-2.3368 -0.508,-2.7178 -0.508,-3.2766 1.4478,-1.5494 3.3274,-2.4384 4.9276,-3.81 1.2192,-0.4064 2.413,-1.3208 3.6322,-1.778 0.5842,-0.127 0.9906,-0.4064 1.5494,-0.5334 0.6096,-0.6096 2.0066,-0.2032 2.54,-0.9144 2.3368,-0.5842 4.5466,-1.6764 6.7818,-2.286 0.3556,-0.2286 0.7874,-0.2794 1.2446,-0.3302 1.1176,-0.5842 2.5654,-0.889 3.7592,-1.1176 0.5334,-0.5334 1.7272,-0.3556 2.3368,-0.8382 1.2954,-0.1778 2.3876,-0.6604 3.5814,-0.8636 0.5842,-0.381 1.5494,-0.127 2.0066,-0.5842 0.635,-0.0762 1.0414,-0.3556 1.7018,-0.4064 0.7366,-0.3556 2.0828,-0.1524 2.54,-0.6096 0.508,-0.0508 1.0668,-0.1016 1.4732,-0.4318 2.0828,-0.1524 4.445,-0.9144 6.5024,-0.2286 0.2032,0.2286 0.4064,0.4572 0.635,0.6858 0.0762,0.4572 0.3302,1.7272 0.6604,2.0574 0.0254,0.635 0.0508,1.27 0.1016,1.905 -0.8128,0.6096 -1.9558,0.1016 -2.8194,0.6858 -1.4478,0.127 -2.8448,0.9652 -4.191,1.0922 -0.6604,0.6604 -2.1336,0.4318 -3.0226,1.016 -0.4064,0.0508 -0.6096,0.1016 -0.9144,0.3302 -1.4732,0.1778 -2.7686,0.8636 -4.191,1.1176 -0.6096,0.1524 -1.2446,0.2794 -1.7526,0.6604 -2.159,0.5334 -4.191,1.3716 -6.2992,1.8796 -0.9144,0.5588 -2.0574,0.762 -3.0988,1.0922 -0.6858,0.6858 -2.9464,0.4318 -3.4544,1.1938 -1.4478,0.2286 -2.8448,0.9652 -4.2672,1.1938 -0.508,0.508 -1.8796,0.4572 -2.5908,0.9906 -0.8636,0.2032 -2.6416,0.7112 -3.2258,1.3716 -1.6002,0.8382 -2.3876,1.3462 -3.7084,2.7178 -0.127,0.0508 -0.254,0.127 -0.3556,0.2032z"/>
   <path id="_214447304" class="fil13" d="M126.92 100.705c-3.7338,-1.7272 -6.604,-4.0894 -9.525,-7.0104 -0.4318,-0.8636 -1.651,-1.9812 -2.3622,-2.5654 -1.2192,-1.3208 -2.5654,-2.4638 -3.9878,-3.5306 -0.0508,-0.1778 -0.3048,-0.3048 -0.5842,-0.6096 0,-1.524 1.5748,-2.794 2.4638,-3.937 0.5334,-0.3302 0.5842,-0.4318 1.2446,-0.4318 1.016,1.1176 2.1336,2.2606 3.302,3.2258 0.1016,0.2032 0.4318,0.4318 0.508,0.6096 1.5748,1.3208 3.2258,2.5654 4.572,4.1402 2.1082,1.7272 5.1816,4.8768 8.255,4.2164 1.8542,-0.889 3.9116,-1.6256 5.715,-2.6162 2.1844,-0.6858 4.3434,-2.286 6.0198,-3.81 0.8128,-0.4572 1.778,-0.8382 2.2352,-1.7018 0.1016,-3.4036 0,-4.572 1.905,-7.3914 0.2032,-0.1524 0.7112,-0.5842 0.7874,-0.8128 2.0574,-1.0668 5.1816,-2.3876 7.5184,-1.778 0.1524,0.3048 2.0066,0.5842 2.413,0.6604 2.1336,0.9652 3.3528,2.921 4.1402,5.0546 0.127,0.7366 0.127,0.7366 0.3302,1.1938 0,0.7874 0.0254,1.6002 0.0508,2.413 -0.1016,0.2286 -0.4318,0.1524 -0.6604,0.1524 -0.8382,-2.4638 -2.2352,-6.5532 -5.334,-6.9342 -0.0254,0.0254 -0.0508,0.0762 -0.0762,0.127 2.6162,2.2606 4.1402,4.7244 4.826,8.128 0.4064,0.8382 -0.0508,1.9304 -0.5334,2.6416 -1.4986,0.5588 -1.651,0.2032 -2.1082,-1.1938 -0.1778,-2.0574 -0.3556,-2.6416 -1.9812,-3.7592 -1.4986,-0.7112 -1.4986,-0.7112 -2.3876,-1.0414 -1.1938,-0.1016 -2.9972,-0.2794 -4.0386,0.127 0.1016,0.1778 0.635,0.3556 0.8636,0.5842 0,0.2286 0,0.2286 -0.4064,1.016 -0.0762,2.0574 0.2032,3.3528 -1.3208,4.7244 -0.6604,1.1684 -1.905,2.0574 -3.048,2.6924 -1.143,0.254 -2.032,0.762 -3.048,1.1938 -1.2446,0.8636 -2.8448,1.5494 -4.2418,2.1082 -0.7874,0.9144 -2.8448,1.3716 -3.9624,1.9558 -0.9398,0.2286 -1.6764,0.635 -2.4892,1.0922 -1.2954,0.3048 -2.5908,0.5334 -3.8608,1.016 -0.4064,0 -0.8128,0.0254 -1.1938,0.0508z"/>
   <path id="_214447328" class="fil8" d="M155.292 91.485c-0.2032,-0.1524 -0.2032,-0.1524 -0.9652,-0.3048 -0.4572,-0.2794 -0.9144,-0.5334 -1.3716,-0.7874 -1.524,-1.6256 -2.9718,-3.8862 -0.5588,-5.2324 0.8636,-0.0762 0.8636,-0.0762 1.3208,0 0.127,0.254 1.1176,0.5842 1.3716,0.7112 0.4826,0.3556 0.9906,0.7112 1.4986,1.0668 0.4064,1.1684 0.6858,2.3368 0.762,3.556 -0.7112,0.7112 -1.0414,0.8382 -2.0574,0.9906z"/>
   <path id="_214447208" class="fil12" d="M122.526 88.8434c0,-0.0508 0,-0.1016 0,-0.1524 -0.6604,-0.254 -0.9398,-1.0668 -1.651,-1.2446 -1.8288,-1.7018 -3.8608,-3.429 -5.5118,-5.2832 0.1016,-0.7112 0.5334,-1.1684 0.9144,-1.778 -0.0508,-0.4826 -0.0508,-0.4826 -0.2032,-0.9144 -0.0762,-0.0254 -0.1524,-0.0508 -0.2032,-0.0762 -0.9906,-1.8034 -2.921,-3.2766 -4.572,-4.445 -1.143,-0.4572 -2.1844,-2.3876 -3.3782,-1.4224 0,1.27 4.2672,3.7338 5.2832,4.9276 0.381,0.127 0.7112,0.5588 0.9652,0.889 0.2286,1.4732 -1.7526,2.6924 -2.6924,3.5814 -0.4318,1.2192 -1.8542,2.286 -2.3622,3.5052 -0.6096,0.6096 -0.9652,1.8288 -1.9304,1.1938 -1.1684,-1.27 -2.8956,-2.6162 -3.7592,-4.064 -0.7874,-0.6604 -0.7874,-2.032 -1.7018,-2.4892 -0.0254,-0.127 -0.0508,-0.254 -0.0762,-0.381 -0.8636,-1.2446 -1.6764,-2.9464 -1.778,-4.445 -0.4572,-1.2192 -0.4064,-2.7432 0.1016,-3.9624 0.1778,-0.127 0.1778,-0.127 0.762,-1.1684 0.1778,-0.0762 0.5842,-0.6096 1.9304,-1.7018 1.3208,-0.0254 2.667,-0.0508 4.0132,-0.0762 0.7366,-0.1778 2.6162,-0.4318 3.2004,-1.016 1.5494,-0.1778 4.445,-1.9558 5.2832,-3.1496 2.2098,-1.905 2.8702,-3.9878 3.5052,-6.7564 0.5334,-0.5588 1.4732,-1.905 2.2606,-2.032 0.635,1.2954 1.3462,2.5146 2.4638,3.4798 0.0254,0.0762 0.0508,0.1524 0.0762,0.254 0.9652,0.4826 1.4478,2.6162 2.6924,2.921 0,0.4318 0.7366,1.016 0.9652,1.4732 -0.5842,0.4572 -0.5842,0.4572 -1.1684,1.0922 -2.2098,1.651 -4.318,3.3274 -6.5278,4.9022 -0.4826,0.1016 -1.778,0.762 -2.0574,1.1176 -1.0414,0.2286 -2.7178,0.5588 -3.0988,1.7272 0.762,0.762 1.0668,2.7178 2.0066,3.3528 0.1778,0.9906 1.1938,1.9558 1.5494,2.921 0.4826,0.6096 0.889,1.4478 1.0922,2.1844 1.0414,1.0414 1.3208,2.9464 2.286,4.1148 0.2794,1.016 1.1938,1.8542 1.4986,2.921 -0.0762,0 -0.127,0 -0.1778,0z"/>
   <path id="_214447544" class="fil14" d="M163.166 83.865c-0.2032,-0.1524 -0.2032,-0.1524 -0.5588,-0.8128 -0.9144,-2.7432 -2.3114,-5.8928 -5.2832,-6.7818 -0.0254,-0.4318 -0.127,-0.8382 0.2032,-1.1684 0.8636,-3.6322 3.4036,-6.604 5.7404,-9.4488 1.6002,-1.6002 3.4544,-2.921 5.3848,-4.1148 0.1016,0 0.2032,0 0.3048,0 0.1016,0.1524 0.2286,0.3048 0.3556,0.4826 0.381,1.6764 1.016,3.302 1.4986,4.953 1.4478,2.5654 1.4478,2.5654 3.048,5.1562 1.0414,1.4224 2.0066,2.6924 3.3274,3.8354 1.27,0.762 1.27,0.762 1.3716,0.889 0.508,0.0762 1.0414,0.1778 1.5748,0.2794 0.0254,0.1524 0.0508,0.3048 0.0762,0.4826 -0.1016,0.1016 -0.4826,0.1778 -0.8382,0.4318 -2.7432,1.0668 -5.3594,2.286 -8.255,2.9718 -2.3114,0.7112 -4.5974,1.524 -6.9342,2.1082 -0.3556,0.2286 -0.6858,0.4826 -1.016,0.7366z"/>
   <path id="_214447520" class="fil8" d="M180.362 76.0672c-1.3462,-0.5842 -4.1148,-1.778 -4.8006,-3.1496 -0.1524,-0.0762 -0.381,-0.4572 -0.5842,-0.5588 -1.8542,-3.6322 -5.1816,-8.0772 -4.2418,-12.4968 0.4064,-0.4064 0.5842,-1.0414 0.9652,-1.4732 0.5334,-0.3556 1.0922,-0.6858 1.651,-1.016 0.2794,0.1524 0.2794,0.1524 0.381,0.3302 0,2.9464 0.2794,5.5118 1.397,8.255 0.3302,0.1524 1.4732,2.4638 1.7018,3.175 1.27,2.2098 3.175,3.9116 4.9276,5.6896 0.4064,0.0508 0.8128,0.1016 1.2446,0.1778 0,0.9652 -2.0066,0.9906 -2.6416,1.0668z"/>
   <path id="_214446080" class="fil8" d="M182.648 73.6034c-1.524,-0.4318 -3.0988,-1.9558 -3.5814,-3.4544 -0.3556,-0.2032 -0.5588,-0.7112 -0.6858,-1.0922 -0.6858,-0.3302 -1.8796,-3.1496 -2.159,-4.0132 -0.0508,-0.0508 -0.1016,-0.1016 -0.1524,-0.1524 -0.4826,-1.6256 -2.4638,-5.3086 -1.27,-6.9088 1.4478,-0.6604 2.8448,-0.8128 4.2418,0.254 2.286,0.635 3.6576,2.7432 5.0038,4.5212 1.2446,2.3114 2.5908,5.842 2.1844,8.5344 -0.381,0.6096 -0.508,1.4224 -1.016,1.9304 -1.651,0.3302 -1.651,0.3302 -2.5654,0.381z"/>
   <path id="_214446176" class="fil13" d="M103.298 68.117c-1.651,-0.2794 -2.8956,-0.7112 -4.4704,-1.3716 0,-0.0508 0,-0.1016 0,-0.1524 -0.4826,-0.1524 -1.016,-0.6096 -1.4986,-0.8636 -1.8288,-1.6256 -3.7846,-3.302 -5.334,-5.207 -1.0414,-2.1082 -2.794,-4.9022 -2.6416,-7.3152 0.2286,-0.5334 0.7112,-1.651 1.1176,-2.0574 0.0762,-4.064 0.0762,-4.064 0.2286,-6.1468 1.0414,-1.905 4.953,-2.286 6.9088,-2.6924 2.159,-0.8382 4.6736,-0.7874 6.858,-1.6002 3.6576,-0.7366 7.3406,-0.9144 10.9474,-2.0574 1.905,0 2.9972,11.1252 3.0734,12.065 0,0.7366 0,1.4732 0,2.2352 -0.254,2.6416 -0.5842,5.1816 -1.3462,7.6708 -0.381,0.508 -0.7366,1.1938 -1.016,1.7526 -2.4384,2.6162 -5.0292,4.4704 -8.5344,5.2578 -1.143,0.5588 -3.0226,0.4572 -4.2926,0.4826z"/>
   <path id="_214446320" class="fil0" d="M104.492 65.6532c-0.635,-0.1524 -1.2446,-0.3048 -1.8542,-0.4318 0,-0.0508 0,-0.1016 0,-0.1524 -0.8636,-0.4064 -0.8636,-0.4064 -1.27,-0.508 -0.0254,-0.0762 -0.0508,-0.1524 -0.0762,-0.2032 -0.3048,0 -0.381,-0.2286 -0.5334,-0.4572 -2.032,-1.9304 -2.8448,-4.064 -3.429,-6.8834 -0.3556,-0.2794 -0.4826,-0.3048 -0.9398,-0.3556 -0.0762,-0.1016 -0.127,-0.1778 -0.1778,-0.254 0.3048,-0.9398 2.032,-1.5494 2.8956,-1.1176 0.5842,1.3716 3.2512,0.8128 4.0386,1.6002 0.889,0.1778 1.0922,0.3302 2.6162,0.762 1.143,0.0254 2.286,0.0508 3.4544,0.0762 0.7874,-0.1778 1.5748,-0.3556 2.3876,-0.508 0.4064,-0.3048 0.6604,-0.381 1.143,-0.2286 0,0.3556 -0.6858,1.2446 -0.8382,1.6256 -0.2794,1.7526 -0.2794,1.7526 -0.5334,2.5146 -1.7526,2.6162 -1.7526,2.6162 -2.3114,3.302 -1.524,1.2446 -2.6162,1.1684 -4.572,1.2192z"/>
   <path id="_214445888" class="fil12" d="M104.416 65.069c-1.778,-0.7366 -1.778,-0.7366 -2.5908,-1.2192 -0.6096,-0.508 -1.0922,-1.143 -1.27,-1.2192 -0.254,-0.4826 -1.9812,-3.429 -1.3462,-4.064 0.1778,0.0254 0.381,0.0508 0.5842,0.1016 2.9972,1.6256 5.334,2.9718 8.763,1.4224 0.4572,-0.3302 0.4572,-0.3302 0.9652,-0.5334 0.3302,-0.3302 0.6858,-0.6604 1.0414,-0.9906 0.1524,0.0508 0.3048,0.1016 0.4826,0.1778 0,0.889 -0.1778,1.9304 -0.8382,2.5908 -0.8382,2.5146 -3.302,3.556 -5.7912,3.7338z"/>
   <path id="_214445984" class="fil13" d="M125.396 60.9034c-0.8128,-1.143 -1.7018,-2.286 -2.413,-3.4798 -0.6858,-0.4572 -0.9652,-1.1938 -0.9144,-1.9812 1.651,-2.0574 3.2512,-4.191 4.7752,-6.35 1.651,-2.8702 3.2258,-5.8166 5.0292,-8.5598 0.254,-0.2794 0.254,-0.2794 1.6764,-2.5654 0.508,-1.016 2.3114,-4.1148 3.0988,-5.3086 0.5334,-1.0922 1.2954,-2.0828 1.651,-3.2512 2.3114,-3.302 0.762,-6.4008 -0.9652,-9.525 -0.4572,-0.508 -0.6858,-0.9144 -0.889,-1.016 -0.5588,-0.8636 -4.2164,-4.4704 -3.3782,-5.7404 0.6858,-0.127 1.524,-0.1524 2.1844,0.0762 1.651,1.2446 2.6162,3.1242 3.5306,4.826 0.4318,0 0.4318,-0.2286 0.762,-0.3556 1.8034,0 3.7846,2.1844 4.1656,3.8354 0.1524,0.0762 0.4064,0.4826 0.508,0.4572 0.7112,-1.4224 -0.889,-3.1496 -1.7272,-4.0386 -1.7018,-1.0922 -1.9304,-1.3208 -2.413,-3.4036 -0.0762,-1.1938 -0.0762,-1.1938 -0.0762,-9.3472 0.0762,-0.7112 0.0762,-1.016 0.762,-1.1176 0.381,0.762 0.9906,1.4732 1.1938,2.3368 0.1524,0.2286 0.1524,0.2286 0.508,1.4986 0.1524,1.27 0.3302,1.905 0.9652,7.239 0.5842,0 0.9398,-0.2286 1.4224,-0.5588 0.5842,-3.175 0.3302,-6.5532 1.4732,-9.6266 0.0508,-0.1016 0.127,-0.2032 0.2032,-0.3048 0.1524,0 0.3048,0 0.4826,0 1.397,2.2352 0.9398,5.5118 0.8636,8.1026 -0.2032,0.635 -0.762,1.5748 -0.6096,2.2606 1.4478,0.5842 2.0574,-3.5814 2.8956,-4.318 0.381,-1.1684 1.7272,-2.1082 2.7686,-2.5908 1.0668,0.7112 0.1778,3.8862 -0.1524,4.7752 -0.4318,0.6604 -2.5654,2.7686 -2.159,3.2766 0.762,0 1.3462,-0.4572 2.032,-0.635 0,-0.762 2.1844,-1.2192 2.8448,-1.2192 1.3462,2.0066 -2.286,3.937 -3.556,4.7752 -0.3302,0.3556 -0.7112,0.6096 -0.9398,1.016 0,2.3114 -0.127,3.7592 -2.0066,5.2578 -0.7112,0.8128 -2.0066,1.4732 -3.0226,1.905 -0.7874,0.1778 -0.7874,0.1778 -1.143,0.381 -0.2032,1.397 -1.2446,2.4638 -1.6256,3.8354 -0.1524,0.1524 -0.3302,0.6858 -0.5588,0.9652 -1.397,3.175 -3.5306,6.0706 -5.1308,9.144 -0.4318,0.3556 -1.143,1.9558 -1.3208,2.54 -1.651,2.159 -2.4384,5.1054 -4.064,7.3152 -0.5334,1.7272 -1.8034,3.3782 -2.6416,4.953 -1.0414,1.4478 -2.1336,3.302 -3.4544,4.4704 -0.2286,0 -0.4318,0.0254 -0.635,0.0508z"/>
   <path id="_214445624" class="fil8" d="M105.076 60.243c-0.635,-0.1778 -1.2446,-0.3302 -1.8542,-0.4826 -0.8128,-0.381 -1.5748,-0.889 -2.794,-1.4732 0,-0.0762 0,-0.127 0,-0.1778 -0.5842,-0.254 -1.2192,-0.508 -1.3716,-1.143 2.032,-0.1524 4.2164,1.0414 6.1976,1.524 1.27,0.1778 1.27,0.1778 3.302,0.2286 0,0.1778 0,0.381 0,0.5842 -1.27,0.6858 -2.032,0.9144 -3.4798,0.9398z"/>
   <path id="_214445720" class="fil0" d="M107.032 54.7312c-0.0762,-0.9398 0.5334,-1.3208 0.5334,-2.2352 -0.4572,-0.6858 -1.5494,-4.2418 -1.1684,-5.0038 0.127,0 0.254,0 0.4064,0 0.8636,0.8636 0.7112,2.3876 1.397,3.429 0.4064,1.6002 0.889,3.4798 -1.1684,3.81z"/>
   <path id="_214445792" class="fil12" d="M86.1278 53.639c-1.8288,-1.3716 -2.2098,-2.6162 -2.5146,-4.699 -0.2794,-0.4064 -0.2794,-0.8636 -0.3556,-1.3462 -0.762,-1.0414 -0.7112,-5.1562 -0.4318,-6.0706 0.4318,-0.0508 0.9398,-0.0508 1.3208,-0.3048 0.6858,-0.0762 0.6858,-0.0762 3.2004,-0.0762 0.2032,0.3048 1.2954,0.889 1.651,1.016 0.6858,0.0254 1.3716,0.0508 2.0828,0.0762 0.0762,0.1016 0.1524,0.2032 0.254,0.3048 -0.1524,0.3048 -0.6604,0.4826 -0.9906,0.635 -1.4224,1.905 -1.0922,5.3848 -1.2446,7.6962 -0.3048,0.3048 -0.2794,0.6858 -0.5588,0.9652 -0.1524,0.7874 -1.27,1.0668 -1.5494,1.7272 -0.3048,0.0254 -0.5842,0.0508 -0.8636,0.0762z"/>
   <path id="_214445864" class="fil0" d="M98.904 52.6992c-0.6858,-0.4572 -0.4826,-1.651 -0.4826,-2.3876 0.381,-2.159 1.8542,-2.0828 3.3528,-0.8128 0.3048,0.6096 0.8636,1.9558 -0.2032,1.9558 -0.5334,-0.7874 -0.4826,-2.1082 -1.8542,-1.651 -0.508,0.6858 -0.3302,1.8542 -0.3556,2.7432 -0.1524,0.0508 -0.3048,0.1016 -0.4572,0.1524z"/>
   <path id="_214446248" class="fil0" d="M111.172 49.9052c-1.3208,-0.4318 -0.4826,-3.175 0.3302,-3.7846 1.4224,-0.1016 1.7272,0.0508 2.667,1.2954 0.1016,0.3556 0.1016,0.3556 0.381,0.7112 -0.0254,0.3048 -0.0508,0.635 -0.0508,0.9652 -0.1778,0 -0.3302,0 -0.4826,0 -0.5588,-1.0668 -0.7874,-2.032 -2.0066,-2.032 -0.4572,0.762 -0.0508,2.6162 -0.8382,2.8448z"/>
   <path id="_214446272" class="fil0" d="M96.7958 46.019c-0.0508,-0.1016 -0.1016,-0.1778 -0.1524,-0.254 1.0414,-0.8636 2.0066,-0.6604 3.3782,-0.635 0.0762,0.1016 0.1778,0.2286 0.2794,0.3556 -0.254,0.7874 -2.7178,0.508 -3.5052,0.5334z"/>
   <path id="_214446584" class="fil8" d="M119.046 44.9014c-0.127,-0.2794 -0.127,-0.2794 -0.381,-0.508 -0.0508,-1.0414 -0.3302,-2.032 -0.508,-3.0734 -0.8382,-1.0922 -1.6764,-4.318 0.5588,-4.318 0.3048,1.3716 1.9558,6.9342 0.3302,7.8994z"/>
   <path id="_214447112" class="fil0" d="M110.918 43.3774c0,-0.4318 -0.1524,-0.7874 0.127,-1.143 1.0414,-0.2794 2.2352,-0.4826 3.1242,0.254 -0.0254,0.1524 -0.0508,0.3302 -0.0762,0.508 -0.7112,-0.0254 -1.4224,-0.0508 -2.1082,-0.0762 -0.3556,0.1524 -0.7112,0.3048 -1.0668,0.4572z"/>
   <path id="_214446008" class="fil8" d="M90.1918 41.0914c-1.8034,-0.8128 -2.2098,-2.1844 -3.0226,-3.81 -0.4318,-2.921 1.3208,-4.0894 3.7592,-5.1308 2.2352,-0.5334 5.2578,-1.4732 7.493,-0.6604 0.7874,0.5842 1.3462,1.3208 1.778,2.2098 0.4318,2.0066 0.254,4.4704 -1.27,5.9944 -1.3716,0.6096 -2.8448,1.143 -4.3434,1.3462 -1.4732,0 -2.9464,0.0254 -4.3942,0.0508z"/>
   <path id="_214446752" class="fil8" d="M81.886 40.3294c-0.7366,-0.5842 -0.5588,-1.5494 -0.5588,-2.413 1.1938,-0.8636 3.2004,-0.5334 4.6482,-0.5842 0.3556,0.4572 1.27,2.3622 0.4064,2.6162 -1.524,0.0254 -2.9972,0.2794 -4.4958,0.381z"/>
   <path id="_214446536" class="fil8" d="M99.9962 40.3294c0,-0.7366 0.889,-1.6764 1.2954,-2.286 0.2032,-0.7112 0.3556,-1.3716 0.4572,-2.0828 1.1176,-0.3302 2.1082,-0.381 3.2766,-0.4064 1.0668,1.4478 2.5654,2.413 4.2418,3.048 0.0254,0.0508 0.0762,0.127 0.127,0.2032 -1.9304,0.0508 -3.7338,0.6096 -5.6642,0.8128 -0.5334,0.3048 -1.1684,0.1778 -1.5748,0.5842 -0.7366,0.0254 -1.4478,0.0762 -2.159,0.127z"/>
   <path id="_214446608" class="fil0" d="M90.014 39.5674c-1.2954,-0.4318 -1.397,-3.2766 -1.3462,-4.4704 0.8382,-1.3716 2.921,-2.2098 4.445,-2.5146 1.4224,-0.0254 3.0988,-0.254 4.4704,0.2032 1.143,1.143 1.7018,3.683 1.0922,5.2324 -1.2446,0.889 -3.5306,1.2192 -5.0292,1.4986 -1.2192,0 -2.4384,0.0254 -3.6322,0.0508z"/>
   <path id="_214446968" class="fil8" d="M95.7798 38.145c-0.1016,-0.0508 -0.1778,-0.0762 -0.254,-0.1016 0,-0.0762 0.0254,-0.127 0.0508,-0.1778 0.1016,-0.0254 0.2286,-0.0508 0.3556,-0.0762 -0.0508,0.2794 -0.0508,0.2794 -0.1524,0.3556z"/>
   <path id="_214446488" class="fil8" d="M90.4458 38.0434c0,-0.1524 0.0254,-0.3048 0.0508,-0.4572 0.0762,0.127 0.1524,0.254 0.254,0.381 -0.1016,0.0254 -0.2032,0.0508 -0.3048,0.0762z"/>
   <path id="_214446824" class="fil8" d="M96.11 37.7132c0.1016,-0.2032 0.1778,-0.381 0.4572,-0.3048 0,0.1016 0.0254,0.2032 0.0508,0.3048 -0.1778,0 -0.3556,0 -0.508,0z"/>
   <path id="_214446920" class="fil8" d="M90.0902 37.5354c0.0254,-0.1524 0.0508,-0.3048 0.0762,-0.4572 0.1778,0.1524 0.1778,0.1524 0.2032,0.381 -0.1016,0.0254 -0.2032,0.0508 -0.2794,0.0762z"/>
   <path id="_214778192" class="fil8" d="M95.2718 37.4592c0,-0.2286 0,-0.4572 0,-0.6858 0.1016,0 0.2032,0 0.3302,0 -0.0254,0.2286 -0.0508,0.4572 -0.0762,0.6858 -0.1016,0 -0.1778,0 -0.254,0z"/>
   <path id="_214778240" class="fil8" d="M108.988 37.2052c-1.8542,-1.1176 -2.7432,-1.778 -3.5306,-3.81 -0.2286,-1.6002 -0.6604,-3.0988 0.7366,-4.2672 2.6416,-1.4732 6.0452,-2.2352 9.017,-1.3716 1.397,0.7366 1.9558,1.4986 2.9464,2.8702 0.7874,2.3114 1.4224,3.0226 -0.508,5.08 -2.7178,1.6002 -5.5626,1.4478 -8.6614,1.4986z"/>
   <path id="_214778864" class="fil8" d="M97.3038 37.0274c0.0508,-0.1778 0.0508,-0.1778 0.254,-0.254 0,0.0762 0,0.1524 0,0.254 -0.1016,0 -0.1778,0 -0.254,0z"/>
   <path id="_214778792" class="fil12" d="M82.7242 36.1892c-0.3302,-0.9906 -0.4826,-6.1976 0.5334,-7.2136 0.127,-0.9652 1.016,-2.0066 1.5494,-2.8194 0.2032,-0.1016 0.4318,-0.508 1.397,-1.5494 1.2192,-0.889 2.3368,-1.7272 3.6068,-2.5146 0.9652,-0.2794 1.9304,-0.5334 2.8956,-0.7874 0.6604,-0.6604 1.9304,-0.2286 2.6162,-0.9144 0.762,-0.0762 0.762,-0.0762 1.0414,-0.1778 0.0254,-0.0508 0.0508,-0.1016 0.0762,-0.1524 2.8702,-0.3048 5.6896,-0.2032 8.5598,0 0.0508,0.1016 2.8448,0.9144 3.2512,1.016 0.2032,0.4064 1.2446,0.7874 1.6764,1.016 0.2286,0.4572 0.9906,0.9398 1.4732,1.143 0.7366,0.889 1.9812,1.7018 2.159,2.8702 -0.3556,0.0254 -0.762,0.0508 -1.016,0.3048 -1.6764,0.0762 -4.2926,0 -5.715,1.0922 -1.3462,0.3302 -2.286,1.651 -2.8194,2.8448 -0.0254,0.5842 -0.0254,1.1684 -0.0254,1.778 -0.4572,0.0762 -1.8034,0.2794 -2.032,0.635 -1.1938,-0.127 -1.905,-1.0668 -2.8194,-1.7018 -1.3208,-0.4572 -1.4986,-0.5842 -1.9558,-0.6858 -1.2192,0 -2.413,0 -3.6068,0 -1.1938,0.2794 -3.3528,0.4826 -4.2418,1.3716 -2.1336,0.6096 -2.7686,2.413 -3.3528,4.2418 -1.0668,0.1778 -2.159,0.1778 -3.2512,0.2032z"/>
   <path id="_214778576" class="fil0" d="M109.648 36.0114c-1.27,-0.635 -1.27,-0.635 -1.7526,-1.016 -0.8636,-1.0668 -2.159,-3.048 -1.5748,-4.5212 1.524,-1.778 4.318,-2.1336 6.5532,-2.1336 0.9906,0.1016 1.7272,0.4064 2.667,0.6858 0.9398,0.508 1.2954,1.0922 1.8542,2.0574 0.6096,1.7272 0.6096,3.0988 -1.2446,3.6322 -0.0762,0.0508 -0.1524,0.1016 -0.2286,0.1524 -2.0828,0.4572 -4.1402,1.0414 -6.2738,1.143z"/>
   <path id="_214778888" class="fil8" d="M97.38 35.859c-0.127,-0.1778 -0.127,-0.1778 -0.1778,-0.6858 0.1016,0 0.2286,0 0.3556,0 0,0.2286 0,0.4572 0,0.6858 -0.0762,0 -0.127,0 -0.1778,0z"/>
   <path id="_214778312" class="fil8" d="M90.8522 35.1732c-0.0254,-0.1016 -0.0508,-0.2032 -0.0762,-0.2794 0.2286,-0.0762 0.4572,-0.127 0.6858,-0.1778 0.0762,-0.2286 0.0762,-0.2286 0.1524,-0.2286 0,0.2032 0,0.4064 0,0.6096 -0.254,0.0254 -0.508,0.0508 -0.762,0.0762z"/>
   <path id="_214778696" class="fil8" d="M96.4402 35.1732c-0.1016,-0.2032 -0.1778,-0.127 -0.2032,-0.3302 0.127,-0.0762 0.127,-0.0762 0.5842,-0.0508 0,0.254 -0.1778,0.3302 -0.381,0.381z"/>
   <path id="_214778504" class="fil8" d="M97.126 34.589c0,-0.0254 0,-0.0508 0,-0.1016 0.0254,0 0.0508,0 0.0762,0 0,0.0254 0,0.0508 0,0.1016 -0.0254,0 -0.0508,0 -0.0762,0z"/>
   <path id="_214778528" class="fil8" d="M102.13 34.589c-0.2032,-0.1778 -0.381,-0.2794 -0.381,-0.5588 0.6096,-0.6096 1.6002,-0.6858 2.4384,-0.6858 0.1778,0.3556 0.254,0.508 0.254,0.9144 -0.127,0.1016 -0.127,0.1016 -2.3114,0.3302z"/>
   <path id="_214778624" class="fil8" d="M109.14 34.589c0.0254,-0.127 0.0508,-0.2286 0.0762,-0.3302 0.1778,0.0254 0.3556,0.0508 0.5334,0.0762 0,-0.127 0,-0.254 0,-0.3556 0.0762,0.0254 0.1778,0.0508 0.2794,0.0762 0,0.0762 0.0254,0.1524 0.0508,0.2286 0.2032,0.0508 0.2794,0.1016 0.3302,0.3048 -0.4318,-0.3302 -0.8128,-0.2032 -1.27,0z"/>
   <path id="_214778936" class="fil8" d="M111.528 34.589c-0.0254,-0.0508 -0.0508,-0.1016 -0.0762,-0.1524 0.1016,-0.2286 0.4572,-0.1524 0.6858,-0.1524 0,0.0762 0,0.1524 0,0.2286 -0.2032,0.0254 -0.4064,0.0508 -0.6096,0.0762z"/>
   <path id="_214779248" class="fil8" d="M112.29 34.2334c0,-0.0508 0,-0.1016 0,-0.1524 0.0254,0 0.0762,0.0254 0.127,0.0508 -0.0508,0.0254 -0.1016,0.0508 -0.127,0.1016z"/>
   <path id="_214779080" class="fil8" d="M113.204 34.2334c-0.127,-0.0762 -0.254,-0.127 -0.381,-0.1778 0.0762,-0.0762 0.0762,-0.0762 0.7366,-0.1524 -0.0254,0.0762 -0.0508,0.1778 -0.0762,0.2794 -0.1016,0 -0.2032,0.0254 -0.2794,0.0508z"/>
   <path id="_214779104" class="fil8" d="M92.8842 34.081c-0.1016,-0.0762 -0.1778,-0.1524 -0.254,-0.2032 0.1524,0 0.3048,0 0.4826,0 -0.0762,0.0508 -0.1524,0.127 -0.2286,0.2032z"/>
   <path id="_214779056" class="fil8" d="M95.348 33.9794c-0.0254,-0.1016 -0.0508,-0.1778 -0.0762,-0.254 0.127,0 0.254,0 0.4064,0 -0.0254,0.0508 -0.0508,0.127 -0.0508,0.2032 -0.1016,0 -0.2032,0.0254 -0.2794,0.0508z"/>
   <path id="_214779296" class="fil8" d="M108.48 33.9032c0,-0.1016 0,-0.1778 0,-0.254 0.127,0.0254 0.254,0.0508 0.4064,0.0762 0,0.0508 0,0.1016 0,0.1778 -0.1524,0 -0.2794,0 -0.4064,0z"/>
   <path id="_214777880" class="fil8" d="M114.322 33.827c0,-0.0254 0,-0.0508 0,-0.1016 0.0762,0 0.1524,0 0.254,0 0,0.0254 0,0.0508 0,0.1016 -0.0762,0 -0.1524,0 -0.254,0z"/>
   <path id="_214778144" class="fil8" d="M115.338 33.827c0,-0.0762 0.0254,-0.1524 0.0508,-0.2032 0.0508,-0.0254 0.127,-0.0508 0.2032,-0.0508 0,0.0762 0,0.1524 0,0.254 -0.1016,0 -0.1778,0 -0.254,0z"/>
   <path id="_214778120" class="fil8" d="M116.252 32.8872c0.0254,-0.3048 0.0508,-0.5842 0.0762,-0.8636 0.0762,0 0.1778,0 0.2794,0 0,0.254 0,0.508 0,0.7874 -0.127,0.0254 -0.254,0.0508 -0.3556,0.0762z"/>
   <path id="_214777760" class="fil8" d="M115.846 31.795c0,-0.0508 0,-0.1016 0,-0.1778 0.0508,0 0.1016,0 0.1524,0 0,0.0508 0,0.1016 0,0.1778 -0.0508,0 -0.1016,0 -0.1524,0z"/>
   <path id="_214777544" class="fil8" d="M107.362 31.6934c0,-0.2286 0,-0.4572 0,-0.6604 0.0508,0 0.1016,0 0.1778,0 0.0254,0.2032 0.0508,0.4318 0.0762,0.6604 -0.1016,0 -0.1778,0 -0.254,0z"/>
   <path id="_214777808" class="fil8" d="M115.592 31.541c-0.0508,-0.1016 -0.0762,-0.1778 -0.1016,-0.254 0.0508,0 0.1016,0 0.1778,0 -0.0254,0.0762 -0.0508,0.1524 -0.0762,0.254z"/>
   <path id="_214777640" class="fil8" d="M114.322 30.9314c-0.0254,-0.1524 -0.0508,-0.3048 -0.0508,-0.4572 0.1016,0 0.2032,0 0.3302,0 -0.0254,0.1524 -0.0254,0.3048 -0.0254,0.4572 -0.1016,0 -0.1778,0 -0.254,0z"/>
   <path id="_214777520" class="fil8" d="M109.064 30.4234c-0.254,-0.0762 -0.254,-0.0762 -0.254,-0.1524 0.5842,0 0.5842,0 0.5842,0.0762 -0.127,0.0254 -0.2286,0.0508 -0.3302,0.0762z"/>
   <path id="_214778048" class="fil8" d="M115.16 30.4234c-0.0254,-0.0508 -0.0508,-0.0762 -0.0762,-0.1016 0.0508,-0.0254 0.1016,-0.0508 0.1524,-0.0508 -0.0254,0.0508 -0.0508,0.1016 -0.0762,0.1524z"/>
   <path id="_214777496" class="fil8" d="M109.572 30.0932c-0.0254,-0.0508 -0.0508,-0.0762 -0.0762,-0.1016 0.2032,0 0.4064,0 0.635,0 -0.2032,0.0254 -0.381,0.0508 -0.5588,0.1016z"/>
   <path id="_214777688" class="fil8" d="M110.588 29.9154c0,-0.127 0,-0.2286 0,-0.3302 0.4064,0 0.635,-0.0508 1.0414,0.0762 -0.5334,0.2032 -0.5334,0.2032 -1.0414,0.254z"/>
   <path id="_214791016" class="fil8" d="M113.306 29.8392c-0.0762,-0.0254 -0.127,-0.0508 -0.1778,-0.0762 0,-0.0762 0,-0.127 0,-0.1778 1.143,0.0508 1.2192,0.0762 0.1778,0.254z"/>
   <path id="_214052032" class="fil15" d="M73.8589 123.924c0.2117,2.2399 -0.1749,4.1972 -1.1599,5.8754 -0.9813,1.6747 -2.4047,2.7931 -4.2592,3.3553 -1.693,0.5095 -3.107,0.4206 -4.2383,-0.2703 -1.1314,-0.6872 -1.9839,-1.9801 -2.5575,-3.8714 -0.5395,-1.781 -0.6718,-3.7455 -0.4007,-5.8859 0.2711,-2.1442 0.8941,-3.9965 1.8616,-5.5606 0.6473,-1.0427 1.4594,-1.7149 2.4436,-2.0093 0.6279,-0.1924 1.5147,-0.2357 2.6638,-0.1303 1.4031,0.1149 2.1935,0.4733 2.3746,1.0719 0.0867,0.2827 0.0594,0.5627 -0.0821,0.8471 -0.1377,0.2808 -0.3535,0.4664 -0.6436,0.5532 -0.1506,0.0453 -0.39,0.025 -0.7146,-0.0646 -1.2464,-0.322 -2.2331,-0.3736 -2.9529,-0.1547 -0.5178,0.1584 -0.9747,0.5888 -1.3779,1.2948 -0.1999,0.3548 -0.4603,0.9677 -0.774,1.835 -0.9525,2.5872 -1.0589,5.1091 -0.3118,7.5732 0.3887,1.2928 0.8624,2.1395 1.4174,2.5328 0.6069,0.4335 1.4869,0.4748 2.6509,0.1238 1.2303,-0.3735 2.1856,-1.0873 2.8587,-2.1376 0.7058,-1.1167 1.0157,-2.4956 0.9298,-4.1438 -1.8757,0.6727 -3.4005,1.5343 -4.5667,2.5845 -0.1353,0.1226 -0.2782,0.2083 -0.4325,0.2535 -0.3012,0.0906 -0.5885,0.0523 -0.8584,-0.1224 -0.2515,-0.1564 -0.4187,-0.376 -0.5018,-0.6588 -0.1169,-0.3782 -0.0239,-0.7359 0.2717,-1.0731 1.2118,-1.3561 3.6356,-2.585 7.2749,-3.6868 0.2975,-0.0905 0.5736,-0.0668 0.8323,0.0748 0.2624,0.138 0.437,0.3612 0.5276,0.6623 0.1359,0.448 0.043,0.8242 -0.275,1.132z"/>
   <path id="_214052032" class="fil15" d="M85.1932 128.105c-1.939,0.5886 -3.7578,0.5027 -5.4602,-0.2502 -1.8058,-0.8073 -3.0049,-2.186 -3.5936,-4.1397 -0.7207,-2.3796 -0.6684,-4.7576 0.1531,-7.1304 0.9226,-2.6385 2.5591,-4.3106 4.9131,-5.0237 2.2621,-0.683 4.0987,-0.6856 5.5061,0.0032 1.4701,0.7105 2.5487,2.2078 3.2391,4.492 0.7208,2.3797 0.7235,4.7242 0.0082,7.0261 -0.8233,2.6378 -2.4119,4.3133 -4.7658,5.0227zm-3.3499 -14.4287c-1.6856,0.5094 -2.8577,1.7805 -3.5197,3.8134 -0.6155,1.867 -0.6422,3.7296 -0.0799,5.5878 0.4037,1.3294 1.2202,2.2582 2.4573,2.7937 1.1778,0.4991 2.4625,0.5374 3.8544,0.1185 1.6709,-0.5056 2.7952,-1.7653 3.3728,-3.7793 0.5129,-1.7999 0.4882,-3.64 -0.0815,-5.5165 -0.4981,-1.6452 -1.2162,-2.6888 -2.1507,-3.1347 -0.8975,-0.4276 -2.1818,-0.3886 -3.8527,0.1171z"/>
  </g>
 </g>
</svg>
