<?xml version="1.0" encoding="UTF-8"?>
<!DOCTYPE svg PUBLIC "-//W3C//DTD SVG 1.1//EN" "http://www.w3.org/Graphics/SVG/1.1/DTD/svg11.dtd">
<!-- Creator: CorelDRAW -->
<svg xmlns="http://www.w3.org/2000/svg" xml:space="preserve" width="110mm" height="110mm" style="shape-rendering:geometricPrecision; text-rendering:geometricPrecision; image-rendering:optimizeQuality; fill-rule:evenodd; clip-rule:evenodd"
viewBox="0 0 110 110">
 <defs>
  <style type="text/css">
   <![CDATA[
    .str1 {stroke:#0A0B0C;stroke-width:0.7056}
    .str2 {stroke:black;stroke-width:0.7056}
    .str0 {stroke:#0A0B0C;stroke-width:2.8222}
    .fil2 {fill:#0093DD}
    .fil3 {fill:#75C5F0}
    .fil1 {fill:black}
    .fil0 {fill:white}
   ]]>
  </style>
 </defs>
 <g id="Capa_x0020_1">
  <metadata id="CorelCorpID_0Corel-Layer"/>
  <circle class="fil0 str0" cx="55.1976" cy="55.2542" r="50"/>
  <path class="fil1" d="M38.0472 97.4326c-2.3227,-0.3034 -4.0576,-1.1282 -5.6883,-2.8347 -3.0527,-4.0671 3.2045,0.493 5.5082,-1.8107 2.3796,-4.1809 2.3701,-3.0148 -0.0379,-7.1957 -2.5787,-1.2894 -9.3383,2.0572 -4.8919,-2.3891 4.7876,-3.6405 9.7649,-2.5597 13.0167,2.2658 0.0948,0.0285 18.2215,0.0569 18.6671,0.0285 0.4455,-0.1896 0.9954,-1.498 1.5453,-1.9151 0.4835,-0.9386 1.7254,-1.4884 2.6356,-1.9435 4.1809,-1.4221 8.2575,-0.218 10.4949,3.6974 0,0.4835 -5.9917,-0.1422 -6.4847,0.2275 -2.3701,4.0672 -2.5028,2.9485 0,7.2905 2.5029,1.2514 8.6841,-2.1995 5.3186,1.8961 -3.9913,4.0577 -10.4286,3.3656 -13.3012,-1.6022 -0.2085,-0.1801 -0.2275,-0.1801 -0.493,-0.2275 -6.0864,0 -12.1729,0 -18.2594,0 -0.0569,0.0284 -0.1137,0.0569 -0.1706,0.0853 -2.0383,3.0243 -4.1525,4.3326 -7.8594,4.4274z"/>
  <path class="fil2 str1" d="M27.4007 84.122c-4.8161,-3.1286 -3.2708,-9.6227 -2.0384,-14.5146 2.446,-7.2052 9.8313,-5.8305 15.9083,-8.542 0.6921,-0.3602 4.0292,-2.5028 4.124,-2.4554 2.0952,4.4937 4.1335,9.0823 6.333,13.5287 0.2086,0.1516 1.7539,-4.0672 1.7539,-4.7782 -0.9101,-1.1851 -2.6166,-4.1809 -1.1946,-5.4039 1.4316,-0.6731 6.6364,-1.2988 6.6364,1.3083 -1.953,4.6929 -1.972,3.6405 -0.2086,8.9591 0.8438,0 5.7073,-13.6519 6.6553,-13.6519 4.1051,3.0527 8.6936,4.4368 13.6709,5.2427 7.4801,1.9814 7.2431,9.4046 7.2431,16.2969 -0.1802,1.1567 -1.7824,3.9913 -3.2139,3.9913 -0.1327,-0.1896 -0.4551,-0.8343 -1.0618,-1.7918 -5.1764,-6.9587 -13.7278,-6.5984 -19.4161,-0.7679 -4.105,0.5119 -9.4994,0.256 -13.6708,0 -1.0334,0.1991 -1.2894,-0.4266 -1.9815,-1.1187 -4.1524,-3.5457 -9.3856,-4.4369 -14.306,-1.7918 -2.3986,1.5169 -3.6216,3.157 -5.0626,5.4702 -0.0569,0 -0.1138,0.0095 -0.1706,0.019z"/>
  <path class="fil3 str2" d="M55.1121 58.1454c-4.8066,-0.5403 -9.4141,-4.1619 -11.3292,-8.6272 -0.8911,-0.8912 -1.5074,-2.9579 -1.9909,-4.143 -1.7349,-0.8153 -3.7353,-6.2571 -2.4649,-7.5275 10.6466,-0.0569 21.3027,-0.0758 31.9493,0 1.3462,1.3462 -0.8817,6.5226 -2.3133,7.518 -2.5028,6.1339 -6.6458,12.3721 -13.851,12.7797z"/>
  <path class="fil2 str2" d="M38.5876 34.6718c-3.1096,-1.1946 -2.1236,-4.418 0.9196,-4.6076 0.0759,-0.0758 1.0145,-5.2901 1.3937,-6.2666 1.6211,-3.2139 3.7922,-5.9537 7.0914,-7.6033 0.7584,0 0.8153,6.295 1.8582,7.9162 4.124,2.2848 0.8058,-7.6508 0.6351,-9.2245 -0.6731,-2.702 7.9163,-1.6686 8.6842,-1.3463 0.3318,0.2655 0.6257,0.5594 0.9196,0.8533 0.5119,1.0239 -3.4699,12.6944 0.6636,9.7175 1.3368,-1.3368 0.5025,-7.9162 1.8961,-7.9162 5.2996,2.7872 8.0015,7.9162 8.3808,13.7656 0.1422,0.2086 0.8532,0.1517 1.1187,0.1707 2.5028,0.7774 2.2563,3.7827 -0.0948,4.5222 -11.1491,0 -22.3076,0.0095 -33.4662,0.019z"/>
 </g>
</svg>
