<?xml version="1.0" encoding="UTF-8"?>
<!DOCTYPE svg PUBLIC "-//W3C//DTD SVG 1.1//EN" "http://www.w3.org/Graphics/SVG/1.1/DTD/svg11.dtd">
<!-- Creator: CorelDRAW -->
<svg xmlns="http://www.w3.org/2000/svg" xml:space="preserve" width="225mm" height="115mm" style="shape-rendering:geometricPrecision; text-rendering:geometricPrecision; image-rendering:optimizeQuality; fill-rule:evenodd; clip-rule:evenodd"
viewBox="0 0 225 115">
 <defs>
  <style type="text/css">
   <![CDATA[
    .fil9 {fill:#007CC3}
    .fil11 {fill:#0093DD}
    .fil1 {fill:#1F1A17}
    .fil7 {fill:#75C5F0}
    .fil2 {fill:#838281}
    .fil3 {fill:#969594}
    .fil5 {fill:#AAA9A9}
    .fil6 {fill:#C2C1C1}
    .fil10 {fill:#DEDEDD}
    .fil8 {fill:#E77817}
    .fil0 {fill:black}
    .fil4 {fill:white}
    .fil12 {fill:white;fill-rule:nonzero}
   ]]>
  </style>
 </defs>
 <g id="Capa_x0020_1">
  <metadata id="CorelCorpID_0Corel-Layer"/>
  <path class="fil0" d="M133.089 112.476c0.0339,-0.1051 0.0678,-0.2102 0.1017,-0.3154 2.5439,-0.6267 4.8165,-1.5316 7.1908,-2.5484 1.2889,-0.9764 3.0187,-2.1664 3.9006,-3.5093 0.1017,-0.078 0.2035,-0.1221 0.2713,-0.1628 2.2726,-3.347 3.4597,-6.1449 3.9685,-9.9267 0,-1.0854 -0.4748,-3.2767 0.5088,-3.9513 1.4246,-0.4134 2.6456,-1.6544 4.0024,-1.9932 3.324,1.9412 6.9194,4.7372 10.9217,5.254 4.3755,-0.7075 8.7171,-2.2596 12.9909,-3.4318 0.5427,-0.3255 0.9836,-0.4373 1.628,-0.5354 1.5264,1.9168 2.7474,3.6606 4.7826,5.0519 2.7813,1.3509 4.4433,1.4905 7.6316,1.2744 1.7638,-0.2776 4.0363,-0.5381 5.6644,-1.4466 0.848,-0.2202 2.1369,-0.62 2.8153,-1.1964 1.4924,-0.5897 2.7813,-1.5662 4.1041,-2.4782 3.4258,-4.4795 3.2901,-8.4684 3.2901,-13.6918 1.4246,-0.9222 4.0702,-1.8982 5.1217,-3.0545 2.4421,-0.9557 5.2574,-2.8984 7.3264,-4.5292 0.1357,-0.0475 0.2374,-0.0915 0.3392,-0.1356 -0.0678,-3.9956 -0.407,-7.8624 -0.7123,-11.8344 -1.0854,-1.3503 -4.172,-1.1783 -4.9521,-2.2876 -0.407,-7.8625 -1.5942,-16.5291 -3.8328,-23.9715 -0.5766,-1.1297 -1.9333,-1.2658 -3.1205,-1.5205 -0.0678,-0.095 -0.1357,-0.1561 -0.2035,-0.2172 -4.4433,-0.6424 -8.7849,-2.2108 -13.33,-2.6057 -3.3579,-1.1577 -7.3942,-0.6196 -10.7861,-1.5704 -9.4293,-0.9595 -18.9605,-1.4339 -28.4916,-1.671 -0.4409,-0.8379 -1.3906,-3.6263 -2.3064,-3.976 -2.1708,-3.0737 -4.9182,-5.6829 -7.3604,-8.526 -2.2725,-1.7747 -3.9684,-3.9799 -6.4784,-5.5274 -2.51,-0.3942 -5.1217,-0.7444 -7.6995,-0.8266 -3.1544,-0.9405 -7.2247,-0.1278 -10.4469,-0.9937 -4.4773,-0.1642 -8.9206,-0.7728 -13.3979,-0.8013 -2.3742,-0.4756 -5.3252,-0.3171 -7.8012,-0.3756 -0.2714,-0.5156 -11.4306,0.936 -12.6856,1.0611 -0.0339,0.0712 -0.1017,0.1458 -0.1695,0.2204 -6.7498,0.8764 -13.4318,1.9495 -20.1137,3.2601 -0.1018,0.2475 -0.2036,0.4951 -0.3392,0.7461 -0.441,6.3867 -0.441,6.3867 -0.7462,14.8289 -1.9334,0.1927 -3.7989,-0.3675 -5.7323,-0.4122 -6.5463,-1.5182 -13.9066,0.1652 -20.7242,0.9127 -0.4409,0.1796 -10.2773,1.4993 -10.6165,1.6349 -7.4282,1.0797 -7.4282,1.0797 -11.7697,1.8517 -3.1884,0.7927 -3.1884,0.7927 -3.3241,0.9419 0,6.241 0,12.5159 0,18.7908 -0.3731,0.3086 -1.3228,0.2337 -1.7298,0.2064 -0.8141,0.2168 -1.6281,0.4676 -2.4421,0.7183 -0.3053,0.3357 -0.3053,0.3357 -0.6445,0.4713 0.0678,4.0295 0.3053,7.9743 0.6445,11.9429 0.5426,0.1494 1.1532,0.8008 1.7976,1.0079 0.1357,0.1561 2.3065,1.0929 2.7474,1.3882 0.848,0.1529 2.0691,0.7773 2.5778,1.405 -0.4748,1.8789 0.9158,1.435 2.0012,2.3105 0.9498,0.2445 1.6621,0.4109 2.3743,1.0522 0.2375,2.2489 0.2375,2.2489 0.7123,4.7115 0.6445,2.0726 0.9497,5.0949 2.2387,6.8319 1.4924,4.3624 5.9018,10.0621 10.6165,10.9149 1.0514,0.6753 2.8152,0.5334 4.0702,0.8154 5.8679,-0.2119 13.3639,-0.7217 16.7557,-6.826 0.9837,-1.1834 1.696,-2.9164 2.0352,-4.3748 0.2374,-0.4307 0.3391,-1.0514 0.5087,-1.3057 0.2714,-0.0271 0.5427,-0.0541 0.7802,-0.0778 2.1368,1.7203 6.0035,1.9454 8.4796,3.191 1.4246,0.1972 2.8492,0.9371 4.3077,1.1648 0.4409,0.397 1.7637,0.6043 2.4082,0.6757 5.3591,1.5009 10.9557,2.7068 16.4505,3.8888 1.4245,0.1633 3.3579,0.3776 4.6468,0.8936 4.4094,0.6797 4.9182,0.8664 10.5148,1.6653 0.1356,0.2239 2.476,0.3298 3.0526,0.374 1.2889,-0.4337 2.8492,-6.1519 4.0363,-5.9989 0,3.5275 -0.407,8.6898 0.7802,12.0312 0.7462,4.4707 3.8328,11.8625 8.2422,13.6276 0.1356,0.1561 0.1356,0.1561 3.4597,1.3172 1.7976,0.2617 3.8328,0.398 3.9006,0.5269 1.7638,-0.1419 3.5275,-0.2499 5.2574,-0.3545z"/>
  <path class="fil1" d="M135.464 109.73c0.3392,-0.2034 1.7977,-0.5523 3.0866,-1.1557 4.8164,-3.838 5.2234,-10.6284 5.3252,-15.9638 0.0678,-0.3459 0.1356,-0.6919 0.2035,-1.0039 0.2713,3.6362 0.4748,9.4499 -1.6959,12.9224 0,0.2036 0,0.441 -0.034,0.6818 1.662,-0.1657 3.6972,-5.2867 4.2399,-6.7315 0.1695,-0.7292 0.3391,-1.4245 0.4748,-2.1164 0.3053,-5.7287 -2.4421,-11.221 -4.2059,-16.3704 -1.1193,-1.0077 -0.814,-4.0569 -2.4082,-4.5085 -0.2035,-0.285 -0.2714,-0.38 -0.6445,-0.4785 -0.2374,-0.8921 -0.4409,-1.0753 -0.6444,-1.8012 -1.0176,-2.0355 -2.0351,-3.8335 -3.2901,-5.5739 -1.2889,-1.2622 -1.2889,-1.2622 -1.3907,-1.4895 -0.2374,0.0237 -0.4748,0.0474 -0.7462,0.0744 -0.0339,0.0373 -0.0678,0.1085 -0.1357,0.1831 2.0012,2.7854 3.6293,5.981 4.2059,9.485 0.4749,0.6989 0.3053,2.0725 0.3392,2.9171 -0.0339,0.0034 -0.1017,0.0101 -0.1696,0.0169 -0.8479,-4.0535 -2.2386,-12.0214 -7.0889,-13.1321 -0.0679,0.0407 -0.1357,0.1153 -0.2375,0.1933 0,0.6105 0.3053,0.6479 0.4749,1.1398 1.9334,2.7242 4.2398,6.7681 4.0363,10.4176 -0.407,-2.2998 -1.3907,-4.3725 -2.1369,-6.5367 -0.9836,-1.7336 -4.2737,-7.0022 -7.2246,-5.2495 0,0.1017 0,0.2035 0,0.3053 0.6444,0.3088 1.255,0.6211 1.8655,0.9672 0.7801,0.8381 1.5603,1.6761 2.3065,2.5514 4.1041,7.6974 4.7825,17.941 4.2059,26.9191 -0.2375,1.143 -0.4749,3.3374 -0.9158,5.4165 -0.2375,0.4646 -0.4749,1.6415 -1.3568,4.002 -0.3052,0.6409 -0.6444,1.2853 -0.9836,1.9635 -0.441,0.2136 -0.7123,0.7494 -0.7123,1.1904 0.1018,0.0577 0.2035,0.1153 0.2713,0.2103 2.8831,-1.3049 4.7826,-4.8522 5.6305,-7.7181 0.2714,2.3473 -1.7977,5.4027 -3.2562,7.2101 -0.0678,0.2442 -0.1356,0.5223 -0.2374,0.8038 3.765,-1.1554 5.8001,-4.5127 6.7498,-8.1689 0.0678,-0.0406 0.1357,-0.0813 0.2035,-0.122 0.1018,-0.5528 0.2035,-1.1057 0.2714,-1.6551 0.2713,3.3308 -1.7638,7.1291 -4.4094,9.3601 -0.3732,0.6816 -0.3732,0.6816 -0.3053,0.8106 0.1357,-0.0136 0.2374,0.0102 0.3392,0.034z"/>
  <path class="fil1" d="M125.831 110.351c5.1895,-2.1794 6.0375,-6.9447 7.1907,-12.0117 0.1696,-1.679 0.3392,-3.3579 0.4749,-5.0334 0,-1.255 0,-2.51 0,-3.765 -0.5088,-7.0721 -1.255,-24.3301 -11.7358,-23.2853 -1.3228,0.3693 -3.1884,1.8441 -3.5276,3.2347 -0.4748,0.0473 -2.0011,3.5574 -2.1368,3.9101 -0.7801,2.5878 -1.7638,5.128 -2.3065,7.7599 -0.3052,2.4725 -0.3052,2.4725 -0.5427,3.2763 -0.2035,4.2262 -0.1696,8.4287 0.441,12.5398 0.6783,1.4927 1.0175,5.7326 2.1707,6.3638 0.2036,0.7938 1.7299,3.5926 2.3743,3.7318 0.3053,0.9193 2.2726,2.2495 3.2901,2.4873 0.4071,0.7735 3.4597,0.8423 4.3077,0.7917z"/>
  <path class="fil0" d="M125.288 103.621c0.9497,-0.5017 0.9497,-0.5017 1.5263,-1.0001 0.7123,-0.9868 1.2211,-2.0551 1.696,-3.1539 0.8818,-2.971 1.3567,-5.0534 1.4585,-5.1653 0.4409,-4.2499 1.3228,-9.6969 -0.2035,-13.615 -0.4071,-2.8425 -2.4761,-9.7591 -6.5463,-8.9124 -0.5427,0.2576 -1.2211,0.6305 -1.4924,1.2341 -0.1018,0.078 -0.2036,0.156 -0.3392,0.2374 -3.4597,6.4163 -3.2562,14.4007 -2.3743,21.0626 0.7801,3.1106 2.0351,9.2944 6.2749,9.3126z"/>
  <path class="fil1" d="M192.888 96.204c3.324,-1.1793 6.4106,-2.301 9.3954,-4.3284 0.0678,-0.2103 1.662,-2.0312 1.8316,-2.082 1.5603,-3.3439 1.8655,-6.6644 1.7638,-10.1479 -0.7462,0.0744 -1.0515,0.1387 -1.696,0.7117 -0.0339,2.2081 -0.1695,4.2568 -0.6783,6.4444 -0.0679,0.0067 -0.1357,0.0474 -0.2375,0.0915 -0.1017,0.3493 -0.2035,0.7325 -0.3052,1.1158 0,-0.441 0,-0.8819 0,-1.2889 0.0678,-0.0068 0.1357,-0.0135 0.2035,-0.0203 0.0678,-0.5834 1.1532,-5.7794 -0.3392,-5.8002 -0.3731,0.2407 -0.7462,0.4814 -1.1193,0.7221 0,2.4761 -0.5088,4.6298 -1.0515,7.0242 -0.0339,0.0034 -0.1017,0.0441 -0.1696,0.0848 -0.3392,-2.0013 1.0176,-4.443 0.2035,-6.397 -0.7801,0.1795 -1.5602,0.393 -2.1707,0.9626 -0.034,1.428 -0.0679,2.8898 -0.1357,4.3551 -0.6106,2.4691 -0.6106,2.4691 -0.7123,2.4792 0,-1.8316 -0.0339,-3.6598 -0.0679,-5.4541 -0.3391,-1.0855 -1.0514,-0.6414 -1.7976,0.0096 -0.1018,2.147 -0.3731,4.0396 -0.848,6.156 -0.0339,0.0033 -0.0678,0.0067 -0.1357,0.0135 -0.0678,-0.6038 0.0679,-2.6524 0.0679,-5.4677 -0.3053,-0.614 -1.1872,0.0166 -1.662,0.2675 -0.1357,3.134 -0.7802,7.2685 -3.4258,9.4995 -0.7123,0.3763 -1.1193,0.6203 -1.5603,1.3087 0.5766,0.0782 0.5766,0.0782 4.6469,-0.2597z"/>
  <path class="fil2" d="M125.288 102.4c1.0176,-0.6781 1.9334,-1.6513 2.2047,-2.8655 0.7123,-1.0546 0.5766,-2.4996 1.255,-3.483 0.2035,-1.4788 0.4409,-2.1808 1.0176,-6.6477 0,-1.1532 0,-2.3065 0,-3.4258 -0.2375,-2.181 -2.3065,-16.8989 -7.0212,-12.3926 0.0679,0.095 0.1357,0.19 0.2035,0.3189 2.1708,0.3941 2.8153,1.924 3.5276,3.8542 0.9497,1.3299 0.7801,3.9246 1.1193,5.5189 0.1356,5.4813 -0.3053,10.3756 -2.3404,15.7002 -0.2374,0.1932 -0.2374,0.1932 -0.9497,1.3496 -1.5264,1.3733 -0.2714,1.6891 0.9836,2.0728z"/>
  <path class="fil0" d="M136.583 101.139c0,-1.3568 0,-1.3568 -0.1018,-1.3466 0,1.3567 0,1.3567 0.1018,1.3466z"/>
  <path class="fil1" d="M187.461 95.3883c3.6971,-1.7592 4.7147,-5.2864 4.9182,-9.0038 -0.8141,-0.7329 -2.103,0.7523 -2.4761,1.4 0.1357,0.0204 0.2714,0.0747 0.3731,0.1324 -0.2713,2.0283 -0.5087,3.2052 -2.3743,4.3069 -2.3403,0.2333 -2.917,0.0534 -4.7146,-1.2259 -0.2375,-0.2816 -0.4749,-0.5632 -0.7462,-0.8075 -0.9158,0.0913 -1.3907,0.3421 -2.2726,0.7014 0,2.2386 3.1884,4.0237 5.02,4.5534 0.7801,-0.0438 1.5263,-0.0504 2.2725,-0.0569z"/>
  <path class="fil0" d="M140.314 98.3922c0.0339,-0.546 0.0339,-1.0887 0.0339,-1.6314 0,0.5427 0,1.0854 -0.0339,1.6314z"/>
  <path class="fil3" d="M123.456 99.8692c3.4936,-3.2653 3.5954,-10.8732 3.5954,-14.9773 -0.1696,-3.1036 -0.5088,-5.9529 -1.5942,-8.7956 -0.0678,-0.0272 -0.1696,-0.0509 -0.2714,-0.0747 -0.4409,-1.1093 -1.4584,-1.9237 -2.7813,-1.6561 -1.1193,1.604 -2.3064,4.2323 -2.0012,6.1352 0.9837,-0.3694 1.1533,-0.7594 2.3065,-0.8743 2.6796,2.4124 2.4421,9.3555 1.1532,12.8419 -0.6105,0.7731 -1.0514,1.258 -1.8994,1.6139 -0.3731,-0.2002 -0.7801,-0.4988 -1.255,-0.3498 0,2.2387 0.5766,4.5216 1.9673,6.1467 0.2713,-0.027 0.5427,-0.0202 0.7801,-0.0099z"/>
  <path class="fil0" d="M194.584 92.1004c0,-1.1532 0,-1.1532 -0.1018,-1.1431 -0.0339,0.3765 -0.0678,0.753 -0.1356,1.1668 0.1017,-0.0102 0.1696,-0.0169 0.2374,-0.0237z"/>
  <path class="fil0" d="M197.399 91.3449c0,-1.0175 0,-1.0175 -0.1017,-1.0074 0.0339,0.3358 0.0678,0.6716 0.1017,1.0074z"/>
  <path class="fil4" d="M187.359 92.0066c2.2387,-1.2407 2.2387,-2.1565 2.3065,-4.5715 -1.9673,0.1961 -4.0702,1.4911 -6.0036,2.0569 -0.3052,0.1662 -0.2713,0.6037 -0.3052,0.9124 1.1871,1.0688 2.3743,1.6288 4.0023,1.6022z"/>
  <path class="fil5" d="M165.855 93.2684c2.8491,-0.8946 6.2749,-1.4057 9.0562,-2.6666 12.2786,-3.1912 23.9126,-9.4388 35.3771,-15.1267 0,-0.0678 0,-0.1357 0,-0.2035 2.51,-1.2678 5.1556,-3.397 7.6995,-4.2272 0.2374,-0.2272 0.4749,-0.4544 0.7123,-0.6816 -0.1357,-3.2766 -0.441,-6.5701 -0.9158,-9.779 -1.3228,0.1319 -2.5439,1.0337 -3.765,1.6981 -0.8819,0.2915 -1.221,0.5627 -4.9521,2.054 -6.7159,3.1794 -13.8387,5.755 -20.5885,8.9717 -3.1545,0.8572 -6.2411,2.6573 -9.3955,3.5144 -0.5427,0.2916 -3.731,1.2878 -4.172,1.5692 -4.2059,0.9958 -8.31,2.7278 -12.5498,3.3879 -1.6281,-0.1769 -3.1205,-1.6223 -4.7486,-1.5957 0,-0.6105 -1.3228,-0.7839 -1.7977,-0.8384 0,-0.1017 0,-0.1695 0,-0.2374 -0.5766,-0.1121 -0.9497,-0.3802 -1.5942,-0.5194 0,-0.1018 0,-0.1696 0,-0.2375 -0.5766,-0.1121 -0.5766,-0.1121 -0.8479,-0.0511 -0.034,0.2408 -0.0679,0.4816 -0.1018,0.7224 1.0176,2.4425 2.7474,5.5941 3.0866,8.2737 -0.2714,0.1628 -0.3392,0.3391 -0.4409,0.6206 -0.3731,0.2407 -0.7802,0.4848 -1.1872,0.7628 0,0.2713 -0.0339,0.5461 -0.0678,0.8547 2.6795,1.3949 5.2573,2.9695 8.1404,3.971 1.0176,-0.1014 2.0351,-0.1689 3.0527,-0.2364z"/>
  <path class="fil0" d="M200.248 89.7042c0,-0.3053 0,-0.6106 0,-0.8819 -0.0339,0.0034 -0.0678,0.0067 -0.1357,0.0135 -0.0339,0.2747 -0.0678,0.5834 -0.1017,0.892 0.1017,-0.0101 0.1696,-0.0169 0.2374,-0.0236z"/>
  <path class="fil6" d="M122.574 92.9359c2.0351,-1.8309 1.5264,-5.7487 1.5264,-7.9873 -0.1696,-1.1363 -0.5427,-5.8816 -2.8153,-4.1627 -1.1871,2.5266 -2.4421,12.0132 1.2889,12.15z"/>
  <path class="fil5" d="M148.454 90.0169c2.069,-0.8846 3.9684,-1.9898 5.8679,-3.1967 0,-2.3743 -1.1193,-4.196 -1.9673,-6.3501 -0.3392,-0.5428 -1.4924,-3.4127 -2.7135,-5.9366 -0.2035,-0.6581 -2.3743,-4.9868 -2.5099,-5.4821 -0.3053,-0.3426 -2.7814,-5.1836 -3.3919,-6.1064 -0.7462,-0.5361 -0.9158,-1.3333 -1.9673,-1.7372 -1.3906,-0.1667 -2.7813,-0.3333 -4.172,-0.466 -6.1392,-0.1681 -12.2785,-0.4719 -18.4177,-0.5383 -1.8316,0.1826 -1.8316,0.1826 -2.103,0.3453 -2.3743,4.2391 -2.3743,4.2391 -6.1392,11.5338 -1.5942,4.0256 -4.5112,7.81 -5.9358,11.8526 -0.5766,1.0072 -1.5263,2.4247 -1.8994,3.5812 -0.0679,0.0068 -0.1357,0.0136 -0.2035,0.0203 0,0.1696 -0.034,0.3765 -0.0679,0.5834 0.7123,0.6413 3.7311,1.1205 4.6129,0.456 1.1194,-2.1807 3.0188,-4.9139 3.5954,-7.2778 0.0679,-0.0068 0.1357,-0.0136 0.2035,-0.0203 1.662,-3.5915 3.5615,-7.1727 5.2913,-10.7031 0.0679,-0.2441 0.1018,-0.485 0.1357,-0.6919 0.1017,-0.0101 0.1696,-0.0169 0.2374,-0.0236 0.6445,-1.5228 1.662,-3.0827 2.1369,-4.6224 0.1017,-0.0102 0.1696,-0.017 0.2374,-0.0237 0.1018,-0.2815 0.1696,-0.5596 0.2375,-0.8038 0.1695,-0.0508 0.3052,-0.0983 0.4409,-0.1457 0,-0.1018 0,-0.1696 0,-0.2375 5.0878,-0.3715 10.3112,0.2271 15.2633,0.785 1.0176,0.3395 1.0176,0.3395 1.3907,0.5736 0.9836,1.4283 2.4421,3.2163 3.0188,4.9226 0.1017,-0.0102 0.1695,-0.0169 0.2374,-0.0237 0.1696,0.5597 1.4246,2.8089 3.7989,7.7617 1.0854,3.5211 3.3918,7.0562 3.9345,10.8009 0.2035,0.4885 0.3731,0.9465 0.848,1.1705z"/>
  <path class="fil5" d="M100.053 88.974c0.6105,-0.4679 0.9158,-1.3124 0.848,-2.0179 -3.9007,-0.5609 -8.0387,-1.9461 -11.8037,-2.8597 -0.2035,-0.1832 -1.1193,-0.3293 -1.4246,-0.5363 -2.6795,-0.3774 -5.4948,-1.5891 -8.1743,-2.2378 -1.4925,-0.8349 -3.5954,-0.8288 -5.0539,-1.6331 -0.4409,-0.0578 -1.9334,-0.35 -2.1708,-0.6994 -0.8479,-0.2547 -7.1229,-1.8338 -7.6656,-2.6277 -1.1532,0.115 -2.5439,0.7624 -3.6632,1.0435 -2.3064,0.4674 -2.3064,0.4674 -2.5439,0.6267 0,0.8141 5.5627,2.1929 6.2071,2.6375 11.7358,2.9681 23.336,6.5943 35.4449,8.3042z"/>
  <path class="fil7" d="M162.7 80.4563c6.9872,-1.748 13.8048,-5.0054 20.6903,-7.0485 -0.0679,-0.1289 -0.1357,-0.2578 -0.2035,-0.3528 -3.0188,0.1313 -5.6983,-0.0425 -8.5475,-0.81 -0.848,-0.3903 -1.6959,-0.7467 -2.5439,-1.1031 0,-0.0679 0,-0.1357 0,-0.2035 -1.0176,-0.5431 -1.662,-1.2589 -2.3743,-2.1377 -0.0678,0.0068 -0.1357,0.0136 -0.2374,0.0237 -0.5088,-0.9668 -0.5088,-0.9668 -0.7462,-1.7911 -0.1018,-0.0238 -0.2375,-0.0103 -0.3731,0.0033 -1.4585,1.6038 -1.3568,5.4943 -1.4585,7.4718 -2.0351,0.2028 -1.7299,-5.3902 -1.662,-6.4146 0.3052,-0.9801 1.1871,-4.3242 2.1368,-4.7241 0.1696,-0.7632 1.2211,-1.1732 1.6281,-1.8922 3.1205,-1.9731 6.4785,-3.1558 9.9042,-2.0049 0.0339,0.0645 0.0679,0.1629 0.0679,0.2646 -1.1872,0.1184 -2.4083,0.2401 -3.6293,0.3957 -1.4585,0.5864 -1.4585,0.5864 -2.8153,1.3322 -0.0339,0.0712 -0.0678,0.1763 -0.1017,0.2814 -0.4749,0.0474 -0.9158,0.4984 -1.255,0.8035 0.7462,1.9607 7.9709,2.0546 9.5989,2.028 2.4422,0.2992 5.427,-0.3375 7.937,-0.5877 1.5942,-0.4981 3.324,-1.0097 4.9521,-1.3756 2.0351,-1.0169 2.8492,-1.3015 4.986,-2.4643 0,-0.1017 0,-0.1696 0,-0.2374 0.2714,-0.1288 0.5427,-0.2237 0.7802,-0.3152 0,-0.0678 0,-0.1357 0,-0.2035 0.7462,-0.4814 1.7976,-1.6377 2.5099,-1.8444 0.3053,-0.641 1.662,-2.0651 2.2726,-2.6008 0.0339,-0.2748 0.0678,-0.5495 0.1017,-0.7903 -1.5263,-0.187 -2.7135,0.2027 -4.2059,0.521 1.2211,-2.5638 5.6305,-2.732 7.6656,-1.8156 1.5263,1.1707 2.3404,2.4802 2.2047,4.5967 -0.1357,-0.0883 -0.3052,-0.1731 -0.4748,-0.2241 -0.5427,-1.5739 -2.4083,-2.8804 -4.172,-2.7046 -0.7123,1.2921 -1.4585,2.5876 -2.2047,3.9169 -1.4246,2.0415 -4.9521,7.2435 -7.4282,8.2026 0,0.848 -2.7474,1.5967 -3.0527,2.5768 -0.1696,0.0509 -0.3731,0.139 -0.5766,0.2271 -0.0339,0.0712 -0.0678,0.1764 -0.1017,0.2815 1.6959,-0.1691 3.6293,-1.3115 5.3252,-1.8537 1.9333,-1.0407 4.3755,-1.9625 6.4445,-2.5418 0.3053,-0.234 3.0527,-1.2201 3.4936,-1.5015 1.8655,-0.5591 3.7311,-1.6269 5.5627,-2.1148 0.1356,-0.1492 0.2713,-0.2984 0.407,-0.4476 -0.1018,-5.7221 -0.8141,-11.2816 -1.6281,-16.8648 -0.7123,-0.4378 -1.5942,0.2946 -2.3065,0.6369 0,0.0679 0,0.1357 0,0.2375 -5.7661,2.3385 -11.8375,4.945 -17.8411,6.2218 -1.0854,0.6509 -2.8492,1.0302 -4.0703,1.3216 -0.5766,0.2949 -1.9333,0.6336 -11.0913,3.8191 -2.9509,0.5994 -5.9697,2.1214 -8.9206,2.9244 -2.2047,1.3051 -5.2235,1.4704 -7.496,2.7145 -0.0339,0.1051 -0.0678,0.2442 -0.1357,0.3866 0.9158,13.1369 0.9158,13.1369 1.0176,16.6204 0.3053,0.3427 0.3053,0.3427 0.3731,0.6412 0.5427,0.1494 1.0854,0.3327 1.5942,0.5194z"/>
  <path class="fil7" d="M102.088 85.9219c1.1532,-1.2682 1.5942,-3.2115 2.6796,-4.5069 1.255,-3.3134 3.5614,-6.6978 5.1895,-9.9128 0.441,-1.7059 1.9673,-3.4183 2.51,-5.1684 1.5602,-2.0549 2.2386,-5.0056 3.731,-7.1556 3.9346,-0.3922 7.7674,-0.1298 11.668,-0.1795 0.8141,0.1224 3.1884,0.1231 3.9685,0.2828 2.0351,0.0006 2.7813,0.1637 8.0726,0.4502 0.6445,0.1393 2.2725,0.2144 2.6796,0.3774 2.5778,0.1839 2.3403,3.1246 3.9006,4.5293 0.4749,1.4451 1.662,2.6835 2.0351,4.1726 1.3228,1.191 1.4585,3.5857 2.7135,4.8173 0.5766,1.4689 1.5602,2.6258 3.2901,2.9282 0.2035,0.4207 4.0363,2.2433 4.8843,2.3623 0.3052,-0.0643 0.3052,-0.0643 0.407,-0.2102 -0.3392,-5.2914 -0.8141,-10.5353 -1.3568,-15.7725 -0.9158,-1.2994 -2.7474,-1.1168 -3.8328,-2.094 -2.2725,-0.4857 -4.1719,-2.3315 -6.3766,-2.824 -0.6784,-1.6962 -0.3392,-5.054 0.4748,-6.7971 1.2211,-0.3931 3.8328,-0.6874 4.6808,-1.3146 -0.407,-0.8074 -2.6457,-0.5164 -3.4936,-0.8389 -1.255,-0.1123 -2.51,-0.1907 -3.7989,-0.2658 -6.0375,-0.687 -12.3124,-1.3165 -18.4517,-1.5524 -0.1357,-0.0883 -0.2713,-0.1426 -0.4409,-0.1935 -5.2574,-0.1204 -10.6165,-0.909 -15.8061,-1.3414 -2.2386,-0.3195 -3.2562,0.2229 -3.8328,-2.1279 -1.4585,-1.6523 -2.1708,-4.3626 -3.5953,-6.12 -0.5767,-1.7063 -2.0691,-3.3552 -2.917,-4.8988 -1.1193,-1.6182 -1.9673,-3.3314 -3.1884,-4.9056 -0.1357,-0.3596 -0.4409,-0.6344 -1.5942,-2.5885 -4.0702,-5.6656 -4.2737,-6.0863 -4.9181,-6.7683 -0.6784,-1.1534 -1.7977,-2.7378 -2.9849,-3.3995 0,-0.1696 0,-0.3392 -0.0339,-0.5054 14.8902,-3.1803 30.1536,-4.3627 45.1117,-6.0573 0.3392,-0.1695 0.3392,-0.1695 0.4748,-0.3526 -0.9158,-0.8245 -5.393,-0.6834 -6.8176,-0.711 -0.7801,-0.1597 -2.6117,-0.1806 -3.2901,-0.3504 -8.2422,-0.1959 -16.5183,-1.5078 -24.7605,-1.5002 -10.2774,1.0245 -20.5208,2.3509 -30.7642,4.0843 -0.407,0.2102 -0.8479,0.4237 -1.2889,0.6373 -0.2374,1.3804 -0.2374,1.3804 -0.4748,4.1175 -0.2035,5.6508 -0.3392,6.2409 -0.6784,16.8912 -0.2035,2.0554 -0.4409,9.5412 -0.5766,9.9278 -0.0678,0.0746 -0.1357,0.1831 -0.2374,0.295 -1.0515,0.037 -2.5778,-0.0483 -3.4936,-0.4318 -4.2059,-0.7679 -8.6832,-1.8818 -13.0248,-2.3309 -2.3403,-1.1574 -5.7661,-0.8159 -8.2761,-1.685 -2.0351,-0.2381 -4.3076,-0.7577 -6.2749,-1.24 -2.5778,-0.3196 -5.1217,-1.1854 -7.7335,-1.3999 -1.2889,-0.7194 -4.545,-1.0054 -5.8679,-1.2127 -0.9158,-0.18 -6.1053,-1.7657 -6.6141,-1.0027 -0.5427,5.922 -0.0678,12.1157 0.2035,17.9905 0.1018,0.2612 0.1696,0.5258 0.2375,0.7904 0.9497,0.3802 1.4245,0.4346 3.6971,1.1238 0.8479,0.4582 3.4936,1.212 4.3076,1.1309 0.6106,-0.8071 3.0866,-4.9206 4.3416,-6.7417 0.3392,-0.78 1.2211,-1.3088 1.6281,-1.9939 4.4094,-0.0664 8.7171,1.4375 12.9908,1.9951 4.1042,1.626 9.6668,1.3089 13.2622,4.0371 1.3567,1.4929 2.5439,3.6131 3.1883,5.5162 1.4924,1.9541 1.7977,4.8746 3.1544,6.8423 0.3731,1.5909 1.1533,3.1073 1.5942,4.6915 0.7123,0.6413 1.3907,4.2368 1.5603,4.9322 0.1356,0.9362 0.2713,1.8724 0.814,2.5984 2.8152,0.8726 5.6983,1.942 8.5475,2.6755 1.4246,0.8077 3.5275,0.7337 4.8842,1.65 2.951,0.7573 6.0375,2.0098 9.0224,2.6281 2.1029,1.181 5.2913,1.0667 7.496,2.2715 2.5439,0.357 4.8164,1.5211 7.3942,1.705z"/>
  <path class="fil1" d="M40.8307 90.4681c0.3731,-0.4103 0.9497,-0.4338 1.4246,-0.5829 1.255,-1.0409 2.2725,-2.0582 3.1544,-3.4689 0.1357,-0.3866 0.6106,-2.0281 0.8819,-2.2248 0.2714,-1.689 0.2714,-1.689 0.4749,-2.1163 0.2374,-4.1618 0.2374,-4.1618 0.3392,-4.0362 0,1.3567 0,2.7134 0,4.0702 -0.3392,1.1531 -0.7802,2.4521 -0.9837,3.5917 -0.0678,0.0406 -0.1357,0.0813 -0.2374,0.1254 -0.1696,1.1362 -1.1532,2.1161 -1.6281,3.1471 0.0678,0.0611 0.1018,0.1595 0.1357,0.2578 0.9497,-0.0946 2.1708,-0.4877 2.5778,-1.5119 0.8819,-0.5289 1.6959,-2.6791 1.9673,-3.6219 0.2035,-0.3595 0.4409,-1.7399 0.5427,-1.8179 0,0.5427 0,1.0854 0,1.662 -0.441,0.7902 -0.9498,3.1813 -1.696,3.4931 0,0.2035 0,0.441 0,0.6784 2.5778,-0.257 3.9007,-4.3912 4.4094,-6.3753 0.5088,-0.7969 0.3392,-2.035 0.4071,-2.9576 0.0678,-0.0068 0.1356,-0.0135 0.1696,-0.0169 0,1.6959 0.1356,3.7175 -0.848,5.2741 0,0.4409 -0.3053,1.0819 -0.407,1.5669 0.1356,0.0204 0.2374,0.0442 0.3391,0.0679 1.289,-2.2314 2.2726,-4.1611 2.951,-6.6708 0,-1.5942 0.2374,-3.653 -0.6784,-4.9523 -0.6784,-2.7816 -2.2726,-5.404 -3.1884,-8.0601 -0.0678,-0.0272 -0.1695,-0.0509 -0.2713,-0.0408 -0.1696,2.052 -0.1696,2.052 -0.2713,2.1979 -0.1357,-0.1561 -0.3392,-2.0353 -0.5767,-2.69 -0.407,-2.4354 -1.8994,-10.3932 -4.9521,-10.4959 0,0.6783 0.3392,1.289 0.5427,1.9471 0.441,0.397 2.3065,6.5877 1.696,7.4965 -0.441,-2.7713 -1.9334,-11.0682 -5.9019,-10.6726 -0.5427,0.3254 0.3392,1.4586 0.5427,1.7436 1.1533,2.7002 2.4422,5.2513 2.6118,8.3549 -0.0679,-0.0271 -0.1357,-0.0543 -0.2036,-0.0814 -0.4409,-3.1784 -3.0526,-11.3637 -7.2246,-10.9478 0,0.1356 0,0.2713 0,0.4409 2.1029,1.6898 3.5614,4.4953 4.2059,7.0767 -0.0678,0.0068 -0.1696,0.0169 -0.2714,0.0271 -0.6105,-2.7883 -3.9006,-7.2768 -6.7498,-7.705 -0.0339,0.0712 -0.0678,0.1424 -0.1356,0.2509 3.6971,4.3461 5.4609,8.7493 6.8854,14.4413 0.9498,5.2305 1.6281,10.8273 0.5767,16.2913 -0.7123,1.7669 -1.4246,3.2625 -2.8831,4.6289 -0.407,0.1424 -0.407,0.1424 -1.2889,0.8408 0,0.7462 1.8994,0.2516 2.4082,0.2009 1.662,-0.878 3.1205,-2.1088 3.5614,-4.0182 0.1018,-0.0441 0.1696,-0.0848 0.2375,-0.1255 0.0678,-0.4477 0.1356,-0.8614 0.2035,-1.2752 0.1017,-0.0102 0.2035,0.0136 0.2713,0.0408 -0.0678,0.9225 -0.4409,1.6381 -0.6783,2.5436 -0.0679,0.0068 -0.1357,0.0475 -0.2375,0.0915 -0.3052,1.1498 -1.221,2.089 -2.1029,2.9232 -0.3731,0.0711 -1.2889,0.5015 -1.0176,1.0172 0.3053,-0.0304 0.6106,-0.0269 0.9158,-0.0235z"/>
  <path class="fil0" d="M138.516 80.1537c-0.0339,-0.3698 -0.0678,-0.7395 -0.1017,-1.0753 0,0.407 -0.0679,0.7191 0.1017,1.0753z"/>
  <path class="fil1" d="M35.1663 88.3193c5.9358,-2.559 5.4948,-7.501 5.4948,-12.928 -0.5766,-3.5379 -0.5766,-8.083 -2.1368,-11.3193 -0.2375,-1.1635 -0.8141,-2.2253 -1.1194,-3.3481 -1.628,-3.1617 -2.8152,-5.8586 -5.6983,-7.742 -1.0854,-0.5363 -2.6117,-1.1642 -3.6971,0.0294 -1.1532,2.1839 -2.6796,4.4051 -3.9006,6.562 -0.7123,1.4277 -1.4246,2.8555 -2.1369,4.2832 -0.5427,2.598 -0.3731,7.0244 0.5766,9.5076 1.1872,6.2583 5.2574,15.1462 12.6177,14.9552z"/>
  <path class="fil0" d="M99.3741 81.6813c0.7802,-1.231 1.3568,-2.6792 1.662,-4.0663 0.9498,-1.0444 0.7123,-3.3951 1.5942,-4.6362 0.2035,-1.1396 0.441,-1.6721 1.4585,-5.742 0.2374,-1.8891 0.441,-2.52 0.6784,-4.8501 1.1871,-5.4775 0.7462,-11.8441 0.7801,-17.3084 -0.7462,-2.6391 -2.4421,-4.7086 -3.3918,-7.1579 -1.7977,-3.0769 -3.8328,-6.1303 -5.6305,-9.2072 -0.2375,-0.2138 -0.3731,-0.6073 -0.6106,-0.7532 -1.7637,-2.7412 -3.8667,-5.4485 -5.5287,-8.1999 -0.1017,0.0102 -4.0363,-4.9228 -4.138,-5.0483 -1.0854,-0.7059 -2.103,-0.8419 -3.4937,-0.9746 -1.3228,-0.75 -3.4257,-0.5404 -4.9181,-1.07 -2.7814,-0.2654 -5.7323,-1.7011 -8.5814,-1.1796 -0.0679,0.1424 -0.1357,0.3187 -0.2035,0.4951 -0.3732,20.0831 -0.8819,40.3153 -0.3392,60.3071 0.2374,1.1635 0.2374,1.1635 0.4409,1.4823 2.8492,0.4622 5.5966,1.8504 8.4118,2.3499 1.5942,0.7908 3.8328,0.6694 5.3591,1.5687 2.0352,0.3398 3.9685,1.1646 6.0036,1.4705 0.2714,0.1765 1.2211,0.3193 1.5264,0.5262 8.1404,1.902 8.1404,1.902 8.2082,1.997 0.2375,-0.0236 0.4749,-0.0134 0.7123,-0.0031z"/>
  <path class="fil0" d="M44.2226 83.6855c0.0339,-2.0046 0.0339,-2.0046 -0.0679,-1.9605 -0.0339,0.6139 -0.0678,1.2278 -0.1017,1.8756 0.0678,0.0272 0.1357,0.0544 0.1696,0.0849z"/>
  <path class="fil4" d="M186.341 69.0434c1.0515,-0.444 2.2725,-1.0067 3.3918,-1.2878 1.0854,-0.617 2.1369,-1.2306 3.1884,-1.8442 0.0339,-0.1051 0.0678,-0.1764 0.0678,-0.2442 0.9497,-0.3999 1.5264,-1.5428 2.3743,-1.7969 0.0679,-0.2781 0.1357,-0.5223 0.2035,-0.7665 -0.0339,-0.0645 -0.1017,-0.1256 -0.1696,-0.1527 -0.8479,0.695 -2.7134,1.1863 -3.7649,1.5624 -4.5451,0.9619 -10.3452,2.3202 -14.7885,1.2368 -1.8655,-0.1532 -4.172,-0.5677 -5.7662,-1.4603 -0.4748,0.0473 -0.4748,0.0473 -0.7122,0.2067 -0.034,0.3765 -0.034,0.3765 0.3731,1.6926 0.0678,-0.0067 0.1356,-0.0135 0.2035,-0.0202 0.5427,1.6079 2.9848,2.4159 4.5451,3.0066 1.4924,0.1225 2.9509,0.2824 4.4094,0.4423 2.1708,-0.2164 4.3076,-0.3955 6.4445,-0.5746z"/>
  <path class="fil0" d="M49.8531 81.7675c0,-2.3743 0,-2.3743 -0.1018,-2.3642 0,2.3743 0,2.3743 0.1018,2.3642z"/>
  <path class="fil0" d="M33.3686 82.9359c0.5427,-0.1898 1.0515,-0.3423 1.5603,-0.4947 0,-0.0679 0,-0.1357 0,-0.2036 3.731,-1.8643 3.1883,-10.4934 2.0012,-13.0885 -0.3731,-2.371 -1.2211,-4.5251 -2.103,-6.7097 -0.0678,0.0067 -0.1356,0.0135 -0.2374,0.0236 -0.5088,-1.2042 -1.6281,-3.8401 -3.0527,-3.9694 0,-0.1018 0,-0.1696 0,-0.2374 -0.3731,-0.1324 -0.7462,-0.2648 -1.1193,-0.3972 -2.3743,0.2367 -3.6632,1.1792 -4.4433,3.4277 -0.2374,0.3629 -0.3392,1.0514 -0.5766,1.5499 -0.7801,5.2673 0.0339,10.2401 1.7977,14.9485 0.5427,0.9295 1.5263,2.0186 1.8655,3.0024 0.4409,-0.044 0.7123,0.6413 0.9158,0.9262 0.2713,0.0408 0.2713,0.0408 0.814,0.4277 0,0.7123 2.103,0.774 2.5778,0.7945z"/>
  <path class="fil0" d="M44.6635 80.7924c0.0339,-0.4104 0.0679,-0.8208 0.1018,-1.2312 -0.0679,0.0067 -0.1357,0.0135 -0.2035,0.0203 0.0339,0.4036 0.0678,0.8072 0.1017,1.2109z"/>
  <path class="fil3" d="M34.488 81.4676c2.883,-2.3565 2.4421,-5.6365 2.4421,-8.8588 -0.7801,-4.7387 -2.0012,-9.8743 -5.3931,-13.1994 -0.9836,-0.3429 -1.2549,-0.4176 -2.4082,-0.3026 -0.2374,0.3967 -0.5427,0.5628 -1.0175,0.7798 -0.7802,1.6719 -1.7299,3.8356 -1.5264,5.6469 0.4071,-0.0745 0.8141,-0.149 1.1872,-0.1861 2.3404,0.9199 3.1544,4.4341 3.3918,6.8526 0,1.5263 0.2375,3.3342 -0.9497,4.6397 -0.7462,0.0744 -1.3906,-0.0649 -2.1029,0.0061 0,1.4246 1.9333,3.5384 2.9509,4.3188 0.4748,0.0883 0.9497,0.1767 1.3906,0.2684 3.4937,-2.5191 1.6281,-9.2525 1.0854,-12.5902 -0.0678,-0.1289 -0.1356,-0.2578 -0.2374,-0.3834 -0.4409,-2.6356 -1.5602,-5.2375 -3.0187,-7.3646 -0.4071,-0.4343 -0.848,-0.8652 -1.289,-1.2622 1.9334,-0.1927 3.7989,4.5734 4.2059,6.1948 0.9837,1.3944 0.9498,3.8399 1.5603,5.4411 0.3392,2.51 0.848,6.7331 -0.6105,9.2867 0,0.2035 0,0.4409 -0.034,0.6817 0.1357,-0.0135 0.2714,0.0069 0.3732,0.0307z"/>
  <path class="fil4" d="M214.833 61.0137c0.8479,-0.4577 1.6959,-0.7457 2.5439,-1.2373 0,-0.2035 0,-0.3731 0,-0.5427 -1.0854,-0.5023 -1.8316,-1.0045 -3.1545,-0.8048 -0.2374,0.2611 -0.1017,1.9435 -0.1017,2.3505 0.2374,0.0781 0.4748,0.1562 0.7123,0.2343z"/>
  <path class="fil5" d="M59.3502 75.9365c1.1194,-0.4847 2.7135,-0.3384 3.4597,-1.3625 -1.6281,-7.4354 -5.0877,-14.383 -8.0726,-21.2423 -0.0678,0.0068 -0.1356,0.0135 -0.2374,0.0237 -0.5766,-2.0116 -2.1369,-2.1952 -3.9685,-2.9285 -6.2749,-1.8166 -12.6516,-3.4195 -19.0961,-4.6765 -0.9497,-0.041 -3.2901,-0.7914 -3.6293,0.667 -0.4409,0.044 -1.662,2.7096 -1.8994,3.1403 -0.0679,0.0067 -0.1357,0.0135 -0.2375,0.0237 -0.1017,0.2814 -0.2035,0.5969 -0.3392,0.9156 -0.0678,0.0068 -0.1356,0.0136 -0.2374,0.0237 -0.0339,0.3426 -0.0339,0.3426 -0.6444,1.4888 -0.2375,0.2272 -0.2375,0.2272 -5.0539,9.1531 -0.7462,1.465 -1.5942,2.8045 -1.7638,4.3817 0.6106,0.3461 0.7802,0.3971 1.5264,0.187 0.0339,-0.1051 0.0678,-0.1763 0.0678,-0.2442 0.1018,-0.0101 0.1696,-0.0169 0.2374,-0.0236 0.1696,-0.5936 0.4749,-1.031 0.6784,-1.6618 0.0678,-0.0068 0.1357,-0.0136 0.2035,-0.0203 0.7462,-1.3633 1.4585,-2.7232 2.1708,-4.0492 0.0678,-0.0068 0.1357,-0.0135 0.2035,-0.0203 0.5766,-1.075 1.1532,-2.1501 1.6959,-3.2217 0.1018,-0.0102 0.1696,-0.0169 0.2375,-0.0237 0.6783,-2.1367 2.7474,-4.7511 3.9684,-6.7384 1.4246,-0.4133 4.6808,0.3475 6.1054,0.9177 4.2398,0.5271 8.7849,2.2787 12.7873,3.6096 1.0854,2.0287 2.476,4.5696 3.0866,6.8491 2.2725,4.3525 3.9345,9.512 5.6644,14.1221 0.2035,0.285 0.407,0.57 0.6105,0.8549 0.848,-0.0506 1.662,-0.0978 2.476,-0.145z"/>
  <path class="fil6" d="M29.7394 75.7338c1.8316,-2.5229 0.2713,-5.9288 -0.441,-8.3678 -0.0678,-0.0272 -0.1357,-0.0543 -0.2035,-0.0815 -0.2374,-1.1974 -1.0176,-1.391 -2.1029,-1.2828 -1.289,2.7402 -0.1696,6.0884 0.5766,8.6257 0.3731,0.3698 0.7123,0.743 1.0514,1.1502 0.3731,-0.0372 0.7463,-0.0405 1.1194,-0.0438z"/>
  <path class="fil8" d="M157.85 61.1653c0.0678,-0.1085 0.1357,-0.1831 0.1696,-0.2543 -0.1696,-3.2393 -0.7123,-6.6449 -1.2211,-9.8164 -0.0678,-0.1289 -0.1696,-0.2544 -0.2713,-0.38 -2.3743,0.2367 -4.6469,0.4972 -6.9872,1.1375 -0.6445,0.9461 -0.9837,4.5075 -0.5427,5.3454 1.8655,1.3064 4.5451,1.7516 6.4106,3.092 0.8479,0.119 1.5941,0.7229 2.4421,0.8758z"/>
  <path class="fil8" d="M160.326 60.7828c0.5427,-0.9359 4.5451,-1.6063 5.6983,-2.3318 0.407,-0.1084 0.814,-0.2168 1.1871,-0.2879 1.255,-0.9391 5.3252,-1.2092 5.6305,-2.8338 -0.6105,-1.262 -0.9497,-3.2633 -2.2047,-3.8844 0.1696,-0.1186 0.3392,-0.2373 0.5088,-0.3221 -0.0679,-1.0447 -0.6445,-2.9205 -1.1532,-3.7517 -0.2036,-0.9634 -0.2036,-0.9634 -0.3732,-1.2517 -3.731,-0.069 -7.903,2.7212 -11.4644,3.992 -0.1696,0.2204 -0.3392,0.4408 -0.5088,0.6952 0.3053,1.3941 0.5766,2.7916 0.848,4.2231 0.7123,0.6413 6.8176,-1.6633 8.3778,-1.9884 0,0.0339 0,0.1018 0,0.1696 -2.6795,0.742 -5.2573,1.8469 -7.9708,2.4566 -0.1018,1.74 0.2035,3.3715 0.4748,5.0404 0.1696,0.0849 0.1696,0.0849 0.9498,0.0749z"/>
  <path class="fil9" d="M103.309 63.7532c0.3392,-5.5287 0.8819,-11.1115 1.1193,-16.6639 -0.1357,-0.1221 -0.1357,-0.1221 -1.0854,-0.0274 -3.6293,1.4471 -8.6492,0.9639 -12.2785,0.6813 -5.6983,-1.0262 -6.1053,-1.223 -8.4118,-1.6715 -1.6281,-0.9231 -4.0024,-0.7203 -5.6644,-1.6061 -1.1193,-0.1259 -6.5124,-2.2 -7.1568,-1.4913 0,10.4469 0,10.4469 0.1017,15.5246 0.6106,1.3637 -0.8605,14.3454 0.5641,14.4748 2.069,0.9809 9.5525,3.5092 12.5034,3.7917 1.7638,0.8756 13.886,3.8743 15.3106,3.9697 0.3548,0.0828 4.7418,-11.5387 4.9978,-16.9819z"/>
  <path class="fil10" d="M174.334 55.6554c0.441,-0.2475 0.8819,-0.495 1.3228,-0.7085 0.034,-0.173 0.0679,-0.346 0.0679,-0.5156 -1.4924,-3.4805 -3.6293,-7.6429 -3.4258,-11.6656 0.3053,-0.1661 0.3392,-0.2713 0.4749,-0.624 0.1356,-0.0474 0.2713,-0.0949 0.3731,-0.1389 0,-0.848 6.4784,-3.2236 6.8515,-3.3626 3.8667,-1.0638 8.3779,-2.3276 12.3125,-2.1432 0.7801,0.4989 1.0175,0.8144 1.4924,1.615 0.0678,-0.0067 0.1356,-0.0135 0.2035,-0.0203 0.2035,0.6581 0.2035,0.6581 0.5427,1.2009 0.6105,3.0597 1.3567,5.7327 1.4585,8.9109 0.407,0.5699 0.814,0.1563 1.3228,-0.2336 -0.0678,-3.419 -0.1357,-12.0954 -4.4433,-13.2263 -7.4282,0.4692 -14.2797,2.475 -21.267,5.5797 0,0.0679 0,0.1357 0,0.2375 -2.5778,1.5458 -0.1696,8.2591 0.4071,10.135 0.3731,0.9803 1.255,4.5556 2.3064,4.9596z"/>
  <path class="fil0" d="M45.2401 67.9815c-0.0339,-0.4375 -0.0678,-0.8751 -0.1017,-1.3127 0,0.4749 -0.0339,0.8514 0.1017,1.3127z"/>
  <path class="fil2" d="M177.285 54.6828c0.848,-0.4237 0.848,-0.4237 0.9837,-0.6407 -0.4749,-2.1913 -1.5264,-4.2573 -1.8995,-6.4926 -0.7801,-1.1094 -0.4409,-3.0087 -1.2889,-4.0774 -0.0339,-0.3698 -0.0678,-0.7395 -0.1017,-1.1092 0.0678,-0.0407 0.1357,-0.0814 0.2035,-0.1221 0.2035,0.7938 0.6105,1.7708 1.0175,2.4425 0.1357,0.6648 0.3731,0.9125 2.4083,6.9507 0.4409,2.025 0.4409,2.025 0.6105,2.2456 0.407,-0.0406 0.6105,-0.027 0.9497,-0.3321 -0.2035,-3.5412 -1.4924,-6.9063 -1.9333,-10.356 0.1017,-0.0101 0.2035,-0.0203 0.2713,-0.027 0.3392,1.7638 1.2889,3.4669 1.6959,5.2918 0.6784,1.323 0.8141,3.0733 1.0854,4.5386 0.3053,0.4445 0.8819,0.2513 1.1533,-0.2845 -0.6106,-3.3988 -1.4246,-6.8791 -1.8316,-10.2983 0.1017,-0.0101 0.2035,-0.0202 0.2713,-0.027 0.3731,1.964 1.3228,4.0401 1.8994,5.9838 0.2375,1.5027 0.441,1.9912 0.6784,3.9687 0.1696,0.3562 1.4246,-0.142 1.7977,-0.247 0.5427,-1.0039 -0.3392,-4.0025 -0.6445,-5.0236 -0.3391,-2.6118 -1.2889,-5.1289 -1.5263,-7.7508 0.0678,-0.0068 0.1357,-0.0136 0.1696,-0.0169 0.0678,0.3324 0.1357,0.6648 0.2035,1.0311 0.5088,0.1868 0.8141,2.0897 0.9158,2.6222 0.9158,2.8257 1.5603,5.3054 1.9334,8.2869 0.1017,0.0917 0.2035,0.1833 0.3052,0.3088 0.5427,-0.0541 0.5427,-0.0541 0.9158,-0.227 0.1018,-0.2475 0.1018,-0.2475 0.1018,-2.6558 -0.3392,-2.7814 -1.0176,-5.5629 -1.255,-8.3206 0.0678,-0.0067 0.1357,-0.0135 0.1696,-0.0169 0.0678,0.4342 0.1357,0.9023 0.2035,1.3704 0.1018,0.0238 0.1696,0.0509 0.2374,0.0781 0.3053,2.1403 1.0176,4.274 1.4585,6.3669 0.1696,2.0861 -0.0678,3.3647 2.0012,2.0053 0,-3.6293 -0.9836,-7.0249 -1.255,-10.5254 0.0679,-0.0067 0.1357,-0.0135 0.1696,-0.0169 0.0679,0.3664 0.1357,0.7327 0.2036,1.133 0.5427,0.2172 0.814,2.6662 0.9158,3.2666 0.2035,0.4885 1.0175,5.6987 1.1532,5.7869 1.5602,-0.2573 1.4585,-0.1454 1.5602,-1.648 -0.6783,-3.6295 -0.8479,-7.7167 -2.3064,-11.0649 -2.7474,0.1721 -5.4609,0.714 -8.1066,1.7578 -1.5263,-0.594 -6.1731,1.9043 -7.6655,2.6636 -0.0679,0.1764 -0.1357,0.3527 -0.2036,0.563 -0.814,-0.0545 -1.2889,0.3998 -1.8316,0.9966 0,0.6445 0,1.3228 -0.0339,2.0046 0.2375,0.4851 0.2375,0.4851 1.9334,5.9465 0.8819,1.0653 0.6783,3.5278 2.3064,3.6707z"/>
  <path class="fil0" d="M47.6144 66.9308c-0.0678,-2.1301 -0.0678,-2.1301 -0.1696,-2.3574 0,0.5427 -0.2035,2.0215 0.1696,2.3574z"/>
  <path class="fil0" d="M42.8658 66.7258c0,-0.3731 0,-0.7462 0,-1.1193 -0.0339,0.0034 -0.0678,0.0067 -0.1356,0.0135 0,0.3731 0,0.7462 0,1.1193 0.0339,-0.0034 0.0678,-0.0067 0.1356,-0.0135z"/>
  <path class="fil0" d="M44.7653 65.9938c0,-0.6784 -0.0339,-1.3195 -0.0679,-1.9606 -0.0678,-0.0271 -0.1696,-0.0509 -0.2713,-0.0408 0.2035,1.6757 0.2035,1.6757 0.3392,2.0014z"/>
  <path class="fil0" d="M167.211 52.9736c0.5088,-0.1525 1.0176,-0.305 1.4924,-0.4202 -0.2374,-0.2137 -1.7637,0.0402 -1.7637,0.3115 0.1017,0.0238 0.2035,0.0476 0.2713,0.1087z"/>
  <path class="fil0" d="M169.925 52.1604c0.1357,-0.0814 0.2374,-0.1594 0.3392,-0.2374 -0.1696,-0.0848 -0.1696,-0.0848 -1.4585,0.1115 0,0.0679 0,0.1357 0,0.2375 0.3731,-0.0372 0.7462,-0.0744 1.1193,-0.1116z"/>
  <path class="fil0" d="M42.391 64.8737c0,-0.4409 0,-0.848 0,-1.255 -0.0679,0.0068 -0.1357,0.0135 -0.2035,0.0203 0.1017,1.2448 0.1017,1.2448 0.2035,1.2347z"/>
  <path class="fil2" d="M194.584 49.1256c0.3731,-0.2407 0.7123,-0.4441 1.0515,-0.6475 0.0678,-2.3132 -0.7123,-11.597 -4.1042,-11.4963 0.2035,2.0488 1.0515,4.1011 1.3229,6.2109 0.7122,1.7267 0.4409,4.0263 1.0175,5.7326 0.2374,0.0441 0.4749,0.1222 0.7123,0.2003z"/>
  <path class="fil8" d="M198.993 47.7703c0.8141,-0.2847 1.5942,-0.566 2.3743,-0.8473 2.51,-0.6572 5.0539,-1.7927 7.4621,-2.7789 1.4585,-0.722 1.4585,-0.722 2.3065,-1.2814 0,-1.3228 -0.0679,-3.6904 -1.1872,-4.2572 0.7801,-0.8579 -0.4409,-4.128 -0.9836,-4.4131 -0.6106,0.027 -1.2211,0.0878 -1.8316,0.1487 -9.8364,2.4729 -9.8364,2.4729 -10.0738,2.6323 -0.2714,1.4177 0.7801,4.0942 1.0175,5.3594 2.7474,0.1671 6.8176,-2.2738 9.7007,-2.8664 0.0339,0.0983 0.0339,0.2001 0.0339,0.3019 -2.1029,0.3792 -4.2059,1.7421 -6.3427,2.2603 -0.441,0.2814 -1.7977,0.6541 -3.0527,1.2541 0,1.0514 -0.3392,3.5952 0.1018,4.4331 0.1695,0.0171 0.3391,0.0341 0.4748,0.0545z"/>
  <path class="fil0" d="M41.95 63.2217c-0.0339,-0.4375 -0.0678,-0.8751 -0.1017,-1.3127 0,0.4749 -0.1357,0.9633 0.1017,1.3127z"/>
  <path class="fil0" d="M41.5091 61.6715c-0.0339,-0.4376 -0.0678,-0.8412 -0.1357,-1.2415 -0.0678,0.0068 -0.1357,0.0136 -0.2035,0.0203 0.2374,1.1635 0.2374,1.1635 0.3392,1.2212z"/>
  <path class="fil5" d="M16.1719 63.9598c1.0176,-0.6102 1.0176,-2.3061 1.8656,-3.069 1.0854,-2.0755 2.1707,-4.151 3.2222,-6.1891 0.0339,-0.173 0.0679,-0.3121 0.0679,-0.4477 -1.7977,-1.008 -4.3755,-1.3955 -6.3767,-1.8743 -1.2211,-0.7263 -2.9849,-0.754 -4.172,-1.5175 1.8316,-0.3861 2.069,-0.0706 2.069,-1.6648 -1.221,-0.4888 -3.4597,-0.1978 -4.172,1.1961 0.1018,3.3817 0.4749,6.7363 0.7802,10.0638 0.4748,1.3773 5.0877,2.6812 5.9696,3.4073 0.2714,0.0069 0.5088,0.0511 0.7462,0.0952z"/>
  <path class="fil9" d="M157.612 49.1818c3.9345,-1.8167 7.5638,-3.1283 11.7019,-3.9817 0.1357,-0.3527 0.1357,-0.3527 0.1357,-2.3878 0.6444,-1.9637 0.6444,-1.9637 0.6444,-2.3707 -2.7135,-0.6114 -5.7322,-0.4122 -8.4457,-0.9897 -11.8715,-0.7839 -23.8108,-2.0019 -35.818,-1.7547 -2.8831,1.2371 -5.7322,2.6405 -8.6153,3.8098 -1.1532,0.895 -3.3579,1.047 -4.3755,2.0303 -0.6784,0.1694 -1.4585,0.2811 -1.7638,1.0238 0.7123,0.6413 7.3264,0.5586 8.1066,0.5825 4.0702,0.7136 8.5474,0.2673 12.6516,0.9096 6.9194,0.0904 13.9066,1.1916 20.6903,2.0077 1.1193,0.5329 2.9848,0.6183 4.2398,0.9341 0.2714,0.1765 0.2714,0.1765 0.848,0.1868z"/>
  <path class="fil0" d="M178.133 43.2017c0,-0.5766 0,-0.5766 -0.1357,-0.9701 0,0.4409 -0.0678,0.5833 0.1357,0.9701z"/>
  <path class="fil7" d="M82.4149 52.506c0.6444,-0.7087 -0.0679,-2.198 -0.3053,-2.8527 -1.5942,-0.3837 -3.1205,-0.876 -4.7486,-1.1208 -0.9158,-0.5192 -3.4597,-0.9779 -4.579,-0.7646 -1.4924,3.5407 1.7638,2.1307 3.8667,3.3117 1.8994,0.2177 3.8667,1.3105 5.7662,1.4264z"/>
  <path class="fil0" d="M180.44 42.2934c0,-0.3053 -0.034,-0.6072 -0.0679,-0.8751 -0.0678,0.6512 -0.0678,0.6512 0.0679,0.8751z"/>
  <path class="fil0" d="M208.829 39.3276c0.1357,-0.1152 0.2713,-0.1966 0.407,-0.278 -0.5088,0.0508 -0.9158,-0.0104 -1.3906,0.2743 0.3391,0.0001 0.6783,0.0002 0.9836,0.0037z"/>
  <path class="fil9" d="M171.18 39.5872c5.7662,-2.7456 11.8376,-4.0971 17.9768,-5.4214 0,-0.9836 -6.4106,-1.6674 -7.2246,-1.7219 -2.4761,-0.7707 -5.4948,-1.2838 -8.1405,-1.5628 -2.1368,-0.7028 -5.0199,-0.5171 -7.0211,-1.437 -3.6293,-0.554 -7.2247,-1.5862 -10.8539,-1.9707 -1.0515,-0.4378 -2.51,-0.5299 -3.6293,-0.7575 -3.3919,1.1183 -6.6141,2.7284 -9.9721,3.8433 -0.407,0.244 -1.4246,0.549 -1.8994,0.8338 -3.5615,1.3047 -7.089,2.7757 -10.6165,4.1109 -1.0515,0.6136 -1.0515,0.6136 -1.1872,0.8307 0.1357,0.1221 2.6457,0.1433 3.5615,0.2894 6.8176,-0.103 13.5335,0.8556 20.2493,1.0341 0.6784,0.1698 2.3743,0.2042 3.1545,0.3639 3.9684,0.2828 7.462,0.7146 9.158,0.783 1.5602,0.6246 4.6129,0.6934 6.4445,0.7822z"/>
  <path class="fil10" d="M101.647 46.2812c0.4409,-0.2136 2.3743,-0.6437 2.6456,-0.8064 0,-2.7814 -2.6795,-5.6008 -3.9006,-8.0908 -0.0678,0.0067 -0.1357,0.0135 -0.2035,0.0203 -0.3392,-1.1534 -1.2211,-2.0152 -1.5942,-3.1312 -0.0678,0.0067 -0.1357,0.0135 -0.2374,0.0236 -0.2035,-1.1329 -1.1193,-2.1948 -1.6959,-3.121 -0.0679,0.0068 -0.1357,0.0135 -0.2036,0.0203 -0.1696,-0.5258 -0.1696,-0.5258 -2.6117,-4.4883 -0.0678,0.0068 -0.1357,0.0136 -0.2374,0.0237 -0.2714,-1.3975 -1.6281,-2.2798 -2.103,-3.5553 -0.0678,-0.0272 -0.1696,-0.0509 -0.2713,-0.0408 0,-1.8994 -2.7813,-3.4877 -3.4258,-5.2551 -0.6105,-0.5157 -0.6105,-0.5157 -0.848,-0.526 0,2.1708 0.9837,4.5827 1.289,6.757 1.2889,3.6026 1.0853,7.9305 2.1707,11.5534 0.2035,2.4557 0.441,3.3479 1.1194,10.3353 0.6105,0.8549 5.6983,0.5513 6.7158,0.5516 1.1533,-0.115 2.2726,-0.1926 3.3919,-0.2703z"/>
  <path class="fil9" d="M196.517 36.1456c3.7988,-1.3623 7.7673,-1.8936 11.5662,-3.1542 0.0678,-0.1085 0.1017,-0.2136 0.1357,-0.3188 -0.034,-0.0644 -0.0679,-0.1289 -0.1357,-0.19 -4.3755,-0.7849 -8.6492,-2.0208 -13.0587,-2.7006 -2.8152,-0.8047 -6.0375,-0.7888 -8.9205,-1.3494 -9.9382,-0.7391 -19.8085,-2.1634 -29.8823,-1.9732 0.1018,0.1933 0.2035,0.3867 0.2714,0.5835 2.6117,0.3841 5.3591,1.1617 8.0047,1.3728 7.7335,1.4677 15.433,2.9388 23.1325,4.4099 0.2713,0.1764 1.4246,0.265 1.8655,0.4585 1.7638,0.2651 3.5275,0.5641 5.1556,1.2159 0.441,0.363 1.3568,1.4589 1.8656,1.6456z"/>
  <path class="fil7" d="M90.0126 46.2199c0.3053,-0.1322 0.5427,-0.3594 0.6105,-0.6714 -0.8479,-9.8197 -2.6117,-19.3446 -4.3754,-28.9373 -0.3053,-0.4444 -0.6106,-0.8889 -0.9498,-1.3299 -0.1017,0.0101 -0.2035,0.0203 -0.3052,0.0643 0,1.8995 0.3052,3.8363 0.6783,5.6307 0.7462,5.8614 1.4925,11.7567 2.2387,17.6519 0.8818,2.1168 -0.1357,5.3727 0.9158,7.4048 0.407,0.0611 0.814,0.1223 1.1871,0.1869z"/>
  <path class="fil10" d="M110.025 43.2074c2.0012,-1.1831 4.5111,-1.6708 6.4784,-2.8844 2.3065,-0.7387 4.579,-2.2202 6.9194,-2.8267 0.5088,-0.3899 1.1532,-0.4202 1.662,-0.844 8.6153,-3.5723 17.1967,-7.3108 25.8459,-10.7848 0.441,-0.3492 1.2889,-0.5016 1.5603,-0.8 -0.3053,-2.6152 -3.1205,-5.1837 -4.5451,-7.0768 -0.4749,-0.5971 -1.3228,-1.9711 -2.069,-2.1341 0,-0.9158 -4.4773,-4.4041 -5.5966,-5.2083 -0.407,-0.7734 -1.8316,-1.3776 -2.5439,-1.8154 -15.6025,1.5553 -31.4425,3.0665 -46.9772,6.1414 -0.2713,0.7733 0.441,1.5503 1.0176,1.8998 0.7462,1.2145 2.069,2.3037 2.6117,3.6403 0.2374,0.1459 5.8001,8.5798 5.9697,8.6986 2.8152,4.6714 5.8679,9.2853 8.6153,13.9975 0.3731,-0.0033 0.7123,-0.0032 1.0515,-0.0031z"/>
  <path class="fil10" d="M87.6383 45.439c0.0679,-0.1085 0.1357,-0.1831 0.1696,-0.2543 -0.2713,-7.028 -1.6959,-13.8732 -2.3743,-20.8268 -0.6105,-2.9918 -0.7801,-6.231 -1.3567,-9.2602 -3.8328,-1.3138 -8.5475,-1.7935 -12.5838,-2.5105 -0.9836,0.132 -0.9836,0.132 -1.0854,0.2778 -0.2374,9.4191 -0.5088,18.8416 -0.5766,28.2438 0.6784,0.9499 4.9182,1.5788 6.0714,1.803 0.3053,0.207 1.2211,0.3192 1.6281,0.5161 3.0527,0.6114 6.9194,2.0915 10.1077,2.0111z"/>
  <path class="fil0" d="M114.638 39.22c1.221,-0.5965 4.6468,-1.4129 5.4609,-2.3081 3.324,-1.0097 6.2071,-3.1287 9.4632,-4.3691 0,-0.1357 0,-0.2714 -0.0339,-0.4037 -1.2889,-0.1089 -1.2889,-0.1089 -1.6959,-0.2379 0,-0.6445 0.4409,-1.0615 0.7801,-1.5702 0.1357,-0.8615 0.0339,-2.7169 1.0854,-2.8217 0.9837,1.3604 3.7989,1.419 5.2574,1.8841 0,0.1357 0,0.3053 0,0.4749 -0.2374,0.2611 -0.3392,0.4747 -0.407,0.8207 0.8479,-0.1524 2.1368,-0.5861 2.8491,-1.132 0.8141,-0.2168 1.9334,-0.6676 2.6118,-1.1761 1.5941,-0.566 3.731,-1.6948 5.0199,-2.8069 0.0339,-0.1391 0.0339,-0.2408 0.0339,-0.3426 -1.1532,0.115 -2.3743,0.542 -3.5275,0.5552 0.0678,-1.16 0.2035,-1.5806 0.2035,-3.6835 -0.2374,-0.3834 -0.2374,-0.3834 -0.4749,-1.4112 -1.0514,-1.7946 -2.1029,-2.8769 -3.6632,-4.1799 -2.1707,-1.0725 -2.1707,-1.0725 -2.3064,-1.2286 -0.7801,-0.0918 -1.1193,-0.058 -1.1193,-0.8381 0.2035,-0.1221 0.3731,-0.2407 0.5427,-0.3594 0,-0.2035 0,-0.3731 0,-0.5427 -1.7638,-0.1973 -13.2283,-1.1913 -9.8025,2.8766 1.0176,-0.1353 2.0012,-0.2673 2.9848,-0.3993 0.1018,0.5326 -0.9497,1.5532 -1.2889,1.9601 -0.3392,1.3227 -0.4748,2.2181 -0.4748,3.5749 -0.1696,0.0169 -0.3392,0.0677 -0.5088,0.1185 -0.7462,-1.1466 -2.0351,-1.934 -3.1205,-2.7416 -2.8831,-1.3067 -2.8831,-1.3067 -3.0527,-1.5273 0.6445,-0.7087 2.4761,-0.9252 3.3919,-1.1521 0,-0.1018 0,-0.2035 0,-0.2714 -1.0515,-0.6414 -2.7135,-0.6453 -3.9346,-0.8627 -4.8503,-0.0253 -10.0738,-0.3526 -14.8224,1.4775 -0.2713,0.3324 -0.2713,0.3324 -0.6444,0.4713 -0.034,1.4958 0.7123,2.4051 2.2047,1.5101 2.2047,-0.4233 4.3755,-0.8771 6.5802,-1.0291 0,0.3053 0,0.3053 -0.2375,0.6681 -4.6807,3.9942 0.1018,11.3865 2.9509,14.0195 0.2375,0.0781 0.3392,0.3054 3.0527,1.8326 0.9497,0.1766 1.0515,0.0987 0.9497,1.0585 -1.4585,0.5524 -5.0199,2.5695 -5.3252,4.1262 0.3392,-0.0338 0.6784,-0.0337 1.0176,-0.0336z"/>
  <path class="fil11" d="M63.5561 40.2419c0.4749,-0.2508 0.4749,-0.2508 0.6106,-0.5018 0.407,-3.5681 0.4748,-7.3398 0.4748,-10.9013 -0.5766,-1.1296 -3.731,-0.9848 -4.9521,-1.3718 -2.3743,-0.2382 -5.5965,-1.5451 -8.0047,-1.0676 -0.034,3.8701 -0.3053,7.8656 -0.034,11.6714 4.9861,0.9954 5.8001,1.016 6.2411,1.2094 1.8316,0.2584 3.9345,0.3879 5.6643,0.9617z"/>
  <path class="fil4" d="M122.914 33.3072c0.9158,-0.5322 3.2562,-0.5959 3.6293,-2.0238 1.4924,-0.8949 0.9836,-3.6595 0.7123,-4.8874 -2.5778,-4.9326 -7.2247,-9.1162 -13.4657,-7.7139 -1.7298,1.3596 -2.3404,2.1667 -2.3404,4.3714 0.1357,0.2917 0.2375,0.5868 0.3392,0.8819 0.1696,-0.0169 0.3053,-0.0304 0.441,-0.0439 2.7134,-3.1197 6.0375,-1.0089 8.2422,0.8743 1.7637,2.3002 2.7474,5.7975 -0.6784,7.6654 -0.2035,0.2916 -0.2035,0.2916 -0.2035,0.6986 1.1193,0.058 2.2386,0.1161 3.324,0.1774z"/>
  <path class="fil11" d="M50.6671 37.7957c0.1018,-3.809 0.2035,-7.618 0.2713,-11.3897 -0.9497,-0.0071 -0.9497,-0.0071 -5.1556,0.6157 -0.6783,0.2033 -6.5463,0.9917 -7.8352,1.2559 -0.1356,0.1153 -7.0889,1.0458 -8.6492,1.4049 -3.4936,0.4839 -6.9194,0.9611 -10.3451,1.7435 -0.034,0.1391 -0.0679,0.2781 -0.1018,0.4172 1.0515,0.1326 1.4585,0.3295 6.2749,1.1043 0.3053,0.1731 1.5942,0.282 2.0012,0.4789 6.9194,0.667 13.6014,3.1553 20.5207,3.8223 0.9159,0.4175 2.0012,0.5467 3.0188,0.547z"/>
  <path class="fil4" d="M136.922 27.7388c2.5439,-1.5085 3.6971,-2.4715 3.4936,-5.436 -1.4246,-4.5388 -6.0036,-7.4063 -10.8879,-5.6305 -2.2386,1.9191 -2.1368,2.9943 -2.1368,5.64 0.1356,0.2917 0.4748,0.1561 0.7801,0.1257 1.7298,-6.0064 11.4305,-0.4611 6.7837,4.649 0.0339,0.234 0.0678,0.502 0.1017,0.77 0.6445,-0.0643 1.255,-0.0912 1.8656,-0.1182z"/>
  <path class="fil4" d="M114.536 26.3411c2.2047,-1.9835 -1.6281,-3.3652 -1.6281,-0.6856 0.1357,0.19 0.2714,0.4139 0.3731,0.6411 0.441,-0.01 0.848,0.0173 1.255,0.0445z"/>
  <path class="fil4" d="M129.562 23.6222c2.3743,-1.4238 -1.1193,-3.1446 -0.814,-0.4276 0.2713,0.1425 0.5427,0.2851 0.814,0.4276z"/>
  <path class="fil7" d="M64.5737 27.7263c0.3731,-0.8173 0.7801,-1.5702 0.0678,-2.2115 -2.8491,-0.3604 -5.7322,-1.0567 -8.6492,-1.2068 -1.0515,-0.1665 -2.1029,-0.3331 -3.1544,-0.4657 -5.02,0.5004 -10.0399,1.34 -15.0598,1.9422 -7.8352,1.5951 -15.84,2.427 -23.7091,3.9576 -0.2035,0.3934 -0.2035,0.3934 -0.2035,0.6987 1.1871,0.2208 1.5263,0.4245 2.2047,0.4586 11.7697,-1.3768 23.6073,-3.6422 35.377,-5.3243 0.407,0.163 1.7977,0.2618 2.3065,0.4145 3.6293,0.2827 7.2586,1.2777 10.82,1.7367z"/>
  <path class="fil12" d="M81.4962 64.2546l0 6.2771 -0.9822 -0.0957 -0.6722 -1.7199c-0.7152,1.158 -1.8202,1.6673 -3.3181,1.5214 -1.6729,-0.1631 -2.9222,-0.9232 -3.7479,-2.2745 -0.8226,-1.3509 -1.237,-2.8615 -1.237,-4.5344 0,-1.768 0.4605,-3.221 1.3813,-4.356 0.9208,-1.1381 2.207,-1.6266 3.8614,-1.4654 1.237,0.1205 2.253,0.5786 3.051,1.3747 0.795,0.7927 1.2984,1.7318 1.5102,2.8207l-1.9245 0.1531c-0.3592,-1.5329 -1.2217,-2.3659 -2.5815,-2.4984 -0.8686,-0.0847 -1.5777,0.1992 -2.1271,0.8548 -0.5494,0.6524 -0.8226,1.7154 -0.8226,3.1826 0,3.1002 0.973,4.7451 2.9129,4.9342 0.7551,0.0736 1.3813,-0.1263 1.8755,-0.6 0.4941,-0.4737 0.7428,-1.1401 0.7428,-1.9965l-2.5354 -0.247 0 -1.7803 4.6134 0.4495z"/>
  <path class="fil12" d="M88.5284 71.4073c-1.6299,-0.1588 -2.9007,-0.8966 -3.8092,-2.2067 -0.9086,-1.3133 -1.3598,-2.8674 -1.3598,-4.6661 0,-1.7865 0.4819,-3.2343 1.4457,-4.3406 0.9669,-1.109 2.2407,-1.5865 3.8215,-1.4324 1.5961,0.1555 2.8546,0.8798 3.7816,2.1733 0.927,1.2905 1.3905,2.8397 1.3905,4.6446 0,1.8938 -0.4819,3.3785 -1.4427,4.4513 -0.9638,1.0725 -2.2376,1.5316 -3.8276,1.3766zm0.0184 -1.7816c0.7981,0.0778 1.4703,-0.1851 2.0228,-0.7912 0.5525,-0.6061 0.8287,-1.7732 0.8287,-3.5074 0,-1.4089 -0.2302,-2.5364 -0.6844,-3.3787 -0.4543,-0.8454 -1.1634,-1.3135 -2.1211,-1.4068 -1.8969,-0.1849 -2.8423,1.2485 -2.8423,4.2995 0,1.4795 0.2394,2.6262 0.7244,3.4378 0.4819,0.8113 1.1726,1.2592 2.0719,1.3468z"/>
  <path class="fil12" d="M98.4366 59.9078l-0.9085 8.4629 -0.9332 -0.0909 -0.8656 -8.6359 2.7073 0.2639zm-0.2793 10.0007l0 2.2468 -2.2376 -0.218 0 -2.2468 2.2376 0.218z"/>
 </g>
</svg>
