<?xml version="1.0" encoding="UTF-8"?>
<!DOCTYPE svg PUBLIC "-//W3C//DTD SVG 1.1//EN" "http://www.w3.org/Graphics/SVG/1.1/DTD/svg11.dtd">
<!-- Creator: CorelDRAW -->
<svg xmlns="http://www.w3.org/2000/svg" xml:space="preserve" width="100mm" height="100mm" style="shape-rendering:geometricPrecision; text-rendering:geometricPrecision; image-rendering:optimizeQuality; fill-rule:evenodd; clip-rule:evenodd"
viewBox="0 0 100 100">
 <defs>
  <style type="text/css">
   <![CDATA[
    .str1 {stroke:white;stroke-width:0.7056}
    .str0 {stroke:#0A0B0C;stroke-width:1.4111}
    .fil4 {fill:#1F1A17}
    .fil2 {fill:#F5E326}
    .fil3 {fill:#F5E85C}
    .fil0 {fill:#F7D417}
    .fil1 {fill:#F7DB17}
   ]]>
  </style>
 </defs>
 <g id="Capa_x0020_1">
  <metadata id="CorelCorpID_0Corel-Layer"/>
  <ellipse class="fil0 str0" cx="50.2054" cy="49.7432" rx="46.953" ry="46.9531"/>
  <ellipse class="fil1" cx="50.2053" cy="49.7431" rx="36.645" ry="36.645"/>
  <ellipse class="fil2" cx="50.2055" cy="49.7432" rx="22.6193" ry="22.6194"/>
  <ellipse class="fil3" cx="50.2055" cy="49.7432" rx="17.6085" ry="17.6085"/>
  <g id="_291005944">
   <path id="_292161216" class="fil4 str1" d="M50.5621 7.3687c2.2031,-0.0732 4.3481,-0.0108 6.2879,0.5309l-2.8139 10.2936c1.7579,2.9089 4.7521,4.3163 8.9831,4.2223l20.8666 -1.8145 -10.9776 14.8788c-8.7493,1.6022 -15.2364,1.2655 -18.417,-1.9052l-3.9669 9.3453 -3.8912 -9.3453c-3.1806,3.1707 -9.6677,3.5074 -18.417,1.9052l-10.9777 -14.8788 20.8666 1.8145c4.231,0.094 7.2253,-1.3134 8.9831,-4.2223l-2.8138 -10.2936c1.9397,-0.5417 4.0846,-0.6041 6.2878,-0.5309z"/>
   <path id="_292168128" class="fil4 str1" d="M13.6398 69.791c1.0307,1.9486 2.1501,3.7794 3.5837,5.1939l7.5369 -7.5545c3.3978,0.081 6.1064,1.9809 8.1261,5.6999l8.7885 19.0123 7.462 -16.9175c-2.9546,-8.3898 -6.4687,-13.853 -10.8004,-15.0389l6.1412 -8.0844 -10.0439 1.264c1.1724,-4.3354 -1.7571,-10.1331 -7.4931,-16.9313l-18.3661 -2.1386 11.9382 17.21c2.183,3.6256 2.4485,6.9235 0.7968,9.8939l-10.3319 2.67c0.4932,1.9527 1.5043,3.8454 2.662,5.7212z"/>
   <path id="_291026008" class="fil4 str1" d="M86.7714 69.791c-1.0306,1.9486 -2.1501,3.7794 -3.5837,5.1939l-7.5368 -7.5545c-3.3978,0.081 -6.1065,1.9809 -8.1262,5.6999l-8.7884 19.0123 -7.4621 -16.9175c2.9547,-8.3898 6.4687,-13.853 10.8004,-15.0389l-6.1412 -8.0844 10.0439 1.264c-1.1724,-4.3354 1.7571,-10.1331 7.4931,-16.9313l18.3661 -2.1386 -11.9382 17.21c-2.183,3.6256 -2.4485,6.9235 -0.7967,9.8939l10.3318 2.67c-0.4932,1.9527 -1.5043,3.8454 -2.662,5.7212z"/>
  </g>
 </g>
</svg>
