<?xml version="1.0" encoding="UTF-8"?>
<!DOCTYPE svg PUBLIC "-//W3C//DTD SVG 1.1//EN" "http://www.w3.org/Graphics/SVG/1.1/DTD/svg11.dtd">
<!-- Creator: CorelDRAW -->
<svg xmlns="http://www.w3.org/2000/svg" xml:space="preserve" width="100mm" height="44mm" style="shape-rendering:geometricPrecision; text-rendering:geometricPrecision; image-rendering:optimizeQuality; fill-rule:evenodd; clip-rule:evenodd"
viewBox="0 0 100 44">
 <defs>
  <style type="text/css">
   <![CDATA[
    .str0 {stroke:#FFE817;stroke-width:0.0762}
    .str1 {stroke:white;stroke-width:0.7056}
    .fil1 {fill:#1F1A17}
    .fil0 {fill:#FFE817}
    .fil2 {fill:#1F1A17;fill-rule:nonzero}
   ]]>
  </style>
 </defs>
 <g id="Capa_x0020_1">
  <metadata id="CorelCorpID_0Corel-Layer"/>
  <rect class="fil0 str0" x="2.2454" y="1.5174" width="95.1045" height="40.8747" rx="14.9739" ry="14.9739"/>
  <path class="fil1 str1" d="M65.0514 26.1058c0.651,1.2308 1.3581,2.3872 2.2636,3.2807l4.7605 -4.7718c2.1462,0.0512 3.8571,1.2513 5.1328,3.6003l5.5511 12.0089 4.7133 -10.6858c-1.8663,-5.2992 -4.0859,-8.75 -6.8219,-9.499l3.879 -5.1064 -6.3441 0.7983c0.7405,-2.7383 -1.1099,-6.4003 -4.7329,-10.6944l-11.6007 -1.3507 7.5406 10.8704c1.3788,2.2901 1.5465,4.3731 0.5032,6.2493l-6.5259 1.6865c0.3115,1.2334 0.9501,2.4288 1.6814,3.6137z"/>
  <path class="fil2" d="M17.5654 29.7994c-1.2668,0 -2.379,-0.2346 -3.3408,-0.7073 -0.9619,-0.4727 -1.7048,-1.1438 -2.2329,-2.0098 -0.5282,-0.866 -0.7944,-1.8728 -0.7944,-3.013l0 -4.2182c0,-1.1402 0.2662,-2.147 0.7944,-3.013 0.5281,-0.866 1.271,-1.5371 2.2329,-2.0135 0.9618,-0.4763 2.074,-0.7144 3.3408,-0.7144 1.0477,0 2.0138,0.1912 2.8941,0.5665 0.8803,0.3789 1.6146,0.9093 2.2071,1.6021 0.5927,0.6892 0.992,1.4903 1.2024,2.3996l0 0 -2.6323 0 0 0c-0.1589,-0.4799 -0.4251,-0.9093 -0.7986,-1.2846 -0.3737,-0.3789 -0.8116,-0.6675 -1.314,-0.8732 -0.5025,-0.2021 -1.022,-0.3067 -1.5587,-0.3067 -0.7473,0 -1.3999,0.1515 -1.9624,0.4546 -0.5625,0.3031 -1.0006,0.7289 -1.3097,1.2738 -0.3092,0.5484 -0.4638,1.1835 -0.4638,1.9088l0 4.2182c0,0.718 0.1546,1.3531 0.4638,1.9016 0.3091,0.5521 0.7472,0.9743 1.3097,1.2737 0.5625,0.2995 1.2151,0.4511 1.9624,0.4511 0.5452,0 1.0649,-0.0938 1.5672,-0.2851 0.4982,-0.1912 0.9318,-0.4727 1.3055,-0.8479 0.3735,-0.3717 0.6397,-0.8155 0.7986,-1.3315l0 0 2.6323 0 0 0c-0.2104,0.9093 -0.614,1.7103 -1.2109,2.3995 -0.5927,0.6928 -1.3312,1.2269 -2.2115,1.6022 -0.8802,0.3788 -1.8421,0.5665 -2.8812,0.5665z"/>
  <path class="fil2" d="M32.5 14.269l2.1857 0 6.7459 15.3716 -2.7697 0 -5.0712 -12.402 -5.0669 12.402 -2.7697 0 6.7459 -15.3716zm-3.6371 9.9482l9.623 0 0 2.0496 -9.623 0 0 -2.0496z"/>
  <polygon class="fil2" points="51.9605,14.269 53.7212,14.269 57.4699,26.3209 60.7033,14.269 63.3699,14.269 58.9041,29.6406 56.289,29.6406 52.9181,18.8985 49.3927,29.6406 46.7776,29.6406 42.3118,14.269 44.9784,14.269 48.2118,26.3209 "/>
 </g>
</svg>
