<?xml version="1.0" encoding="UTF-8"?>
<!DOCTYPE svg PUBLIC "-//W3C//DTD SVG 1.1//EN" "http://www.w3.org/Graphics/SVG/1.1/DTD/svg11.dtd">
<!-- Creator: CorelDRAW -->
<svg xmlns="http://www.w3.org/2000/svg" xml:space="preserve" width="100mm" height="103mm" style="shape-rendering:geometricPrecision; text-rendering:geometricPrecision; image-rendering:optimizeQuality; fill-rule:evenodd; clip-rule:evenodd"
viewBox="0 0 100 103">
 <defs>
  <style type="text/css">
   <![CDATA[
    .str1 {stroke:white;stroke-width:0.7056}
    .str0 {stroke:#0A0B0C;stroke-width:2.8222}
    .fil4 {fill:#0A0B0C}
    .fil2 {fill:#F5E326}
    .fil3 {fill:#F5E85C}
    .fil0 {fill:#F7D417}
    .fil1 {fill:#F7DB17}
   ]]>
  </style>
 </defs>
 <g id="Capa_x0020_1">
  <metadata id="CorelCorpID_0Corel-Layer"/>
  <ellipse class="fil0 str0" cx="50.3158" cy="57.4252" rx="31.7051" ry="31.7052"/>
  <ellipse class="fil1" cx="50.3157" cy="57.4252" rx="24.7446" ry="24.7446"/>
  <ellipse class="fil2" cx="50.3158" cy="57.4251" rx="15.2737" ry="15.2737"/>
  <ellipse class="fil3" cx="50.3157" cy="57.4252" rx="11.8901" ry="11.8902"/>
  <g id="_292176000">
   <g>
    <path id="_292170864" class="fil4 str1" d="M5.8938 24.9097c0.8583,-1.6228 1.7906,-3.1475 2.9845,-4.3255l6.2767 6.2914c2.8297,-0.0675 5.0855,-1.6497 6.7675,-4.7469l7.319 -15.8335 6.2144 14.089c-2.4607,6.987 -5.3872,11.5367 -8.9946,12.5244l5.1144 6.7326 -8.3645 -1.0526c0.9763,3.6105 -1.4634,8.4388 -6.2403,14.1004l-15.2953 1.781 9.9422 -14.3325c1.8179,-3.0194 2.039,-5.7659 0.6635,-8.2397l-8.6044 -2.2235c0.4107,-1.6262 1.2528,-3.2024 2.2169,-4.7646z"/>
    <path id="_292168200" class="fil4 str1" d="M94.7378 24.9097c-0.8583,-1.6228 -1.7906,-3.1475 -2.9845,-4.3255l-6.2767 6.2914c-2.8297,-0.0675 -5.0855,-1.6497 -6.7675,-4.7469l-7.319 -15.8335 -6.2144 14.089c2.4607,6.987 5.3872,11.5367 8.9946,12.5244l-5.1144 6.7326 8.3645 -1.0526c-0.9763,3.6105 1.4634,8.4388 6.2403,14.1004l15.2953 1.781 -9.9422 -14.3325c-1.8179,-3.0194 -2.039,-5.7659 -0.6635,-8.2397l8.6044 -2.2235c-0.4107,-1.6262 -1.2528,-3.2024 -2.2169,-4.7646z"/>
   </g>
   <path id="_291001672" class="fil4 str1" d="M50.3158 84.2369c1.8347,0.061 3.6211,0.009 5.2365,-0.4421l-2.3434 -8.5725c1.464,-2.4225 3.9576,-3.5946 7.4812,-3.5163l17.3777 1.5111 -9.1422 -12.391c-7.2864,-1.3344 -12.6889,-1.0539 -15.3377,1.5866l-3.3036 -7.7828 -3.2406 7.7828c-2.6488,-2.6405 -8.0512,-2.921 -15.3377,-1.5866l-9.1421 12.391 17.3776 -1.5111c3.5236,-0.0783 6.0172,1.0938 7.4812,3.5163l-2.3434 8.5725c1.6154,0.4511 3.4017,0.5031 5.2365,0.4421z"/>
  </g>
 </g>
</svg>
